<?xml version="1.0" encoding="utf-8"?>
<!-- Generator: Adobe Illustrator 24.0.2, SVG Export Plug-In . SVG Version: 6.00 Build 0)  -->
<svg version="1.1" id="Layer_1" xmlns="http://www.w3.org/2000/svg" xmlns:xlink="http://www.w3.org/1999/xlink" x="0px" y="0px"
	 viewBox="0 0 907.09 425.2" enable-background="new 0 0 907.09 425.2" xml:space="preserve">
<path fill="#B3B2B9" d="M414.08,113.05c-0.29-8.25,1.35-10.6,7.86-11.2c4.28,2.78,9.93,3.61,12.52,8.83c0.14,0.29,0.9,0.27,1.37,0.4
	c0.37,1.49-0.21,2.75-0.95,3.97c-1.63-2.2-5.55-1.51-6.26-5.01c-0.14-0.7-1.24-0.17-1.67,0.22c-1.3,1.19-2.91,2.16-2.94,4.28
	c-0.02,1.41,0.31,3.14-1.84,3.42c-1.99,0.26-3.53-0.2-4.2-2.41C417.4,113.71,415.74,113.31,414.08,113.05z"/>
<path fill="#BEBEC4" d="M414.08,113.05c1.66,0.26,3.33,0.66,3.88,2.5c0.67,2.21,2.21,2.67,4.2,2.41c2.16-0.28,1.82-2.02,1.84-3.42
	c0.03-2.12,1.65-3.09,2.94-4.28c0.43-0.39,1.53-0.92,1.67-0.22c0.71,3.5,4.63,2.8,6.26,5.01c0.58,3.69-1.82,5.45-4.56,6.96
	c-4.09,2.26-8.29,2.39-12-0.5C415.73,119.48,412.76,117.23,414.08,113.05z"/>
<path fill="#BEBEC4" d="M435.83,111.07c-0.47-0.13-1.22-0.11-1.37-0.4c-2.59-5.22-8.24-6.05-12.52-8.83
	C429.27,99.19,435.13,102.24,435.83,111.07z"/>
</svg>
