<?xml version="1.0" encoding="utf-8"?>
<!-- Generator: Adobe Illustrator 24.0.2, SVG Export Plug-In . SVG Version: 6.00 Build 0)  -->
<svg version="1.1" id="Layer_1" xmlns="http://www.w3.org/2000/svg" xmlns:xlink="http://www.w3.org/1999/xlink" x="0px" y="0px"
	 viewBox="0 0 907.09 425.2" enable-background="new 0 0 907.09 425.2" xml:space="preserve">
<path fill="#251F60" d="M-1.67,427.75c0-88.46,0-176.92,0-265.37c1.75-1.49,3.42-3.09,5.26-4.45c7.38-5.47,7.49-5.54,14.2,0.87
	c2.01,1.92,3.58,1.94,4.76-0.26c4.42-8.24,14.77-10.57,18.77-19.24c1.07-2.31,2.69-2.4,4.48-0.1c2.56,3.29,5.65,6.16,8.23,9.44
	c2.46,3.13,4.52,2.63,7.35,0.42c7.15-5.59,7.24-5.47,13.51,0.87c0.35,0.36,0.69,0.72,1.02,1.1c1.48,1.73,3.32,2.19,4.49,0.06
	c4.97-9.07,16.14-11.97,20.84-21.32c1.53-3.05,3.42-2.7,5.42,0.02c3.92,5.33,8.61,9.97,13.48,14.39c5.56-5.68,12.69-9.3,17.25-16.78
	c1.57,5.75,6.34,8.09,8.66,12.67c3.07,6.08,4.37,5.71,8.59,0.23c0.92-1.19,1.74-2.47,2.78-3.53c1.08-1.1,2.34-1.42,3.15,0.36
	c2.83,6.16,8.51,9.75,12.79,14.6c2.61,2.95,3.94,2.04,6.01-0.39c2.51-2.96,4.64-6.33,7.93-8.75c1.34,7.56,6.98,11.86,11.31,17.05
	c1.36,1.63,2.11,0.33,3.22-0.37c4.98-3.15,8.93-7.53,12.87-11.73c5.87-6.26,13.86-9.73,19.58-16.14
	c4.49-5.04,10.78-8.21,14.93-14.55c1.47,5.35,5.79,7.51,7.88,11.62c2.7,5.32,3.79,5.01,7.6,0.27c0.73-0.91,1.37-1.9,2.11-2.8
	c1.29-1.56,2.57-2.17,3.73,0.17c2.53,5.09,7.22,8.25,10.9,12.32c2.46,2.72,4.06,3.28,6.35-0.1c1.84-2.72,4.25-5.05,6.76-7.94
	c1.55,6.63,6.06,10.53,9.75,15.02c1.67,2.03,2.49,1.37,4.25,0.09c5.54-4.02,9.83-9.41,15.32-13.51c2.75-2.05,4.2-2.1,6.62,0.2
	c6.45,6.13,6.55,6.02,12.32-0.63c0.11-0.13,0.22-0.25,0.32-0.39c4.15-6.14,12.5-7.96,15.54-15.38c0.91-2.21,2.38-0.62,3.37,0.57
	c1.61,1.92,3.33,3.76,4.83,5.76c1.94,2.58,3.34,3.37,4.94-0.4c2.09-4.91,4.53-9.66,6.94-14.42c4.38-8.65,7.84-17.77,13.24-26.86
	c4.52,9.73,9.52,18.28,13.03,27.43c2.35-0.71,2.57-3.42,5.04-3.8c3.62,8.04,7.22,16.04,10.86,24.13c2.58-1.51,2.34-5.89,5.95-4.98
	c2.7,0.68,3.55-0.91,4.66-2.6c5.13-7.82,10.22-15.67,15.45-23.42c2.82-4.18,4.98-8.88,9.16-12.68c4.85,7.41,9.51,14.49,14.12,21.61
	c0.76,1.17,1.25,3.55,2.98,1.58c4.57-5.22,5.56-0.34,7.49,2.34c2.71,3.75,3.94,9.15,8.18,11.05c3.91,1.75,6.49,4.37,9.15,7.29
	c6.06,6.66,6.18,6.79,12.63,0.59c2.47-2.37,3.9-2.1,6.6-0.22c5.23,3.65,9.02,8.89,14.43,12.28c1.05,0.66,1.91,1.72,2.86,0.32
	c3.4-5,9.65-6.59,13.29-11.17c5.46-6.87,13.36-11.25,18.46-19.53c1.51,5.56,5.87,8.07,7.97,12.51c2.76,5.83,4.07,5.51,8-0.04
	c0.58-0.82,1.08-1.69,1.69-2.49c1.42-1.88,2.67-2.41,3.94,0.26c3.17,6.68,9.23,10.86,14.09,16.55c3.34-4.08,6.48-7.93,9.89-12.1
	c0.39,1.51,0.58,2.58,0.95,3.6c1.76,4.93,2.63,5.32,5.98,1.26c5.88-7.13,14.06-11.91,19.37-20.25c1.77,5.4,5.96,8.37,8.29,12.81
	c2.78,5.3,3.66,4.98,7.4-0.13c0.69-0.94,1.25-1.99,1.99-2.88c1.43-1.72,2.59-2.45,3.9,0.38c2.81,6.06,8.34,9.93,12.54,14.88
	c1.55,1.83,2.44,0.74,3.45-0.54c2.55-3.25,5.13-6.47,7.61-9.59c1.85,0.91,0.28,5.15,2.85,3.29c2.9-2.11,3.57-0.57,4.99,1.09
	c2.28,2.67,4.49,5.41,7.01,7.84c3.32,3.2,6.44,6.38,6.1,11.48c-0.09,1.27,0.71,1.63,1.68,2.1c4.13,1.98,8.14,3.99,11.27-1.6
	c0.61-1.09,1.92-1.83,2.99-2.62c7.48-5.54,7.5-5.53,14.37,0.85c1.25,1.16,2.73,2.75,3.98,0.5c4.63-8.26,14.7-11.08,19.11-19.55
	c1.36-2.62,3.13-3.02,5.17-0.19c1.95,2.7,4.23,5.19,6.56,7.56c6.61,6.72,6.77,6.81,13.49,0.44c2.63-2.49,4.17-2.1,6.99-0.14
	c5.1,3.55,8.73,8.74,14.06,11.95c0.98,0.59,1.77,1.93,2.87,0.51c4.67-5.98,12.19-8.61,16.83-14.74c4.31-5.69,10.99-9.08,14.85-15.59
	c1.79,2.46,2.04,5.2,4.34,6.24c2.6,1.17,2.2,3.92,3.44,5.8c3.71,5.61,4.38,5.63,8.47-0.2c0.57-0.82,1.07-1.71,1.7-2.47
	c1.26-1.51,2.5-2.42,3.66,0.17c2.7,5.97,7.99,9.79,12.09,14.59c1.92,2.25,3.01,1.52,4.43-0.37c2.39-3.17,4.91-6.25,7.21-9.17
	c4.28,10.14,10.93,18.01,19.12,24.65c0.94,0.77,2.49,0.79,3.76,1.15c0.05,1.84,0.15,3.68,0.15,5.52
	c0.01,85.93-0.05,171.85,0.15,257.78c0.01,5.33-1.59,6.1-6.36,6.1C599.9,427.74,299.12,427.75-1.67,427.75z"/>
<path fill="#C7C6D6" d="M906.74,158.46c0.39-0.03,0.77-0.07,1.16-0.1c0,88.79-0.03,177.59,0.1,266.38c0,3.44-0.67,4.12-4.1,4.12
	c-300.52-0.1-601.04-0.09-901.56-0.15c-1.3,0-3.11,1.13-4.01-0.95c300.79,0,601.57-0.01,902.36,0.1c4.77,0,6.37-0.76,6.36-6.1
	c-0.2-85.93-0.14-171.85-0.15-257.78C906.89,162.14,906.8,160.3,906.74,158.46z"/>
</svg>
