<?xml version="1.0" encoding="utf-8"?>
<!-- Generator: Adobe Illustrator 24.0.2, SVG Export Plug-In . SVG Version: 6.00 Build 0)  -->
<svg version="1.1" id="Layer_1" xmlns="http://www.w3.org/2000/svg" xmlns:xlink="http://www.w3.org/1999/xlink" x="0px" y="0px"
	 viewBox="0 0 907.09 425.2" enable-background="new 0 0 907.09 425.2" xml:space="preserve">
<path fill="#1C174F" d="M-6,428.74c0-94.85,0-189.7,0-284.55c2.02-1.48,4.2-2.79,6.03-4.48c2.65-2.45,4.8-2.96,8.21-0.75
	c4.73,3.06,9.76,2.77,14.42-1.11c4.23-3.51,8.32-6.78,13.88-8.91c5.69-2.17,8.97-1.4,12.71,2.27c1.56,1.53,3.26,2.93,4.75,4.53
	c1.58,1.69,3.03,2.74,4.8,0.3c1.84-2.54,3.16-1.33,4.66,0.49c1.35,1.63,3.12,4.33,4.89,3.67c3.14-1.15,4.76,1.34,5.2,2.45
	c3.07,7.67,10.1,12.6,13.37,20.03c0.93,2.13,2.1,3.09,4.58,2.85c3.28-0.31,6.18,0.89,8.43,3.44c4.22,4.78,8.32,9.43,15.66,4.86
	c2.05-1.28,4.81-0.97,7.22,0.53c1.22,0.76,2.89,1.15,4.35,1.12c8.1-0.14,16.16,0.25,23.97,2.43c2.83,0.79,5.23,0.17,7.86-0.35
	c7.83-1.56,15.48-5.13,23.73-2.24c0.94,0.33,1.53-0.21,2.17-0.83c6.74-6.57,13.66-12.7,22.96-15.82c3.74-1.25,6.13-2.22,8.27,1.8
	c1.3,2.44,2.9,2.44,4.57,0.13c2.4-3.32,5.79-5.62,8.88-8.22c0.78-0.66,1.63-1.7,2.59-1.04c3.18,2.19,7.55,2.35,10.2,4.43
	c3.66,2.88,5.52,1.98,8.04-0.65c3.24-3.37,6.32-4.05,10.7-1.06c4.72,3.22,9.37,1.16,13.74-2.21c4.05-3.12,7.97-6.17,13.03-8.38
	c6.3-2.74,9.46-1.01,13.38,2.61c1.48,1.37,3.06,2.67,4.37,4.2c1.61,1.88,2.97,2.61,4.76,0.24c1.83-2.42,3.21-1.14,4.83,0.55
	c1.5,1.56,2.75,4.68,5.24,3.66c2.33-0.95,2.7,0.4,3.45,1.48c2.27,3.24,5.76,5.21,8.31,8.11c3.37,3.85,7.08,5.77,12.16,3.5
	c0.73-0.33,1.66-0.28,2.5-0.27c2.22,0.02,3.17-1.04,2.59-3.17c-0.86-3.2,0.82-3.64,3.47-3.85c2-0.16,4.96,0.69,5.75-1.78
	c0.69-2.15,1.86-2.05,3.33-2.04c3.56,0.03,7.08-0.34,10.42-1.52c4.03-1.43,9.05,0.61,12.22-2.02c4.79-3.97,10.08-6.48,15.61-9.02
	c3.78-1.74,6.09-2.03,8.19,1.85c1.3,2.41,2.88,2.41,4.56,0.16c2.44-3.28,5.71-5.69,8.89-8.19c0.78-0.61,1.6-1.76,2.56-1.07
	c3.31,2.38,7.82,2.45,10.74,4.7c3.04,2.34,4.42,1.98,6.76-0.26c3.34-3.19,6.52-5.63,11.56-1.76c2.88,2.21,6.85,2.23,10.85-0.29
	c5.32-3.36,9.3-8.26,16.02-10.32c5.59-1.72,8.93-1.66,12.67,2.24c1.4,1.45,3.1,2.63,4.42,4.14c1.78,2.03,3.27,3.38,5.46,0.41
	c1.3-1.77,2.76-1.31,4.1,0.34c1.45,1.78,3.26,4.84,5.1,4.22c3.68-1.23,4.48,1.61,5.72,3.19c1.13,1.44,2.52,2.38,3.68,3.57
	c4.78,4.88,11.3,8.27,13.69,15.32c0.83,2.45,2.54,1.5,4.04,0.57c3.47-2.14,7.23-3.58,11.06-4.9c0.97-0.34,2.08-1.12,2.75-0.19
	c2.25,3.14,6.58,4.7,8.13,7.48c2.65,4.74,5.19,3.25,8.3,1.88c3.86-1.7,6.73-1.55,9.78,2.18c2.57,3.15,6.17,5.27,11.19,3.39
	c6.84-2.56,13.81-4.88,21.46-4.54c2.45,0.11,3.92-0.04,5.26,2.21c0.62,1.04,1.72,4.17,3.37,1.91c3.42-4.71,9.29-4.1,13.3-7.09
	c3.17-2.37,5.15-1.34,7.13,1.31c0.95,1.27,1.47,2.38,3.84,2.09c5.65-0.68,11.4-0.7,17.06,0.73c4.81,1.22,9.46,2.17,14.71,0.93
	c7.54-1.78,15.15-5.15,23.21-2.25c1.01,0.36,1.55-0.22,2.15-0.81c6.73-6.64,13.78-12.64,23.03-15.82c3.66-1.26,6.12-2.29,8.27,1.76
	c1.25,2.36,2.82,2.54,4.57,0.2c2.44-3.27,5.74-5.67,8.89-8.2c0.79-0.63,1.65-1.72,2.6-1.07c3.17,2.21,7.57,2.31,10.2,4.42
	c3.69,2.97,5.53,2.02,8.1-0.68c3.03-3.2,5.95-4.22,10.31-1.25c3.24,2.21,7.3,2.87,11.53-0.29c5.15-3.85,9.71-8.45,16.45-10.52
	c4.71-1.45,7.67-1.51,10.97,1.73c1.56,1.53,3.42,2.77,4.88,4.38c2.06,2.27,3.83,4.7,6.44,0.59c0.42-0.66,1.66-1.05,2.27-0.36
	c2.73,3.08,7.09,4.18,9.68,6.46c4.59,4.05,9.89,7.64,13.61,12.73c0.98,1.35,2.1,2.92,4.11,1.51c7.51-5.25,15.24-0.38,22.78-0.09
	c3.29,0.13,6.58-1.4,9.77-0.11c7.45,3.03,14.87,3.75,22.28-0.1c0.09,2.19,0.25,4.38,0.25,6.56c0.01,84.36-0.04,168.73,0.13,253.09
	c0.01,5.09-1.02,6.62-6.44,6.61C602.44,428.72,298.22,428.74-6,428.74z"/>
<path fill="#C5C4D2" d="M912.71,162.6c0.43-0.06,0.85-0.12,1.28-0.19c0,87.76-0.03,175.52,0.1,263.28c0,3.47-0.68,4.15-4.15,4.15
	c-303.96-0.1-607.93-0.09-911.89-0.16c-1.31,0-3.14,1.14-4.05-0.95c304.22,0,608.44-0.02,912.66,0.13c5.41,0,6.45-1.52,6.44-6.61
	c-0.16-84.36-0.11-168.73-0.13-253.09C912.97,166.98,912.8,164.79,912.71,162.6z"/>
</svg>
