<?xml version="1.0" encoding="utf-8"?>
<!-- Generator: Adobe Illustrator 24.0.2, SVG Export Plug-In . SVG Version: 6.00 Build 0)  -->
<svg version="1.1" id="Layer_1" xmlns="http://www.w3.org/2000/svg" xmlns:xlink="http://www.w3.org/1999/xlink" x="0px" y="0px"
	 viewBox="0 0 907.09 425.2" enable-background="new 0 0 907.09 425.2" xml:space="preserve">
<path fill="#BF5149" d="M-6.3,430.74c0-89.17,0-178.34,0-267.5c1.75-1.56,3.39-3.26,5.26-4.66c7.51-5.63,7.59-5.65,14.48,0.82
	c1.67,1.57,3.23,2.37,4.44,0.11c4.45-8.33,14.77-10.83,19-19.4c1.42-2.88,3.41-2.47,5.34,0.07c2.14,2.82,4.83,5.22,6.91,8.07
	c3.02,4.15,5.73,3.69,9.39,0.64c6.22-5.19,6.38-5,12.18,0.98c0.59,0.61,1.18,1.21,1.72,1.86c1.63,1.96,3.37,1.73,4.49-0.26
	c5.09-9.09,16.38-12.04,21.12-21.52c1.52-3.05,3.42-2.15,5.32,0.2c4.17,5.18,8.5,10.26,13.63,14.41
	c5.94-5.36,12.52-9.64,17.63-16.61c1.79,5.82,6.43,8.38,8.84,12.89c3.09,5.77,4.18,5.41,8.35-0.02c0.82-1.07,1.52-2.26,2.45-3.22
	c1.35-1.38,2.81-2.01,3.92,0.34c3,6.32,8.89,10.05,13.41,15.01c2.01,2.21,3.1,1.44,4.68-0.33c2.83-3.15,5.13-6.82,8.77-9.53
	c1.51,7.65,7.05,12.11,11.56,17.27c0.86,0.98,1.57,0.83,2.52,0.01c2.43-2.07,5.41-3.67,7.38-6.09
	c8.36-10.31,20.32-16.42,29.61-25.73c3.58-3.58,7.22-7.61,11.75-10.83c1.11,3.37,3.99,4.96,5.55,7.33c1.73,2.65,2.86,6.78,5.59,7.3
	c3.32,0.64,4.29-4.03,6.49-6.19c1.56-1.54,2.76-1.78,3.88,0.43c2.58,5.11,7.22,8.39,11.01,12.44c2.4,2.56,3.97,2.91,6.16-0.11
	c2.03-2.79,4.47-5.28,6.9-8.12c2.19,6.02,5.4,10.53,9.85,15.1c1.73,1.78,2.73,1.67,4.42,0.09c3.91-3.66,7.8-7.4,12.06-10.63
	c7.13-5.4,7.35-5.34,13.72,0.88c2.17,2.12,3.48,1.98,5.26-0.2c2.45-3.01,5.13-5.83,7.61-8.82c2-2.41,5.58-1.87,7.57-4.68
	c5.79-8.19,6.04-8.16,12.23-0.75c2.62,3.14,3.88,3.69,5.9-0.7c6.18-13.44,12.82-26.66,19.76-40.94c5.14,9.71,9.73,18.58,13.64,27.88
	c4.98-4.38,4.96-4.37,7.61,1.65c2.75,6.24,5.56,12.45,8.38,18.78c2.43-1.78,2.57-5.49,5.53-4.86c3.22,0.69,4.15-1.28,5.44-3.22
	c3.26-4.92,6.43-9.91,9.83-14.73c4.84-6.86,8.67-14.42,14.6-21.38c5.03,7.59,9.98,14.77,14.57,22.17c1.4,2.26,2.3,2.61,3.97,0.66
	c2.28-2.67,3.84-1.91,5.2,0.91c0.73,1.51,1.56,3.05,2.67,4.29c2.68,2.99,3.19,8.07,7.23,9.4c4.05,1.34,6.42,4.11,8.96,6.98
	c5.99,6.77,6.08,6.88,12.77,0.71c2.44-2.25,3.85-2.14,6.7-0.23c5.36,3.61,9.07,9.06,14.67,12.3c1.09,0.63,1.94,1.62,2.93,0.32
	c4.55-5.97,12.03-8.49,16.63-14.55c4.39-5.77,11.18-9.27,15.48-16.39c1.76,5.79,6.09,8.44,8.23,12.93c2.66,5.59,3.74,5.28,7.72-0.2
	c0.6-0.82,1.09-1.71,1.71-2.5c1.42-1.79,2.94-2.54,4.14,0.13c2.65,5.9,7.95,9.55,11.94,14.3c1.74,2.07,2.95,2.05,4.55-0.09
	c2.39-3.21,4.97-6.3,7.72-9.76c0.34,1.02,0.5,1.45,0.62,1.9c2,6.97,2.93,7.41,7.42,2.04c5.67-6.78,13.54-11.27,18.7-19.57
	c1.5,5.77,6.1,8.23,8.14,12.83c2.49,5.61,3.8,5.29,7.72-0.06c0.7-0.95,1.26-2.02,2.05-2.87c1.36-1.47,2.72-2.07,3.82,0.37
	c2.65,5.87,7.87,9.6,11.92,14.32c2.12,2.47,3.35,1.77,4.95-0.4c2.28-3.09,4.74-6.04,7.02-8.93c2.02,0.72,0.72,4.77,2.66,3.29
	c3.9-2.97,4.53,0.58,6.13,2.17c2.38,2.38,4.44,5.1,6.88,7.42c3.14,3,5.85,6.11,5.66,10.79c-0.06,1.42,0.66,1.95,1.9,2.51
	c4.09,1.85,7.99,3.84,10.99-1.73c0.66-1.23,2.24-2,3.46-2.9c7.28-5.37,7.33-5.41,14.19,0.99c1.65,1.54,3.25,2.39,4.48,0.11
	c4.5-8.29,14.75-10.88,19.02-19.42c1.21-2.41,3.01-2.67,5.01-0.2c2.87,3.53,6.05,6.8,9.16,10.12c0.9,0.95,1.8,1.88,3.12,2.48
	c3.75,1.7,5.04-1.5,6.96-3.31c2.72-2.58,4.66-4.2,8.69-0.91c4.56,3.72,8.27,8.44,13.4,11.45c1.07,0.63,2.17,2.37,3.38,0.69
	c3.92-5.49,10.87-7.33,14.91-12.66c4.94-6.52,12.58-10.35,17.49-18.66c0.72,5.84,5.74,7.2,6.92,11.48c0.66,2.39,2.3,5.2,4.55,5.62
	c2.44,0.45,3.15-2.99,4.71-4.65c0.57-0.61,0.92-1.42,1.48-2.05c1.34-1.53,2.79-2.17,3.87,0.19c2.6,5.71,7.62,9.38,11.54,13.98
	c2.37,2.79,3.78,2.22,5.63-0.43c2.1-3,4.54-5.77,7.01-8.86c3.29,10.33,10.51,17.13,17.48,24.1c1.5,1.5,3.46,2.02,5.47,2.4
	c0.03,2.02,0.09,4.05,0.09,6.07c0,86.1,0.02,172.2-0.02,258.3c0,8.21,1.09,7.1-7.37,7.11C601.83,430.74,297.77,430.74-6.3,430.74z"
	/>
<path fill="#EED2D0" d="M913.19,159.24c0.37-0.02,0.74-0.04,1.11-0.06c0,89.51-0.03,179.01,0.1,268.52c0,3.47-0.68,4.15-4.15,4.15
	c-304.16-0.1-608.32-0.09-912.48-0.16c-1.31,0-3.14,1.14-4.06-0.95c304.06,0,608.12,0,912.19-0.02c8.47,0,7.37,1.1,7.37-7.11
	c0.03-86.1,0.02-172.2,0.02-258.3C913.28,163.29,913.22,161.26,913.19,159.24z"/>
</svg>
