<?xml version="1.0" encoding="utf-8"?>
<!-- Generator: Adobe Illustrator 24.0.2, SVG Export Plug-In . SVG Version: 6.00 Build 0)  -->
<svg version="1.1" id="Layer_1" xmlns="http://www.w3.org/2000/svg" xmlns:xlink="http://www.w3.org/1999/xlink" x="0px" y="0px"
	 viewBox="0 0 907.09 425.2" enable-background="new 0 0 907.09 425.2" xml:space="preserve">
<path fill="#A44546" d="M-5.24,429.74c0-94.69,0-189.39,0-284.08c1.89-1.38,3.94-2.59,5.64-4.17c2.91-2.71,5.4-3.13,9.14-0.9
	c3.92,2.35,8.24,2.93,12.69-0.6c4.78-3.79,9.18-8.04,15.67-9.88c4.44-1.26,7.44-1.73,10.71,1.43c1.94,1.87,4.08,3.54,5.9,5.51
	c1.78,1.92,3.25,2.8,5.19,0.21c1.38-1.84,2.7-1.34,4.03,0.33c1.44,1.8,3.11,4.49,5.3,4.07c3.45-0.68,4.93,1.58,5.74,3.45
	c3.28,7.54,10.22,12.57,13.36,20.14c0.37,0.9,1,1.85,2.24,1.68c7.34-1.01,11.33,4.07,15.3,8.74c2.03,2.39,3.82,2.08,6.05,1.03
	c4.27-2.01,8.52-2.93,12.98-0.43c0.97,0.54,2.28,0.71,3.43,0.67c8.13-0.28,16.18,0.38,24.03,2.51c2.28,0.62,4.23,0.2,6.39-0.25
	c8.16-1.72,16.16-5.24,24.78-2.43c1.17,0.38,1.88-0.6,2.46-1.4c3.61-4.98,9.3-7.57,13.69-11.7c2.97-2.79,8.44-2.47,12.27-5.01
	c0.51-0.34,2.32,0.23,2.69,0.87c4.23,7.23,6.92,1.95,10.02-1.06c1.69-1.64,3.61-3.02,5.4-4.55c0.77-0.66,1.64-1.75,2.57-1.1
	c3.33,2.28,7.69,2.53,10.72,4.66c3.04,2.14,4.45,2.1,6.88-0.26c3.3-3.21,6.56-5.41,11.52-1.67c2.94,2.22,6.87,2.3,10.85-0.42
	c5.32-3.63,9.67-8.49,16.51-10.49c4.87-1.43,7.93-1.54,11.32,1.82c1.19,1.18,2.62,2.13,3.78,3.34c2.27,2.36,4.23,5.88,7.67,1.26
	c0.26-0.34,1.55-0.46,1.79-0.18c2.83,3.22,7.05,4.43,10.15,6.79c3.89,2.97,8.05,6.25,11.16,10.18c2.85,3.6,5.8,2.11,8.96,1.52
	c3.04-0.56,7.4,0.35,5.76-5.34c-0.11-0.4,0.7-1.53,1-1.51c4.62,0.41,7.81-2.92,11.73-4.22c2.93-0.97,6.28-0.82,9.46-1.46
	c7.25-1.46,14.65-1.11,20.34-7.86c2.22-2.64,8.02-2.37,11.68-4.89c0.48-0.33,2.27,0.27,2.64,0.91c4.08,6.98,6.89,2.47,10.04-0.89
	c1.6-1.7,3.6-3.03,5.41-4.53c0.76-0.63,1.61-1.8,2.56-1.2c3.39,2.18,8.02,2.34,10.74,4.67c3.45,2.97,4.96,1.64,7.22-0.59
	c3.37-3.33,6.56-4.62,11.23-1.38c3.04,2.11,6.97,2.13,10.92-0.42c5.29-3.41,9.41-8.18,16.04-10.32c5.48-1.77,8.64-1.3,12.28,2.19
	c1.82,1.74,3.69,3.44,5.52,5.17c0.83,0.79,1.83,2.22,2.86,0.93c3.71-4.65,5.71-0.87,8.14,1.38c0.82,0.76,1.49,2.38,2.74,1.9
	c3.66-1.42,4.47,1.72,6.06,3.53c0.72,0.83,0.82,1.95,2.13,2.57c5.56,2.64,10.64,7.42,12.92,12.05c3.49,7.11,6.2,4.2,10.23,2.1
	c2.22-1.16,4.7-1.82,7.03-2.77c0.8-0.33,1.8-0.88,2.32-0.14c2.35,3.28,6.7,4.81,8.58,7.82c2.5,4.01,4.61,3.07,7.56,1.75
	c3.91-1.75,7.04-2.12,10.29,2.08c2.46,3.18,6.28,5.17,11.27,3.32c6.7-2.49,13.44-5.07,21-4.5c2.57,0.19,4.32-0.1,5.63,2.48
	c0.49,0.97,1.79,3.66,3.14,1.66c3.09-4.59,8.51-4.12,12.41-6.69c3.36-2.21,6.1-2.6,8.32,1.34c0.61,1.08,1.58,2.15,2.77,1.88
	c8.87-2.06,17.33,0.48,25.86,2.18c1.6,0.32,2.92-0.04,4.4-0.34c8.5-1.73,16.79-5.53,25.79-2.66c0.44,0.14,1.26-0.35,1.68-0.77
	c6.74-6.64,13.84-12.58,23.06-15.81c3.66-1.28,6.13-2.29,8.3,1.73c1.3,2.41,2.89,2.38,4.6,0.13c2.36-3.1,5.45-5.47,8.51-7.84
	c0.91-0.7,1.8-2.06,3-1.27c3.09,2.03,7.52,2.06,9.78,4.17c4.16,3.89,6.37,1.6,8.95-1.03c3.04-3.1,5.78-3.23,9.5-0.76
	c4.48,2.98,9.09,2.24,13.34-1.32c4.49-3.76,8.92-7.29,14.8-9.39c4.7-1.68,7.68-1.62,10.99,1.67c1.43,1.42,3.1,2.6,4.54,4.01
	c2.08,2.05,3.86,5.37,6.85,0.93c0.45-0.67,1.76-0.97,2.26-0.25c2.49,3.55,7.21,4.03,9.81,6.47c4.4,4.12,9.56,7.55,13.24,12.46
	c1,1.33,2.12,3.08,4.08,1.71c7.53-5.29,15.26-0.47,22.8-0.16c3.29,0.14,6.6-1.34,9.8-0.07c7.46,2.96,14.87,3.74,22.28-0.11
	c0.09,2.18,0.25,4.37,0.25,6.55c0.02,32.34,0.01,64.68,0.01,97.02c0,52.38-0.04,104.76,0.08,157.14c0.01,3.89-0.92,5.68-4.99,5.01
	c-0.82-0.14-1.68-0.02-2.52-0.02C601.45,429.74,298.1,429.74-5.24,429.74z"/>
<path fill="#E7CFD0" d="M911.96,164.04c0.42-0.06,0.85-0.12,1.27-0.18c0,87.62-0.03,175.23,0.1,262.85c0,3.46-0.68,4.14-4.14,4.14
	c-303.46-0.1-606.92-0.09-910.38-0.16c-1.31,0-3.14,1.14-4.05-0.95c303.35,0,606.69,0,910.04,0c0.84,0,1.7-0.12,2.52,0.02
	c4.07,0.68,5-1.12,4.99-5.01c-0.12-52.38-0.08-104.76-0.08-157.14c0-32.34,0.01-64.68-0.01-97.02
	C912.21,168.41,912.05,166.22,911.96,164.04z"/>
</svg>
