<?xml version="1.0" encoding="utf-8"?>
<!-- Generator: Adobe Illustrator 24.0.2, SVG Export Plug-In . SVG Version: 6.00 Build 0)  -->
<svg version="1.1" id="Layer_1" xmlns="http://www.w3.org/2000/svg" xmlns:xlink="http://www.w3.org/1999/xlink" x="0px" y="0px"
	 viewBox="0 0 907.09 425.2" enable-background="new 0 0 907.09 425.2" xml:space="preserve">
<path fill="#54232D" d="M-5.23,429.74c0-85.59,0-171.18,0-256.78c2.19,1.17,3.96,1.14,4.77-1.67c0.26-0.91,0.45-1.96,1.84-1.56
	c-0.44,2.75,3.11,3.71,2.86,6.37c-1.71,2.44-0.24,3.41,1.91,3.69c1.06,0.14,2.41-0.06,3.01-1.28c0.67-1.34,1.51-1.06,2.35-0.35
	c0.18,0.16,0.06,1.11-0.12,1.18c-1.03,0.39-1.94,0.3-2.23-1.05c-0.43-1.99-2.73-0.93-3.62-2.19c-0.17-3.03,5.36-1.62,4.3-5.62
	c-2.41,1.31-4.67,2.54-6.95,3.79c-1.01-1.64-0.25-2.75,0.48-3.87c2.51-1.18,2.31-3.87,1.81-5.46c-0.77-2.46-1.62-3.78,1.15-5.86
	c1.38-1.04-0.22-5.32,3.61-5.88c-3.1-2.45,0.6-4.71,0.26-7.25c-0.52-4.01,1.89-7.56,3.24-11.39c-1.01,6.35,6.03,11.58,2.14,17.73
	c1.4,1.34,5.6,0.38,3.29,3.84c-1.77,2.66,3,2.81,1.12,4.99c-1.39,1.61-1.58,4.08-4.2,5.11c1.74,1.1,3.37,0.62,4.5,1.71
	c0.95,0.92,2.4,1.79,3.5,0.63c0.63-0.67,0.83-2.35,0.46-3.27c-1.31-3.32,1.51-5.32,2.33-7.92c0.12-0.38,1.35-0.27,1.12-1.56
	c-0.75-4.37,1.13-8.33,2.38-12.5c0.47,7.82,6.48,14.93,3,23.43c3.52,1.61,3.36,1.61,3.64,6.64c0.15,2.65-1.15,3.49-3.82,3.49
	c4.78,3.41,4.65,3.37,6.06-1.42c0.72-2.44,0.01-7.04,5.25-4.5c0.49,0.24,1.78,0.03,1.85-0.22c1.01-3.53,4.93-5.97,4.74-9.54
	c-0.2-3.88,2.26-6.18,3.3-10.59c1.14,3.2,1.84,5.15,2.53,7.1c0.53,1.5,0.59,3.59,2.78,3.48c2.08-0.11,0.51-2.32,1.42-3.23
	c1.15-1.15,0.68-3.25,2.79-4.37c-0.02,3.35,2.85,5.48,2.46,8.96c-0.11,1,1.82,2.81,3.15,3.26c2.55,0.87,1.38-1.89,2.15-2.8
	c2.32-2.72,1.86-6.02,2.34-9.15c0.19-1.23,0.17-2.99,1.98-3.01c1.58-0.02,1.27,1.54,1.68,2.59c0.91,2.34-0.1,5.77,0.96,6.89
	c3.53,3.72,2.17,6.84,0.11,10.24c1.62,0.79,3.1,1.51,4.69,2.28c-0.1-4.94,0.87-9.42,2.75-14.58c1.47,6.34,2.72,11.77,4,17.19
	c0.1,0.43,0.45,1.17,0.59,1.15c0.63-0.1,1.64-0.28,1.77-0.68c0.5-1.52,1.54-3.73,0.9-4.6c-3.24-4.4,3.25-6.84,1.86-10.74
	c-0.13-0.37,2.72-8.6,2.84-9.11c0.87-3.59,1.78-7.16,2.68-10.74c0.42,0.03,0.84,0.07,1.26,0.1c-0.53,5.79,3.61,10.89,1.88,16.83
	c-0.33,1.13,0.45,1.02,0.97,1.19c2.43,0.83,3.65,1.86,1.75,4.57c-0.95,1.37,0.01,2.64,1.84,2.38c0.95-0.14,2.52,1.32,2.46-1.78
	c-0.08-3.98,0.7-8.25,2.9-11.99c0.01,4.13,2.33,7.7,2.4,11.93c0.03,1.51,0.59,5.09,2.98,6.68c-1.11,1.59-2.24,3.17-3.85,5.44
	c2.26-0.87,3.47,2.07,5.18,0.14c1.79-2.01-0.81-3.11-1.25-4.67c-0.09-0.31-0.11-0.64-0.16-0.96c1.49,0.29,3.09,0.92,3.27-1.59
	c0.07-0.97,0.46-2.76,0.68-2.75c4.65,0.11,2.75-4.01,3.19-5.8c0.8-3.22,2.29-5.87,3.52-8.71c4.19,4.28,1.08,11.72,7.41,14.63
	c0.17,0.08,0.21,0.58,0.21,0.88c-0.09,3.12,0.32,6.42-3.48,8.26c4.38,1.12,6.55-0.02,6.77-4.3c0.11-2.14,1.23-4.09,2.72-6.14
	c0.52,1.31,0.79,2.45,1.38,3.39c0.62,0.99,0.28,3.28,2.25,2.61c1.56-0.53,1.4-2.45,1.25-3.9c-0.11-1.04-1.33-1.86-0.42-3.14
	c2.65-3.71,3.7-7.93,4-12.44c0.09-1.38,0.34-2.98,1.8-3.84c4.25,2.73,0.12,9.65,5.08,11.62c4.89-7.86,3.84-16.97,7.47-25.62
	c1.1,4.64,1.5,8.62,3.05,12.09c1.27,2.85-2.8,7.92,3.47,8.64c-1.75,3.39,2.22,8.12-2.54,10.83c-0.39,0.22-0.62,0.73-1.33,1.59
	c2.9-0.61,4.46,1.63,6.92,1.98c0.24-1.98,0.27-5.28,0.69-5.33c5.59-0.67,2.92-6.24,2.93-7.58c0.04-4.7,2.57-8.45,3.2-12.86
	c-0.41,6.31,6.24,11.83,2.04,18.47c1.18,0.24,2.61,0.52,4.39,0.88c-0.43-3.77,0.75-7.02,2.15-11.3c0.96,3.96,2.06,6.79,2.24,9.67
	c0.23,3.68,3.32,7.19,2.28,10.29c-1.09,3.24,0.26,4.61,1.21,7.1c1.44,3.77,3.19,0.56,3.25,0.3c0.59-2.61,3.49-4,3.28-7.18
	c-0.12-1.83,1.36-3.78,2.12-5.67c1.09,6.01,7.99,10.47,4.3,17.13c1.67,0.59,5.09,0.88,5.45,2.08c1.43,4.8,3.15,0.38,3.81,0.06
	c2.7-1.3-0.55-1.44-0.73-2.33c-0.47-2.37-1.56-4.51-1.12-7.15c0.63-3.8,2.83-7.13,3.53-10.58c0.82-4.05,1.44-8.19,2.57-12.3
	c0.96,2.31,1.57,4.64,2.09,6.98c0.47,2.1,2.8,3.28,3.51,2.13c1.28-2.07,1.34-4.86,4.71-4.82c-3.24-1.92,0.47-3.43,0.37-5.24
	c-0.2-3.34,1.85-5.98,3.38-9.21c4.27,11.65,4.27,11.65,2.38,14.29c1.79-0.55,3.33-0.12,4.52,0.75c1.21,0.88-2.56,3.72,1.32,3.98
	c-0.57,2.46-2.54,3.68-5.12,5.35c4-0.06,6.81,1.75,10.04,2.37c-0.71,1.24-3.26,0.5-2.7,1.89c2.21,5.47-1.36,5.77-5.99,5.74
	c3.86,2.58,7.26,3.19,10.74,3.25c-0.01,1.25-0.89,1.18-1.39,1.53c-0.47,0.33-1.3,0.24-1.31,1.12c3.77,1.61,3.77,1.61,7.66-2.73
	c-1.87-3.06-9.34-3.49-3.84-9.67c0.57-0.64,0.95-2.36,0.54-2.84c-3.59-4.24,2.36-6.98,1.54-10.7c4.81-1.26,1.7-5.63,2.96-8.4
	c1.46-3.2,1.25-7.66,3.65-11.81c-0.99,6.14,6.14,11.41,1.32,18.18c7.31-1.86,0.75,6.58,5.37,6.81c-0.68,2.62-2.26,4.76-3.87,6.96
	c3.14,0.42,5.39,2.29,8.13,4.03c-3.43-0.49-3.25,3.2-5.37,4.07c2.81-2.12,2.81-2.12,3.25,1.55c0.53,4.42,2.09,5.23,6.15,3.17
	c1.19-0.6,2.35-1.25,4.45-2.37c-4.25-0.26-5.63-3.6-10.13-4.34c3.31-0.97,5.94-2.62,4.86-4.12c-2.9-4.01,2.74-5.37,2-8.57
	c-0.27-1.16,1.25-0.39,1.93-0.44c0.68-0.05,1.69-0.6,1.58-0.65c-3.59-1.94,0.61-3.39,0.35-5.25c-0.46-3.3,1.75-5.92,3.84-8.67
	c-1.02,4.9,6.65,8.23,1.93,13.82c4.95-1.97,4.76,2.79,5.44,4.85c0.7,2.09-2.35,3.51-4.36,5.25c3.43-0.24,6.06,1.45,8.9,2.28
	c1.57,0.46-0.54,0.58-0.77,1c-0.6,0.12-1.44,0.04-1.75,0.41c-0.57,0.66,0.17,1.09,0.69,1.45c0.17,0.63,0.35,1.26,0.52,1.89
	c-0.34,4.38-4.25,2.44-6.5,3.82c2.94-0.18,4.82,3.82,8.08,1.83c2.27-1.38-0.51-2.94-0.07-4.44c1.25-0.94,3.28-4.36,3.76-5.07
	c1.79-2.66,1.11-6.43,3.46-8.44c3.33,3.18,1.41,9.12,6.9,11.32c-0.3-3.07,0.14-5.47,4.24-4.38c-1.86-2.87,0.34-10.53,4.38-15.16
	c-1,5.5,5.65,8.96,1.71,14.25c1.66,0.3,4.15-0.38,4.47,1.9c0.17,1.2-1.81,2.74,1.19,2.63c1.56-0.06,2.68,0.37,3.55-2.11
	c0.96-2.77,1.18-6.32,4.4-8.91c0,3.57,2.42,5.74,2.22,8.91c-0.1,1.69,2.16,2.43,3.48,2.8c1.88,0.53,1.35-1.55,1.36-2.46
	c0.06-3.1,3.05-1.02,3.74-2.04c-1.59-5.8,2.06-9.76,3.85-14.38c1.03,3.93,3.06,7.23,4.42,10.79c0.31,0.8-2.55,2.45,0.11,2.62
	c0.98,0.06,5.02,1.32,4.42-2.65c-0.58-3.79,2.89-1.43,3.7-2.35c-1.07-5.74,1.84-9.97,4.16-14.52c-0.01,4.84,6.06,8.26,2.7,13.88
	c4.54-1.53,4.12,2.76,4.92,4.62c1.01,2.35-2.3,3.41-3.51,5.8c2.43-1.75,4.95,2.92,6.33,0.06c0.84-1.74,3.52-3.19,2.41-6.42
	c-0.4-1.15-0.24-4.52,1.25-6.52c0.38-0.51,0.43-1.28,1.29-1.31c0.88-0.04,1.16,0.65,1.31,1.27c1.08,4.52,2.11,9.05,3.18,13.63
	c7.21-0.62,2.93-8.7,7.31-11.01c5.48,11.38,5.95,13.38,3.97,16.91c1.67,0.56,3.35,1.13,5.09,1.72c-3.29,0.96,1.02,7.18-4.62,6.58
	c2.23,0.52,4.46,1.05,6.95,1.63c-2.5,1.27-4.73,2.24-7.38,1.61c-1.64-0.39-2.15,0.44-1.59,1.97c-4.15-1.23-7.27,3.34-11.46,2.07
	c-0.22-0.06-1.04,0.89-1.04,1.37c0,0.52,0.81,1.53,0.99,1.47c3.15-1,6.35,1.18,9.46-0.19c7.11,1.59,14.25-4.03,21.41,0.14
	c1.09,0.63,2.75,0.05,2.78-1.8c0.02-1.06-0.8-0.69-1.4-0.5c-0.2-0.23-0.41-0.45-0.62-0.67c-0.31-1.2-0.25-2.81-1.97-2.87
	c-4.09-0.15-6.61-2.8-9.23-5.39c-0.69-0.68-1.02-1.37-0.42-2.17c0.54-0.72,1.54-1.17,2.22-0.63c4.36,3.46,5.93-0.94,8.89-2.62
	c-5.2-2.51-6.05-4.61-4.48-9.71c0.34-1.09,0.8-2.44,0.44-3.37c-0.89-2.29-2.44-3.93,0.96-6.05c1.16-0.72-0.16-5.26,3.62-5.87
	c-3.13-2.49,0.54-4.8,0.23-7.32c-0.5-4.05,1.87-7.48,3.1-11.2c0.65,3.91,1.03,7.8,2.89,10.98c1.6,2.73-2.59,7.64,3.32,8.5
	c0.05,0.01,0.14,0.34,0.09,0.45c-1.83,3.76,2.47,9.17-4.53,11.69c4.29,0.78,6.66,2.58,10.69,4.35c-3.98,0.11-4.34,1.3-3.67,3.82
	c0.64,2.38,1.96,6.18-3.32,5.38c-0.79-0.12-1.72-0.16-1.69,1.12c0.03,1.05,0.25,1.57,1.53,2.03c2.68,0.96,5.34,1.62,9.36,1.15
	c-3.66,2.76-6.07,5.48-9.85,4.04c-2.22-0.84-2.96,0.15-2.91,1.85c0.04,1.44,0.78,3.43,2.76,2.58c3.15-1.34,5.48,0.37,8.11,1.34
	c0.95,0.35,2.59,2.04,2.95,0.52c1.05-4.42,5.82-3.38,8.12-6.11c-2.21-0.24-3.1-2.32-4.93-2.91c2.97-2.55,0.49-7.66,4.53-9.65
	c0.71-0.35,1.05-0.02,0.97-1.34c-0.19-3.3,1.38-6.3,2.92-9.35c1.63,1.46,0.72,5.71,4.23,4.23c2.71-1.15,2.29-3.59,0.52-5.77
	c-0.94-1.16-0.26-1.36,1.01-1.65c2.83-0.64,1.69-5.92,5.86-5.25c-3.56-1.73,0.2-3.53,0.11-5.34c-0.16-3.08,1.86-5.72,3.75-8.41
	c-0.04,4.7,5.37,8.2,2.67,13.41c1.47,0.19,3.12,0.49,4.37,1.38c0.43,1.68-2.42,2.28-1.66,2.77c4.71,3.06-1.13,4.05-1.02,6.12
	c0.78,0.22,1.55,0.44,2.33,0.65c2.74,0.74,5.67,2.43,8.17,1.94c2.46-0.49,1-4.37,2.33-6.4c0.27-0.4,0.63-0.74,0.94-1.09
	c1.22,0.59,1.71,1.73,2.07,2.82c1.86,5.65,3.31,6.31,8.54,3.97c2.13-0.95,2.48-1.94,1.59-4.24c-0.96-2.51-1.47-5.54,2.1-6.98
	c0.61-0.25,1.57-0.53,1.32-1.2c-1.91-5.02,3.46-7.98,3.06-12.63c4.43,5.11,3.13,12.48,8.1,16.99c2.21,2,2.76,4.35,1.74,7.27
	c-0.32,0.92,0.42,2.29,1.91,2.45c1.41,0.16,2.17-0.59,2.62-1.83c0.29-0.8-0.22-2.17,1.45-2.09c2.38,3.98,2.48,8.87,5.31,12.75
	c3.12,4.27,2.42,7.47-1.58,10.59c2.35,2.49,5.46,1.26,8.39,1.32c-0.15,2.14-2.5,2.28-2.86,3.92c4.97,1.5,9.12-3.36,14.22-1.7
	c1.16,0.38,2.03-1.63,1.65-3.02c-0.28-1.01-0.74-2.17-2.5-1.39c-3.95,1.75-6.4-0.78-9.18-3.29c2.56-1.08,5.35,0.63,6.94-1.81
	c0.66-1,2.68-0.24,2.49-1.96c-0.22-1.99-1.86-0.89-2.79-0.93c-2.66-0.11-2.63-1.93-2.15-3.53c0.83-2.75,1.1-5.14-3.17-7.05
	c4.49-0.01,6.33-2.94,9.52-2.69c-1.11-2.96-5.16-3.87-2.97-8.18c1.24-2.44-1.21-6.93,4.2-5.84c-4.32-6.67,2.46-12.25,0.93-18.68
	c0.79,0.37,1.04,0.41,1.06,0.51c1.6,5.82,4.55,11.43,2.81,17.78c-0.21,0.77,0.3,1.58,0.85,1.48c3.2-0.58,1.88,2.3,2.82,3.37
	c2.76,3.17,1.32,6.74,1.53,10.17c0.06,0.9-0.34,1.89,0.7,2.72c3.42,2.72,1.04,3.03-1.44,3.22c-0.81-1.6-2.37-1.78-4.16-2.64
	c0.16,3.42,2.57,2.89,4.17,3.46c1.07,3.13-2.72,2.2-3.37,3.89c4,3.5,4.01,3.53,8.72,2.46c1.07-0.24,1.5,0.46,2.04,1.03
	c0.71,0.75,0.56,1.36-0.34,1.98c-3.02,2.1-4.94,5.74-9.51,5.66c-2.73-0.04-1.36,2.85-1.53,4.29c-0.29,2.38,2.2,1.4,2.66,0.98
	c2.9-2.65,5.48-1.01,8.54-0.3c2.68,0.62,5.67,1.24,8.73,0.51c2.27-0.54,2.03-1.72,1.96-3.22c-0.43-1.77-1.46-1.21-2.49-0.65
	c1.3-1.99,1.35-3.16-1.59-2.59c-2.31,0.45-4.34-0.28-6.37-1.65c1.55-1.28,3.72,0.01,4.76-1.79c-2.87-3.08-2.69-5.44,0.78-7.84
	c1.01-0.7,1.55-1.23,0.42-2.2c-1.31-1.12-0.67-2.21-0.12-3.47c1.7-3.93,3.25-7.93,4.9-12.03c2.65,2.56,2.65,5.99,3.53,8.85
	c0.65,2.14,1.91,2.27,3,2.35c2.15,0.16,0.53-1.72,0.89-2.31c2.9-4.73,1.96-10.53,4.39-15.46c2.78,5.17,1.75,11.12,4.25,16.34
	c1.13,2.36,1.57,1.98,3.37,1.43c2.06-0.62,2.38-1.64,1.47-3.27c-1.88-3.37-1.3-6.05,2.09-7.98c0.6-0.34,1.09-0.42,0.79-1.35
	c-1.6-4.94,3.46-7.73,3.74-12.2c1.62,4.51,5.15,8.25,3.81,13.37c-0.33,1.27,0.81,1.18,1.61,1.07c1.34-0.18,2.01,0.72,2,1.71
	c-0.07,4.16,2.85,3.02,5.15,3.11c-1.06-5.1,3.41-8.47,3.92-13.17c2.01,4.26,5.01,8.11,3.96,13.11c-0.3,1.43,0.47,1.38,1.26,1.32
	c1.35-0.1,2.18,0.1,2.38,1.73c0.13,1.06-0.56,3.45,1.56,2.64c0.85-0.33,2.88-0.81,3.2-3.02c0.41-2.87,1.76-5.61,2.9-8.98
	c2.79,4.48,2.66,9.37,5.56,12.98c0.53,0.66,0.73,1.49,1.71,1.4c0.46-0.04,0.52-0.59,0.74-0.98c1.32-2.4-0.43-6.7,4.25-7.08
	c0.01,0,0.06-0.58-0.04-0.84c-1.94-5.03,3.6-7.77,3.32-12.37c1.63,2.35,3.27,4.56,3.45,6.89c0.17,2.13,2.16,4.56,1.68,5.24
	c-3.09,4.45,4.99,1.24,3.11,4.79c-0.31,0.58,1.6,0.55,2.57,0.42c0.81-0.11,0.83-0.41,0.78-1.26c-0.19-3.23,2.05-5.7,2.82-9.49
	c3,5.45,3.53,10.88,7.3,15.26c3.04,3.53,2.08,4.36,5.67,1.36c-2.53-0.29-5.23-0.99-3.58-3.81c1.53-2.62-0.29-3.1-2.53-3.94
	c2.26-0.72,3.65-1.25,5.09-1.61c2.2-0.54,2.57-1.66,1.57-3.63c-1.61-3.19-1.21-5.91,2.24-7.7c0.42-0.22,1.12-0.76,1.08-0.84
	c-2.74-5.2,3.62-7.97,2.81-12.61c3.44,4.39,5.07,9.43,4.48,13.06c-0.22,1.35,0.46,1.19,1.33,1.31c3.51,0.5,2.02,5.36,5.27,6.13
	c-3.16,3.32-0.54,5.38,1.57,7.03c-1.67,3.11-4.08-0.43-6.03,1.1c0.78,0.92,2.78-0.08,2.68,1.58c-0.12,2.18-3.28,0.25-3.76,2.64
	c2.99,0.83,6.23,4.87,8.77,0.93c1.21-1.87,3.88-6.78-1.54-8.88c2.83-1.3,5.48-2.52,7.83-3.61c-0.54-2.99-5.87-4.72-1.51-8.49
	c-2.12-3.04-0.58-4.67,2.21-5.89c0.18-0.08,0.16-0.98-0.01-1.4c-1.96-4.76,2.35-8.1,1.98-12.83c3.9,2.21,4.49,5.22,4.09,8.24
	c-0.33,2.48,3.27,4.81,0.16,7.24c0.37,0.23,0.84,0.75,1.11,0.66c2.94-0.96,1.67,1.49,2.12,2.55c0.5,1.16-0.73,3.21,1,3.52
	c3,0.54,1.84,1.92,1.1,3.38c-0.6,1.19-0.67,2.28-0.52,3.71c0.24,2.31,5.45,5.71-0.99,7.11c0.53,0.7,0.85,1.44,0.37,2.31
	c-1.41,0.33-4.46,0.1-3.08,2.15c1.49,2.22,4.29,5.05,7.93,2.36c0.25-2.03-3.57-0.78-2.59-3.33c2.32-0.27,5.05,1.4,7.06-1.77
	c-7.82,0.15,1.27-7.79-5.67-8.47c6.55-1.81,6.55-1.81,5.2-7.13c-0.06-0.24-0.08-0.72-0.06-0.72c2.98-0.51,0.29-5.78,4.44-5.32
	c0.11,0.01,0.45-0.53,0.38-0.67c-2.46-5.14,3.67-7.89,2.49-13.71c4.26,5.94,5.47,9.95,4.76,14.4c-0.15,0.97,0.32,1.3,1.01,1.14
	c2.43-0.57,2.9,1.01,3,2.77c0.07,1.19,0.39,2.08,1.61,2c1.17-0.08,2.2-0.69,2.52-2.04c0.6-2.56,1.24-5.12,2.17-8.89
	c0.57,2.11,0.8,3.04,1.08,3.95c1.1,3.61,0.45,7.83,1.96,10.96c2.81,5.8,4.74,11.2,1.51,17.27c-0.56,1.06-1.02,1.77,0.44,2.17
	c0.8,0.22,1.69,1.88,2.42,0.38c1.32-2.71,4.48-1.48,6.17-3.23c0.02-1.61-2.68-2.1-1.15-4.7c2.22-3.77,3.37-8.17,5.18-12.81
	c2.89,5.33,2.6,11.47,7.07,14.86c3.13-2.84,3.83-6.03,3.63-10.12c-0.19-4.14,1.56-8.37,2.45-12.56c0.22-1.02,0.51-2.06,1.77-2.06
	c1.33,0,1.41,1.33,1.72,2.17c0.34,0.91,0.41,2,0.31,2.97c-0.13,1.21,0.02,2.19,1.4,1.76c0.86-0.27,2.63-0.24,2-2.14
	c-2.07-6.18,3.05-10.95,3.08-16.8c0.86,6.32,5.33,11.99,2.79,18.65c-0.08,0.2,0.26,0.8,0.4,0.8c4.55-0.05,2.72,3.96,3.81,6.38
	c2.05-0.97,3.76-2.21,6.37-2.29c-2.16-2.56-4.56-4.86-4.24-7.24c0.54-4.07,3.2-7.43,3.63-12.06c0.38-4.06,1.77-8.85,3.33-13.26
	c0.47,0.4,0.92,0.59,0.94,0.83c0.52,5.89,4.84,11.32,2.18,17.62c-0.11,0.27,0.45,1.17,0.63,1.16c5.28-0.55,1.87,4.01,3.8,6.15
	c4.46-4.08,2.29-10.37,5.1-15.11c2.44,5.6,1.9,11.64,4.25,17.03c0.57,1.3,2.62,1.84,1.94,3.62c-0.79,2.07-1.74,5.09,0.69,5.52
	c2.41,0.43,1.94-3.26,2.93-5.04c0.13-0.23,0.52-0.31,1.09-0.62c0.47,2.28,1.94,3.99,2.29,6.42c0.64,4.51,1.43,4.74,6.13,3.17
	c-4.09-3.71-4.07-5.98,0.06-9.71c0.31-0.28,0.81-0.75,0.74-0.99c-1.52-4.97,3.28-8.04,3.65-12.56c1.78,4.45,5.26,8.26,3.82,13.49
	c-0.21,0.77,0.49,1.14,1.27,1.05c1.38-0.16,2.65,0.39,2.46,1.77c-0.52,3.74,2.47,2.47,4.11,3.14c-0.94,1.16-2.05,2.24-2.73,3.54
	c-0.24,0.45,0.36,1.69,0.92,2.15c1.23,1,1.93-0.74,3.02-0.92c0.93-0.15,1.24-0.82,0.43-1.78c-0.74-0.88-1.21-2-1.79-3.01
	c1.62-6.41,3.23-12.82,5.04-19.99c1.36,5.4,2.94,9.98,2.78,15.08c1.12-1.52,6.36,0.27,3.13-4.42c-1.07-1.55,1.04-1.67,1.76-2.38
	c0.63-0.62,2.03-0.51,1.61-2.04c-1.66-6.05,2.83-11.02,2.94-16.87c1.11,6.1,5.14,11.59,3.13,18.11c-0.33,1.08,0.39,1.67,1.33,1.49
	c1.89-0.37,1.68,0.86,1.86,2.02c0.56,3.62,3.69,6.78,1.74,10.88c-0.34,0.71,0.17,1.98,0.6,2.83c0.21,0.42,1.13,0.59,1.75,0.63
	c0.28,0.02,0.78-0.53,0.87-0.9c0.82-3.47,1.62-6.94,2.31-10.43c0.22-1.1-0.09-2.69,1.48-2.52c1.01,0.11,2.03,1.21,2.17,2.53
	c0.14,1.28,0.02,2.6,0.32,3.84c0.85,3.55,0.91,3.55,4.34,2.06c0.2-0.09,0.27-0.47,0.13-0.21c-3.44-8.75,2.88-15.67,3.07-23.45
	c0.72,0.77,0.93,1.54,1.16,2.31c1.46,4.77,1.31,9.9,3.42,14.54c0.45,0.99,0.65,1.77,1.8,2.01c1.84,0.39,0.84-1.4,1.43-1.79
	c3.79-2.52,2-7.74,5.31-10.61c0.78,1.68,1.49,3.36,2.34,4.97c0.42,0.8-1.32,2.35,1.02,2.5c1.68,0.11,1.97-1.16,2.36-2.07
	c1.02-2.39,1.78-4.9,2.74-7.63c1.86,1.81,1.79,3.77,2.37,5.47c-0.07,13.25-0.19,26.51-0.2,39.76c-0.02,75.62-0.05,151.25,0.1,226.87
	c0.01,4.47-1.09,5.49-5.52,5.49C602.8,429.73,298.79,429.74-5.23,429.74z M378.26,188.3c0.82-0.63,2.54-0.34,2.23-2.22
	c-1.01,0.57-2.69,0.42-2.15,2.33c-0.24-0.09-0.49-0.18-0.73-0.27c-0.02,0.21-0.04,0.42-0.06,0.63
	C377.79,188.61,378.02,188.45,378.26,188.3z M490.21,178.9c0.53,2.23-4.01,3.09-1.63,5.73c2.92,3.24,5.16,0.82,7.56-0.84
	c-2.71-1.03-7.47,1-6.02-4.87c2.05-1.58,4.5,0.91,6.63-0.71C494.26,175.85,492.46,179.68,490.21,178.9z M93.39,180.98
	c1.54-1.28,4.98-0.53,4.37-4.33c-2.23,0.66-3.78,2.85-6.25,2.77c-2.48,1.14-4.56,2.53-0.43,4.1c1.63,0.62,1.85,1.81,2.52,2.9
	c0.43,0.7,0.27,1.23-0.54,1.47c-0.08,0.02-0.26-0.14-0.33-0.26c-0.53-0.89,0.12-1.21,0.77-1.33c5.69-1.05,4.06-2.39,0.2-3.93
	C93.45,182.27,93.49,181.46,93.39,180.98z M812,191.18c1.23,3.6,3.54-1,5.61,1.08c-2.33-0.39-4.03-0.68-5.72-0.97
	c-1.74-1.37-2.5-6.32-5.93-1.59c-0.23,0.32-1.21,0.15-1.84,0.12c-1.63-0.08-5.11,4.14-4.79,5.67c0.42,1.99,1.63,1.23,2.61,0.78
	C805.36,194.71,809.19,193.94,812,191.18z M191.05,200.38c-0.27-0.36-0.77-0.71-0.79-1.09c-0.18-3.06-3.32-1.12-4.38-2.65
	c-0.51,0.61-1.4,1.2-1.45,1.85c-0.19,2.27,1.88,2.27,3.31,2.8c1.07,0.39,2.22,0.54,3.34,0.8c3.9,0.34,7.79,1.83,11.68-0.27
	c2.16-1.17,3.12-4.06,1.56-4.51c-3.35-0.96-3.02-3.51-4.29-5.51c-1.67-2.65-4.49,1.46-6.72-0.29c-0.16,0.27-0.32,0.54-0.36,0.6
	c0.16,2.02,2.61,0.24,2.95,2.2C194.1,196.12,190.62,196.75,191.05,200.38z M74.69,190.52c-3.24-4.27-7.54-5.29-12.44-4.15
	c0.96,4.17,4.94,1.49,7.77,3.39c-3.77,1.33-6.74,3.43-10.51,1.66c-1.03-0.48-1.97-0.04-2.58,0.92c-0.63,0.98,0.15,1.52,0.77,2.04
	c3.44,2.85,13.46,2.23,17.09-1.05c3.4-0.09,7.01,0.69,9.38-2.6c-0.78-0.65-2.48-0.59-3.42-2.33c-1.03-1.9-2.82-3.03-3.79,0.46
	C76.74,189.57,75.47,189.97,74.69,190.52z M891.61,188.27c-1.94,3.81-2.14,3.82-4.64,0.4c-0.95-1.31-2.09-1.24-3.14,0.86
	c-0.66,1.32-2.66,0.64-2.66,1.13c1.93,4.7,6.13,1.73,7.42,3.01c5.29,5.21,10.89,3.1,16.58,1.94c1.18-0.24,2.92-0.51,2.31-2.39
	c-0.44-1.36-1.63-1.19-2.93-0.87c-4.1,1.01-7.64-0.42-10.87-2.89c1.51,0.05,3.01,0.08,4.52,0.16c1.24,0.07,2.76,0.74,2.8-1.47
	c0.04-2.31-2.11-3.19-3.28-2.73c-1.23,0.48-3.57,0.45-3.69,2.76c-0.85,0.03-1.69,0.07-2.54,0.1c0.07-0.11,0.14-0.22,0.21-0.33
	C891.66,188.06,891.63,188.16,891.61,188.27z M676.96,190.59c-0.34-0.32-0.68-0.64-1.02-0.95c0.64-1.16-0.29-2.55-0.87-2.32
	c-3.98,1.57-8.95-2.28-12.35,2.22c2.38,2.58,5.43,1.41,8.44,1.32c-1.21,3.84-4.88,4.22-7.13,4.26c-3.11,0.05-2.58,1.59-2.84,3.24
	c-0.02,0.1-0.24,0.22-0.38,0.23c-0.1,0.01-0.25-0.12-0.32-0.22c-0.03-0.05,0.06-0.26,0.13-0.28c0.13-0.04,0.31-0.03,0.43,0.03
	c2.91,1.44,14.45-0.23,16.38-2.71C678.54,194.01,679.9,191.89,676.96,190.59z M748.42,193.29c2.37-0.21,4.64-0.74,7.93-2.33
	c-3.61-0.57-5.92-1.36-8.02,0.67c-2.21,1.19-4.53,2.06-6.16,4.3c-1.33,1.84-3.11,1.56-2.95-1.05c0.16-2.44-0.31-2.66-2.65-2.23
	c-2.09,0.39-3.99-0.92-5.45-3.32c2.97,0.33,5.05-0.68,6.97-2.6c-1.43-1-3.86,0.15-4.42-2.35c-0.15-0.68-1.22-0.68-2,0.15
	c-2.3,2.44-4,4.62-3.09,8.6c1.32,5.79,1.71,6.47,7.21,3.54c3.19-1.7,5.59-3.07,8.8,0.37c1.91,2.04,5.41,2.35,8.07,3.84
	c1.68,0.95,4.13,0.51,5.43-1.23c1.4-1.88-1.7-2.19-1.88-3.96c-0.16-1.64-1.95-0.09-2.95-0.37
	C751.58,194.83,748.93,196.59,748.42,193.29z M499.01,192.9c-0.23-0.3-0.47-0.61-0.7-0.91c0.36-1.36-0.13-2.46-1.46-2.72
	c-1.31-0.26-2.24,0.48-2.94,1.75c-1.24,2.27-9.94,6.65-11.7,5.53c-4.12-2.62-10.16-1.81-12.74-7.15c-0.51-1.04-2.16-1.44-2.44-0.51
	c-0.78,2.58-4.17,4.04-3.09,7.36c1,3.06,3.74,3.28,6.11,3.32c5.02,0.08,9.94,0.91,14.9,1.24c4.15,0.28,8.5-0.34,12.56-1.36
	C501.24,198.52,501.67,195.58,499.01,192.9z M237.62,190.42c1.09,2.51-1.07,7.94,3.29,7.45c6.13-0.68,11.44,1.64,17.15,2.16
	c0.93,0.09,1.96,0.57,2.57-0.74c0.59-1.29-2.12-8.32-3.46-8.75c-6.47-2.1-6.51-2.06-10.59-6.64c-0.48-0.54-0.95-0.62-1.41-0.94
	c-4.06-2.82-4.62,2.26-7.02,3.18C236.73,186.68,237.97,188.84,237.62,190.42z M704.01,200.79c6.64,0.18,12.59-4.16,19.26-1.92
	c1.14,0.38,2.15-0.69,2.67-1.84c1.08-2.4,0.19-8-1.67-10.6c-2.62-3.66-4-3.87-6.87-0.42c-2.14,2.56-5.04,4.82-7.65,5.64
	C704.54,193.26,703.19,195.97,704.01,200.79z M701.29,201.22c2.35-4.01-1.87-6.62-1.39-10.02c0.03-0.23-0.88-0.9-1.03-0.82
	c-4.02,2.37-6.77-0.77-10-2.11c-2.36-0.97-8.5,1.76-8.84,3.74c-0.86,4.92,3.12,5.49,6.2,5.89
	C691.41,198.59,696.62,198.82,701.29,201.22z M272.59,197.86c2.11,0.12,7.79-1.13,9.62-1.77c3.11-1.08,2.2-3.74,1.76-5.48
	c-0.64-2.48-6.81-3.95-9.49-2.43c-1.25,0.71-3.04,2.1-3.7,2.1c-3.7,0.01-6.8-0.42-7.96,4.63c-0.37,1.59-0.83,3.22-0.44,4.6
	c0.42,1.46,2.01,0.52,3.08,0.28C267.86,199.26,269.82,197.08,272.59,197.86z M766.37,203.84c4.27-0.87,8.17-0.98,11.74-2.58
	c1.12-0.5,2.27-1,1.48-2.55c-0.6-1.18-1.21-1.7-2.7-0.73c-1.85,1.2-3.7,0.74-5.47-0.85c-1.39-1.25-2.44-2.16-3.42-4.09
	c-1.6-3.17-3.84-1.88-5.32,1.9c-0.71,1.82-4.06,3.17-2.83,5.92C761.1,203.63,764.52,202.86,766.37,203.84z M301.97,188.14
	c-2.43,1.1-3.08-3.1-4.35-1.81c-2.78,2.85-8.27-3.51-9.96,3.75c-0.71,3.02-2.22,3.7,0.95,5.81c3.95,2.64,8.52,0.39,12.49,2.26
	c0.96,0.45,1.34-0.66,1.41-1.55c0.1-1.29-0.12-1.69-1.77-2.05c-2.69-0.6-5.83-1.07-7.78-4.21
	C296.14,190.08,299.53,191.74,301.97,188.14z M233.55,189.5c-2.73,1.46-3.98,2.76-5.81,2.44c-1.1-0.19-2.43-1.09-2.79,0.63
	c-0.23,1.07,0.31,2.21,1.74,2.66c1.58,0.5,3.02,1.43,4.61,1.93c2.43,0.76,3.87,0.46,4.32-2.78c0.65-4.64,0.09-8.48-4.04-11.4
	c-1.32,1.16-2.74,2.41-4.12,3.62C228.68,188.43,230.23,189.24,233.55,189.5z M212.54,191.5c0.46,1.78,3.41-0.65,2.91,2.1
	c-0.4,2.16-2.17,0.53-3.25,0.91c-0.57,0.2-1.3,0.26-1.88,0.09c-3.27-0.94-3.73,2.04-3.96,3.6c-0.45,3.05,2.69,2.31,3.94,2.01
	c3.17-0.77,6.19-2.22,9.23-3.48c0.73-0.3,1.32-0.96,1.97-1.45c-1.27-0.48-0.14-2.51-1.59-2.68
	C217.46,192.31,215.46,189.55,212.54,191.5z M16.37,194.68c5.01,0.47,8.09-1.99,11.57-2.98c2.26-0.64,1.49-3.35,1.04-4.8
	c-0.45-1.47-2.23-1.14-3.66-0.39c-2.21,1.15-4.33,3.25-7.05,1.99c-1.1-0.51-1.67-0.74-2.52,0.12c-1.71,1.73,1.17,3.81-0.56,5.86
	C14.65,195.1,16.66,194.69,16.37,194.68z M162.71,192.78c1.88-6.04-3.51-2.37-4.75-4.24c-1.9-2.88-4.7-1.04-5.74,0.26
	c-1.52,1.91,1.6,2.76,2.61,3.74c1.27,1.23,3.74,1.1,5.49,1.97C163.3,195.99,162.61,193.71,162.71,192.78z M165.69,192.21
	c1.34,2.99-0.57,5.79,1.93,7.15c3.33,1.82,6.76,0.17,9.18-0.62C173.28,198.11,170.62,194.38,165.69,192.21z M584.65,201.06
	c3.75,1.19,6.79-0.45,9.99-1.73c1.58-0.63,2.61-2.31,1.82-2.78c-2-1.19-1.48-4.64-4.43-4.59c-0.41,0.01-1.19,0.55-1.16,0.65
	C592.45,198.02,586.49,197.84,584.65,201.06z M512.6,197.13c-1.15-1.75-4.84,0.51-4.32-2.7c0.39-2.44-1-3.22-2.5-2.79
	c-1.25,0.36-3.74-0.31-3.74,2.33c0,1.88,0,3.7,2.48,4.21C507.29,198.76,509.94,199,512.6,197.13z M451.78,196.58
	c2.46,1.42,4.62,1.84,7.28,1.13c2.44-0.65,3.25-1.73,3.18-4.14c-0.09-3-2.79-1.73-4.06-2.35c-2.34-1.14-2.25,1.03-2.19,2.81
	C456.09,196.8,453.4,195.15,451.78,196.58z M841.71,193.34c-3.07-2.36-2.73,0.63-3.24,2.17c-0.54,1.61,0.95,1.88,1.71,1.58
	c2.18-0.87,4.48-0.65,6.67-1.12c1.28-0.28,2.69-1.17,2.5-2.73c-0.29-2.42-2.1-0.57-3.11-0.69
	C844.82,192.37,843.31,193.02,841.71,193.34z M379.6,200.47c-3.24-2.95-5.54-5.88-9.82-5.56c-0.87,0.07-2.08-1.22-2.56,0.11
	c-0.44,1.23,0.39,2.84,1.5,3.22C371.91,199.33,374.84,201.71,379.6,200.47z M35.7,192.02c0.99-2.11-3.32-1.66-1.93-3.17
	c2.85-3.1,0-4.6-0.97-7.06C28.2,189.65,28.41,190.3,35.7,192.02z M787.47,199.9c11.33,1.2,11.4,1.16,9.79-6.93
	C794.62,196.53,790.48,197.34,787.47,199.9z M875.77,182.59c-2.34-2.25-4.16,1.08-6.43,0.89c-0.72-0.06-3.07,0.37-2.05,1.85
	c1,1.45,2.57,2.92,4.59,3.28c0.11,0.02,1.57-0.57,0.94-1.31C868.65,182.4,874.92,184.57,875.77,182.59z M125.77,193.45
	c-1.46-3.37-4.82,0.35-6.87-1.53c-0.2-0.19-2.67-1.89-3.77,0.24c-0.07,0.14-0.12,0.33-0.09,0.48c0.92,4.65,5.35,1.73,7.67,3.51
	c0.89,0.68,2.3,0.61,2.56-1.15C125.34,194.52,125.57,194.06,125.77,193.45z M611.59,198c-4.87,0.58-8.34,0.63-11.68-0.69
	c-0.69-0.27-1.83-0.35-1.86,0.88c-0.01,0.51,0.51,1.32,0.98,1.52C602.94,201.29,606.89,202.77,611.59,198z M458.92,181.88
	c-1.09-2.05-3.97-1.05-4.44-3.64c-0.1-0.56-2.38-0.87-3.06,0.96c-0.4,1.08-0.62,1.35,0.45,2.7
	C454.84,185.66,456.53,182.44,458.92,181.88z M354.11,198.01c3.36,3.58,6.96,2.54,10.63,1.15c0.97-0.37,1.36-0.94,1.12-1.85
	c-0.25-0.95-0.98-0.63-1.55-0.36C361.06,198.54,357.59,197.99,354.11,198.01z M570.48,197.3c-0.17,1.67-0.34,3.28-0.53,5.12
	c2.68-0.63,4.88-1.53,7.27-0.46c0.95,0.43,2.16-0.06,2.25-1.3c0.1-1.42-0.55-2.15-2.2-1.54
	C574.76,200.04,573.11,197.37,570.48,197.3z M787.83,189.12c2,3.13,4.13,4.28,7.08,1.41c0.45-0.44,1.26-0.63,0.89-1.47
	c-0.41-0.93-1.37-1.26-2.03-0.66C791.96,190.08,790.01,188.38,787.83,189.12z M138.45,195.59c-1.86-1.17-3.41-3.74-5.94-1.74
	c-0.86,0.68-3.41,0.19-2.36,2.57c0.79,1.8,2.35,1.08,3.39,0.5C135.11,196.05,136.72,195.98,138.45,195.59z M26.83,175.58
	c-2.55-4.25-6.3-3.83-10.29-3.22c1.56,2.23,2.99,4.15,5.84-0.33C21.05,179.33,23.74,177.82,26.83,175.58z M16.56,179.62
	c1.7,3.51,5.39,5.15,8.46,3.79C22.8,180.98,20.37,179.32,16.56,179.62z M177.24,188.48c-2.45-1.22-4.96,1.12-7.18-0.9
	c-0.14-0.12-1.16,0.45-1.51,0.9c-0.63,0.8,0.31,0.86,0.7,1.29C172.64,193.49,174.86,190.57,177.24,188.48z M505.29,182.32
	c2.71,1.51,4.73,3.63,7.43-0.01c1.25-1.68-1.13-2.84,0.43-3.86c-0.96,0.13-2.63,0.04-2.75,0.43
	C509.65,181.22,507.13,180.73,505.29,182.32z M164.95,178.81c-0.56,0.09-1.37,0.34-1.44,0.21c-1.38-2.68-3.41-1.2-5.3-0.96
	c-1.07,0.14-2.03,0.08-1.8,1.54c0.33,2.06,1.96,0.85,2.66,0.7c1.52-0.32,2.89-1.27,4.36-1.87
	C163.93,178.22,164.03,179.78,164.95,178.81z M472,185.4c2,0.74,3.14-0.6,4.06-1.98c0.57-0.84,0.5-2.07-0.46-2.71
	c-2.54-1.69-0.63,2.64-2.58,1.97c-0.43-0.15-1.02-0.03-1.49,0.13c-1.14,0.38-3.33-0.51-3.19,1.3
	C468.48,185.74,470.54,185.47,472,185.4z M338.99,190.27c2.39,1.09,4.86,2.51,7.55-0.18C343.62,188.54,341.31,189.9,338.99,190.27z
	 M731.83,175.8c2.04,2.07,4.21,1.94,6.3,0.79c0.68-0.38,0.11-1.08-0.33-1.61C735.39,172.08,733.93,176.11,731.83,175.8z
	 M609.73,182.23c-3.08-0.79-5.99-1.97-9.13-2.41C603.3,181.77,606,183.68,609.73,182.23z M838.64,185.01
	c3.5,1.27,5.91,3.91,9.34,1.57C844.96,186.58,843.13,182.06,838.64,185.01z M824.98,195.87c2.36-0.03,4.35,0.52,6.15,1.87
	c1.59,1.19,2.67-0.01,2.97-1.25c0.38-1.56-1.46-0.75-1.76-1.06C829.69,192.7,827.35,195.69,824.98,195.87z M617.27,190.85
	c3.15,2.67,5.65,0.87,9.39,0.68C622.98,189.79,620.47,189.64,617.27,190.85z M471.17,189.39c3.35,2.6,5.65,1.35,8.11-0.99
	C476.26,187.08,474.07,189.03,471.17,189.39z M375.99,188.02c-0.47-2.47-1.76-2.93-3.38-2.85c-0.57,0.03-0.75,0.39-0.58,0.96
	C372.63,188.09,374.52,187.12,375.99,188.02z"/>
<path fill="#54232D" d="M418.11,198.82c-0.38,0.13-1.05,0.45-1.1,0.37c-0.31-0.49-0.08-0.88,0.48-1.04
	C417.71,198.37,417.91,198.6,418.11,198.82z"/>
<path fill="#54232D" d="M499.01,192.9c-0.43,0.03-1.09,0.24-1.25,0.05c-0.39-0.49,0.09-0.78,0.55-0.96
	C498.55,192.29,498.78,192.59,499.01,192.9z"/>
<path fill="#54232D" d="M676.96,190.59c-0.47,0.41-1.02,0.68-1.49,0.12c-0.11-0.14,0.3-0.7,0.47-1.07
	C676.28,189.95,676.62,190.27,676.96,190.59z"/>
</svg>
