<?xml version="1.0" encoding="utf-8"?>
<!-- Generator: Adobe Illustrator 24.0.2, SVG Export Plug-In . SVG Version: 6.00 Build 0)  -->
<svg version="1.1" id="Layer_1" xmlns="http://www.w3.org/2000/svg" xmlns:xlink="http://www.w3.org/1999/xlink" x="0px" y="0px"
	 viewBox="0 0 907.09 425.2" enable-background="new 0 0 907.09 425.2" xml:space="preserve">
<path fill="#0D0A17" d="M908.98,198.25c0,75.55-0.01,151.1,0.05,226.65c0,1.81-0.41,2.21-2.21,2.21
	C604,427.07,301.2,427.07-1.6,427.07c0-72.05,0-144.1,0-216.55c2.81,1.98,6.05-1.38,8.44,1.52c0.04,0.05,0.42-0.26,0.64-0.25
	c2.93,0.21,5.7-1.37,8.87,0.22c5.04,2.54,10.33,1.62,15.54-0.27c1.7-0.62,3.18-2.51,5.28-1.55c2.89,1.33,5.65-1.22,8.51-0.16
	c0.19,0.07,0.55-0.28,0.83-0.44c2.23-1.32,4.45-2.59,7.14-1.13c1.12,0.61,2.12,0.07,3.17-0.43c3.58-1.71,7.26-1.66,10.77,0.01
	c1.7,0.81,3.24,1.24,5.05,0.68c0.45-0.14,1.29-0.73,1.36,0.14c0.17,2.05,1.25,1.22,2.32,1c0.94-0.19,2.04-0.7,2.69,0.71
	c0.3,0.65,0.95,0.25,1.49,0.12c3.96-0.89,7.76-0.43,11.58,1c4.71,1.75,9.56,2.14,14.05-0.72c1.24-0.79,2.31-0.82,3.61-0.63
	c1.23,0.19,2.58,1,3.59-0.56c0.25-0.38,0.76-0.18,1.11,0c1.61,0.87,3.17,0.23,4.22-0.74c1.99-1.84,3.87-1.31,5.59-0.03
	c1.25,0.94,2.07,0.46,3.25,0.07c2.84-0.93,5.6-2.34,8.73-0.25c2.04,1.36,4.58,1.89,7.14,0.92c0.75-0.29,1.73-0.5,2.19,0.33
	c0.54,0.98,1.15,0.57,1.93,0.62c2.84,0.17,5.45-1.12,8.62,0.14c4.16,1.66,8.77,3.31,13.58,1.59c1.2-0.43,2.17-1.32,3.44-1.5
	c2.75-0.39,5.53-1.11,8.26-0.98c1.56,0.08,3.05,0.06,4.01-0.85c1.86-1.74,3.56-1.34,5.43-0.32c0.48,0.26,0.9,0.7,1.49,0.15
	c1.4-1.31,3.32-1.68,5.01-2.16c2.67-0.76,5.38-2.06,8.36,0.02c1.89,1.32,4.47,1.65,6.94,0.75c0.8-0.29,1.86-0.55,2.37,0.46
	c0.45,0.88,0.84,0.73,1.66,0.53c3.96-0.99,7.77-0.43,11.6,0.96c4.87,1.77,9.82,2.28,14.39-1c0.81-0.58,1.61-0.65,2.5-0.54
	c1.55,0.19,3.18,1.38,4.53-0.47c0.1-0.13,0.66-0.09,0.89,0.06c1.5,0.92,3.03,0.35,4.04-0.51c2.28-1.94,4.23-1.24,6.27,0.17
	c1.38,0.96,2.75,1.13,3.52-0.58c0.85-1.88,3.48-1.33,4.15-3.33c0.32-0.96,1-1.56,1.94-1.98c1.81-0.8,3.51-2.04,5.39-2.44
	c2.65-0.57,5.32-1.73,8.15,0.39c1.95,1.46,4.66,1.64,7.14,0.64c0.35-0.14,1.22-0.01,0.93-0.72c-0.79-1.92-0.63-4-1.06-5.93
	c-0.59-2.62-2.7-3.83-5.44-3.74c-0.07-0.7-0.22-1.44,0.62-1.81c0.1-0.05,0.38,0.14,0.49,0.29c0.86,1.22,3.36,1.37,4.22,0.26
	c0.74-0.95-0.87-0.41-0.59-1.13c0.96,0,1.96,0,2.96,0c-0.01,0.33,0.12,0.52,0.48,0.49c0,0.65,0,1.3-0.01,1.95
	c-1.13-0.2-2.47,0.42-2.61,1.09c-0.2,1.01,0.43,2.24,1.3,3.1c0.24,0.24,1.13,0.26,0.77,0.56c-2.32,1.97-0.07,3.77,0.06,5.63
	c0.07,1.05,0.43,1.15,1.53,1.09c2.22-0.12,4.43-1.37,6.58-0.62c2.98,1.04,6.35,1.33,8.67,4.24c0.05-2.48,0.07-2.5-1.94-3.56
	c-0.86-0.46-0.87-1.12-0.48-1.8c2.59-4.53,4.22-9.59,7.7-13.73c-0.92,1.73,1.6,1.67,1.36,2.93c-0.31,1.68,0.8,1.76,1.98,1.8
	c4.56,0.18,9.13,0.56,13.69,0.49c2.76-0.04,3.65,1.69,4.22,3.64c0.48,1.63,3.03,3.52-0.06,5.19c-0.13,0.07-0.19,0.45-0.14,0.65
	c0.35,1.43-0.15,2.85-0.09,4.3c2.75-0.51,5.91,0.03,7.87-2.33c1.26-1.51,2.39,0.81,3.34-0.36c0.67,0.65-0.17,1.52,0.36,2.29
	c2.19-0.42,4.04-2.95,6.61-1.23c0.05,0.03,0.2,0.01,0.22-0.03c1.29-2.41,2.14-0.11,2.72,0.44c2.5,2.37,2.45,2.43,4.23-0.67
	c0.44-0.76,0.75-1.95,1.94-1.59c0.94,0.28,1.7,0.05,2.51-0.2c1.27-0.39,2.38-0.36,3.64,0.33c2.62,1.43,5.4,2.44,8.49,1.36
	c0.85-0.3,1.6-0.25,2.26,0.73c0.89,1.32,2.11-0.12,3.24,0.02c1,0.13,0.6-1.13,0.53-1.72c-0.18-1.58-0.49-2.92,0.38-4.64
	c0.96-1.89,0.31-4.28-0.86-6.67c-0.61,3.02-1.87,1.54-2.72,0.56c-0.51-0.58-1-0.76-1.21-0.24c-0.81,2.02-2.77,1.24-4.14,1.84
	c-1.56,0.68-2.8-0.36-3.17-1.57c-0.47-1.54-1.29-2.33-2.71-2.7c-0.96-0.25-1.44-0.89-0.91-1.71c0.88-1.37,1.28-3.27,3.21-3.38
	c0.5-1.37-1.62-0.35-1.05-1.33c0.72-1.24,0.89-3,2.71-3.44c1.41-0.34,1.38-0.39,0.66-1.63c-0.1-0.17-0.13-0.59-0.06-0.63
	c2.37-1.21,2.85-4.14,5.49-5.41c2.84-1.37,5.79-1.18,8.63-1.8c3.02-0.67,5.79,1.62,7.65,3.69c1.23,1.37,2.39,3.2,3.43,4.94
	c0.82,1.36,1.91,2.23,0.51,4.02c-1.17,1.49-4.44,3.64-5.72,2.61c-2.06-1.65-1.98-0.09-2.41,1.15c-1.22,3.47-1.64,3.71-5.32,3.4
	c-0.1-0.44-0.09-0.97-0.33-1.31c-0.38-0.53,1.17-0.87,0.1-1.26c-0.81-0.29-1.29,0.37-1.64,0.99c-0.46,0.82-0.2,1.5,0.55,2.01
	c-0.1,1.15-0.38,2.34,0.74,3.21c0.17,0.15,0.34,0.31,0.51,0.46c-0.65,2.83-0.99,5.69-0.88,8.59c0.03,0.77-0.08,1.56,1.23,1.51
	c2.53-0.1,4.67,1.45,7.07,1.94c2.47,0.49,5.16,1.78,7.36,1.2c3.04-0.8,6.12-1.63,9.17-2.47c2.39-0.66,4.6-2.1,7.27-0.77
	c0.87,0.44,2.2,0.98,3.01-0.55c0.19-0.36,0.9-0.17,1.34,0.07c1.86,1,3.77,0.58,5.22-0.52c2.5-1.89,4.6-0.59,6.46,0.66
	c1.76,1.18,3.23,1.25,5.11,0.57c3.28-1.19,6.6-2.4,9.82,0.37c0.68,0.58,1.79,0.66,2.67,1.03c2.29,0.96,5.25-1.45,7.19,1.39
	c0.03,0.04,0.41-0.2,0.63-0.24c4.03-0.66,7.74,0.22,11.53,1.72c4.29,1.69,8.8,3.06,13.38,0.4c0.97-0.57,2.12-1.02,3.42-0.79
	c1.62,0.28,3.36,1.6,4.89-0.3c0.07-0.08,0.58,0.12,0.84,0.27c1.55,0.89,3.07,0.38,4.23-0.55c1.87-1.49,3.64-1.22,5.17,0.1
	c1.34,1.17,2.42,0.82,3.89,0.47c2.72-0.67,5.38-1.9,8.29,0.26c1.95,1.45,4.54,2.32,7.25,1.33c0.61-0.23,1.55-0.39,2.02,0.31
	c1.19,1.79,2.36,0.84,3.82,0.34c3.24-1.13,6.64-1.77,9.69-3.45c0.18-0.1,0.48-0.05,0.71,0c1.71,0.41,3.47,1.64,5.05-0.34
	c0.11-0.14,0.77,0.05,1.11,0.21c1.71,0.79,3.45,0.22,4.45-0.87c2.24-2.43,4.28-0.95,6.04,0.15c1.75,1.09,3.05,1.04,4.83,0.23
	c2.81-1.28,5.73-2.9,8.78-0.29c0.56,0.48,1.52,0.48,2.23,0.82c2.31,1.09,5.1-1.56,7.23,0.95c0.05,0.06,0.45-0.25,0.65-0.22
	c2.08,0.34,4.12-1.43,6.12-0.41c3.25,1.66,6.87,1.75,10.25,2.8c0.62,0.19,1.2,0.15,1.86,0.01c3.5-0.73,6.43-4.15,10.5-2.28
	c0.41,0.19,0.64-0.32,0.87-0.66c0.37-0.55,0.89-0.62,1.46-0.3c1.45,0.83,2.81,0.15,3.73-0.73c1.7-1.62,3.39-1.42,4.91-0.19
	c1.27,1.03,2.13,0.77,3.4,0.14c1.76-0.87,4.62-2.16,5.53-1.25c3.51,3.47,8.33,0.72,11.87,3.12c0.17,0.11,0.59-0.17,0.9-0.26
	c3.68-1.03,7.12-0.13,10.6,1.1c4.18,1.48,8.61,2.16,12.4-0.68c2.57-1.93,5.32,0.68,7.91-1.08c0.69-0.47,2.89-0.03,4.02-1.04
	c1.36-1.22,2.73-1.34,4.08-0.41c1.14,0.78,1.83,0.36,2.92-0.14c3.97-1.82,7.94-4.38,12.46-1.09c0.76,0.55,1.98,0.52,3.01,0.67
	c1.68,0.25,3.74-1.76,5.07,0.84c0.02,0.04,0.54-0.26,0.84-0.27c2.94-0.14,5.74-1.01,8.83,0.36c3.58,1.58,7.48,2.89,11.65,1.46
	c1.08-0.37,2.05-0.95,2.9-1.51c2.58-1.73,5.46,0.29,8.12-0.96c0.73-0.34,2.33,0.09,3.08-0.65c2.25-2.19,4.22-1.58,6.3,0.16
	c0.96,0.8,1.91,0.98,2.71-0.39c1.27-2.18,4.45-2.55,5.12-5.33c4.27-1.8,8.22-5.43,13.36-2.18c0.77,0.49,1.84,0.49,2.75,0.78
	c2.03,0.65,4.48-1.67,6.26,0.88c0.03,0.04,0.4-0.19,0.62-0.25c4.65-1.21,8.82-0.08,12.84,2.38c1.97,1.21,4.29,1.81,6.33,0.07
	c1.58-1.34,3.03-0.95,4.31,0.11c1.27,1.05,2.23,1.05,3.83,0.55c2.51-0.79,5.31-2.05,7.78,0.5c0.73,0.75,1.82,1.15,2.86,0.5
	c2.68-1.68,5.61,0.47,8.48-0.68c1.07-0.43,2.99,0.02,4-0.87c2.04-1.8,3.83-0.56,5.71,0.01c0.6,0.18,1.2,0.48,1.69,0.87
	c1.75,1.39,2.55,0.42,3.28-1.14c0.37-0.78,1.18-2.12,1.45-2.05c1.88,0.55,4.01-1.61,5.18-0.43c3.39,3.43,8.15,0.68,11.63,3.08
	c0.16,0.11,0.6-0.3,0.88-0.25c2.09,0.32,4.03-1.21,6.13-0.46c1.56,0.56,3.08,1.29,4.68,1.71c2.42,0.64,5.17,1.87,7.37,0.95
	c3.57-1.49,7.62-1.27,10.94-3.45c0.65-0.43,1.5-0.16,2.3,0.16c2.97,1.2,5.95-0.25,8.94-0.07c0.21,0.01,0.49-0.13,0.65-0.29
	c2.46-2.37,4.62-0.99,6.68,0.59c1.31,1.01,2.57,1.11,4.01,0.48C907.72,198.54,908.2,197.88,908.98,198.25z M314.45,204.52
	c-0.87,0.57-0.66,1.14-0.01,1.72c2.75,1,1.04-1.52,1.7-2.16c-0.55-0.4,0.69-1.25-0.38-1.49c-0.56-0.13-1.14-0.05-1.58,0.34
	C313.46,203.56,314.12,204.03,314.45,204.52z M325.53,199.2c-3.92-0.97-7.92-0.82-11.88-1.12c-0.02,0.19-0.03,0.39-0.05,0.58
	c4,0.31,8.01,0.62,12.01,0.93c2,0.19,4,0.38,6,0.57C329.63,199.21,327.59,199.15,325.53,199.2z M322.15,202.16
	c1.31,1.25,3,0.71,5.09,1.25c-2.81-0.03-3.64,1.11-3.25,3.25c0.1,0.54,0.66,1.07,0.76,0.69c0.29-1.13,1.61-1.54,1.77-2.14
	c0.68-2.55,1.94-0.49,2.89-0.58c-0.59,1.8,1.25,1.16,1.53,1.12c0.96-0.13-0.52-1.51,0.68-1.8c-0.35-0.71-1.02-0.79-1.69-0.99
	C327.37,202.18,324.69,202.93,322.15,202.16z M330.64,202.03c0.01-0.26,0.02-0.52,0.03-0.78c-4.95-0.41-9.89-0.82-14.84-1.23
	c-0.02,0.28-0.04,0.57-0.07,0.85C320.72,201.25,325.68,201.64,330.64,202.03z M333.55,193.89c0.02-0.24,0.03-0.49,0.05-0.73
	c-4.95-0.25-9.89-0.51-14.84-0.76C323.64,193.64,328.63,193.29,333.55,193.89z M326.59,197.77c0.02-0.27,0.03-0.55,0.05-0.82
	c-4.08-0.24-8.16-0.49-12.24-0.73C318.42,197.44,322.53,197.29,326.59,197.77z M321.43,195.23c3.72,0.25,7.45,0.5,11.17,0.75
	C328.99,194.34,325.18,195.1,321.43,195.23z M318.17,203.41c1.11,0.86,1.12,1.87,1.1,2.89c-0.01,0.5,0.07,0.97,0.77,0.82
	c0.22-0.05,0.43-0.09,0.65-0.13c-0.86-0.97,0.12-2.06-0.17-2.97C320.35,203.46,319.33,203.43,318.17,203.41z M389.84,179.62
	c1.6-1.35,2.49-0.45,3.24,0.81c0.41,0.69,0.75,0.46,1.12-0.02c0.23-0.29,0.66-0.88-0.04-0.75c-1.12,0.21-1-0.82-1.47-1.18
	C391.23,177.34,390.23,176.96,389.84,179.62z M389.66,183.74c-0.31-0.47-0.23-1.58-1-1.18c-0.49,0.26-1.63,0.49-1.42,1.44
	c0.11,0.53,0.59,1.24,1.27,1.21C389.29,185.16,389.67,184.54,389.66,183.74z M399.96,179.79l0.1-0.16l-0.16-0.02L399.96,179.79z"/>
<path fill="#0D0A17" d="M293.72,187.67c-0.16-0.16-0.32-0.32-0.48-0.48c-0.32-0.99,1.27-2.2,0.16-2.77
	c-1.1-0.57-2.43-0.55-3.95,0.24c-0.94,0.49-2.29,2.29-4.17,1.14c-0.29-0.18-1.72,1.49-2.63,2.31c-1.3,1.26-3.07,1.27-4.64,1.83
	c-1.52,0.54-2.6-0.17-3.86-0.42c-0.45-0.09-0.86-0.38-1.3-0.54c-0.7-0.26-2.08,0.82-2.05-0.55c0.03-1.07-0.37-2.79,1.49-3.23
	c1.17-0.28,1.5-1.48,1.7-2.3c0.75-2.99,3.95-5.53,6.96-5.27c0.46,0.04,1.22,0.01,1.37-0.25c1.65-2.84,3.72-0.95,5.69-0.64
	c1.51,0.24,3.19,0.7,4.56,0.28c2.98-0.92,5.75,0.4,8.63,0.38c1.31-0.01,2.86,0.96,4.04,2.03c0.3,0.27,0.84,0.56,1.49,0.51
	c0.73-0.06,2.15-0.4,1.41,1.39c-0.14,0.33,0.74,0.4,1.19,0.53c1.71,0.49,2.81,1.56,3.13,3.35c-0.36-0.09-0.73-0.17-1.09-0.26
	c-0.39-0.72-1.01-0.86-1.75-0.66c-0.08-0.15-0.06-0.52-0.35-0.14c0.11,0.05,0.23,0.1,0.34,0.15c0.83,0.73-1.08,1.87,0.26,2.37
	c1.02,0.38,0.27-1.27,1.13-1.34c0.4,0.48,0.8,0.97,1.19,1.45c-1.21,1.18-3.01,0.77-4.34,1.63c-0.74,0.41-1.53-1.12-1.76-0.38
	c-0.31,0.97-1.36,2.1-0.3,3.27c-0.93-0.58-1.96-0.01-2.92-0.27c1.55-0.51-0.06-3.08,2.29-3.2c-1.18,0.31-1.71-0.6-2.54-0.9
	c0.01,0.76-0.47,1.97-0.67,1.74c-0.99-1.15-2.78-0.19-3.66-1.81c-0.88-1.62-2.48-1.42-3.56,0.17c2.37-0.26,3.85,0.68,4.28,3.05
	c-1.72,0.2-3.28,0.83-4.63,1.93c-0.68-0.81,0.83-1.28,0.04-1.94c1.42,0.15,0.79-1.58,2.17-1.73
	C295.43,187.65,294.56,187.73,293.72,187.67z M285.93,180.55c-1.88-1.64-3.63-0.12-5.43,0.25
	C282.3,180.66,284.11,180.49,285.93,180.55z M295.42,184.68l0.07-0.14l-0.13-0.01L295.42,184.68z M286.94,184.49
	c-0.05-0.05-0.1-0.15-0.16-0.15c-0.05,0-0.11,0.09-0.17,0.14c0.08,0.06,0.16,0.11,0.24,0.17
	C286.88,184.59,286.91,184.54,286.94,184.49z"/>
<path fill="#0D0A17" d="M316.41,185.3c0.46-1.1,0.51-1.29,1.06-1.16c2.31,0.55,4.53-0.34,6.98-0.42c-2.57,1.97-5.42,1.2-8.08,1.52
	L316.41,185.3z"/>
<path fill="#0D0A17" d="M383.93,197.68c-1.58-0.81-0.96-1.76-0.87-2.79C384.25,195.58,383.84,196.54,383.93,197.68z"/>
<path fill="#0D0A17" d="M382.97,192.93c0.57,0.6,0.38,1.17,0.42,2.04C382.68,194.16,382.65,193.61,382.97,192.93z"/>
<path fill="#0D0A17" d="M386.08,192.31c0.33-0.26,0.73-0.79,1.1-0.36c0.27,0.32-0.37,0.54-0.59,0.82
	C386.42,192.62,386.25,192.46,386.08,192.31z"/>
<path fill="#0D0A17" d="M316.37,185.24c-0.11,0.15-0.23,0.29-0.34,0.44c-0.05-0.14-0.09-0.29-0.14-0.43
	c0.18,0.02,0.35,0.03,0.53,0.05C316.41,185.3,316.37,185.24,316.37,185.24z"/>
</svg>
