<?xml version="1.0" encoding="utf-8"?>
<!-- Generator: Adobe Illustrator 24.0.2, SVG Export Plug-In . SVG Version: 6.00 Build 0)  -->
<svg version="1.1" id="Layer_1" xmlns="http://www.w3.org/2000/svg" xmlns:xlink="http://www.w3.org/1999/xlink" x="0px" y="0px"
	 viewBox="0 0 1024 1024" style="enable-background:new 0 0 1024 1024;" xml:space="preserve">
<style type="text/css">
	.st0{opacity:0.52;fill:#FFFFFF;}
</style>
<path class="st0" d="M498.99,83c9.11,0,18.22,0,27.34,0c0.75,0.16,1.49,0.41,2.24,0.46c8.69,0.62,17.39,1.07,26.06,1.84
	c19.94,1.76,39.63,5.14,59.06,9.91c78.2,19.23,145.84,57.34,202.71,114.32c48.25,48.34,82.98,105.11,104.12,170.08
	c11.76,36.13,18.84,73.14,20.14,111.19c0.03,0.75,0.31,1.49,0.47,2.24c0,12.68,0,25.36,0,38.03c-0.17,0.95-0.42,1.89-0.49,2.85
	c-0.61,8.39-0.99,16.8-1.81,25.16c-2.01,20.52-5.76,40.76-10.99,60.69c-20.4,77.7-59.15,144.92-117.08,200.53
	c-77.44,74.33-170.1,114.37-277.37,120.32c-0.97,0.05-1.93,0.31-2.89,0.48c-12.08,0-24.17,0-36.25,0c-0.86-0.16-1.72-0.43-2.58-0.47
	c-12.97-0.54-25.86-1.82-38.72-3.58c-26.05-3.57-51.55-9.49-76.46-17.89c-70.72-23.83-131.3-63.32-181.5-118.51
	c-49.13-54.01-82.32-116.62-99.59-187.6c-6.26-25.75-10.03-51.86-11.35-78.33c-0.12-2.42-0.68-4.82-1.03-7.24
	c0-10.1,0-20.21,0-30.31c0.22-0.95,0.57-1.88,0.64-2.84c0.57-7.2,1.02-14.41,1.63-21.61c1.53-18.07,4.32-35.95,8.31-53.64
	c18.74-83.18,58.66-154.63,119.55-214.21c47.56-46.53,103.18-80.02,166.44-100.74c25.37-8.31,51.31-14.07,77.77-17.49
	c12.96-1.68,25.99-2.74,39.05-3.21C497.27,83.42,498.13,83.16,498.99,83z M584.84,607.89c-0.32-0.18-0.65-0.36-0.97-0.54
	c0-1.26,0-2.52,0-3.77c0-117.46,0-234.92,0-352.38c0-6.06-0.45-12.07-1.71-18c-4.39-20.63-15.62-36.26-34.64-45.61
	c-21.44-10.54-43.4-10.71-65.13-0.92c-16.92,7.62-28.32,20.61-34.27,38.23c-2.81,8.33-3.86,16.94-3.86,25.72
	c0.02,117.26,0.01,234.52,0.01,351.79c0,1.14,0,2.29,0,3.43c-1.31-0.49-2.07-1.22-2.81-1.96c-30.88-30.88-61.77-61.76-92.64-92.66
	c-2.1-2.1-3.97-4.43-6.11-6.48c-3.5-3.35-6.83-6.99-10.77-9.73c-19.61-13.67-41.19-16.73-63.98-10.31
	c-20.23,5.7-34.9,18.23-43,37.85c-5.71,13.83-6.82,28.21-3.88,42.85c3.07,15.27,10.34,28.13,22.46,38.1
	c0.91,0.75,1.75,1.61,2.59,2.45c68.14,68.14,136.29,136.27,204.41,204.43c3.78,3.78,7.37,7.75,11.1,11.57
	c1.86,1.91,3.74,3.84,5.79,5.54c12.73,10.6,27.51,15.68,43.97,16.33c22.03,0.87,40.93-6.91,56.28-22.18
	c70.29-69.91,140.28-140.12,210.39-210.21c1.33-1.33,2.72-2.59,4.15-3.82c6.46-5.56,11.72-12.08,15.47-19.74
	c7.37-15.02,9.3-30.82,6.06-47.14c-4.4-22.21-16.87-38.3-37.55-47.72c-12.64-5.76-25.96-7.58-39.73-5.92
	c-16.03,1.93-30.1,8.11-41.62,19.62c-2.31,2.31-4.35,4.88-6.65,7.19c-30.44,30.48-60.92,60.94-91.36,91.42
	C586.07,606.06,585.5,607.02,584.84,607.89z"/>
</svg>
