<?xml version="1.0" encoding="utf-8"?>
<!-- Generator: Adobe Illustrator 24.0.2, SVG Export Plug-In . SVG Version: 6.00 Build 0)  -->
<svg version="1.1" id="Layer_1" xmlns="http://www.w3.org/2000/svg" xmlns:xlink="http://www.w3.org/1999/xlink" x="0px" y="0px"
	 viewBox="0 0 907.09 425.2" enable-background="new 0 0 907.09 425.2" xml:space="preserve">
<path fill="#0D0A17" d="M910.78,199.04c0,75.85-0.01,151.7,0.05,227.55c0,1.81-0.41,2.22-2.22,2.22c-304-0.05-608-0.04-912-0.04
	c0-72.33,0-144.67,0-217.4c2.82,1.98,6.07-1.38,8.48,1.53c0.04,0.05,0.43-0.26,0.64-0.25c2.94,0.21,5.72-1.38,8.9,0.23
	c5.06,2.55,10.37,1.63,15.6-0.27c1.71-0.62,3.19-2.52,5.3-1.56c2.9,1.33,5.67-1.23,8.54-0.16c0.19,0.07,0.55-0.28,0.83-0.44
	c2.24-1.32,4.47-2.6,7.17-1.13c1.13,0.61,2.13,0.07,3.18-0.43c3.59-1.72,7.28-1.67,10.82,0.01c1.71,0.81,3.26,1.25,5.07,0.68
	c0.46-0.14,1.29-0.73,1.36,0.14c0.17,2.06,1.25,1.23,2.33,1.01c0.94-0.19,2.05-0.7,2.7,0.71c0.3,0.65,0.95,0.25,1.5,0.12
	c3.98-0.9,7.79-0.43,11.63,1c4.73,1.76,9.59,2.14,14.1-0.72c1.24-0.79,2.32-0.83,3.62-0.63c1.23,0.19,2.59,1.01,3.6-0.56
	c0.25-0.38,0.76-0.18,1.11,0c1.62,0.88,3.18,0.23,4.24-0.75c2-1.85,3.89-1.32,5.61-0.03c1.26,0.94,2.08,0.46,3.26,0.07
	c2.85-0.93,5.62-2.35,8.77-0.26c2.05,1.37,4.6,1.89,7.16,0.92c0.76-0.29,1.74-0.5,2.2,0.33c0.54,0.98,1.15,0.57,1.94,0.62
	c2.86,0.17,5.47-1.12,8.66,0.14c4.18,1.67,8.8,3.32,13.64,1.59c1.2-0.43,2.18-1.32,3.46-1.5c2.76-0.39,5.55-1.12,8.29-0.98
	c1.57,0.08,3.06,0.06,4.03-0.85c1.87-1.75,3.57-1.35,5.45-0.33c0.48,0.26,0.91,0.7,1.49,0.15c1.4-1.32,3.33-1.69,5.03-2.17
	c2.68-0.76,5.4-2.07,8.4,0.02c1.9,1.33,4.49,1.66,6.97,0.75c0.8-0.29,1.87-0.55,2.38,0.46c0.45,0.89,0.85,0.74,1.66,0.53
	c3.97-0.99,7.8-0.43,11.65,0.97c4.89,1.77,9.86,2.29,14.45-1c0.81-0.58,1.62-0.66,2.51-0.55c1.55,0.19,3.19,1.39,4.55-0.48
	c0.1-0.14,0.66-0.09,0.9,0.06c1.5,0.92,3.04,0.35,4.05-0.51c2.28-1.94,4.24-1.25,6.29,0.17c1.39,0.96,2.76,1.13,3.54-0.58
	c0.86-1.88,3.5-1.34,4.16-3.34c0.32-0.96,1.01-1.57,1.95-1.99c1.82-0.81,3.52-2.05,5.41-2.45c2.66-0.57,5.34-1.74,8.18,0.39
	c1.96,1.47,4.68,1.65,7.17,0.64c0.35-0.14,1.23-0.01,0.93-0.72c-0.8-1.93-0.63-4.01-1.06-5.96c-0.59-2.63-2.72-3.84-5.46-3.75
	c-0.07-0.7-0.22-1.45,0.62-1.82c0.1-0.05,0.38,0.14,0.49,0.29c0.86,1.22,3.37,1.37,4.24,0.26c0.74-0.95-0.87-0.41-0.59-1.14
	c0.97,0,1.97,0,2.97,0c-0.01,0.33,0.12,0.52,0.48,0.49c0,0.65,0,1.3-0.01,1.96c-1.14-0.2-2.48,0.42-2.62,1.1
	c-0.2,1.02,0.43,2.25,1.31,3.11c0.24,0.24,1.14,0.26,0.77,0.57c-2.33,1.97-0.07,3.78,0.06,5.65c0.07,1.05,0.43,1.15,1.53,1.09
	c2.23-0.12,4.45-1.38,6.61-0.62c2.99,1.05,6.37,1.34,8.71,4.25c0.05-2.49,0.07-2.51-1.94-3.58c-0.87-0.46-0.87-1.12-0.48-1.81
	c2.6-4.54,4.24-9.63,7.73-13.79c-0.93,1.73,1.6,1.67,1.37,2.94c-0.31,1.69,0.8,1.76,1.99,1.81c4.58,0.18,9.17,0.56,13.74,0.49
	c2.78-0.04,3.67,1.69,4.24,3.65c0.48,1.64,3.05,3.53-0.06,5.21c-0.13,0.07-0.19,0.45-0.14,0.65c0.36,1.44-0.16,2.86-0.09,4.31
	c2.76-0.51,5.93,0.03,7.9-2.34c1.26-1.52,2.4,0.81,3.35-0.37c0.68,0.65-0.17,1.53,0.36,2.3c2.2-0.42,4.05-2.96,6.63-1.23
	c0.05,0.03,0.2,0.01,0.22-0.03c1.29-2.42,2.15-0.11,2.73,0.44c2.51,2.38,2.46,2.43,4.25-0.68c0.44-0.76,0.76-1.95,1.94-1.6
	c0.94,0.28,1.71,0.05,2.52-0.2c1.28-0.4,2.39-0.36,3.66,0.33c2.63,1.44,5.42,2.45,8.53,1.36c0.85-0.3,1.61-0.25,2.27,0.73
	c0.89,1.32,2.12-0.12,3.26,0.02c1,0.13,0.6-1.13,0.53-1.73c-0.18-1.59-0.49-2.93,0.38-4.66c0.96-1.89,0.31-4.3-0.86-6.69
	c-0.61,3.03-1.88,1.54-2.73,0.56c-0.51-0.58-1-0.76-1.21-0.24c-0.82,2.03-2.78,1.24-4.15,1.84c-1.57,0.68-2.81-0.36-3.18-1.58
	c-0.47-1.55-1.3-2.34-2.72-2.71c-0.97-0.25-1.45-0.89-0.91-1.72c0.89-1.37,1.29-3.28,3.22-3.4c0.5-1.37-1.63-0.35-1.05-1.34
	c0.73-1.25,0.89-3.01,2.73-3.45c1.41-0.34,1.39-0.39,0.66-1.64c-0.1-0.17-0.13-0.59-0.06-0.63c2.38-1.21,2.86-4.15,5.51-5.43
	c2.85-1.38,5.81-1.18,8.66-1.81c3.03-0.67,5.81,1.62,7.68,3.7c1.24,1.38,2.4,3.22,3.45,4.96c0.82,1.36,1.92,2.24,0.51,4.04
	c-1.17,1.5-4.46,3.65-5.74,2.62c-2.07-1.66-1.99-0.09-2.42,1.16c-1.22,3.48-1.64,3.73-5.34,3.41c-0.1-0.44-0.09-0.97-0.34-1.31
	c-0.38-0.53,1.17-0.88,0.1-1.26c-0.82-0.29-1.3,0.37-1.64,1c-0.46,0.82-0.2,1.5,0.55,2.02c-0.1,1.15-0.39,2.35,0.74,3.22
	c0.17,0.15,0.34,0.31,0.51,0.46c-0.65,2.84-1,5.71-0.88,8.62c0.03,0.77-0.08,1.57,1.24,1.52c2.54-0.1,4.68,1.46,7.1,1.94
	c2.48,0.49,5.18,1.78,7.39,1.2c3.06-0.8,6.14-1.64,9.21-2.48c2.4-0.66,4.62-2.11,7.3-0.77c0.87,0.44,2.21,0.98,3.03-0.55
	c0.19-0.36,0.91-0.17,1.35,0.07c1.87,1.01,3.78,0.58,5.24-0.53c2.51-1.9,4.61-0.6,6.48,0.66c1.77,1.19,3.24,1.26,5.13,0.57
	c3.29-1.2,6.63-2.41,9.86,0.37c0.68,0.59,1.79,0.66,2.68,1.03c2.3,0.97,5.27-1.46,7.22,1.39c0.03,0.04,0.41-0.2,0.64-0.24
	c4.04-0.67,7.77,0.22,11.57,1.72c4.31,1.7,8.84,3.07,13.43,0.4c0.98-0.57,2.13-1.02,3.44-0.79c1.62,0.28,3.37,1.61,4.91-0.3
	c0.07-0.08,0.58,0.13,0.84,0.28c1.56,0.89,3.08,0.38,4.25-0.55c1.87-1.5,3.66-1.22,5.19,0.1c1.35,1.17,2.43,0.83,3.9,0.47
	c2.73-0.67,5.4-1.9,8.32,0.26c1.96,1.46,4.56,2.33,7.27,1.34c0.62-0.23,1.56-0.39,2.03,0.31c1.2,1.8,2.37,0.85,3.84,0.34
	c3.25-1.13,6.67-1.78,9.73-3.47c0.18-0.1,0.48-0.05,0.71,0c1.72,0.41,3.48,1.65,5.07-0.34c0.11-0.14,0.77,0.05,1.12,0.21
	c1.71,0.79,3.46,0.22,4.47-0.87c2.25-2.44,4.29-0.95,6.07,0.15c1.76,1.09,3.07,1.05,4.85,0.23c2.82-1.29,5.76-2.91,8.82-0.3
	c0.57,0.48,1.52,0.49,2.24,0.83c2.32,1.09,5.12-1.57,7.26,0.95c0.05,0.06,0.45-0.25,0.65-0.22c2.09,0.34,4.13-1.43,6.14-0.41
	c3.26,1.67,6.9,1.76,10.29,2.81c0.62,0.19,1.2,0.15,1.87,0.01c3.52-0.73,6.45-4.17,10.55-2.29c0.41,0.19,0.64-0.32,0.87-0.66
	c0.37-0.56,0.9-0.62,1.46-0.3c1.46,0.83,2.82,0.15,3.75-0.73c1.71-1.63,3.41-1.43,4.93-0.2c1.28,1.03,2.14,0.77,3.42,0.14
	c1.76-0.87,4.64-2.16,5.55-1.26c3.52,3.48,8.36,0.72,11.92,3.13c0.17,0.11,0.59-0.17,0.9-0.26c3.69-1.03,7.15-0.13,10.65,1.1
	c4.2,1.48,8.64,2.16,12.45-0.69c2.58-1.93,5.34,0.68,7.94-1.08c0.69-0.47,2.91-0.03,4.04-1.05c1.36-1.22,2.74-1.34,4.1-0.41
	c1.15,0.79,1.83,0.37,2.93-0.14c3.99-1.83,7.98-4.39,12.51-1.1c0.77,0.56,1.99,0.52,3.02,0.67c1.69,0.25,3.76-1.77,5.09,0.84
	c0.02,0.04,0.54-0.26,0.84-0.27c2.95-0.14,5.76-1.01,8.87,0.36c3.6,1.58,7.51,2.9,11.69,1.46c1.09-0.37,2.06-0.95,2.91-1.52
	c2.59-1.74,5.49,0.29,8.16-0.96c0.74-0.35,2.34,0.09,3.1-0.65c2.26-2.2,4.23-1.58,6.33,0.16c0.96,0.8,1.92,0.99,2.72-0.39
	c1.27-2.19,4.47-2.56,5.14-5.35c4.29-1.8,8.26-5.45,13.41-2.19c0.78,0.49,1.85,0.49,2.76,0.79c2.04,0.66,4.5-1.68,6.28,0.88
	c0.03,0.04,0.4-0.19,0.63-0.25c4.67-1.22,8.86-0.08,12.89,2.39c1.98,1.21,4.31,1.81,6.36,0.08c1.59-1.34,3.04-0.95,4.33,0.11
	c1.27,1.05,2.23,1.06,3.84,0.55c2.52-0.79,5.33-2.06,7.81,0.5c0.73,0.75,1.83,1.16,2.87,0.5c2.69-1.69,5.63,0.47,8.51-0.68
	c1.08-0.43,3,0.02,4.02-0.87c2.05-1.8,3.85-0.56,5.73,0.01c0.6,0.18,1.21,0.48,1.69,0.87c1.75,1.39,2.56,0.42,3.29-1.15
	c0.37-0.78,1.18-2.13,1.45-2.05c1.89,0.55,4.02-1.62,5.2-0.43c3.4,3.44,8.18,0.69,11.67,3.1c0.16,0.11,0.6-0.3,0.88-0.26
	c2.09,0.32,4.05-1.22,6.16-0.46c1.57,0.56,3.09,1.29,4.69,1.72c2.43,0.64,5.19,1.87,7.4,0.95c3.59-1.49,7.65-1.28,10.98-3.47
	c0.65-0.43,1.51-0.17,2.31,0.16c2.98,1.2,5.98-0.25,8.98-0.07c0.21,0.01,0.49-0.13,0.65-0.29c2.47-2.38,4.64-0.99,6.7,0.6
	c1.31,1.01,2.58,1.11,4.03,0.48C909.52,199.33,910,198.66,910.78,199.04z M313.9,205.33c-0.88,0.57-0.66,1.15-0.01,1.73
	c2.76,1,1.05-1.52,1.71-2.17c-0.55-0.4,0.7-1.26-0.38-1.5c-0.56-0.13-1.14-0.05-1.59,0.34C312.9,204.37,313.57,204.83,313.9,205.33z
	 M325.02,199.99c-3.94-0.97-7.95-0.82-11.93-1.13c-0.02,0.2-0.03,0.39-0.05,0.59c4.02,0.31,8.04,0.62,12.06,0.93
	c2.01,0.19,4.01,0.38,6.02,0.57C329.14,199.99,327.09,199.94,325.02,199.99z M321.63,202.96c1.32,1.26,3.01,0.71,5.11,1.25
	c-2.82-0.03-3.65,1.12-3.27,3.27c0.1,0.55,0.66,1.07,0.76,0.69c0.29-1.13,1.62-1.55,1.78-2.14c0.68-2.56,1.95-0.49,2.9-0.58
	c-0.59,1.8,1.26,1.17,1.53,1.13c0.97-0.13-0.52-1.52,0.68-1.81c-0.35-0.71-1.02-0.79-1.7-1
	C326.87,202.98,324.18,203.73,321.63,202.96z M330.15,202.83c0.01-0.26,0.02-0.52,0.03-0.79c-4.97-0.41-9.93-0.83-14.9-1.24
	c-0.02,0.28-0.04,0.57-0.07,0.85C320.2,202.05,325.17,202.44,330.15,202.83z M333.08,194.66c0.02-0.25,0.03-0.49,0.05-0.74
	c-4.97-0.25-9.93-0.51-14.9-0.76C323.13,194.4,328.14,194.06,333.08,194.66z M326.09,198.55c0.02-0.27,0.03-0.55,0.05-0.82
	c-4.1-0.24-8.19-0.49-12.29-0.73C317.88,198.22,322.01,198.07,326.09,198.55z M320.9,196.01c3.74,0.25,7.48,0.5,11.22,0.75
	C328.5,195.11,324.68,195.88,320.9,196.01z M317.63,204.21c1.12,0.87,1.12,1.88,1.11,2.9c-0.01,0.5,0.07,0.97,0.78,0.82
	c0.22-0.05,0.44-0.09,0.65-0.13c-0.86-0.98,0.12-2.07-0.17-2.98C319.82,204.27,318.8,204.24,317.63,204.21z M389.58,180.33
	c1.61-1.36,2.5-0.45,3.25,0.81c0.41,0.69,0.75,0.46,1.12-0.02c0.23-0.3,0.66-0.88-0.04-0.75c-1.13,0.21-1-0.82-1.47-1.19
	C390.98,178.04,389.98,177.66,389.58,180.33z M389.41,184.47c-0.31-0.47-0.23-1.59-1-1.18c-0.49,0.26-1.63,0.49-1.43,1.44
	c0.11,0.53,0.59,1.25,1.27,1.21C389.03,185.9,389.42,185.27,389.41,184.47z M399.75,180.5l0.1-0.17l-0.16-0.02L399.75,180.5z"/>
<path fill="#0D0A17" d="M293.09,188.41c-0.16-0.16-0.32-0.32-0.48-0.49c-0.32-0.99,1.28-2.21,0.16-2.78
	c-1.11-0.57-2.44-0.55-3.96,0.25c-0.94,0.49-2.3,2.3-4.19,1.14c-0.29-0.18-1.73,1.5-2.64,2.32c-1.31,1.26-3.08,1.28-4.65,1.84
	c-1.53,0.55-2.61-0.17-3.87-0.42c-0.45-0.09-0.86-0.38-1.3-0.55c-0.7-0.26-2.09,0.82-2.05-0.56c0.03-1.07-0.37-2.8,1.49-3.24
	c1.17-0.28,1.51-1.48,1.71-2.31c0.75-3,3.96-5.55,6.98-5.29c0.46,0.04,1.22,0.01,1.38-0.26c1.66-2.85,3.74-0.95,5.72-0.64
	c1.52,0.24,3.21,0.7,4.58,0.28c2.99-0.92,5.77,0.4,8.66,0.38c1.32-0.01,2.87,0.96,4.05,2.04c0.3,0.27,0.84,0.56,1.5,0.51
	c0.74-0.06,2.16-0.4,1.42,1.39c-0.14,0.33,0.74,0.41,1.19,0.53c1.71,0.49,2.82,1.57,3.14,3.36c-0.37-0.09-0.73-0.17-1.1-0.26
	c-0.39-0.72-1.01-0.87-1.76-0.67c-0.08-0.15-0.06-0.53-0.35-0.14c0.11,0.05,0.23,0.1,0.34,0.15c0.84,0.73-1.09,1.88,0.26,2.38
	c1.03,0.38,0.27-1.28,1.13-1.34c0.4,0.49,0.8,0.97,1.2,1.46c-1.21,1.18-3.02,0.77-4.35,1.64c-0.75,0.41-1.53-1.12-1.77-0.38
	c-0.31,0.98-1.36,2.11-0.3,3.28c-0.93-0.58-1.97-0.01-2.93-0.27c1.55-0.51-0.06-3.1,2.3-3.21c-1.18,0.31-1.72-0.61-2.55-0.9
	c0.01,0.77-0.47,1.97-0.67,1.75c-0.99-1.16-2.8-0.19-3.68-1.81c-0.89-1.63-2.49-1.43-3.57,0.17c2.38-0.26,3.87,0.69,4.3,3.06
	c-1.73,0.21-3.29,0.84-4.65,1.94c-0.68-0.81,0.84-1.29,0.04-1.95c1.42,0.15,0.79-1.58,2.18-1.74
	C294.8,188.4,293.93,188.47,293.09,188.41z M285.26,181.27c-1.89-1.65-3.65-0.12-5.45,0.25
	C281.63,181.38,283.44,181.2,285.26,181.27z M294.79,185.42l0.07-0.14l-0.13-0.01L294.79,185.42z M286.28,185.22
	c-0.05-0.05-0.1-0.15-0.16-0.15c-0.05,0-0.11,0.09-0.17,0.14c0.08,0.06,0.16,0.11,0.24,0.17
	C286.22,185.32,286.25,185.27,286.28,185.22z"/>
<path fill="#0D0A17" d="M315.87,186.03c0.47-1.1,0.51-1.3,1.06-1.17c2.32,0.55,4.55-0.35,7.01-0.42c-2.58,1.98-5.44,1.21-8.11,1.53
	L315.87,186.03z"/>
<path fill="#0D0A17" d="M383.66,198.46c-1.59-0.82-0.96-1.77-0.87-2.8C383.98,196.36,383.57,197.32,383.66,198.46z"/>
<path fill="#0D0A17" d="M382.69,193.69c0.57,0.6,0.38,1.18,0.42,2.04C382.4,194.93,382.37,194.38,382.69,193.69z"/>
<path fill="#0D0A17" d="M385.82,193.07c0.33-0.27,0.73-0.8,1.1-0.36c0.27,0.32-0.37,0.54-0.59,0.82
	C386.15,193.38,385.98,193.23,385.82,193.07z"/>
<path fill="#0D0A17" d="M315.83,185.97c-0.11,0.15-0.23,0.3-0.34,0.44c-0.05-0.14-0.1-0.29-0.14-0.43c0.18,0.02,0.35,0.03,0.53,0.05
	C315.87,186.03,315.83,185.97,315.83,185.97z"/>
</svg>
