<svg version="1.1" baseProfile="tiny" x="0px" y="0px" viewBox="0 0 151.5 300" overflow="visible" xml:space="preserve">
<path fill="#0D0A17" d="M-0.1,205.5c1.7,0.5,2.8,0.4,4.6-1.1c3.8-3.3,7.5-7.2,13.1-7.9c2.4-0.3,4.6-0.5,6.7,1c2.2,1.5,4.6,1.3,7,0.5
	c0.6-0.2,0.9-0.3,0.7-1c-0.6-1.7-0.6-3.4-0.9-5.1c-0.4-2.4-1.8-3.7-4.2-4c-0.5-0.1-1.3,0.2-1.3-0.7c0-0.3,0-0.8,0.3-1
	c0.6-0.6,1,0.1,1.5,0.4c1.7,1,2.2,0.8,3.2-1c0.3-0.6,0.9-0.3,1.4-0.3c1.5,0.2,1.8-1,1.8-1.9c0-1-1.1-0.9-1.9-0.9
	c-1.1-0.1-2,0.4-2.9,1c-1,0.7-2,1.6-3.4,0.9c-0.6-0.3-1,0.2-1.3,0.6c-3.2,3.3-6.9,4.5-11.3,2.7c-0.2-0.1-0.4-0.1-0.6-0.2
	c-0.6-0.2-1.8,0.7-1.9-0.7c-0.1-1.2-0.4-2.6,1.2-3.2c1.2-0.4,1.6-1.3,2-2.3c1.1-3.3,3.3-5.2,6.9-5.4c0.5,0,1.2,0,1.4-0.3
	c1.6-2.1,3.4-1.3,5.4-0.8c2,0.6,4,0.5,6.1,0.4c4.2-0.2,8.5-0.4,12.1,2.5c0.6,0.4,1.2,0.6,1.8,0.5c0.8,0,1.6-0.1,1.4,1.1
	c-0.1,0.8,0.6,0.7,1,0.8c0.9,0.3,1.8,0.7,2.3,1.5c0.3,0.5,1.1,1.1,0.6,1.7c-0.4,0.5-1-0.2-1.4-0.3c-1.8-0.6-0.7,1.2-1.5,1.5
	c0.6,0.4,0.8,0.2,1-0.2c0.7-1,1.1-0.2,1.5,0.3c0.6,0.8-0.1,1.2-0.6,1.2c-1.5,0.2-2.9,1.4-4.6,0.8c-1.1-0.4-1.2,0.8-1.1,1.2
	c0.1,2-1.1,1.9-2.6,1.7c0.2-0.6,0.4-1.2,0.5-1.8c0-0.5,0.8-1.2-0.2-1.7s-0.7,0.4-1,0.8c-0.5,0.7-1,0-1.5-0.1
	c-0.8-0.2-1.6-0.4-2.3-0.6c-0.1-0.2-0.3-0.3-0.4-0.5c-0.7-1.6-1.7-1.6-3-0.6c0.9,0.4,1.8,0.7,2.7,1c0.1,0.1,0.2,0.2,0.3,0.3
	c1.2,1.6,1,2.4-1.1,2.8c-1,0.2-1.8,0.8-2.8,1.3c-0.7-1.8,1.4-2.4,1.6-3.9c-0.9,0-2.1-1.2-2.1,0.9c0,0.4-0.3,0.5-0.7,0.7
	c-2.3,1-2.6,2.1-0.8,3.8c0.7,0.6,0.8,0.8,0.3,1.6c-1.2,1.9,0.4,3.6,0.9,5.3c0.3,1.1,2,0.5,3,0.2c4.7-1.3,8.6,0.5,12.5,2.7
	c0.3,0.2,0.6,0.4,0.9,0.6c0.4-1.2-0.1-1.9-1.1-2.3c-1.4-0.7-1.7-1.5-0.9-2.9c2.5-4.3,4.2-9.1,7.6-13.2c-0.1,1.7,1.4,2.4,1.8,3.9
	c0.4,1.6,2.7,0.8,4.2,0.9c4,0.2,7.9,0.3,11.9,0.5c1.4,0,2.5,0.6,3.1,1.8c0.8,1.5,1.5,3,2.1,4.5c0.3,0.7,0.3,1.6-0.4,2
	c-1.2,0.7-0.8,1.8-1,2.8c-0.6,2.4,0.3,2.8,2.5,2.5c1.8-0.3,3.6-0.5,5-1.9c1.2-1.2,3.5-0.7,3.9,0.9c0.3,1,0.7,0.8,1.2,0.5
	c1.7-0.8,3.8-0.7,5.3-1.3c2.5-0.9,3,0.6,4.1,1.6c1.2,1.2,2,1.2,2.8-0.4c0.5-0.9,0.8-2.6,1.9-2.5c2.4,0.1,4.9-1.3,7.3,0
	c2.6,1.5,5.4,2.3,8.4,1.3c0.7-0.2,1.6-0.3,2,0.4c1.1,1.7,2.4,0.6,3.5,0.2c1.2-0.4,0.3-1.5,0.3-2.3c0-1.4,0.3-2.8-1.1-4.1
	c-0.9-0.8,0.6-2.4-0.2-3.7c1.3,1.1,0.9,2.8,1.6,4.2c1.2-2.2,0.6-4.1-0.4-6.1c-0.6,0.3-1.1,1.4-1.5,0.9c-1.7-2.1-3.1-0.3-4.7,0.1
	c-0.8,0.2-1.6,0.3-2.4,0.5c-1.8,0.5-2.7-0.4-3.2-1.9c-0.4-1.2-1.1-2.1-2.3-2.4c-1.8-0.5-1.5-1.4-0.9-2.8c0.6-1.5,2.9-2.1,2.2-4.5
	c-0.3-1.1,1-2.7,2.7-3c0.4-0.1,0.7-0.1,0.8-0.6c0.7-3.9,4.4-7.4,8.6-8.1c1.9-0.3,3.8-0.6,5.7-0.8c2.1-0.3,3.9,0.6,5.5,1.9
	c2.9,2.3,4.6,5.4,6.5,8.4c0.3,0.5,0.4,1.1,0.2,1.7c-0.9,2.5-4.6,4.3-7.1,3.3c-1-0.4-1.3,0-1.6,0.8c-0.3,1-0.7,2.1-1.2,3
	c-0.8,1.5-2.3,1.4-3.7,1.2c-1.2-0.1-1.1-1.2-1.1-2s-0.4-0.8-0.9-0.4c-0.6,0.5-1.1,1.4-0.5,1.9c1.3,0.9-0.9,3.8,2.2,3.5
	c-1.1,3-1.4,6.1-1.4,9.3c0,0.7,0,1.6,1,1.6c3.6,0.2,6.7,2,10.1,2.8c2.7,0.7,5.2,0.4,7.8-0.4c1.9-0.5,3.7-1.3,5.7-1.4
	c0,32.6,0,65.1,0,97.7c0,1.5-0.3,1.8-1.8,1.8c-49.5-0.1-99.1-0.1-148.6,0c-1.5,0-1.8-0.3-1.8-1.8C-0.1,268.3-0.1,236.9-0.1,205.5z
	 M67.4,202.5c0.1-0.1,0.2-0.2,0.4-0.3c0.9-0.2,1.6,0.3,2.1,0.8c0.4,0.4,0.4,1.3,1.3,1c0.8-0.3,0.5-1,0.6-1.5
	c0.3-1.1-0.7-0.9-1.2-1.1c-1.2-0.5-2.4-0.4-3.7-0.3c-1-0.6-2.1-0.3-3.4-0.3c1.1,0.7,2.2,0.5,3,1.2c-2.1,0.5-1.9,1.8-1.6,3.6
	C66.1,204.6,67,203.7,67.4,202.5z M56.4,202.7c-0.3-0.5,0.6-1.7-0.9-1.6c-1.8,0.1-0.4,1.6-0.9,2.3c-0.4,0.7,0.3,1.2,1,1.2
	C57,204.5,56,203.3,56.4,202.7z M130.1,183.2c0.8,0,1.1-0.5,1.1-1.1c0-0.5-0.1-1.3-0.8-1.2c-0.6,0-1.3,0.3-1.3,1.1
	C129.1,182.7,129.5,183.1,130.1,183.2z M60.4,205.6c0.7-3.5,0.7-3.5-1.4-3.6C60.3,203,59.5,204.3,60.4,205.6z M134.7,177.9
	c0-1.3-1-1.8-1.9-2c-0.6-0.2-0.9,0.5-1,1.2C132.8,177.2,134,176.8,134.7,177.9z"/>
</svg>
