<?xml version="1.0" encoding="utf-8"?>
<!-- Generator: Adobe Illustrator 24.1.2, SVG Export Plug-In . SVG Version: 6.00 Build 0)  -->
<svg version="1.1" baseProfile="tiny" xmlns="http://www.w3.org/2000/svg" xmlns:xlink="http://www.w3.org/1999/xlink" x="0px"
	 y="0px" viewBox="0 0 151.5 300" overflow="visible" xml:space="preserve">
<rect x="0.3" y="0.1" fill="#110D32" width="151.6" height="300.1"/>
<path fill="#160E37" d="M-0.2,178.7c0-22.3,0-44.5,0-66.8c2.1-1,3.6-2.4,3.9-4.8c0.3-2.8,0.4-2.8,3.1-2.2c4.1,0,5,0.9,5.2,5.1
	c0,0.4,0,0.7,0.1,1.1c0.3,1.7,2.6,3,3.5,1.8c1.9-2.7,4.8-3.8,7.3-5.4c1.1-0.7,2.2-1.6,3.5-2.1c3.6-1.4,7.4-1.6,11.3-1.3
	c0.9,0.1,2.1,0,2.6,0.8c1.3,1.7,2.6,1.5,4.1,0.5c1.1-0.7,1.9-0.6,2.3,0.8c0.2,0.6,0.5,1.2,1.2,1.1c3.8-1,7,1.4,10.5,2
	c1.1,0.2,2.1,0.6,3.1-0.1c1.7-0.1,2.5-1.2,3.1-2.6c0.5-1.1,0.8-2.3,1.2-3.5c0.8-0.4,1.2-1.2,1.5-2c0.3-0.7,0.7-1.2,1.5-0.5
	c3.9,3.5,9.5,4.3,13.6,8.6c-0.9-4.3,1.6-6,4.4-7.6c0.2-0.1,0.5-0.3,0.7-0.5c3-2,5.2-1.7,7.6,1c0.9,1.1,2.2,1.9,3.4,1.2
	c3-1.6,6.2-3.2,7.8-6.6c0.3-0.7,0.5-1.7,1.4-1.7c3.3-0.3,6.6-1.2,9.6,1.1c1,0.7,1.4,1.5,1.4,2.7c-0.1,1.6-1,2.4-2.3,3.1
	c-2.3,1.2-2.4,1.7-1,3.8c0.6,0.8,0.8,1.3-0.3,1.9c-1,0.6-1,1.9,0.1,1.9c2.9,0,2.7,2.4,3.3,4c0.7,2,0.1,2.9-2,3.5
	c-0.7,0.2-1.7,0-1.9,0.9c-0.5,2.8-2.6,4.4-4.5,6.2c-0.5,0.5-0.8,1.3-1.7,1.1c-0.9-0.2-0.9-1.1-1-1.8c-0.1-0.7-0.3-1.5-1.2-1.1
	c-0.8,0.3-1.4,0.9-1.1,1.9c0.1,0.4,0.4,0.8,0.6,1.1c1.1,1.7,0.8,2.6-1.2,3.1c-0.7,0.2-1.4,0.3-2.1,0.5c-0.5,0.2-1,0.4-0.9,1.1
	c0.1,0.6,0.7,0.6,1.2,0.7c1.3,0,2.6-0.1,3.9,0.1c1.5,0.2,3.3-0.1,4.2,1.7c-0.4,0.9-0.9,1.6-1.6,2.3c-0.5,0.5-1.1,0.7-1.7,0.2
	c-1-0.8-2.2-1.8-3.4-0.5c-1.4,1.4,0.1,2.3,0.8,3.3c0,0.1,0.1,0.1,0.1,0.2c0.3,0.6,0.7,1.2,0.4,1.8c-0.4,0.8-1.1,0.4-1.7,0.3
	c-1.7-0.3-3.4-0.7-5.1-0.6c-0.7,0.1-1.6-0.2-2,0.6c-0.5,1,0.6,1.1,1,1.6c0.8,0.9,0.8,1.7-0.5,2.1c-0.5,0.2-1.5-0.2-1.5,0.8
	c0,0.7,0.7,1.1,1.2,1.4c1.6,1,1.7,2,0.3,3.2c-1.4,1.1-0.6,1.7,0.6,2c1.5,0.4,3-0.4,4.5-0.3c1.1,0.1,2.3-1.5,3.1-0.2
	c0.8,1.3-0.8,2.1-1.4,3.1c-0.5,0.8-0.5,1.7,0.1,2.4c0.6,0.8,1.3,0.7,2.1,0.3c2.7-1.4,3.4-1.1,4.8,1.8c-0.5,0.9-1.3,1.2-2.3,1.3
	c-1.4,0.1-2.7,0-4.1,0c-1.1,0-2.9-0.8-3.1,0.9c-0.2,1.2,1.7,1.3,2.7,1.6c2.7,0.8,2.9,1.2,1.4,3.5c-0.4,0.6-0.7,1.1-0.3,1.8
	c0.3,0.5,0.7,0.8,1.2,0.7c0.9,0,0.9-0.8,1-1.4c0.2-1,0.8-1.9,1.7-1.1c1.9,1.8,4.3,3.3,5.1,6c0.3,1.2,0.9,1.6,2,1.9
	c2.4,0.5,2.9,1.6,1.9,3.9c-0.2,0.5-0.6,1-0.7,1.6c-0.2,1.3-0.6,2.1-2.1,1.7c-0.5-0.1-1,0.2-1.2,0.7c-0.3,0.7,0.2,1.2,0.7,1.4
	c1.9,0.6,1.1,1.4,0.3,2.2c-1.2,1.2-0.8,2.2,0.4,3.1c0.6,0.4,1.2,0.7,1.8,1.2c1.4,1.1,1.7,3.5,0.6,4.6c-1.9,1.9-8.2,2.9-10.7,1.6
	c-0.4-0.2-0.8-0.5-0.9-0.9c-0.9-3.4-3.8-4.8-6.4-6.5c-2.5-1.7-3.6-1.5-5.3,1.1c-1.5,2.2-3.3,2.9-6,2.3c-1.4-0.3-2.7-0.2-4.1,0.2
	c-1.7,0.6-3.3,0.7-5-0.4c-1.1-0.7-2.4-0.7-3.5,0.1c-1,0.8-1.7,0.7-2.5-0.3c-1.1-1.2-2.8-2.6-4.1-1.7c-2.1,1.3-2.4,0.2-3-1.2
	c-0.2-0.4-0.6-0.6-0.9-0.9c-0.4-1.2-0.7-2.5-1.2-3.7c-0.5-1.4-1.3-2.6-3.1-2.4c-1.5-0.8-2.9-0.4-4.4,0.1c-2.3,0.7-4.4,1.8-6.9,1.7
	c-1.5-0.1-3.1-0.3-3.8,1.6c-0.1,0.2-0.8,0.5-0.9,0.4c-2.2-1.6-3.7,0.3-5.6,0.7c-4.3,0.9-8.8,1.1-13.1-0.7c-1.1-0.4-2.5-0.7-2.9-1.7
	c-0.8-1.6-2.2-1.8-3.6-2c-1.3-0.1-2.1-0.6-2.6-1.9c-0.2-0.6-0.7-1.1-1-1.6c-0.7-1-1.6-1.1-2.7-0.9c-1.1,0.2-1.7,1-1.8,2.2
	c-0.1,0.9,0,1.7-0.1,2.6c-0.2,1.9-1.2,3.2-3.3,3.4c-0.5,0-0.9,0.3-1.4,0.4c-1.5,0.1-3.5,0.6-3.4-1.8C4,180.7,1.9,179.8-0.2,178.7z
	 M63.4,135.1c-1.4-0.2-3.1,0.5-4-1.1c-0.8-1.5,0.4-2.4,1.3-3.4c0.3-0.3,0.6-0.7,0.3-1.2c-0.4-0.6-1-0.5-1.6-0.4
	c-0.8,0-1.8,0.6-2.1-0.5c-0.3-1,0.8-1.2,1.4-1.6c2-1.3,2.2-2.9,0.4-4.6c-0.9-0.8-2-1.4-2.3-2.8c-0.2-0.9-0.3-1.7-0.7-2.5
	c-0.3-0.8-1-1.5-2-1.5c-1.2,0-0.9,0.9-1,1.7c-0.1,1.4-1.2,2.2-2.3,2.7c-1,0.5-1.5-0.6-2.1-1.1c-0.4-0.4-0.8-0.8-1.3-1.1
	c-0.5-0.3-1.2-0.5-1.4,0.3c-0.4,1.8-1.7,1.8-3,1.7c-1.6-0.1-3.2,0.2-4.5,1.3c-2.8,2.4-5.6,4.8-8.3,7.2c-0.4,0.4-0.6,0.8-0.4,1.3
	c0.8,1.5,0,2.7-0.7,3.8c-0.6,0.9-1.3,1.9-1.3,3c0.1,1.9-1,2.9-2.4,3.8c-1.5,0.9-2.5,2-1.6,4c0.1,0.3,0.2,0.8,0,1
	c-1.3,2.5,0.1,4,1.9,5.5c2.7,2.3,2.5,6.1,4.4,8.8c0.1,0.1,0,0.3,0,0.4c-1,1.6-0.1,2.5,1.2,3.3c0.5,0.3,0.9,1,1.4,1.3
	c3.5,2.7,6.2,7,11.5,6.4c0.7-0.1,1.4,0.3,1.4,1.1c-0.1,2.1,0.9,1.2,1.8,0.7c0.5-0.4,1.1-0.8,1.5-1.2c1.1-1.1,2-1.2,3,0.1
	c0.6,0.8,1.2,1.4,1.1,2.5c-0.1,1.2,0.8,1.2,1.6,0.9c0.8-0.3,1.3-1.1,1.3-1.9c0.1-2.3,1.2-3.9,3-5.2c1.7-1.3,1.4-2.6-0.4-3.8
	c-0.8-0.5-2-0.7-1.7-1.9c0.3-1.2,1.4-0.7,2.2-0.8c0.5-0.1,1.1,0,1.2-0.6c0.1-0.5-0.2-0.8-0.6-1.1c-1.1-0.7-1.7-1.7-1-3
	c0.6-1.3,1.8-1.7,3.1-1.4c2.1,0.5,4.3,0.4,6.5,0.4c1.5,0,2.3,0.6,2.2,2.2c-0.2,2.4,1.1,4.1,2.8,5.6c0.5,0.4,1,1,1.7,0.6
	c0.8-0.4,0.8-1.2,0.6-1.9c-0.1-0.6-0.4-1.2-0.8-1.7c-0.8-1.1-0.7-2,0.6-2.6c1-0.5,1.9-1,1.1-2.3c-0.2-0.3-0.2-0.8,0.3-0.9
	c0.5-0.1,0.6,0.3,0.7,0.6c0.2,0.7,0.6,1.2,1.4,1c1.9-0.4,4-0.7,5.3-2.2c1.3-1.4,2.2-1.7,3.5-0.2c0.4,0.4,1,0.7,1.5,0.1
	c0.4-0.5,0.2-1-0.1-1.4c-0.7-0.8-1.4-1.7-2.2-2.4c-1.3-1.4-2-2.8-1-4.7c0.3-0.5,0.5-1.1,0.2-1.7c-0.9-1.6-0.1-2.7,1-3.8
	c0.6-0.6,1.2-1.2,1.8-1.9c0.3-0.4,0.7-1,0.2-1.6c-0.6-0.6-1.1,0-1.5,0.4c-1.1,1.4-2.1,1.3-3.1-0.1c-0.9-1.1-2-1.5-3.3-1.9
	c-1.9-0.5-3.9-0.8-5.6-2.1c-1-0.7-1.4-1.4-0.6-2.5c0.3-0.4,0.7-1,0.8-1.5c0.1-0.9,0.1-1.9-0.7-2.4c-0.8-0.6-1.5,0.1-2.1,0.6
	c-1.5,1.4-2.8,2.9-2.7,5.2c0.1,1.1-0.2,2.2-1.6,2.4C67.3,134.7,65.3,134.9,63.4,135.1z M24.1,131.5c0,1.2,0.2,2,1.1,2.3
	c0.9,0.2,1.3-0.5,1.6-1.2c1.1-2.2,2.3-4.3,3.1-6.7c0.6-1.7-0.7-2-1.7-2.5c-1.1-0.5-2.2-0.2-2.4,1C25.3,127,24.8,129.4,24.1,131.5z
	 M24.2,158.6c0.5,2.1,1.1,4.2,1.6,6.3c0.3,1.3,0.4,2.7,2.1,2.2c1.4-0.4,2.8-1.3,1.9-3.2c-1-2.1-2-4.2-3.1-6.2
	c-0.3-0.6-0.8-1.2-1.5-0.9C24.4,157,24.2,157.8,24.2,158.6z M80.8,120.1c0.1-2.3-1.8-3.1-4.6-2.1c-3.5,1.2-3.6,1.7-0.9,4.2
	c0.9,0.9,1.9,1.6,3.3,0.9C79.9,122.5,80.6,121.4,80.8,120.1z M77.4,172.5c2.7,0,3.4-0.5,3.4-2.1c0-1.9-1.4-3.5-3.2-3.5
	c-1.1,0-4.3,2.7-4,3.5C74.4,172.2,76.2,172.3,77.4,172.5z M18.5,165.9c-0.6-0.8-1.5-1.1-2.6-1.1c-0.4,0-0.8,0.2-0.6,0.7
	c0.4,1,1.1,1.4,2.2,1.4C18,166.8,18.5,166.6,18.5,165.9z M16.5,125.4c0.6-0.2,1.6-0.1,1.8-1c0.2-0.8-0.7-1-1.3-1
	c-0.9,0-1.5,0.5-1.7,1.3C15.2,125.5,15.9,125.3,16.5,125.4z"/>
<path fill="#75569B" d="M102.5,301.3c-8.4,0-16.8,0-25.1,0c1.2-4.8,0.5-7.5-2.6-9.3c-1-1.6-2-3.1-2.9-4.7c-0.5-1-1.3-1.3-2.2-1.3
	c-1.1-3-3.3-4.2-6.3-4.2c-1.3,0-2.2-0.3-2.5-1.7c3.1-0.7,6.6,0.3,9.5-1.7c0.1-0.1,0.3,0,0.4,0c2,0.8,3.6,0,5.1-1.4
	c0.6-0.5,1.1-1,1.8-0.1c1.8,2.3,4.2,2.2,6.7,1.5c2.3-0.6,4.7-0.9,7-0.2c1.9,0.6,3.7,0.4,5.4-0.4c1.8-0.2,3.6-0.3,5.3-1.3
	c1.3-0.1,3.1-1.3,2.2-2c-2.3-1.7-0.4-2.6,0-3.9c0.5-1.6,1.7-2.7,3-3.6c1.3-0.9,2.4-0.6,3,0.8c0.9,2,2.6,2.4,4.4,2.6
	c1.1,0.1,2.3,0.3,3.4,0.4c1.4,0.1,2.1,0.6,1.3,2.1c-0.5,0.9-0.1,1.5,0.6,2c1.3,1,2.6,2,3.8,3.2c1,1.1,2.2,1.6,3.4,1
	c2.6-1.4,5.6-0.9,8.3-2.1c1.1,0.1,2.4,0.5,1.8,1.9c-0.7,1.6,0,2.9,0.4,4.3c0,0.7-0.1,1.4-0.1,2.1c-1,0.1-2,0.2-3,0.4
	c-2.6,0.5-2.8,0.9-1.9,3.5c0.8,2.4,1.7,4.8,1.2,7.4c-0.2,1.1,0.4,1.4,1.2,1.6c1.7,0.6,3.1,1.5,3.8,3.3c-10.5,0-21.1,0-31.6,0
	c0.7-1.5,2.4-2.2,3-3.9c0.7-1.7-0.2-2.7-1.3-3.7c-1.2-1-2-0.4-2.8,0.6c-0.4,0.5-1.1,0.9-1.6,1.4C103,297.3,101.8,298.9,102.5,301.3z
	 M98.2,294.7c0.6-0.1,1.8-0.1,1.7-1.2c0-0.7-0.7-1.8-1.5-1.9c-0.8-0.1-1.9,0.5-2.1,1.5C96.2,294.1,97,294.6,98.2,294.7z"/>
<path fill="#28164F" d="M6.7,104.9c-2.7-0.6-2.7-0.6-3.1,2.2c-0.3,2.4-1.8,3.8-3.9,4.8c0-1.7,0-3.5,0-5.2c1.7-0.6,1.6-2,1.7-3.4
	c0.2-2.7-0.2-5.3,0.3-8c0.3-1.5-0.7-2.1-2-2.2c0-3.6,0-7.3,0-10.9c1.1,0.1,2.3,0.2,3.4,0.3c1.1,0.1,2.1-0.5,2.6-1.3
	c0.5-0.9-0.8-0.9-1.2-1.4c-0.3-0.4-0.6-0.9-1-1.1c-1.7-1-2-3.3-3.8-4.2c0-1.6,0-3.2,0-4.8c0.9,0,1.6-0.5,2.1-1.2
	c3.9-4.9,9.3-6,15.1-5.4c2,0.2,3.6,0.3,5-1.2c0.6-0.6,1.6-0.9,1.3-2c-0.3-1-1.3-1-2.2-1c0-0.4,0-0.9,0-1.3c2.4-0.7,4.5,0.2,5.5,2.5
	c0.7,1.6,1.8,1.8,2.5,0.3c0.9-1.7,2.3-2.7,3.9-3.5c0.9-0.4,1.5-1.1,1.4-2.2c-0.1-0.6-0.5-1.4,0.5-1.6c0.8-0.3,1.3,0.3,1.7,1
	c0.3,0.5,0.5,1.5,1.3,1.2c0.9-0.4,0.5-1.2,0.2-1.9c-0.4-0.8-0.2-1.4,0.4-1.9c0.8-0.7,1.7-0.8,2.6-0.4c0.7,0.3,1.2,0.8,1.2,1.7
	c0,0.6-0.2,1.3-0.3,1.9c-0.4,3.1,1.3,4.4,4.2,3.1c0.9-0.4,1.8-1,2.7-1.4c0.9-0.3,1.9-0.8,2.6,0c0.6,0.8-0.4,1.4-0.7,2.1
	c-0.2,0.5-0.4,0.9-0.7,1.4c-2.4,1.8-5.1,3.5-4.8,7.1c0.1,0.8-0.5,1.1-1.3,1.1c-0.9,0-1.7,0-2.6,0c-0.7-1.1-1.6-0.7-2.5-0.4
	c-1.7,0.7-2.9,0.2-3.9-1.3c-1.4-2.1-1.3-2-2.9-0.2c-2.1,2.3-5.5,2.5-7.9,4.4c-0.3,0.2-1.1-0.1-1.7-0.2c-1.7-0.2-3.5-0.3-5,0.7
	c-1.8,1.2-1.8,2,0.1,3.1c2.3,1.3,4.8,1.4,7.4,1.3c1.7,0,3,0.4,3.4,2.2c0.2,1.1,0.9,1.1,1.7,1c1.2-0.2,2.5-0.3,3.6,0.4
	c2.9,2,3.1,3.5,1.1,6.4c-1.3,1.9-0.9,3.1,0.8,4c1.7,0.9,3.1,0.5,4.1-1.3c1-0.3,2-0.7,3-1c1,0,2.1,0.1,3.1,0.1c0,1.6,0.6,3.2,0.4,4.8
	c-0.9,0-1.8,0-2.6,0.4c-0.9-0.5-2-1.3-3-0.5c-0.9,0.8,0.2,1.7,0.4,2.6c0.3,1.4,0,2.5-0.6,3.7c-0.9,1.8-1.8,1.6-3.2,0.6
	c-1.3-1.1-2.1-2.6-3-4c-2.3-3.4-5.3-5.1-9.6-4.3c-1.8,0.3-3.6,0.9-5.5,0.1c-2.8-1.1-4.9,0.6-4.7,3.7c0.2,2.7-0.5,3.5-3.2,3.7
	c-0.8,0.1-1.7,0-1.8,1.1C9.1,101.3,7.6,103,6.7,104.9z M11.8,89.3c0.8,0,2.2,0.6,2.2-1.1c0-1.4-1.2-1.2-2.1-1.2
	c-0.9,0-2.1,0-2.1,1.3C9.8,89.7,10.9,89.4,11.8,89.3z"/>
<path fill="#28164F" d="M-0.2,178.7c2.1,1.1,4.2,2,4,5.1c-0.2,2.5,1.8,2,3.4,1.8c0.2,1.9,2,3.1,2.1,5c0.1,1.6,1,2,2.4,2
	c2.1,0,3.5,1.8,3,3.8c-0.5,2.5,1.6,4.7,3.9,3.8c1.9-0.7,3.6-0.6,5.5-0.3c4.5,0.8,8.1-0.5,10.5-4.6c0.5-0.9,1.1-1.9,1.9-2.7
	c0.7-0.8,1.5-2.2,2.8-1.5c1.3,0.7,2,2,2,3.6c0,0.6-0.3,1.1-0.4,1.7c-0.1,0.8-1.2,1.6-0.4,2.4c0.8,0.8,1.7-0.1,2.6-0.3
	c0.1,0,0.3-0.1,0.4-0.2c0.9,0,1.8,0,2.6,0.4c0,1.6,0,3.2,0,4.8c-1.3,0-2.6,0-3.9,0c-0.7-0.7-1.6-0.9-2.6-0.9c-0.3-1-0.9-1.6-2-1.7
	c-1.3-0.1-2.5,0.1-3.3,1.3c-0.8,1.2-0.2,2.2,0.5,3.2c0.9,1.4,1.7,2.9,0.6,4.5c-1.1,1.7-2.8,2.4-4.8,2.3c-0.2,0-0.4,0-0.6-0.1
	c-0.9-0.2-1.4,0.1-1.6,1c-0.5,1.8-1.8,2.3-3.5,2.2c-2-0.1-3.9-0.1-5.8,0.6c-1.1,0.4-2.6,0.6-2.6,1.9c0,1.5,1.5,2.2,2.8,2.6
	c0.6,0.2,1.3,0.3,1.9,0.1c2.4-0.8,4.5-0.6,6,1.7c0.2,0.3,0.8,0.5,1.2,0.5c1.8-0.1,2.9,0.9,3.9,2.3c0.8,1.2,1.6,1.7,2.4-0.1
	c0.8-1.9,2.3-2.6,4.2-1.8c1.1,0.5,2,0.1,2.8-0.4c0.3,0,0.6,0,0.9,0c1.9-0.2,3.2,0.2,2.9,2.7c-0.2,1.7,0.4,3.3,2.4,3.8
	c0.9,0.2,1.5,1,2,1.8c0.1,0.6,0.4,1.1,0.8,1.5c0.5,0.5,1.1,1.1,0.5,1.9c-0.5,0.7-1.3,0.5-2,0.2c-1.3-0.5-2.5-1.1-3.8-1.7
	c-2.5-1-3.9,0-3.8,2.8c0,0.7,0.3,1.4,0.3,2.2c0,1-0.6,1.6-1.4,2c-0.9,0.4-1.7,0-2.4-0.5c-0.4-0.3-0.8-0.7-0.5-1.3
	c0.4-0.9,1.6-1.9,0.3-2.6c-1.3-0.7-1.2,1.2-1.9,1.8c-0.5,0.4-0.9,0.8-1.5,0.6c-0.7-0.2-0.5-0.8-0.4-1.3c0.4-1.8-0.9-2.5-2.1-3.1
	c-1.3-0.7-2.4-1.4-3.1-2.9c-0.6-1.4-1.8-1.3-2.6,0.1c-1.3,2.2-3.3,3.2-5.5,2.6c0-0.4,0-0.9,0-1.3c1-0.2,2.3-0.1,2.2-1.7
	c-0.1-0.8-3.6-3.3-4.4-3c-4.4,1.8-8.3-0.1-12.3-1.4c-1.8-0.6-3.2-1.5-4.3-3.1c-0.6-1-1.4-1.7-2.6-1.7c0-1.6,0-3.2,0-4.8
	c0.6-0.2,1.1-0.3,1.7-0.5c0.3,0.7,0.6,1.5,1,2.2c0.7,1.2,1,2.8,2.6,3c1.7,0.2,2.5-1.2,3.3-2.4c0.8-1.3,1.8-2.2,3.4-2.3
	c1.2-0.1,1.8-0.7,2.1-2c0.5-2.7,1.7-3.2,4.1-1.7c1.3,0.8,2.5,1.4,4.1,1.2c0.6-0.1,1.3-0.1,1.3-0.9c0.1-0.6-0.6-0.8-1-0.9
	c-2.6-0.4-3.7-2.1-3.9-4.7c-0.2-2.1-1.4-2.6-3.4-1.9c-1.6,0.6-2.7,1.9-3.9,3.1c-2.1,1.9-4.2,3.8-7.2,4.1c0-0.7,0.4-1.2,0.9-1.7
	c0.5-0.5,1.5-0.8,0.9-1.7c-0.6-0.8-1.4-1.6-2.6-1.1c-1,0.4-2.1,0.5-3.2,0.5c0-3.6,0-7.3,0-10.9c1.7,0.1,2.5-0.8,2.1-2.4
	c-0.5-2.4-0.3-4.7-0.3-7.1c0-1.1,0-2.2-0.5-3.2c-0.3-0.7-0.7-0.9-1.3-0.4C-0.2,182.4-0.2,180.6-0.2,178.7z M11.9,203.5
	c1.2,0,2.4,0,2.4-1.4c0-1.4-1.2-1.2-2.1-1.2c-1,0-2.3-0.2-2.3,1.2C9.8,203.6,11.1,203.5,11.9,203.5z"/>
<path fill="#9888CB" d="M-0.2,25.1c0-5.1,0-10.2,0-15.3c0.9,0.7,2.4-0.6,2.8,0.3c0.9,1.7,2.5,1.3,3.8,1.8c-0.1,0.8,0.3,1.6,0.7,2.2
	c0.9,1.4,2.1,2.7,2.9,4.2c0.7,1.2,1.5,1.7,2.8,1.4c0.7,0.4,1.5,0.7,2.3,0.3c1.7-0.9,3.7-1.7,4.8-3.1c1.1-1.4,2.9-2.6,3-4.3
	c0.2-3.3,2.6-4.7,4.7-6.3c4.1-3.1,9.1-1.6,13.6-2c1.7-0.2,2.4,2.4,1.1,3.8c-0.8,0.9-0.9,1.7-0.5,2.7c0.9,2.2,0.1,4-1.6,5.4
	c-0.6,0.5-1.3,0.9-1.8,1.5c-0.8,0.9-1.5,1.9,0.4,2.6c2.1,0.8,2.4,1.7,1.2,3.7c-0.8,1.4-2.1,2.2-3.7,2.3c-1.7,0-3.5,0.1-5.2,0
	c-0.9-0.1-1.5,0.2-1.9,1c-1.2,0.3-2.3,0.5-3.5,0.8c0.1-1-0.2-1.8-1.4-1.7c-3.2,0.2-6.4-0.6-9.5-1.2c-0.9-0.2-1.6,0-1.6,1.2
	c-2.1,2.8-4.9,2.3-7.8,1.8C4.2,25.1,3.9,25-0.2,25.1z"/>
<path fill="#9888CB" d="M-0.2,279.5c0-4.8,0-9.6,0-14.4c3.8,0.7,4.5,0.4,5.7-2.6c3-0.6,5.9-1,8.2,1.8c-0.5,1.2,0.1,1.2,1,1
	c3.2-0.5,6.3-1.3,9.6-1.1c1.2,0.1,1.5-0.7,1.4-1.7c1.3,0.2,2.6,0.3,4,0.5c0.1,1.2,1,1.3,1.9,1.3c1.8,0,3.6,0,5.4,0
	c1.6,0.1,3.6,2,3.8,3.7c0.2,1.7-1.3,1.9-2.4,2.3c-1.5,0.5-0.6,1.3-0.2,1.8c0.6,0.9,1.4,1.6,2.2,2.3c1.6,1.4,2.3,3.1,1.6,5.3
	c-0.3,1.1,0,2,0.6,2.8c0.6,0.8,0.7,1.8,0.2,2.7c-0.5,1-1.5,1.5-2.5,1.3c-2.4-0.5-4.8-0.1-7.1-0.3c-4-0.3-7.2-2.4-9.3-5.6
	c-1.1-1.6-1.3-3.8-2.8-5.5c-2.3-2.6-4.6-4.7-8.3-4.4c-1.2-0.3-2.1,0.1-2.5,1.4c-0.3,1-1.1,1.9-1.8,2.6c-1.1,1.1-1.8,2.4-1.7,4.1
	c-1.2,0.3-2.4,0.6-3.6,0.9C2,279.5,0.9,279.5-0.2,279.5z"/>
<path display="none" fill="#332061" d="M68.7,301.3c-15,0-30.1,0-45.1,0c0-0.7-0.2-1.3-0.7-1.7c-1.3-1.1-0.7-2.2-0.1-3.2
	c0.7-1.1,1.8-1.6,2.9-2.1c3.8-1.6,7.9-1,11.8-2.1c0.6,0,1.1,0,1.7,0c2.5,0.8,5.2,1.3,7.6,2.4c2.6,1.2,4.8,1.2,7.1-0.5
	c0.7-0.6,1.5-0.8,2.4-0.2c2.2,1.5,4.3,1.1,6.4-0.4c1.6,0.2,2.8-0.4,3.8-1.8c1.2-1.7,2.8-2.1,4.7-0.9c1.2,0.8,2.4,1.5,3.6,2.3
	c0.3,1.3,1.1,2.4,0.8,3.8c-0.2,0.9-0.4,1.8-1.4,0.5c-0.7-0.9-1.5-0.8-2.3-0.5C69.8,297.5,69,299.2,68.7,301.3z"/>
<path fill="#492878" d="M-0.2,7.2c0-2.6,0-5.2,0-7.9c21.7,0,43.4,0,65.1,0c3,0,6.1,0.1,9.1,0.1c-1.1,2-1.6,4.5-4.4,5.2
	c-0.9-0.7-1.8-0.5-2.6,0c-1.8,1.1-3.5,0.9-5.4,0.2c-1.5-0.6-3-1.1-4.5-1.5c-4.5-1.1-9-2.6-13.8-1.2c-4.5-1.4-3.8-2.3-5.4,0.4
	c-2.5-0.7-4.9-0.8-7.3,0.2c-1.2,0.5-2.2,1.4-3.5,1.5c-1.2-0.9-2.4-1.9-3.9-2.2c-1.1-0.2-2.4-0.9-3.3-0.1c-1.5,1.4-3,2.9-4.1,4.6
	c-0.7,1-1.2,1.6-2.5,1.6c-2.6,0-5.2,0.3-7.7,1C4.8,9.3,4.1,9.1,3.5,8.5C2.5,7.4,1.2,7.1-0.2,7.2z"/>
<path fill="#492878" d="M39.2,292.1c-0.6,0-1.1,0-1.7,0c-0.2-1.1-1.1-1.3-1.9-1.6c-2.7-0.9-5.5-1.1-8.3-1.1c-1.6,0-2.7,0.3-3.5,1.9
	c-1,2-3.2,3-4.6,2c-2.2-1.5-4.1-1-6.2,0.1c-1.8,0.9-2.5,2.6-3.3,4.1c-0.7,1.2,0.8,1.7,1.1,2.6c0.1,0.3,0.1,0.7,0.2,1.1
	c-3.4,0-6.8,0-10.2,0c-0.9,0-1.1-0.2-1.1-1.1c0.1-5.6,0-11.2,0-16.8c1.4,0.1,2.7-0.2,3.7-1.3c0.5-0.6,1.2-1,1.9-0.7
	c2.6,1,5.3,0.7,7.9,0.7c1,0,2,0.2,2.3,1.3c0.7,2.3,3.1,3.1,4.1,5.1c0.1,0.2,0.6,0.4,0.9,0.4c2.4-0.4,5-0.4,6.4-2.9
	c3.4,2.4,7.2,3.1,11.3,2.2c0.1,0.7,0.4,1.2,0.9,1.8C39.2,290.7,39.2,291.4,39.2,292.1z"/>
<path fill="#75569B" d="M5.5,262.4c-1.2,3-1.9,3.3-5.7,2.6c0-4.1,0-8.1,0-12.2c2.1,0.2,3.9-0.7,5.9-1c2.8-0.5,5.6-0.7,7.9,1.6
	c0.5,0.5,1.1,0.7,1.8,0.5c2.7-0.6,5.3,0,7.9,0.4c1.6,0.3,3.1,0.8,4.7,0.6c0.7,0,1.5,0,2.2,0c0.7,0.1,1.3-0.2,1.7-0.8
	c2.7-0.3,5.4-0.6,8.1-0.9c1.1-0.1,1.5-0.8,1.5-1.7c1.3-0.1,2.7-0.1,3.1-1.8c1.2,1.1,1.8,3.5,3.8,3c2.7-0.6,5.2,0.8,7.8,0.1
	c1.1,0.8,2.3,0.3,3.5,0.5c0,0.3,0,0.5,0,0.8c-1.6,0.1-3.4-0.3-4.9,0.7c-1.9,1.2-3.9,1.2-6,1.1c-2.1-0.1-4.3,0.3-5.6,1.8
	c-1.9,2.3-4.2,2.5-6.8,2c-0.6-0.1-1.1-0.2-1.6-0.5c-0.7-0.3-1.2-0.1-1.4,0.5c-0.6,1.6-2.1,2.1-3.5,2.6c-0.6-1.7-2.1-2.9-2.1-5.1
	c-2,2.8-3.8,2.4-5.6,0.3c-0.4-0.4-1.1-0.4-1.6-0.4c-3.7,0.2-7.5,0.2-11.2,0.6C5.3,258.3,5.3,258.5,5.5,262.4z"/>
<path fill="#75569B" d="M-0.2,25.1c4.1-0.1,4.4,0.1,5.7,3.1c0.1,1.7-0.8,3.9,2,4.3c4.4,0.6,8.9,0.5,13.4,0.5c0.9,0,1.7-0.3,2.3-1
	c1.1-1.3,2.1-1.3,3.2,0c0.4,0.4,1.3,1.3,1.4,0.3c0.2-1.7,1.6-2.6,1.9-4c1.5,0.1,2.7,0.8,3.3,2.1c0.5,1.2,1.1,1,2.2,0.8
	c2.8-0.5,5.7-1.4,8,1.6c1.4,1.8,3.8,1.8,6,1.8c1.1,0,2.3-0.1,3.4-0.1c1.5,1.9,3.5,2.2,5.7,2c0.4,0,0.8,0.1,1.3,0.1
	c0,0.3,0,0.5,0,0.8c-1.3,0.3-2.7-0.3-3.9,0.6c-2.5-0.9-5.2,0.7-7.8-0.4c-0.7-0.3-1.3,0.5-1.8,1c-0.6,0.6-1.1,1.3-1.7,2
	c-0.7-1.3-1.9-1.4-3.1-1.4c0-1.7-1-2.1-2.5-2.1c-2.8,0-5.7-0.2-8.3-1.2c-1.2-0.8-2.5-0.5-3.8-0.3c-3.7,0.7-7.4,1.4-11.2,1.1
	c-1-0.1-1.8,0.2-2.6,0.9c-1.9,1.7-4.1,2-6.5,1.5c-2.2-0.5-4.4-1.4-6.7-1.5C-0.2,33.2-0.2,29.1-0.2,25.1z"/>
<path fill="#5F2E85" d="M-0.2,37.3c2.3,0.1,4.5,1,6.7,1.5c2.4,0.5,4.6,0.2,6.5-1.5c0.8-0.7,1.6-0.9,2.6-0.9
	c3.8,0.3,7.5-0.4,11.2-1.1c1.3-0.2,2.6-0.5,3.8,0.3c-1.5,0.8-3.6-0.2-4.7,1.7c-1.5,0.3-2.1,1.1-2.2,2.7c-0.2,2.6-1.9,3.9-4.5,3.7
	c-1.2-0.1-2.4-0.2-3.6-0.3c-1.4-1.5-2.6-0.8-3.6,0.5c-1.6,2-2.9,4.3-5.4,5.5c-0.9,0.4-0.6,1.5-0.2,2.3c0.4,0.7,0.9,1.3,1.3,2
	c0.8,1.3,0.4,2.2-0.9,2.7c-0.5,0.2-1.1,0.4-1.6,0.5c-0.3,0-0.6,0-0.9,0c-0.8-1.2-1.7-2.3-2-3.8c-0.2-1-1-1.9-2.4-1.9
	C-0.2,46.6-0.2,41.9-0.2,37.3z"/>
<path fill="#5F2E85" d="M27.9,255c-1.6,0.2-3.1-0.3-4.7-0.6c-2.6-0.5-5.2-1-7.9-0.4c-0.7,0.2-1.3-0.1-1.8-0.5
	c-2.3-2.3-5.1-2.1-7.9-1.6c-2,0.4-3.8,1.3-5.9,1c0-4.5,0-9,0-13.5c2.2-0.1,2.5-1.8,2.9-3.4c0.4-1.3,1.4-1.8,2.7-1.8
	c0.8,0,1.8-0.2,2.3,0.7c0.7,1.2-0.1,2-0.8,2.9c-0.3,0.5-0.7,1-0.9,1.5c-0.3,0.6-0.3,1.5,0.3,1.8c2.9,1.2,4,4.1,5.9,6.2
	c0.9,1,2.1,1.4,3.1,0.1c0.6-0.1,1.1-0.1,1.7-0.2c4.2-0.7,5.6,0.2,6.5,4.4c0.3,1.3,1.1,1.5,2.2,1.6C26.2,253.9,27.5,253.9,27.9,255z"
	/>
<path fill="#3C286A" d="M152.3,272.9c0,4.6,0,9.3,0,13.9c-1.3,0-2.1-0.9-3-1.5c-0.8-0.6-1.7-1.3-2.7-0.5c-0.9,0.7-0.8,1.8-0.4,2.8
	c0.2,0.5,0.6,1.1,0,1.5c-0.6,0.4-1.1,0-1.6-0.3c-0.8-0.6-1.5-0.5-1.6,0.5c-0.2,2.7-0.9,5.7,0.4,8.1c1,1.8,0.9,2.7-0.5,3.8
	c-0.9,0-1.7,0-2.6,0c-0.1-1.5,0.7-2.6,1.2-3.9c0.3-0.9,0.7-1.7-0.3-2.5c-3-2.2-3.5-5.4-3.5-8.9c2.7,0.6,2.7,0.6,3.1-2.1
	c0.5-3.4,2.1-6.3,5.1-8.2C147.8,274.4,150,273.6,152.3,272.9z"/>
<path fill="#3C286A" d="M11,301.3c-0.1-0.4-0.1-0.7-0.2-1.1c-0.3-0.9-1.8-1.4-1.1-2.6c0.9-1.6,1.5-3.2,3.3-4.1
	c2.1-1.1,4-1.5,6.2-0.1c1.4,0.9,3.6,0,4.6-2c0.8-1.6,1.9-1.9,3.5-1.9c2.8,0,5.6,0.2,8.3,1.1c0.8,0.3,1.7,0.5,1.9,1.6
	c-3.8,1.1-8,0.5-11.8,2.1c-1.2,0.5-2.3,1-2.9,2.1c-0.6,1-1.2,2.2,0.1,3.2c0.5,0.4,0.7,1.1,0.7,1.7C19.4,301.3,15.2,301.3,11,301.3z"
	/>
<path fill="#332061" d="M142.8,301.3c1.4-1.1,1.5-2,0.5-3.8c-1.3-2.4-0.5-5.4-0.4-8.1c0.1-1,0.8-1.1,1.6-0.5c0.5,0.4,1,0.8,1.6,0.3
	c0.7-0.5,0.2-1,0-1.5c-0.4-1-0.5-2.1,0.4-2.8c1-0.8,1.9-0.1,2.7,0.5c0.9,0.6,1.8,1.5,3,1.5c0,4.8,0,9.6,0.1,14.4
	C149.2,301.3,146,301.3,142.8,301.3z"/>
<path fill="#332061" d="M-0.2,221c1.2,0,2,0.8,2.6,1.7c1,1.6,2.5,2.6,4.3,3.1c4,1.3,7.9,3.2,12.3,1.4c0.8-0.3,4.3,2.2,4.4,3
	c0.1,1.6-1.2,1.5-2.2,1.7c-3.9,0-7.8,0-11.8,0c-1,0.1-1.8-0.3-2.6-0.9c-1.9-2-4.4-2.1-6.9-2.2C-0.2,226.2-0.2,223.6-0.2,221z"/>
<path fill="#332061" d="M21,58.6c0.9,0,1.9,0,2.2,1c0.4,1.1-0.7,1.4-1.3,2c-1.4,1.5-3,1.5-5,1.2c-5.8-0.6-11.2,0.6-15.1,5.4
	c-0.6,0.7-1.2,1.2-2.1,1.2c0-2.6,0-5.2,0-7.9c2.5-0.2,5.2-0.3,7-2.6c0.7-0.2,1.4-0.3,2.1-0.5C12.9,58.6,17,58.6,21,58.6z"/>
<path fill="#5F2E85" d="M-0.2,7.2c1.4-0.1,2.7,0.2,3.7,1.3C4.1,9.1,4.8,9.3,5.6,9c2.5-0.7,5.1-1,7.7-1c1.2,0,1.8-0.6,2.5-1.6
	c1.1-1.7,2.6-3.3,4.1-4.6c0.9-0.8,2.2-0.1,3.3,0.1c1.5,0.3,2.7,1.3,3.9,2.2c-1.6,1.6-3.6,0.5-5.3,0.9c-2.7,0.5-4.9,2.3-5.1,4.3
	c-0.4,3-1.1,3.5-4.1,3c-1.2-0.2-2.4-1.2-3.7-0.3c-0.8,0-1.6-0.1-2.5-0.1c-1.3-0.4-2.9,0-3.8-1.8c-0.5-0.9-1.9,0.3-2.8-0.3
	C-0.2,8.9-0.2,8-0.2,7.2z"/>
<path fill="#5F2E85" d="M27.1,286c-1.4,2.5-4,2.5-6.4,2.9c-0.3,0-0.8-0.1-0.9-0.4c-1-2-3.4-2.8-4.1-5.1c-0.3-1.1-1.3-1.2-2.3-1.3
	c-2.7-0.1-5.3,0.3-7.9-0.7c-0.8-0.3-1.4,0.1-1.9,0.7c-1,1.1-2.3,1.4-3.7,1.3c0-0.9,0-1.7,0-2.6c0.8,0,1.6-0.1,2.4,0
	c1,0,1.2-0.4,1-1.3c1.2-0.3,2.4-0.6,3.6-0.9c0.7,0,1.5,0,2.2,0.1c1.8,0.9,3.4-0.6,5.2-0.5c1.7,0.1,2.8,0.6,2.9,2.4
	c0.1,3.2,2.2,4.4,4.9,5C23.6,285.7,25.4,285,27.1,286z"/>
<path fill="#5F2E85" d="M137.7,286c-0.1,3.4,0.5,6.6,3.5,8.9c1,0.8,0.6,1.6,0.3,2.5c-0.5,1.3-1.3,2.4-1.2,3.9c-0.4,0-0.9,0-1.3,0
	c-0.6-1.8-2.1-2.7-3.8-3.3c-0.8-0.3-1.4-0.5-1.2-1.6c0.5-2.6-0.4-5-1.2-7.4c-0.9-2.6-0.8-3,1.9-3.5c1-0.2,2-0.2,3-0.4
	C137.6,285.4,137.6,285.7,137.7,286z"/>
<path fill="#492878" d="M6.7,231c0.8,0.5,1.6,1,2.6,0.9c1,1.6,2.2,3,1,5.1c-0.1,0.1,0,0.3,0.1,0.4c1.2,3.5,1.6,7.4,5,9.8
	c-1.1,1.3-2.2,0.9-3.1-0.1c-1.9-2.1-3-4.9-5.9-6.2c-0.6-0.3-0.6-1.1-0.3-1.8c0.2-0.5,0.5-1,0.9-1.5c0.7-0.9,1.5-1.7,0.8-2.9
	c-0.5-0.9-1.5-0.7-2.3-0.7c-1.2,0-2.3,0.5-2.7,1.8c-0.5,1.6-0.7,3.4-2.9,3.4c0-2.2,0-4.4,0-6.5c0.8,0.1,1.7,0.2,2.5,0.4
	C4.5,233.9,5.9,233.2,6.7,231z"/>
<path fill="#9888CB" d="M102.5,301.3c-0.7-2.4,0.5-4,2-5.5c0.5-0.5,1.2-0.9,1.6-1.4c0.8-1,1.6-1.7,2.8-0.6c1.1,1,2,2,1.3,3.7
	c-0.7,1.6-2.3,2.3-3,3.9C105.7,301.3,104.1,301.3,102.5,301.3z"/>
<path fill="#3C286A" d="M68.7,301.3c0.3-2,1.1-3.7,3.2-4.5c0.9-0.3,1.7-0.4,2.3,0.5c0.9,1.3,1.2,0.4,1.4-0.5
	c0.3-1.4-0.5-2.5-0.8-3.8c0-0.4,0-0.7,0-1.1c3,1.8,3.8,4.5,2.6,9.3C74.5,301.3,71.6,301.3,68.7,301.3z"/>
<path fill="#3C286A" d="M1.4,215.7c-0.6,0.2-1.1,0.3-1.7,0.5c0-2.6,0-5.2,0-7.9c1.1,0.1,2.1-0.1,3.2-0.5c1.2-0.5,2,0.3,2.6,1.1
	c0.6,0.9-0.4,1.2-0.9,1.7c-0.5,0.5-0.9,1-0.9,1.7C2.4,213,1.2,213.9,1.4,215.7z"/>
<path fill="#3C286A" d="M-0.2,74.4c1.8,0.9,2.1,3.2,3.8,4.2c0.4,0.2,0.7,0.7,1,1.1c0.4,0.5,1.7,0.5,1.2,1.4
	c-0.5,0.9-1.5,1.4-2.6,1.3c-1.1-0.1-2.3-0.2-3.4-0.3C-0.2,79.6-0.2,77-0.2,74.4z"/>
<path fill="#3C286A" d="M6.7,231c-0.8,2.1-2.2,2.8-4.4,2.2c-0.8-0.2-1.7-0.3-2.5-0.4c0-1.3,0-2.6,0-3.9C2.3,228.9,4.8,229,6.7,231z"
	/>
<path fill="#3C286A" d="M6.7,59.1c-1.8,2.3-4.4,2.3-7,2.6c0-1.3,0-2.6,0-3.9c1.5-0.3,2.9-0.6,4.4-0.9c0.3,0,0.6,0,0.9,0
	C5.6,57.7,6.1,58.4,6.7,59.1z"/>
<path fill="#332061" d="M-0.2,184.3c0.6-0.5,1-0.3,1.3,0.4c0.5,1,0.4,2.1,0.5,3.2c0.1,2.4-0.2,4.8,0.3,7.1c0.4,1.6-0.4,2.5-2.1,2.4
	C-0.2,193.1-0.2,188.7-0.2,184.3z"/>
<path fill="#332061" d="M-0.2,93.1c1.3,0.1,2.3,0.7,2,2.2c-0.5,2.7-0.1,5.3-0.3,8c-0.1,1.3,0,2.8-1.7,3.4
	C-0.2,102.1-0.2,97.6-0.2,93.1z"/>
<path fill="#492878" d="M4.1,56.9c-1.5,0.3-2.9,0.6-4.4,0.9c0-2.2,0-4.4,0-6.5c1.3-0.1,2.1,0.8,2.4,1.9C2.5,54.6,3.3,55.7,4.1,56.9z
	"/>
<path fill="#9355B8" d="M3.2,279.5c0.2,0.8,0.1,1.3-1,1.3c-0.8,0-1.6,0-2.4,0c0-0.4,0-0.9,0-1.3C0.9,279.5,2,279.5,3.2,279.5z"/>
<path fill="#140D3A" d="M152.3,94.9c0,2.9,0,5.8,0,8.7c-1.5,0-3.1,0.2-4-1.5c-0.4-0.6-0.7-1.6-1.7-1.3c-0.9,0.2-1.4,1-1.7,1.8
	c-0.5,1-0.2,2,0.2,3c0.5,1.3,0.1,2.4-0.8,3.4c-0.8,0.9-1.9,1.3-3,1.6c-1.8,0.4-2.1,1.5-1.4,3.1c0.8,1.9,1.8,3.5,4.1,3.8
	c0.5,0.1,1.2,0.3,1.1,0.8c-0.1,0.9-0.9,0.4-1.4,0.4c-1.8-0.2-3.4,0.3-4.4,1.7c-0.8,1.1-1.8,1.8-3.1,2.2c-3,1-5.7,2.5-8.1,4.5
	c-1.2,1-1.3,1.8,0.1,2.9c2.7,2.2,5.5,1.7,8.4,0.5c2-0.8,5.9,0.8,6.7,2.8c0.1,0.3,0.2,0.6,0,0.8c-0.9,1.4-0.4,2.9-0.1,4.2
	c0.6,2.5,0.3,5.2,1.4,7.6c0.2,0.5-0.1,1-0.3,1.4c-1.3,2.8-2,5.7-1.1,8.8c0.1,0.5,0,0.8-0.3,1.2c-1.6,2.2-4.5,3.1-7,2.2
	c-2.5-0.9-4.9-1.1-7.3,0.3c-2,1.2-2,2.2-0.2,3.7c2.3,1.9,5,3.1,7.8,4.2c0.7,0.3,1.6,0.4,2.1,1.1c1.2,1.9,2.9,2.8,5.1,2.7
	c0.4,0,1,0,1.1,0.5c0.1,0.7-0.6,0.7-1,0.9c-0.3,0.1-0.6,0.2-0.8,0.3c-2,0.8-2.6,2.7-2.9,4.5c-0.3,1.8,1.5,1.8,2.6,2.3
	c2.5,1,3.2,2.6,2.5,5.2c-0.1,0.4-0.3,0.7-0.3,1c0,1.4,0.9,2.5,2,3.2c1.1,0.6,1.4-0.7,1.9-1.3c1.1-1.6,2.5-1.8,4.2-1.3
	c0,2.6,0,5.3,0,7.9c-3.3,1.1-6.6,2.2-7.2,6.5c-0.3,1.8-2,2.3-3.7,1.7c-1.7-0.6-3.3-1.6-5.2-0.7c-1.2,0.6-2.1,1-2.8-0.8
	c-0.3-0.9-1.4-0.6-2,0c-0.4,0.4-0.7,0.9-1.1,1.3c-0.5,0.6-1.2,0.9-2,0.5c-0.7-0.4-0.3-1-0.1-1.5c0.2-0.6,0.4-1.2-0.3-1.5
	c-0.6-0.3-1.2,0.1-1.5,0.6c-1.2,2-3.1,2.1-5.1,2.2c-2.7,0.2-5.3-0.3-7.9-1.2c-0.9-0.4-2-0.9-2.9-0.2c-1.9,1.5-4.7,1.8-5.8,4.5
	c-0.7,1.8-2.6,1.6-3.4-0.2c-1.8-3.8-3.5-4.4-7.4-2.5c-0.6,0-1.1,0-1.7,0c-0.7-0.1-1.1-0.6-1.7-0.9c-2.6-1.9-2.7-1.9-5.1,0.1
	c-0.9,0.7-1.8,1-2.5,0.2c-1.8-2-4.3-1.7-6-0.8c-2.8,1.4-4.8,1.4-6.9-0.9c-0.6-0.7-1.8-0.9-2.1,0.6c-0.3,1.6-1.2,1.3-2.3,0.9
	c-1-0.4-1.9-1.3-3-0.4c-0.4,0-0.9,0-1.3,0c-0.9-3.8-5.4-6-4.9-10.5c0.1-0.9-1.9-1.5-0.3-2.5c0.9-0.6,2.1-0.6,3.2-0.5
	c0.4,0,0.9,0.1,1.3,0.2c1.4,0.4,2.2-0.1,2.5-1.6c0.1,0,0.2-0.1,0.3-0.1c0.8,0,1.5,0.1,2.3,0.1c0.3,0.3,0.8,0.5,0.9,0.9
	c0.6,1.4,1,2.5,3,1.2c1.3-0.9,3,0.5,4.1,1.7c0.9,1,1.5,1.1,2.5,0.3c1.1-0.8,2.4-0.8,3.5-0.1c1.6,1,3.3,1,5,0.4
	c1.3-0.5,2.7-0.5,4.1-0.2c2.7,0.5,4.5-0.1,6-2.3c1.7-2.5,2.8-2.8,5.3-1.1c2.6,1.7,5.4,3.1,6.4,6.5c0.1,0.4,0.5,0.7,0.9,0.9
	c2.5,1.3,8.7,0.3,10.7-1.6c1.1-1.1,0.8-3.6-0.6-4.6c-0.6-0.4-1.2-0.7-1.8-1.2c-1.2-0.9-1.6-1.9-0.4-3.1c0.9-0.9,1.6-1.6-0.3-2.2
	c-0.6-0.2-1-0.7-0.7-1.4c0.2-0.5,0.7-0.9,1.2-0.7c1.5,0.4,1.9-0.4,2.1-1.7c0.1-0.6,0.4-1.1,0.7-1.6c1-2.4,0.5-3.4-1.9-3.9
	c-1.1-0.2-1.7-0.7-2-1.9c-0.8-2.7-3.2-4.2-5.1-6c-0.9-0.9-1.5,0.1-1.7,1.1c-0.1,0.7-0.1,1.4-1,1.4c-0.5,0-1-0.3-1.2-0.7
	c-0.4-0.7-0.1-1.2,0.3-1.8c1.5-2.3,1.2-2.7-1.4-3.5c-1-0.3-2.9-0.4-2.7-1.6c0.2-1.6,2-0.8,3.1-0.9c1.4,0,2.7,0.1,4.1,0
	c1-0.1,1.8-0.4,2.3-1.3c3.3-0.2,6.5-0.6,9.3-2.6c0.8-0.5,1.5-1.2,2,0.1c1,2.5,2.8,2.4,4.8,1.7c2.3-0.8,4.6-1.2,7-1.4
	c1.2-0.1,3.1,0.2,3.4-1.1c0.3-1.2-1.6-1.6-2.6-2.3c-0.1,0-0.1-0.1-0.2-0.1c-1.1-0.8-1.7-1.8-0.6-2.9c0.7-0.7,1.4-2.7,3-0.8
	c0.5,0.6,1,0.5,1.4-0.2c0.7-1.6,1.8-1.9,3.4-1.2c0.4,0.2,0.9,0.4,1.2,0c0.4-0.5-0.1-0.9-0.3-1.4c-0.8-2.2-3.5-2.4-4.5-4.4
	c-0.2-0.4-0.8-0.1-1.1,0.2c-1.7,1.9-2.1-0.5-2.8-1.1c-1.1-0.8-0.5-1.8,0.4-2.5c0.4-0.4,1-0.6,1.5-0.9c0.6-0.5,1.7-0.7,1.4-1.7
	c-0.2-0.9-1.2-1-2-1c-3,0-5.8-0.8-8.7-1.6c-1.6-0.4-3.2-0.6-4.3,1.1c-0.9,1.4-1.7,1.2-3,0.5c-2.6-1.5-5.5-2.4-8.6-2.2
	c-0.9-1.8-2.7-1.5-4.2-1.7c-1.3-0.2-2.6,0-3.9-0.1c-0.5,0-1.1,0-1.2-0.7c-0.1-0.6,0.4-0.9,0.9-1.1c0.7-0.2,1.4-0.3,2.1-0.5
	c2-0.5,2.3-1.4,1.2-3.1c-0.2-0.4-0.5-0.7-0.6-1.1c-0.3-1,0.3-1.6,1.1-1.9c0.9-0.3,1,0.5,1.2,1.1c0.1,0.7,0.2,1.6,1,1.8
	c0.9,0.2,1.2-0.7,1.7-1.1c1.9-1.8,4-3.3,4.5-6.2c0.2-0.8,1.2-0.7,1.9-0.9c2.1-0.5,2.7-1.5,2-3.5c-0.6-1.7-0.4-4-3.3-4
	c-1.1,0-1-1.3-0.1-1.9c1-0.6,0.8-1.1,0.3-1.9c-1.4-2-1.3-2.6,1-3.8c1.3-0.7,2.2-1.5,2.3-3.1c0-1.2-0.4-2-1.4-2.7
	c-3-2.3-6.3-1.4-9.6-1.1c-1,0.1-1.1,1-1.4,1.7c-1.5,3.5-4.7,5-7.8,6.6c-1.3,0.7-2.5-0.1-3.4-1.2c-2.4-2.7-4.6-3-7.6-1
	c-0.2,0.2-0.5,0.3-0.7,0.5c-2.7,1.6-5.2,3.3-4.4,7.6c-4.1-4.4-9.7-5.1-13.6-8.6c-0.7-0.7-1.2-0.1-1.5,0.5c-0.3,0.8-0.7,1.6-1.5,2
	c-0.7,0-1.5,0-2.2,0.1c-0.1,0-0.2-0.1-0.4-0.1c-0.1-1.8-1.4-1.8-2.7-1.5c-1.3,0.3-2.6,0.4-3.8-0.3c-1.9-1.1-3.9-1.2-6-1.3
	c-1.7,0-3.6-0.2-3.7-2.7c0-0.5-0.4-1-0.9-1.1c-2.5-0.4-2.6-2.1-2.4-4.1c0.8-0.4,1.7-0.4,2.6-0.4c0.3,0,0.6,0,0.9,0
	c0.8,0.4,1.7,0.7,2.5,0.2c0.7-0.5-0.1-1-0.3-1.5c0.3-0.3,0.7-0.5,1-0.8c1.4-1.6,3.1-1.9,4.8-0.8c1.9,1.3,0.7,2.8,0,4.2
	c-0.8,1.6-1.3,3.2-1,5c0.1,0.8,0.5,1.5,1.4,1.4c0.8-0.1,1.2-0.7,1.1-1.4c-0.3-2.3,0.9-4,2.4-5.6c0.8-0.8,1.2-1.8,1.4-2.9
	c0.2-0.7,0.1-1.5,1-1.8c0.7,0,1.4,0,2.2,0c0.8,0.5,1.4-0.1,2-0.3c1.3-0.5,2.5-1.1,2.8,1.1c0.1,0.9,0.8,0.9,1.5,0.7
	c0.6-0.2,1.3-0.4,1.7-1c1.1-1.6,2.1-1.6,3.9-0.7c2.3,1.1,4.9,1.9,7.3-0.1c0.7-0.5,1.6-0.8,2.2-0.2c2.3,2.4,4.3,1.9,6.5-0.1
	c0.2-0.2,0.5-0.2,0.8-0.3c0.6,0,1.1,0,1.7,0c2.5,1.2,4.9,1.3,6.7-1.2c0.4-0.6,0.7-1.2,1.1-1.9c0.8-1.4,2.1-1.7,2.8-0.3
	c1.1,2.1,2.8,3.2,4.8,4.4c1.4,0.8,2.5,1.1,4,0.5c3-1.3,6.2-1.3,9.4-1.1c1.4,0.1,2.9,0.3,3.6,1.9c0.3,0.7,0.9,1.3,1.7,0.7
	c0.8-0.6,0.3-1.3-0.2-1.8c-0.2-0.2-0.6-0.4-0.5-1c1.6-0.7,2.7,0,3.8,1.3c1.1,1.4,1.9,1.3,2.6-0.4c0.3-0.6,0.4-1.2,1.2-0.7
	c2.2,1.3,4.4,0.9,6.6-0.2c1.8-0.8,3.1-0.1,3.6,1.8C146.1,93,148.4,94.8,152.3,94.9z M127.4,178.1c1.5,1.1,2.9,1.3,4.2,0.1
	c0.3-0.3,0.6-0.7,0.5-1.1c-0.2-0.6-0.7-0.3-1.1-0.2C129.8,177.3,128.6,177.7,127.4,178.1z"/>
<path fill="#1E0D3F" d="M62.6,202.2c1.1-0.9,2,0,3,0.4c1,0.4,1.9,0.7,2.3-0.9c0.3-1.5,1.5-1.3,2.1-0.6c2.1,2.3,4.1,2.3,6.9,0.9
	c1.7-0.9,4.2-1.2,6,0.8c0.7,0.8,1.6,0.5,2.5-0.2c2.4-2.1,2.5-2,5.1-0.1c0.5,0.4,1,0.8,1.7,0.9c0,1.3,0,2.5-1.2,3.4c-2.5,2-2.5,2,0,4
	c0.6,0.5,1.3,1,2,1.3c1.8,0.8,2.4,0.5,3-1.6c0-0.9,0-1.7,0-2.6c0.6-0.2,1.1-0.5,1-1.2c-0.1-0.7-0.8-0.9-1.3-0.9
	c-1.6,0-2-0.9-1.9-2.3c3.9-1.9,5.5-1.3,7.4,2.5c0.8,1.7,2.7,1.9,3.4,0.2c1.1-2.8,3.9-3.1,5.8-4.5c0.9-0.7,2-0.1,2.9,0.2
	c2.5,1,5.1,1.4,7.9,1.2c2-0.1,3.9-0.2,5.1-2.2c0.3-0.5,0.8-0.9,1.5-0.6c0.7,0.3,0.5,0.9,0.3,1.5c-0.2,0.5-0.6,1.2,0.1,1.5
	c0.7,0.4,1.4,0.1,2-0.5c0.4-0.4,0.7-0.9,1.1-1.3c0.7-0.6,1.7-0.9,2,0c0.7,1.7,1.6,1.3,2.8,0.8c1.9-0.9,3.5,0.1,5.2,0.7
	c1.8,0.6,3.5,0.1,3.7-1.7c0.6-4.3,3.9-5.4,7.2-6.5c0,4.2,0,8.4,0,12.7c-0.9,0.1-1.7,0.3-2.6,0.4c-4.2,0.5-8.4,1.4-11.8,3.9
	c-3.4,2.5-6.5,0.9-9.7,0.2c-1-0.2-2-1-2.7-2c-2.3-3.5-2.4-3.5-5,0c-1.7,2.3-2.8,2.3-4.8,0.2c-0.4-0.5-1.4-1.2-1.3-0.2
	c0.3,2.8-2,3.4-3.3,4.9c-1.2,1.3-2.7,2-4.5,1.7c-5.2-1-10.3,0-15.5,0.8c-3.4,0.5-6.7,0.9-10.1,0c-0.8-0.2-1.7-0.2-1.8-1.5
	c-0.1-2-4.7-5-6.2-3.8c-2,1.6-3.8,2-6.1,1.6c-0.4-0.1-1.1,0.2-1.4,0.5c-1.7,1.5-2.9,3.7-5.7,3.3c-0.1,0-0.1,0.2-0.2,0.4
	c-0.4-0.1-0.9-0.3-1.3-0.4c-1.2-3.5-2.8-6.5-6.9-7c-0.2-0.9-0.6-1.7-1.2-2.2c-1.6-1.4-2.9-2.9-4-4.7c0-1.6,0-3.2,0-4.8
	c0.3,0,0.6,0,0.9,0c0.4,1.7,1.6,1.1,2.6,0.9c0.1,0.3,0.2,0.5,0.4,0.8c1.2,1.8,3,2.3,4.6,1.4c1.9-1.2,1.2-2.5,0.5-4.1
	c-0.8-1.7-1.8-3.5-1.3-5.6c0.1-0.5,0-1-0.4-1.4c-1.6-1.2-5.8,0-6.4,1.9c-0.2,0.7-0.5,1.3-1.2,1.4c-2.5,0.5-2.7,2.2-2.3,4.3
	c-0.1,0.1-0.3,0.1-0.4,0.2c-0.9,0.2-1.8,1.1-2.6,0.3c-0.8-0.7,0.2-1.6,0.4-2.4c0.1-0.6,0.4-1.1,0.4-1.7c0-1.6-0.7-2.9-2-3.6
	c-1.3-0.7-2.1,0.7-2.8,1.5c-0.7,0.8-1.3,1.7-1.9,2.7c-2.4,4.2-6,5.4-10.5,4.6c-1.9-0.3-3.6-0.4-5.5,0.3c-2.3,0.9-4.5-1.3-3.9-3.8
	c0.4-2-0.9-3.8-3-3.8c-1.4,0-2.3-0.4-2.4-2c-0.1-1.9-1.9-3.1-2.1-5c0.5-0.1,0.9-0.4,1.4-0.4c2.1-0.2,3-1.5,3.3-3.4
	c0.1-0.9,0.1-1.7,0.1-2.6c0.1-1.1,0.7-1.9,1.8-2.2c1.1-0.2,2-0.1,2.7,0.9c0.4,0.5,0.8,1,1,1.6c0.5,1.3,1.3,1.7,2.6,1.9
	c1.4,0.1,2.7,0.4,3.6,2c0.5,1,1.9,1.2,2.9,1.7c4.3,1.8,8.9,1.6,13.1,0.7c1.9-0.4,3.4-2.3,5.6-0.7c0.1,0.1,0.8-0.2,0.9-0.4
	c0.7-1.9,2.3-1.7,3.8-1.6c2.5,0.1,4.6-1,6.9-1.7c1.5-0.4,2.9-0.9,4.4-0.1c0,1.1,0.1,2.1,0.1,3.2c-0.1,1.3-0.1,2.6,1.6,2.9
	c-0.2,1.5-1.1,2-2.5,1.6c-0.4-0.1-0.8-0.2-1.3-0.2c-1.1-0.1-2.2,0-3.2,0.5c-1.6,1,0.4,1.6,0.3,2.5c-0.5,4.5,3.9,6.6,4.9,10.5
	c-0.2,0.9-0.5,1.9,0.7,2.4c0.6,0.3,1.2,0.2,1.5-0.3C64.3,203.2,63.2,202.8,62.6,202.2z"/>
<path fill="#110D32" d="M110.8,132.4c3.1-0.2,6,0.7,8.6,2.2c1.3,0.8,2.1,0.9,3-0.5c1-1.6,2.7-1.5,4.3-1.1c2.9,0.8,5.7,1.6,8.7,1.6
	c0.8,0,1.8,0.1,2,1c0.2,1-0.8,1.2-1.4,1.7c-0.5,0.4-1,0.6-1.5,0.9c-0.9,0.7-1.5,1.7-0.4,2.5c0.8,0.6,1.1,3,2.8,1.1
	c0.3-0.4,0.9-0.6,1.1-0.2c1.1,2,3.7,2.2,4.5,4.4c0.2,0.5,0.7,0.9,0.3,1.4c-0.3,0.4-0.8,0.2-1.2,0c-1.5-0.7-2.6-0.3-3.4,1.2
	c-0.3,0.7-0.8,0.8-1.4,0.2c-1.6-1.9-2.2,0.1-3,0.8c-1.1,1.1-0.6,2.1,0.6,2.9c0.1,0,0.1,0.1,0.2,0.1c1,0.7,2.8,1,2.6,2.3
	c-0.3,1.3-2.2,1-3.4,1.1c-2.4,0.2-4.7,0.7-7,1.4c-2,0.7-3.8,0.8-4.8-1.7c-0.5-1.3-1.3-0.7-2-0.1c-2.8,2-6,2.4-9.3,2.6
	c-1.4-2.9-2.1-3.1-4.8-1.8c-0.8,0.4-1.5,0.5-2.1-0.3c-0.6-0.8-0.6-1.6-0.1-2.4c0.6-1,2.2-1.8,1.4-3.1c-0.8-1.3-2,0.3-3.1,0.2
	c-1.5-0.1-3,0.7-4.5,0.3c-1.2-0.3-2-0.9-0.6-2c1.5-1.2,1.4-2.2-0.3-3.2c-0.5-0.3-1.2-0.7-1.2-1.4c0-1,1-0.6,1.5-0.8
	c1.3-0.5,1.3-1.2,0.5-2.1c-0.4-0.5-1.5-0.7-1-1.6c0.4-0.7,1.3-0.5,2-0.6c1.8-0.1,3.4,0.3,5.1,0.6c0.6,0.1,1.3,0.5,1.7-0.3
	c0.4-0.7-0.1-1.3-0.4-1.8c0-0.1-0.1-0.1-0.1-0.2c-0.7-1-2.2-1.9-0.8-3.3c1.2-1.3,2.4-0.2,3.4,0.5c0.7,0.5,1.2,0.3,1.7-0.2
	C109.8,134,110.4,133.3,110.8,132.4z M109.7,151.3c1.1,0.6,2.7,1.8,3,1.2c1.1-1.9,3.6-1.9,4.7-3.7c0.3-0.5,0.7-1,0.4-1.5
	c-0.7-1.1-1.5-1.9-2.9-1.8c-1.5,0-2.6,0.6-3.4,1.9c-0.3,0.5-0.2,1,0.3,1.3c1.5,1,0.3,1.2-0.4,1.6
	C110.8,150.5,110.2,150.6,109.7,151.3z M114.1,143.7c1,0,1.3,0,1.7,0c0.8,0,1.7,0.1,2-0.8c0.3-0.9-0.6-1.4-1-2c-1-1.5-3-1.4-4.1-2.9
	c-0.4-0.6-1.9,0.2-2.4,0.9c-0.8,1,0.6,1,1.1,1.3c0.6,0.4,1,0.8,0.4,1.5c-0.9,1.1-0.1,1.6,0.8,1.9C113.3,143.8,114,143.7,114.1,143.7
	z"/>
<path fill="#1E0D3F" d="M43.6,92.2c-0.1,1.9,0,3.7,2.4,4.1c0.5,0.1,0.9,0.5,0.9,1.1c0.1,2.5,2,2.6,3.7,2.7c2.1,0.1,4.1,0.1,6,1.3
	c1.1,0.7,2.5,0.6,3.8,0.3c1.3-0.3,2.5-0.3,2.7,1.5c-1.9,0.2-1.6,1.7-1.6,3c0,1.1-0.1,2.1-0.1,3.2c-1,0.7-2.1,0.3-3.1,0.1
	c-3.5-0.7-6.6-3-10.5-2c-0.6,0.2-1-0.5-1.2-1.1c-0.4-1.4-1.2-1.5-2.3-0.8c-1.5,0.9-2.8,1.2-4.1-0.5c-0.5-0.8-1.7-0.7-2.6-0.8
	c-3.8-0.3-7.6-0.1-11.3,1.3c-1.3,0.5-2.3,1.4-3.5,2.1c-2.6,1.6-5.4,2.6-7.3,5.4c-0.9,1.2-3.2-0.1-3.5-1.8c-0.1-0.4,0-0.7-0.1-1.1
	c-0.2-4.2-1.1-5.1-5.2-5.1c0.9-1.9,2.4-3.6,2.7-5.9c0.1-1.1,1-1,1.8-1.1c2.7-0.2,3.5-1,3.2-3.7c-0.2-3.1,1.9-4.8,4.7-3.7
	c1.9,0.8,3.8,0.2,5.5-0.1c4.3-0.9,7.2,0.9,9.6,4.3c0.9,1.4,1.7,2.9,3,4c1.3,1.1,2.3,1.2,3.2-0.6c0.6-1.2,0.9-2.4,0.6-3.7
	c-0.2-0.8-1.3-1.8-0.4-2.6C41.5,90.9,42.6,91.7,43.6,92.2z"/>
<path fill="#110D32" d="M24.1,131.5c0.7-2.1,1.2-4.6,1.6-7.1c0.2-1.2,1.4-1.5,2.4-1c1,0.5,2.3,0.8,1.7,2.5c-0.8,2.4-2.1,4.5-3.1,6.7
	c-0.3,0.6-0.7,1.4-1.6,1.2C24.2,133.6,24.1,132.7,24.1,131.5z"/>
<path fill="#110D32" d="M24.2,158.6c0-0.8,0.2-1.5,1-1.8c0.8-0.3,1.2,0.4,1.5,0.9c1.1,2,2.1,4.1,3.1,6.2c0.9,1.9-0.5,2.8-1.9,3.2
	c-1.7,0.5-1.9-0.9-2.1-2.2C25.3,162.7,24.7,160.6,24.2,158.6z"/>
<path fill="#1E0D3F" d="M80.8,120.1c-0.2,1.3-0.9,2.4-2.2,3c-1.4,0.7-2.3,0-3.3-0.9c-2.7-2.6-2.6-3,0.9-4.2
	C79,117.1,80.9,117.8,80.8,120.1z"/>
<path fill="#1E0D3F" d="M77.4,172.5c-1.2-0.2-3-0.3-3.7-2.1c-0.3-0.8,2.9-3.5,4-3.5c1.7,0,3.1,1.6,3.2,3.5
	C80.8,172.1,80.1,172.6,77.4,172.5z"/>
<path fill="#28164F" d="M61.4,184.5c0-1.1-0.1-2.1-0.1-3.2c1.8-0.2,2.6,1,3.1,2.4c0.4,1.2,0.8,2.5,1.2,3.7c-0.8,0-1.5-0.1-2.3-0.1
	C64,185,63.6,184.5,61.4,184.5z"/>
<path fill="#28164F" d="M61.3,109.3c0-1.1,0.1-2.1,0.1-3.2c2.2-0.1,2.6-0.6,2-2.9c0.7,0,1.5,0,2.2-0.1c-0.4,1.2-0.8,2.3-1.2,3.5
	C63.9,108,63,109.2,61.3,109.3z"/>
<path fill="#28164F" d="M18.5,165.9c0,0.7-0.5,0.9-1,0.9c-1,0.1-1.8-0.4-2.2-1.4c-0.2-0.4,0.2-0.7,0.6-0.7
	C16.9,164.8,17.9,165.1,18.5,165.9z"/>
<path fill="#28164F" d="M16.5,125.4c-0.6-0.1-1.3,0-1.2-0.7c0.1-0.8,0.8-1.4,1.7-1.3c0.6,0,1.5,0.2,1.3,1
	C18.1,125.3,17.1,125.3,16.5,125.4z"/>
<path fill="#8648A2" d="M152.3,253.3c0,0.4,0,0.9,0,1.3c-0.9,0-1.8,0-2.6,0.2c-4,1-8.1,2-12.3,1.6c-0.9-0.1-1.6,0.4-2.3,1
	c-3.2,3-3.1,8.2,0.3,11.2c-0.2,2.8-1.4,5.5,0,8.3c-2.6,1.2-5.6,0.8-8.3,2.1c-1.3,0.7-2.4,0.1-3.4-1c-1.1-1.2-2.5-2.2-3.8-3.2
	c-0.7-0.6-1.1-1.1-0.6-2c0.8-1.5,0-1.9-1.3-2.1c-1.1-0.1-2.3-0.3-3.4-0.4c-1.8-0.2-3.5-0.5-4.4-2.6c-0.6-1.4-1.7-1.7-3-0.8
	c-1.3,0.9-2.5,1.9-3,3.6c-0.4,1.3-2.2,2.2,0,3.9c0.9,0.7-0.9,1.9-2.2,2c-0.3-2.1-1.6-2.7-3.5-2.6c-2.1,0.1-1.7,1.7-1.8,3
	c0,0.3,0,0.6,0,0.9c-1.8,0.8-3.5,1-5.4,0.4c-2.3-0.7-4.7-0.4-7,0.2c-2.5,0.6-4.9,0.7-6.7-1.5c-0.7-0.8-1.3-0.4-1.8,0.1
	c-1.4,1.4-3,2.2-5.1,1.4c-0.1,0-0.3-0.1-0.4,0c-2.9,2-6.4,1-9.5,1.7c-2.5-0.3-4.9,0.2-7.3,1.1c-1.4,0.5-2.9,0.8-4.4,0.6
	c0.2-1.3,1.9-1.8,1.7-3.2c-0.4-2,0.8-2.1,2.2-2c1.1,0,2.2,0,3.2-0.1c1.2-0.1,1.6-1.5,2.6-2.3c0.5,2.5,2,2.6,3.9,2.1
	c1.5-0.4,2.9-0.8,4.3-1.5c2-1.2,4.2-1.9,6.4-2.5c2.2-0.7,4.9,0.2,5.5,1.8c0.3,0.7-0.1,2,1.2,1.9c1.1-0.1,1.4-1.2,1.7-2
	c0.4-1.1,1-1.8,2.1-2.3c0.9-0.4,2.5,0.5,2.6-0.6c0.1-1.2-1.7-1.3-2.5-2.1c-0.1-0.1-0.3-0.1-0.4-0.2c-1.4-1.4-3.3-2.4-2.3-5
	c0.4-1-0.6-1.4-1.4-1.6c-1.5-0.3-2.6-1.1-3.6-2.2c-0.5-0.5-1-1-1.8-1.1c0-0.6,0-1.2,0-1.7c1.8-0.2,3.4-0.6,4.5-2.2
	c0.2-0.3,0.6-0.4,0.9-0.5c1.8-0.7,6.9,0.7,8.1,2.1c0.3,0.4,0.2,0.8,0.2,1.2c-0.2,2.8,0.1,3.3,2.8,3.7c2.7,0.5,5.5,0.5,7.6,3
	c0.7,0.9,2.7,1.8,4.2,1c1.5-0.9,1.3-2.7,1.1-4.2c-0.2-1.9-0.5-3.7-0.8-5.6c2.5-1.8,5.4-1.3,8.2-1.2c1.6,1.3,3.2,1.2,4.7-0.2
	c0.9-0.9,1.7-1.2,2.8-0.4c1.5,1.1,3.2,1.1,5,0.7c1.5-0.3,2.9-0.7,4.5-0.7C136.4,253.7,144.4,253.9,152.3,253.3z"/>
<path fill="#5F2E85" d="M135.4,276.9c-1.4-2.8-0.2-5.5,0-8.3c0.3-0.7,0.7-1.4,1-2.2c0.8-2,4.4-4.5,6.1-3.8c2.1,0.8,3.8,0.3,5.7-0.5
	c1.3-0.6,2.7-0.9,4.1-1.4c0,2.8,0,5.5,0,8.3c-1.5,0-3,0-4.5,0c-1.7,0-3,0.9-4.3,1.9c-1,0.8,0.1,1.6,0.1,2.4c0,0.6-0.3,1.1-0.7,1.5
	c-0.9,0.9-1.8,1.8-3,2.5c-1.3,0.7-2.1,1.7-1.5,3.4c0.3,0.9,0.2,1.7-0.7,2.3c-0.5-1.4-1.1-2.6-0.4-4.3
	C137.8,277.3,136.6,277,135.4,276.9z"/>
<path fill="#5F2E85" d="M49.2,281.6c1.5,0.2,3-0.1,4.4-0.6c2.4-0.9,4.8-1.4,7.3-1.1c0.3,1.4,1.2,1.7,2.5,1.7c3,0,5.2,1.3,6.3,4.2
	c-0.7,0.4-1.5,0.7-2.2,0.3c-2.5-1.7-4.9-0.8-7.4,0.1c-5.4,1.8-10.8,3.5-16.6,2.3c0.1-0.5,0.2-1,0.3-1.5c0.3-0.1,0.5-0.1,0.8-0.2
	c1.4-0.1,1.7-1.1,1.8-2.2C46.5,282.9,47.4,281.8,49.2,281.6z"/>
<path fill="#492878" d="M43.3,288.5c5.8,1.2,11.2-0.5,16.6-2.3c2.5-0.8,4.9-1.7,7.4-0.1c0.7,0.5,1.5,0.2,2.2-0.3
	c1,0.1,1.7,0.4,2.2,1.3c0.9,1.6,1.9,3.2,2.9,4.7c0,0.3,0,0.7,0,1.1c-1.2-0.8-2.4-1.5-3.6-2.3c-1.9-1.2-3.5-0.8-4.7,0.9
	c-1,1.4-2.2,2-3.8,1.8c-1.6-1.4-3.6-1.2-5.5-1.3c-0.6,0-1.4,0.5-1.9,0c-1.6-1.8-3.5-1.2-5.4-0.9c-0.8,0.1-1.7,0.1-2.5-0.3
	c-1.6-0.8-3.2-1.3-5-0.7c-0.7,0.2-1.3-0.1-1.5-0.9C41.7,289.1,42.5,288.8,43.3,288.5z"/>
<path fill="#492878" d="M137.7,283c0.8-0.6,1-1.4,0.7-2.3c-0.6-1.7,0.2-2.7,1.5-3.4c1.2-0.6,2.1-1.5,3-2.5c0.4-0.4,0.7-0.9,0.7-1.5
	c0-0.8-1.1-1.6-0.1-2.4c1.3-1,2.6-1.9,4.3-1.9c1.5,0,3,0,4.5,0c0,1.3,0,2.6,0,3.9c-2.3,0.7-4.5,1.5-6.5,2.8c-3,1.9-4.5,4.8-5.1,8.2
	c-0.4,2.7-0.4,2.7-3.1,2.1c0-0.3,0-0.6-0.1-0.9C137.6,284.4,137.6,283.7,137.7,283z"/>
<path fill="#9355B8" d="M96.9,277.7c0-0.3,0-0.6,0-0.9c0.1-1.3-0.4-2.9,1.8-3c1.9-0.1,3.2,0.5,3.5,2.6
	C100.5,277.4,98.7,277.5,96.9,277.7z"/>
<path fill="#5F2E85" d="M98.2,294.7c-1.2-0.1-2-0.6-1.8-1.6c0.1-1,1.3-1.5,2.1-1.5c0.8,0.1,1.4,1.1,1.5,1.9
	C100,294.6,98.9,294.6,98.2,294.7z"/>
<path fill="#1E0D3F" d="M92.1,87c-0.3,0.1-0.6,0.1-0.8,0.3c-2.1,2-4.2,2.5-6.5,0.1c-0.6-0.6-1.5-0.4-2.2,0.2c-2.4,2-5,1.1-7.3,0.1
	c-1.8-0.8-2.8-0.9-3.9,0.7c-0.4,0.5-1,0.8-1.7,1c-0.7,0.2-1.3,0.2-1.5-0.7c-0.3-2.1-1.6-1.6-2.8-1.1c-0.6,0.3-1.2,0.9-2,0.3
	c0.3-0.7,0.7-1.5-0.1-2.1c-0.6-0.5-1.2-0.3-1.7,0.1c-0.8,0.6-0.7,1.3-0.3,2.1c-0.9,0.3-0.8,1.1-1,1.8c-0.2,1.1-0.7,2.1-1.4,2.9
	c-1.5,1.6-2.7,3.2-2.4,5.6c0.1,0.7-0.3,1.3-1.1,1.4c-0.9,0.1-1.2-0.6-1.4-1.4c-0.3-1.8,0.2-3.4,1-5c0.7-1.4,1.9-2.9,0-4.2
	c-1.7-1.1-3.4-0.8-4.8,0.8c-0.3,0.3-0.7,0.5-1,0.8c-1,0-1.9,0.1-2.2,1.3c-0.3,0-0.6,0-0.9,0c0.2-1.6-0.4-3.2-0.4-4.8
	c1.9-2.3,4.3-4.2,5.6-7c3.9-0.9,6-3.6,7-7.4c0.4,0,0.8,0,1.3,0c0.5,0.8,1.3,0.9,2.1,0.7c1-0.3,1.6,0,2,1c0.7,1.8,2.1,2.4,4,2.3
	c1.3-0.1,2.9-0.6,3.7,0.5c1.6,2,3.3,1.3,5,0.5c1.5-0.7,3.5-1,2.9-3.5c-0.1-0.6,0.5-0.9,1-1c0.9-0.2,1.8-0.4,2.8-0.5
	c8.5-0.4,16.8,2.5,25.4,1.4c2-0.2,5.3,3.4,5.7,5.4c0.1,0.5,0,1.1,0.7,1.2c0.5,0.1,0.7-0.3,1-0.7c2-2.1,2.9-2,4.5,0.3
	c0.3,0.5,0.6,1,1,1.4c1.5,2.2,2.1,2.2,3.4-0.1c0.9-1.5,1.7-3,3.7-3.4c4-0.7,7.7-1.6,11.5,1.4c3.4,2.7,8.1,2.2,12.2,3.2
	c0,3.9,0,7.9,0,11.8c-4,0-6.3-1.8-7.3-5.7c-0.5-1.9-1.8-2.6-3.6-1.8c-2.2,1-4.3,1.5-6.6,0.2c-0.8-0.5-0.9,0.1-1.2,0.7
	c-0.7,1.7-1.5,1.8-2.6,0.4c-1-1.3-2.2-2-3.8-1.3c-0.1,0.6,0.3,0.7,0.5,1c0.5,0.6,1,1.3,0.2,1.8c-0.8,0.6-1.4,0-1.7-0.7
	c-0.7-1.6-2.2-1.8-3.6-1.9c-3.2-0.2-6.4-0.2-9.4,1.1c-1.5,0.6-2.6,0.3-4-0.5c-1.9-1.2-3.6-2.3-4.8-4.4c-0.8-1.5-2-1.1-2.8,0.3
	c-0.4,0.6-0.7,1.3-1.1,1.9c-1.9,2.5-4.2,2.4-6.7,1.2c0-1.2,0.1-2,1.6-2.3c1.8-0.3,1.8-1.4,0.6-2.5c0.1-0.7,0.2-1.4,0.4-2.1
	c-1.2-2.4-2.2-2.7-4.4-1.3c-0.8,0.6-1.5,1.3-2.3,1.9c-1.1,0.8-1.1,1.5,0.1,2C91.7,83.6,92.3,85.1,92.1,87z"/>
<path fill="#3C286A" d="M21,58.6c-4.1,0-8.1,0-12.2,0c0.6-1.2,1.8-1.9,1.8-3.5c0.1-4.5,0.9-8.7,4.7-11.7c1.2,0.1,2.4,0.2,3.6,0.3
	c2.6,0.2,4.4-1.1,4.5-3.7c0.1-1.6,0.8-2.4,2.2-2.7c2.9,0.3,6,0.1,7.5,3.6c0.3,0.6,0.9,0.7,1.5,0.2c1.5-1.3,2.5-0.6,3.2,0.9
	c1.6,3.4,7.4,4.1,9.3,1.9c1.7-2,3.2-1.2,4.9-0.9c1.8,0.3,2.8,1.1,2.7,3c-0.1,1.5,0.6,2.4,2.2,2.2c2.8-0.2,4.8,1,6.7,3
	c0.9,1,1.8,2.1,3,2.8c1.1,0.6,1,1.3,0.2,2c-1,0.9-1.6,2.1-1.1,3.3c0.8,1.8,1.9,3.6,3.9,4.1c1.9,0.4,3.8-0.2,5.1-2
	c0.7-0.2,1.4-0.3,2.2-0.5c1,1,2.6,0.5,3.5,1.8c-0.1,0.3-0.3,0.6-0.4,0.9c-0.4,0-0.9,0-1.3,0c-3-0.2-5.8,0.2-8.3,2.2
	c-1.6,0.2-3.7-0.7-4.5,1.1c-1.1,2.3-3,2.5-5,2.9c-0.3-0.9-1-0.9-1.7-0.9c0.3-3.1-0.8-5.5-3.7-6.8c-3.8-1.6-4-1.4-4.7,2.6
	c-0.3,1.6,0.1,2.3,1.7,2.5c1,0.1,1.7,0.7,2,1.7c-1.8,0.2-4-0.6-5.1,1.8c-0.1,0.2-0.1,0.3-0.2,0.5c-0.4,0.4-0.8,0.9-1.2,1.3
	c-1.4-2.2-3.3-2.8-5.7-1.9c-0.6,0.2-1.4,0.1-2.1,0c-2.1-0.1-4.1,0-6.1,0.9c-1-0.2-2.6,0.1-2.6-1.2c0.1-1.3,1.7-1,2.7-1
	c0.9,0,1.7,0.1,2.6,0c1.6-0.2,3.3-0.1,4.7-1.3c0.9,0,1.7,0,2.6,0c0.7,0,1.3-0.4,1.3-1.1C45,63,47.6,61.3,50,59.5
	c2.5-0.3,4.8-2.6,7.6-1c0.5,0.3,1.3-0.4,1.9-0.9c1-0.9,1.6-2.1,2.2-3.2c0.5-0.8,0.5-1.6-0.2-2.2c-0.9-0.8-1.2,0.2-1.7,0.6
	c-1.7,1.4-3,1.3-4-0.6c-0.5-0.9-1-0.8-1.5-0.3c-1.1,1.1-2.3,0.8-3.6,0.5c-2.4-0.4-4.3-1.5-6.1-3.1c-0.9-0.8-1.9-1.3-3.1-1.3
	c-1.2,0-1.9-0.5-2.5-1.7c-0.9-1.8-2.5-2.7-4.6-2.7c-0.9,0-1.7,0.4-1.6,1.4c0.3,3.2-1,5.9-2.1,8.7c-0.9,2.1-1.3,2.5-3.6,1.6
	c0.6-0.7,1.3-1.4,1.9-2.1c1.2-1.6,1.5-3.1-0.1-4.6c-1.7-1.6-3.5-2.2-4.7-0.4c-1.7,2.7-5.5,0.8-6.6,3.8c0,0.1-0.5,0-0.8,0
	c-0.5,0-1.2-0.6-1.5,0.2c-0.3,0.7,0.2,1.2,0.6,1.7c1.4,1.6,3.2,2.7,5.2,3.3C21,57.8,21,58.2,21,58.6z"/>
<path fill="#332061" d="M21,57.3c-2.1-0.6-3.8-1.7-5.2-3.3c-0.4-0.5-1-1-0.6-1.7c0.4-0.8,1-0.2,1.5-0.2c0.3,0,0.8,0.1,0.8,0
	c1.1-3.1,5-1.2,6.6-3.8c1.1-1.8,3-1.2,4.7,0.4c1.6,1.5,1.3,3.1,0.1,4.6c-0.6,0.7-1.2,1.4-1.9,2.1c2.4,0.9,2.7,0.6,3.6-1.6
	c1.2-2.8,2.4-5.5,2.1-8.7c-0.1-0.9,0.7-1.4,1.6-1.4c2.1,0,3.7,0.9,4.6,2.7c0.5,1.2,1.2,1.7,2.5,1.7c1.2,0,2.3,0.5,3.1,1.3
	c1.8,1.5,3.7,2.6,6.1,3.1c1.3,0.3,2.5,0.6,3.6-0.5c0.5-0.5,1-0.6,1.5,0.3c1.1,1.8,2.3,1.9,4,0.6c0.5-0.4,0.9-1.4,1.7-0.6
	c0.7,0.6,0.7,1.4,0.2,2.2c-0.7,1.1-1.2,2.3-2.2,3.2c-0.6,0.5-1.4,1.2-1.9,0.9c-2.9-1.7-5.1,0.7-7.6,1c0.2-0.5,0.5-0.9,0.7-1.4
	c0.3-0.7,1.3-1.3,0.7-2.1c-0.7-0.9-1.8-0.4-2.6,0c-0.9,0.4-1.8,1-2.7,1.4c-2.9,1.2-4.6,0-4.2-3.1c0.1-0.6,0.3-1.3,0.3-1.9
	c0.1-0.8-0.4-1.3-1.2-1.7c-0.9-0.4-1.8-0.4-2.6,0.4c-0.6,0.6-0.8,1.1-0.4,1.9c0.3,0.6,0.7,1.5-0.2,1.9c-0.8,0.3-1-0.6-1.3-1.2
	c-0.4-0.7-0.9-1.2-1.7-1c-0.9,0.3-0.5,1-0.5,1.6c0.2,1.1-0.5,1.8-1.4,2.2c-1.7,0.8-3,1.8-3.9,3.5c-0.8,1.5-1.8,1.3-2.5-0.3
	C25.5,57.6,23.4,56.6,21,57.3z"/>
<path fill="#332061" d="M41.4,67.8c-1.4,1.2-3.1,1.1-4.7,1.3c-0.8,0.1-1.7,0-2.6,0c-1,0-2.6-0.3-2.7,1c-0.1,1.3,1.6,1,2.6,1.2
	c0.5,2,2.4,2.6,3.9,3.5c-0.3,1.6-0.2,2.7,1.5,3.7c2,1.2,1.9,4.1,0.2,5.6c-2.2,1.9-2.2,1.9,0,3.9c-1,1.8-2.4,2.2-4.1,1.3
	c-1.7-0.9-2.1-2-0.8-4c2-2.9,1.8-4.4-1.1-6.4c-1.1-0.8-2.4-0.6-3.6-0.4c-0.9,0.2-1.5,0.2-1.7-1c-0.4-1.9-1.7-2.3-3.4-2.2
	c-2.5,0-5.1-0.1-7.4-1.3c-1.9-1-1.9-1.9-0.1-3.1c1.6-1,3.3-0.9,5-0.7c0.6,0.1,1.4,0.4,1.7,0.2c2.4-1.9,5.8-2.1,7.9-4.4
	c1.6-1.8,1.6-1.9,2.9,0.2c1,1.5,2.2,2,3.9,1.3C39.8,67.1,40.7,66.7,41.4,67.8z"/>
<path fill="#332061" d="M59.2,68.7c0.7,0,1.5,0,1.7,0.9c0.2,1.3-0.7,2.1-1.3,3c-0.4,0-0.8,0-1.3,0c-0.7-0.1-1.6-0.1-2,0.5
	c-1.6,2.3-4.1,4-5,6.9c-1.4,2.7-3.7,4.7-5.6,7c-1,0-2.1-0.1-3.1-0.1c0.1-1.1,0.8-2,1.4-2.8c1.3-1.8,2.6-3.6,3.8-5.4
	c2-1.4,3.8-3,4.2-5.6c0.7-0.8,1.5-1.5,2.2-2.3c0.9,0,1.7-0.4,2.2-1.2C57.5,69.6,58.3,69.1,59.2,68.7z"/>
<path fill="#3C286A" d="M47.9,78.7c-1.3,1.8-2.6,3.6-3.8,5.4c-0.6,0.9-1.4,1.7-1.4,2.8c-1,0.3-2,0.7-3,1c-2.2-2-2.2-2,0-3.9
	c1.7-1.4,1.8-4.4-0.2-5.6c-1.7-1-1.8-2.1-1.5-3.7c2.1,1.8,4.4,2.1,6.9,1.3c0,0.8-0.3,1.4-0.8,1.9c-0.3,0.3-0.9,0.7-0.5,1.2
	c0.4,0.6,1,0.2,1.5,0c0.8-0.4,1.4-0.9,2.3-1C47.6,78.4,47.7,78.6,47.9,78.7z"/>
<path fill="#3C286A" d="M11.8,89.3c-0.9,0.1-2,0.4-2-1C9.9,87,11,87,11.9,87c0.9,0,2.1-0.2,2.1,1.2C14,89.9,12.7,89.3,11.8,89.3z"/>
<path fill="#3C286A" d="M15.4,247.2c-3.4-2.4-3.8-6.3-5-9.8c0-0.1-0.1-0.3-0.1-0.4c1.2-2-0.1-3.5-1-5.1c3.9,0,7.8,0,11.8,0
	c0,0.4,0,0.9,0,1.3c-2.3,0.7-4.2,1.8-5.6,3.9c-0.2,0.4-0.5,0.8-0.3,1.2c0.3,0.5,0.7,0.2,1.2,0.2c0.5-0.1,1.2-0.5,1.5,0.3
	c0.5,1.5,1.6,1.5,2.8,1.4c1.3-0.1,2.3,0.4,3.2,1.5c1.1,1.4,3.6,1.6,4.9,0.6c1.5-1.2,1.8-3.1,0.7-4.9c-0.4-0.5-0.8-1-1.2-1.5
	c-0.6-0.8-0.3-1.2,0.6-1.3c1.1-0.1,2.1,0.1,2.2,1.5c0.2,1.3,0.8,2.3,1.4,3.4c0.6,1.1,1,2.3,0.6,3.6c-0.3,1.3-0.5,2.6,0.7,3.4
	c1.2,0.9,2.5,0.2,3.7-0.5c1-0.5,1.8-1.3,2.2-2.3c0.2-0.5,0.4-1.1,0.9-1.1c3,0,4.8-2.4,7.3-3.6c2.1-0.9,4.4-2.9,6.8-0.4
	c0.3,0.4,0.9,0.1,1.1-0.3c1.2-2.5,2.7-1.8,4.3-0.5c0.5,0.4,1.1,0.9,1.7,0.2c0.5-0.5,0.6-1.2,0.2-1.8c-0.7-1-1.3-2.1-2.1-3
	c-0.8-0.9-2-1.6-3.1-1c-1.5,0.8-2.6,0.3-3.9-0.2c-0.9-0.3-1.7-0.8-2.7-0.8c-0.5-0.8-1.1-1.6-2-1.8c-2-0.5-2.6-2.1-2.4-3.8
	c0.3-2.5-1-2.8-2.9-2.7c-0.3,0-0.6,0-0.9,0c-1.2-1-2.7-1.3-4.3-1.3c-1.6,0-3.2,0-4.8-0.1c-0.6,0-1.1-0.3-1.2-1c-0.1-0.7,0.4-1,1-1.2
	c0.5-0.1,1-0.2,1.5-0.3c0.7,0.3,1.3,0.7,2,0.9c3.1,1,6.3,0,9.4,0.7c0.5,0.1,0.9-0.4,1.2-0.8c0.4-0.6,0.7-1.3,1.3-1.7
	c0.5,0.6,0.5,1.4,1.2,1.8c1,2.6,3.3,2,5.2,2.2c-0.3,0.6-0.6,1.5-1.4,1.6c-2.7,0.1-2.3,1.8-2.1,3.6c0.2,2.1,0.7,2.5,2.7,2.1
	c4.1-0.9,5.5-2.9,5.5-7.7c1,0.4,1.5,0.2,1.7-0.9c1.2,0.7,3.1-0.2,3.9,1.4c1.2,2.5,3.1,3.2,5.6,3c2.6,1.3,5.1,3.1,8.3,1.8
	c0.4,0.1,0.9,0.3,1.3,0.4c0.1,0.3,0.3,0.6,0.4,0.9c-1.2,1.4-3,0.4-4.3,1.3c-0.3,0-0.6,0-0.9,0c-1.4-1.6-3.3-2.1-5.2-2.1
	c-2.5,0-3.2,2.5-4.4,4.1c-0.9,1,0.2,2.2,1,3c0.9,1,0.9,1.7-0.2,2.4c-1.4,0.8-2.5,2-3.5,3.2c-1.5,1.7-3.3,2.5-5.6,2.5
	c-1.8-0.1-2.7,0.8-2.8,2.6c0,0.8,0,1.7-0.9,2.1c-1.4,0.5-2.9,1-4.4,1.3c-1,0.2-0.8-1.3-1.5-1.6c-0.2-0.1-0.4-0.2-0.6-0.3
	c-3.1-1.4-8-1-9.5,2.7c-0.3,0.7-1,1.4-1.7,0.9c-1.9-1.4-2.9-0.6-3.7,1.3c-0.3,0.7-1.1,0.9-1.8,1.1c-1.5,0.6-3.1,0.4-4.7,0.5
	c-1.1,0-1.9-0.2-2.2-1.6c-0.9-4.2-2.3-5.1-6.5-4.4C16.5,247.1,16,247.1,15.4,247.2z"/>
<path fill="#332061" d="M50,231c1,0,1.8,0.5,2.7,0.8c1.3,0.5,2.4,1,3.9,0.2c1.1-0.6,2.3,0.1,3.1,1c0.8,0.9,1.4,2,2.1,3
	c0.4,0.6,0.4,1.3-0.2,1.8c-0.6,0.6-1.2,0.2-1.7-0.2c-1.6-1.3-3.1-2-4.3,0.5c-0.2,0.5-0.7,0.7-1.1,0.3c-2.4-2.5-4.7-0.6-6.8,0.4
	c-2.4,1.1-4.2,3.5-7.3,3.6c-0.6,0-0.7,0.6-0.9,1.1c-0.4,1.1-1.2,1.8-2.2,2.3c-1.1,0.7-2.4,1.3-3.7,0.5c-1.2-0.8-1.1-2.1-0.7-3.4
	c0.4-1.3-0.1-2.4-0.6-3.6c-0.6-1.1-1.2-2.1-1.4-3.4c-0.2-1.4-1.1-1.6-2.2-1.5c-0.9,0.1-1.2,0.5-0.6,1.3c0.4,0.5,0.8,1,1.2,1.5
	c1.1,1.7,0.8,3.7-0.7,4.9c-1.3,1-3.8,0.9-4.9-0.6c-0.9-1.1-1.8-1.5-3.2-1.5c-1.2,0.1-2.3,0-2.8-1.4c-0.3-0.8-1-0.4-1.5-0.3
	c-0.4,0.1-0.9,0.3-1.2-0.2c-0.2-0.4,0-0.9,0.3-1.2c1.3-2,3.3-3.2,5.6-3.9c2.2,0.6,4.3-0.4,5.5-2.6c0.8-1.4,2-1.5,2.6-0.1
	c0.6,1.5,1.8,2.2,3.1,2.9c1.2,0.7,2.5,1.4,2.1,3.1c-0.1,0.5-0.3,1.1,0.4,1.3c0.6,0.2,1.1-0.2,1.5-0.6c0.7-0.5,0.6-2.5,1.9-1.8
	c1.2,0.7,0.1,1.7-0.3,2.6c-0.3,0.6,0.1,1,0.5,1.3c0.7,0.5,1.5,1,2.4,0.5c0.8-0.4,1.4-1,1.4-2c0-0.7-0.3-1.4-0.3-2.2
	c-0.1-2.7,1.3-3.8,3.8-2.8c1.3,0.5,2.5,1.1,3.8,1.7c0.7,0.3,1.5,0.5,2-0.2c0.6-0.8,0-1.3-0.5-1.9C50.5,232.1,50.2,231.6,50,231z"/>
<path fill="#332061" d="M34,218.8c-0.5,0.1-1,0.2-1.5,0.3c-0.6,0.2-1.1,0.5-1,1.2c0.1,0.7,0.6,1,1.2,1c1.6,0.1,3.2,0.1,4.8,0.1
	c1.5,0,3,0.3,4.3,1.3c-0.9,0.5-1.8,0.9-2.8,0.4c-1.9-0.9-3.4-0.1-4.2,1.8c-0.8,1.8-1.6,1.4-2.4,0.1c-0.9-1.4-2.1-2.4-3.9-2.3
	c-0.4,0-1-0.2-1.2-0.5c-1.6-2.3-3.6-2.5-6-1.7c-0.6,0.2-1.3,0.1-1.9-0.1c-1.4-0.4-2.8-1.2-2.8-2.6c0-1.3,1.5-1.5,2.6-1.9
	c1.9-0.7,3.8-0.7,5.8-0.6c1.7,0.1,3-0.4,3.5-2.2c0.2-0.9,0.8-1.2,1.6-1c0.2,0.1,0.4,0.1,0.6,0.1c2,0.1,3.7-0.6,4.8-2.3
	c1-1.6,0.3-3.1-0.6-4.5c-0.6-1-1.2-2.1-0.5-3.2c0.8-1.1,2-1.4,3.3-1.3c1.1,0.1,1.7,0.6,2,1.7c-2.2,1.9-2.2,2.3,0,3.8
	c1.7,1.2,1.9,4.1,0.1,5.4c-1.6,1.1-2,2.3-1.8,4C36.4,216.5,34.6,216.8,34,218.8z"/>
<path fill="#1E0D3F" d="M1.4,215.7c-0.2-1.8,0.9-2.7,2.3-3.4c3-0.3,5.1-2.2,7.2-4.1c1.2-1.1,2.2-2.5,3.9-3.1c2-0.7,3.2-0.2,3.4,1.9
	c0.3,2.6,1.3,4.2,3.9,4.7c0.5,0.1,1.1,0.3,1,0.9c-0.1,0.7-0.8,0.8-1.3,0.9c-1.5,0.2-2.8-0.4-4.1-1.2c-2.4-1.5-3.6-1-4.1,1.7
	c-0.2,1.4-0.9,2-2.1,2c-1.6,0.1-2.6,1-3.4,2.3c-0.8,1.2-1.5,2.7-3.3,2.4c-1.6-0.2-1.9-1.8-2.6-3C2,217.2,1.7,216.4,1.4,215.7z"/>
<path fill="#140D3A" d="M47,198.7c-0.3,0-0.6,0-0.9,0c-0.8-0.4-1.7-0.4-2.6-0.4c-0.5-2.1-0.2-3.7,2.3-4.3c0.7-0.1,1-0.8,1.2-1.4
	c0.6-1.9,4.8-3.1,6.4-1.9c0.5,0.3,0.6,0.9,0.4,1.4c-0.5,2.1,0.5,3.9,1.3,5.6c0.7,1.6,1.5,2.9-0.5,4.1c-1.6,1-3.4,0.4-4.6-1.4
	c-0.2-0.2-0.3-0.5-0.4-0.8C49.4,197.3,48,198.5,47,198.7z"/>
<path fill="#332061" d="M60.9,220.5c-0.2,1.1-0.8,1.3-1.7,0.9c-0.9-0.2-1.7-0.3-2.6-0.5c-0.5-0.8-1.2-1.3-2.1-1.3
	c-0.7-0.8-1.5-1.5-2.2-2.3c-0.4-2.7-2.4-4.1-4.3-5.6c-0.4-0.7-0.8-1.5-1.3-2.2c-1.4-2.1-3.2-3.8-4.4-6.1c1.3,0,2.6,0,3.9,0
	c1.1,1.8,2.4,3.4,4,4.7c0.7,0.6,1.1,1.4,1.2,2.2c1.1,2.7,3.3,4.5,5,6.8c0.4,0.5,1.2,0.8,1.9,0.2c0.4,0.1,0.9,0.3,1.3,0.4
	C60.1,218.8,61,219.4,60.9,220.5z"/>
<path fill="#3C286A" d="M42.3,203.5c1.2,2.2,3,4,4.4,6.1c0.5,0.7,0.8,1.5,1.3,2.2c-0.2,0.2-0.3,0.3-0.5,0.5c-0.9-0.5-1.7-1-2.6-1.5
	c-0.4-0.2-0.8-0.4-1.2,0c-0.4,0.4,0,0.8,0.2,1.1c0.6,0.7,1,1.6,1,2.5c-2.6-1-4.9-0.4-6.9,1.3c-0.2-1.7,0.3-2.9,1.8-4
	c1.8-1.2,1.6-4.2-0.1-5.4c-2.2-1.5-2.2-1.9,0-3.8C40.6,202.6,41.5,202.8,42.3,203.5z"/>
<path fill="#3C286A" d="M11.9,203.5c-0.8-0.1-2.1,0.1-2-1.4c0.1-1.5,1.4-1.2,2.3-1.2c0.9,0,2.1-0.2,2.1,1.2
	C14.3,203.5,13.1,203.6,11.9,203.5z"/>
<path fill="#A065C6" d="M21.8,5c1.8-0.4,3.8,0.8,5.3-0.9c1.3-0.2,2.3-1.1,3.5-1.5c2.4-1,4.9-0.8,7.3-0.2c1.8,0.7,3.8,0.8,5.7,1.1
	c0.3,0,0.5,0.1,0.8,0.1c0.2,1.5,0.6,3,0.4,4.5c-0.5,3.3,0.9,5.9,3.9,6.9c1.8,0.6,2.9,1.7,3.6,3.4c0.3,0.9,1,1.4,1.8,1.1
	c5.2-1.5,10.5-0.2,15.7-1.1c2.4-0.4,2.8,0.1,2.8,2.5c0,1.7,0.3,3.6-0.2,5.2c-0.9,2.8-0.1,4.5,2.3,5.8c0,0.6,0,1.2,0,1.7
	c-1,0-1.8,0.2-1.5,1.5c0.3,1.4-0.5,1.9-1.7,2c-1.2,0.1-2.4-0.1-3.6-0.3c-2.8-0.6-5.6-1.2-8.4-0.5c-0.4,0-0.8-0.1-1.3-0.1
	c-2.1-3.8-3.2-4.2-5.7-2c-1.1,0-2.3,0.1-3.4,0.1c-2.2,0-4.6,0-6-1.8c-2.3-3.1-5.2-2.1-8-1.6c-1.1,0.2-1.6,0.4-2.2-0.8
	c-0.6-1.4-1.8-2-3.3-2.1c-0.1-0.3-0.3-0.5-0.4-0.8c0.4-0.8,1-1,1.9-1c1.7,0.1,3.5,0.1,5.2,0c1.7,0,2.9-0.9,3.7-2.3
	c1.2-1.9,0.9-2.9-1.2-3.7c-1.9-0.7-1.2-1.6-0.4-2.6c0.5-0.6,1.2-1,1.8-1.5c1.7-1.5,2.4-3.2,1.6-5.4c-0.4-1-0.3-1.9,0.5-2.7
	c1.3-1.4,0.7-4-1.1-3.8c-4.6,0.4-9.5-1.1-13.6,2c-2.1,1.6-4.5,3-4.7,6.3c-0.1,1.7-2,2.9-3,4.3c-1.1,1.4-3.2,2.2-4.8,3.1
	c-0.7,0.4-1.6,0.1-2.3-0.3c0-1,0.5-1.6,1.3-2.1c1.1-0.7,1.7-1.7,1.8-3c1.4,0,2.2-1,2.9-2C20.5,10.5,21.4,7.8,21.8,5z M50.4,26.1
	c3.1,1.2,5.7,2.3,9,1.8C56.5,25.5,53.1,24.7,50.4,26.1z"/>
<path fill="#9355B8" d="M29.2,27.3c0.1,0.3,0.3,0.5,0.4,0.8c-0.4,1.5-1.7,2.4-1.9,4c-0.1,1-1.1,0.1-1.4-0.3c-1.1-1.3-2.1-1.3-3.2,0
	c-0.6,0.7-1.4,1-2.3,1c-4.5,0-8.9,0.1-13.4-0.5c-2.8-0.4-1.8-2.6-2-4.3c2.9,0.6,5.7,1,7.8-1.8c4,1.6,8.2,2,12.4,1.8
	C26.9,27.8,28.1,27.6,29.2,27.3z"/>
<path fill="#9355B8" d="M15.8,14.6c-0.1,1.3-0.7,2.3-1.8,3c-0.8,0.5-1.3,1.1-1.3,2.1c-1.3,0.2-2.1-0.2-2.8-1.4
	c-0.8-1.5-2-2.8-2.9-4.2c-0.4-0.7-0.8-1.4-0.7-2.2c0.8,0,1.6,0.1,2.5,0.1c0.5,2.4,1.4,3.2,3.8,3C13.7,14.8,14.7,14.4,15.8,14.6z"/>
<path fill="#A065C6" d="M25.7,28.1c-4.3,0.3-8.4-0.2-12.4-1.8c0-1.1,0.7-1.3,1.6-1.2c3.1,0.6,6.3,1.4,9.5,1.2
	C25.5,26.3,25.8,27.1,25.7,28.1z"/>
<path fill="#A065C6" d="M44.4,286.8c-0.3,0.1-0.5,0.1-0.8,0.2c-1.8,0.2-3.7,0-5.3,1.3c-4.1,0.8-7.8,0.1-11.3-2.2
	c-1.7-0.9-3.5-0.2-5.2-0.5c-0.2-2.6-1.2-4.9-2.6-7.1c-0.8-1.3-1.7-2.5-3.5-2.6c0.1-1.2-0.6-2-1.4-2.8c-0.8-0.7-1.6-1.4-1.7-2.6
	c3.7-0.3,6,1.9,8.3,4.4c1.5,1.7,1.7,3.9,2.8,5.5c2.2,3.2,5.3,5.3,9.3,5.6c2.4,0.2,4.8-0.2,7.1,0.3c1.1,0.2,2-0.3,2.5-1.3
	c0.5-0.9,0.5-1.9-0.2-2.7c-0.7-0.9-0.9-1.8-0.6-2.8c0.6-2.1,0-3.8-1.6-5.3c-0.8-0.7-1.6-1.5-2.2-2.3c-0.4-0.5-1.3-1.3,0.2-1.8
	c1.1-0.4,2.6-0.5,2.4-2.3c-0.2-1.7-2.1-3.6-3.8-3.7c-1.8-0.1-3.6,0-5.4,0c-0.9,0-1.8-0.1-1.9-1.3c0-0.2,0-0.3,0-0.5
	c1.5-0.4,2.9-0.9,3.5-2.6c0.3-0.7,0.7-0.8,1.4-0.5c0.5,0.2,1.1,0.3,1.6,0.5c2.6,0.5,4.8,0.3,6.8-2c1.3-1.6,3.5-1.9,5.6-1.8
	c2.1,0.1,4.1,0.1,6-1.1c1.4-0.9,3.2-0.5,4.9-0.7c1.4,0.7,2.8,0.4,4.2,0.3c2.6-0.1,4.9-1.4,7.6-1.2c1.3,0.1,2.3,0.4,2,2
	c-0.3,1.3,0.5,1.5,1.4,1.5c0,0.6,0,1.2,0,1.7c-3,1.7-3.1,1.7-2.4,5c0.4,1.9,0.1,3.9,0.3,5.9c0.1,1.7-0.7,2.4-2.3,2.2
	c-2.5-0.3-5-0.6-7.5-0.4c-2.9,0.2-5.7,0.2-8.5-0.7c-1.1-0.3-1.9,0-2,1.3c-0.2,1.4-1.1,2.5-2.1,2.8c-1.8,0.5-2.8,2-4.2,2.8
	c-1.3,0.8-1.8,2.1-1.4,3.6C45,282.9,44.8,284.9,44.4,286.8z M59.7,262.8c-3-0.9-5.1,0.5-7.3,0.8c-0.2,0-0.6,0.5-0.6,0.8
	c0,0.6,0.5,0.6,0.9,0.6C55.1,265.3,57,264,59.7,262.8z"/>
<path fill="#9355B8" d="M29.7,262.4c0,0.2,0,0.3,0,0.5c-1.3-0.2-2.6-0.3-4-0.5c-4.1-0.2-8.2-0.1-12,1.8c-2.3-2.8-5.2-2.4-8.2-1.8
	c-0.1-4-0.2-4.1,3.7-4.5c3.7-0.4,7.5-0.4,11.2-0.6c0.6,0,1.2,0,1.6,0.4c1.9,2.1,3.7,2.4,5.6-0.3C27.6,259.5,29.1,260.8,29.7,262.4z"
	/>
<path fill="#9355B8" d="M12.7,270.4c0.1,1.2,1,1.9,1.7,2.6c0.8,0.8,1.5,1.6,1.4,2.8c-1.1-0.1-2.2-0.2-3.4-0.3
	c-2.1-0.1-3.4,0.9-3.6,3c-0.7,0-1.5,0-2.2-0.1c-0.1-1.6,0.7-2.9,1.7-4.1c0.7-0.8,1.5-1.6,1.8-2.6C10.7,270.6,11.5,270.2,12.7,270.4z
	"/>
<path fill="#A065C6" d="M13.7,264.2c3.8-1.9,7.9-1.9,12-1.8c0.1,1-0.2,1.8-1.4,1.7c-3.3-0.2-6.4,0.6-9.6,1.1
	C13.8,265.4,13.2,265.4,13.7,264.2z"/>
<path fill="#3C286A" d="M40.9,289.3c0.2,0.8,0.7,1.1,1.5,0.9c1.8-0.6,3.4-0.1,5,0.7c0.8,0.4,1.7,0.4,2.5,0.3
	c1.9-0.3,3.8-0.9,5.4,0.9c0.4,0.5,1.2,0,1.9,0c1.9,0,3.9-0.1,5.5,1.3c-2,1.6-4.1,1.9-6.4,0.4c-0.9-0.6-1.6-0.3-2.4,0.2
	c-2.3,1.7-4.5,1.6-7.1,0.5c-2.4-1.1-5.1-1.6-7.6-2.4c0-0.7,0-1.4,0-2.1C39.8,289.8,40.4,289.6,40.9,289.3z"/>
<path fill="#75569B" d="M74-0.6c8.5,0,17-0.1,25.5-0.1c11.3,0,22.5,0,33.8,0.1c0.2,1.7-1.7,3.2-0.5,4.8c1.1,1.5,3.3,0.7,4.9,1.3
	c0,0.7,0.1,1.4,0.1,2.2c-0.3,1.1-1.2,2.1-0.6,3.4c0.8,1.7,0.1,2.5-1.7,2.7c-0.4-0.2-0.9-0.7-1.3-0.7c-2.2,0-4.2-0.6-6.3-1.4
	c-0.9-0.4-2.2-0.9-3.3,0.1c-0.9,0.9-2,1.7-3,2.5c-2.9,2.7-2.9,2.8-6.5,1c-0.6-0.3-1.2-0.6-1.8-0.8c-0.8-0.3-1.6-0.5-2.2,0.2
	c-1,1-2.2,0.6-3.4,0.7c-2.2,0.3-3.8-0.9-5.6-1.6c-1.7-0.4-3.4-0.9-5.2-0.9c-1.4-0.8-3-1.1-4.6-0.6c-2.7,0.7-5.4,0.7-8.1,0
	c-2.2-0.5-4.6-0.8-6.4,1.3c-0.7,0.9-1.6,0.5-2.2-0.2c-1.3-1.5-2.8-1.6-4.5-1.2c-0.5,0.1-1.2,0.3-1.5,0.1c-2.6-2.1-5.8-1.4-8.7-1.6
	c0.3-1.6,1.3-2.2,3-2.1c2.8,0,4.8-1.1,5.8-3.9C72.3,4,72.8,1.4,74-0.6z"/>
<path fill="#5F2E85" d="M69.6,4.6c-1,2.7-3.1,3.9-5.8,3.9c-1.6,0-2.6,0.5-3,2.1c-2.6,0.3-4.9-0.4-7.3-1.2c-1.7-0.5-3.3-1.5-5.2-0.6
	c-1.4-0.7-2.2-1.7-2.1-3.4c0-1.1-0.6-1.7-1.7-1.7c-0.3,0-0.5-0.1-0.8-0.1c-0.1-0.5-0.2-1-0.3-1.5c4.7-1.4,9.2,0,13.8,1.2
	c1.5,0.4,3,0.9,4.5,1.5c1.8,0.7,3.6,0.9,5.4-0.2C67.8,4.1,68.7,3.9,69.6,4.6z"/>
<path fill="#9355B8" d="M43.3,2.1c0.1,0.5,0.2,1,0.3,1.5c-1.9-0.3-3.9-0.4-5.7-1.1C39.6-0.2,38.9,0.6,43.3,2.1z"/>
<path fill="#9355B8" d="M40.9,289.3c-0.6,0.2-1.1,0.4-1.7,0.6c-0.4-0.5-0.8-1.1-0.9-1.8c1.6-1.3,3.5-1.1,5.3-1.3
	c-0.1,0.5-0.2,1-0.3,1.5C42.5,288.8,41.7,289.1,40.9,289.3z"/>
<path fill="#9355B8" d="M74.7,256.8c-1,0-1.7-0.2-1.4-1.5c0.4-1.6-0.6-1.9-2-2c-2.6-0.2-5,1-7.6,1.2c-1.4,0.1-2.8,0.3-4.2-0.3
	c0-0.3,0-0.5,0-0.8c2.6,0,5-0.2,7-2.2c2-0.6,2.2-2.2,2.1-3.9c1.7-0.4,2.8-1.7,3.9-2.9c1.6-1.7,3.3-3.4,5.6-4.2
	c1.3,0,2.6,0.2,3.9-0.5c2,0.2,3.8-0.7,5.6-1.3c1.8-0.6,2.9,0.1,3.6,1.7c0.3,0.7,0.5,1.5,0.6,2.3c0.2,1.3,0.9,2,2.3,2.2
	c2.2,0.3,4.2,1.8,6.5,0.9c0.2-0.1,0.7,0.1,0.8,0.2c1.4,2.1,3.7,1.8,5.8,2.3l0.1,0.1c-1,1.7-2.8,2.2-4.5,2.8
	c-1.8,0.7-5.3-0.5-5.8-1.8c-1.1-2.5-3.2-2.8-4.9-0.6c-1.3,1.7-2.7,1.5-3.6-0.5c-0.3-0.7,0-1.6-0.9-2.2c-0.9,0.9-1.3,2.2-2.2,3.1
	c-1.4,1.3-3,0.7-4.2,0c-1.3-0.7,0-1.8,0.3-2.6c0.2-0.8,0.6-1.5,0.9-2.2c0.5-1,0.7-2-0.3-2.7c-1-0.7-2-0.1-2.7,0.6
	c-1.2,1.1-2.1,2.4-3.3,3.4c-1.1,0.9-1.4,1.6,0,2.5c0.5,0.3,1.1,0.7,0.9,1.3c-0.2,0.8-0.9,0.8-1.6,0.9c-0.8,0.1-2.3-0.1-2.2,0.8
	c0.1,1.1,1.5,0.5,2.4,0.6c0.1,0,0.3,0,0.4-0.1c2.9-0.1,5.8-1.6,8.5,0.4c0.1,0.1,0.5,0.1,0.6,0.1c2.6-1,4.3,0.3,6.1,1.9
	c0.6,0.5,1.3,1,2,1.2c2.1,0.7,3.3,2,3.9,4.2c0.6,2.1,1,2.1,2.5,0.5c1.3-1.3,1.8-3.3,3.6-4.3c0.3,1.9,0.7,3.7,0.8,5.6
	c0.1,1.5,0.4,3.3-1.1,4.2c-1.5,0.9-3.4-0.1-4.2-1c-2.1-2.6-4.9-2.5-7.6-3c-2.7-0.5-3-0.9-2.8-3.7c0-0.4,0.1-0.9-0.2-1.2
	c-1.1-1.5-6.3-2.9-8.1-2.1c-0.3,0.1-0.8,0.2-0.9,0.5C78.1,256.1,76.5,256.6,74.7,256.8z"/>
<path fill="#5F2E85" d="M78.2,240.2c-2.4,0.7-4,2.5-5.6,4.2c-1.1,1.2-2.2,2.5-3.9,2.9c-2.6,0.2-3,0.9-2.1,3.9c-2,2-4.4,2.2-7,2.2
	c-1.2-0.2-2.4,0.3-3.5-0.5c2.1-2.7,4.2-5.5,7.5-7c2.2-1,3.4-3.7,6.4-3.3c1,0.1,1.4-1.3,1.6-2.3c0.2-1-0.2-1.8-1.2-2.1
	c-1.4-0.5-1.1-1.1-0.3-1.8c1.4-1.3,2.5-2.7,2.6-4.8c0.1-1.3,1-2.2,2.5-2.3c0.3,0,0.6,0,0.9,0c2.5,1.8,3.3,1.7,6.5-0.4
	c3.3,0,6.6,0,9.9,0c0.1,0.4,0.1,0.9,0.3,1.3c1.3,3.3,1.8,3.5,4.6,1.5c1.1-0.8,2.2-0.8,3.1,0.3c1,1.2,2.2,1.1,3.3,0.4
	c3.9-2.6,8.4-2.6,12.7-2.5c3.8,0.1,7.6,0.8,11.4,0.8c0.9,0,1.8,0.1,1.9,1.3c-1,0.9-1.7,3-3.3,2.1c-1.5-0.9-2.3-0.4-3.2,0.4
	c-2.6,2.1-5.2,2.3-8.4,1.4c-3.8-1.1-7.8-2.6-11.9-0.7c-0.2,0.1-0.6,0.1-0.8,0c-2.2-1.1-4.2-0.2-6.2,0.8c-1-0.3-2-0.6-3-0.9
	c-1.6-0.3-3.6-1.4-4.9-0.9c-1.8,0.8-3.6,0.7-5.4,0.9C79.9,235.3,77.9,237.7,78.2,240.2z"/>
<path fill="#492878" d="M75.2,229.3c-1.5,0.1-2.4,1-2.5,2.3c-0.1,2.1-1.2,3.5-2.6,4.8c-0.8,0.7-1.1,1.4,0.3,1.8
	c0.9,0.3,1.4,1.1,1.2,2.1c-0.2,1-0.5,2.5-1.6,2.3c-3-0.4-4.2,2.3-6.4,3.3c-3.2,1.5-5.3,4.3-7.5,7c-2.6,0.7-5.1-0.6-7.8-0.1
	c-2.1,0.4-2.6-1.9-3.8-3c-0.5-0.9-1.3-1.5-2.2-1c-1,0.6-1.8,1.5-0.9,2.8c0,1-0.4,1.6-1.5,1.7c-2.7,0.3-5.4,0.6-8.1,0.9
	c-0.7,0-1.4,0-1.7,0.8c-0.7,0-1.5,0-2.2,0c-0.4-1-1.8-1.1-2.2-2.1c1.6-0.1,3.2,0.1,4.7-0.5c0.7-0.3,1.5-0.5,1.8-1.1
	c0.8-1.8,1.8-2.6,3.7-1.3c0.7,0.5,1.4-0.2,1.7-0.9c1.5-3.7,6.5-4.2,9.5-2.7c0.2,0.1,0.4,0.2,0.6,0.3c0.7,0.4,0.5,1.8,1.5,1.6
	c1.5-0.3,2.9-0.7,4.4-1.3c0.9-0.3,0.8-1.3,0.9-2.1c0.1-1.8,1-2.6,2.8-2.6c2.2,0.1,4-0.8,5.6-2.5c1.1-1.2,2.2-2.4,3.5-3.2
	c1.2-0.7,1.2-1.5,0.2-2.4c-0.8-0.8-1.8-2-1-3c1.3-1.5,2-4,4.4-4.1C71.9,227.1,73.8,227.7,75.2,229.3z"/>
<path fill="#9888CB" d="M41.4,251.6c-0.8-1.3,0-2.2,0.9-2.8c0.9-0.6,1.7,0,2.2,1C44.1,251.4,42.7,251.5,41.4,251.6z"/>
<path fill="#5F2E85" d="M30.1,255c0.3-0.8,1-0.8,1.7-0.8C31.4,254.8,30.9,255.1,30.1,255z"/>
<path fill="#9355B8" d="M59.6,36.4c2.9-0.7,5.7-0.1,8.4,0.5c1.2,0.3,2.4,0.4,3.6,0.3c1.1-0.1,2-0.6,1.7-2c-0.3-1.3,0.5-1.5,1.5-1.5
	c1.9-0.1,3.4,0.7,4.6,2.1c0.7,0.8,1.7,1,2.8,0.9c2.1-0.3,3.9-1.5,5.8-2.4c0.7-0.3,0.6-1.1,0.4-1.7c-0.5-2.1,0.4-3.2,2.4-3.5
	c0.6-0.1,1.3-0.1,1.9-0.3c1.8-0.3,3.7-0.3,5-1.7c1-1.1,2.2-1.5,3.5-2c2.2-0.7,2.8-0.3,3,2.1c0.2,2.5-0.5,4.9-0.9,7.3
	c-1.8-0.5-2.2-2.2-3.1-3.5c-0.5-0.7-0.8-1.7-1.9-1.6c-1,0.1-0.9,1.2-1.1,1.9c-0.5,1.5-1.1,3-2.8,3.3c-2,0.3-3.4,1.6-4.7,2.9
	c-1.1,1.1-2.1,1.4-3.4,0.8c-1-0.4-2-0.5-2.8,0.3c-0.8,0.9-1.7,0.8-2.7,0.5c-2.5-0.7-5-0.4-7.6-0.3c0.1,1,0.7,1,1.1,1.2
	c2.6,0.6,2.6,0.6,1.2,2.7c-0.3,0.5-0.6,0.9-0.1,1.3c1.8,1.3,2.8,3.5,4.8,4.6c0.6,0.3,1.3,0.8,2,0.1c0.6-0.5,0.7-1.2,0.5-2
	c-0.4-1.4-0.9-2.7-1.7-4c-0.6-0.8-0.7-1.5,0.7-1.9c3.2-0.9,3.1-1,5,2.1c0.3,0.4,0.4,1.1,1,1c0.7-0.1,0.5-0.8,0.6-1.3
	c0.2-1.1,0.6-2.2,1.7-2.5c1.4-0.4,1.9,0.7,2.4,1.7c0.7,1.3,1.8,1.2,3,1.1c1.1-0.1,1.5-0.7,1.3-1.8c-0.1-0.5,0.3-0.8,0.7-1
	c1.8-1,3.9-1.8,5.6-0.8c3.4,1.9,6.5,2.4,9.7-0.1c0.8-0.6,2.6,0.3,2.6-1.3c0-1.5-1.8-1.4-2.9-1.9c-0.3-0.1-0.6-0.1-0.8-0.2
	c1.5-1.6,2.5-1.7,4.4-0.1c1,0.9,1.9,1.2,3.1,0.4c1.7-1,3.6-1,5.5-0.5c2.3,0.5,4.7,0.6,7.1,0.7c3.3,0.1,6.6-0.6,9.9-0.4
	c3.6,0.2,7.2,0.5,10.8,0.8c0,2.5,0,4.9,0,7.4c-4.5,0.4-9,0.8-13.4,1.7c-0.9-1-1.7-2-2.6-3c0.3-0.6,0.6-1.1,1-1.7
	c0.8-0.2,1.7-0.4,2.5-0.5c1.9,0.9,3.1-0.8,4.8-1.1c-0.2-0.3-0.2-0.4-0.3-0.5c-0.3-0.2-0.6-0.3-1-0.5c-4.9-2-9.3,0.1-13.9,1.4
	c-0.7,0.2-0.8,0.9-0.9,1.6c-2.4,0-4.9-0.2-7.3,0.1c-2.6,0.4-5.1,0.5-7.5-0.7c-0.8-0.4-1.7-0.5-2.2,0.6c-1.4,0.7-2.2,2.7-4.2,2.2
	l-0.1,0c0-0.9-0.1-1.7-1.2-1.6c-1.1,0.1-2.5,0.1-3.2,1c-1.1,1.4-2.2,1.3-3.8,1.2c-2.2-0.2-4.2,0.9-6.2,1.5c-1.1,0.4-0.8,2.1-1.2,3.1
	c-0.9,2.6-2,3.2-4.6,2.2c-1.6-0.6-3.2-1.5-5-1.3c-1.3-0.1-2.6-0.2-3.9-0.4c-2.2-0.6-3.8-2-5.1-3.7c-1.1-1.4-2.5-2.6-4.3-3.1
	c0-1.8-0.1-3.5-2.2-4.2c-2.1-1.4-4.4-2-6.9-1.9C59.6,36.9,59.6,36.7,59.6,36.4z M151.7,41.4c-1.4-0.2-2.5-0.6-3.5-1.3
	c-0.5-0.3-1.1-0.3-1.7,0c-0.3,0.1-0.4,0.5-0.2,0.7c0.8,1,1.5,2.2,2.8,2.5C150.3,43.5,151,42.5,151.7,41.4z"/>
<path fill="#5F2E85" d="M59.6,37.2c2.5-0.1,4.8,0.5,6.9,1.9c-0.6,3.6-0.5,3.9,2.2,4.2c1.8,0.5,3.1,1.7,4.3,3.1
	c1.4,1.7,3,3.1,5.1,3.7c-0.4,2.6,2.1,5.3,5.3,5.5c1.1,0.1,2.4-0.1,3.4,0.2c2.1,0.8,4.1,0.2,6.1-0.2c1-0.3,2-0.6,3-0.9
	c3.7,2,7.8,0.6,11.7,1.5c1.2,0.3,2.8,0.1,4.2,0.5c2.3,0.5,4.5,1.9,7,1.1c3.2-1,6,0.4,8.7,1.7c-5.8,1.2-11.7,1.1-17.6,0.9
	c-1.8-0.1-3.7-0.6-5.3-1.7c-1.5-1.1-2.9-1.4-4.4,0.2c-1,1.1-2.1,1-3.2-0.1c-1.9-1.9-2.7-1.8-3.9,0.7c-0.4,0.7-0.7,1.4-0.8,2.3
	c-3.5,0-6.9,0-10.4,0c-1.5-1.4-3.2-2.5-5.2-0.8c-0.7,0.2-1.4,0.3-2.2,0.5c-1.2-0.3-1.9-1.2-2-2.3c-0.1-2-1.1-3.6-2.4-5
	c-0.5-0.6-0.9-1.1,0-1.8c1.8-1.6,1.5-4.1-0.8-4.5c-2.3-0.4-3.8-1.6-5.4-2.8c-1.6-1.2-3.7-1.6-4.9-3.4c-1-1.5-2.3-2.6-3.6-3.7
	C56.9,36.8,58.3,37.5,59.6,37.2z"/>
<path fill="#492878" d="M55.7,37.8c1.3,1.1,2.7,2.2,3.6,3.7c1.2,1.8,3.3,2.2,4.9,3.4c1.6,1.2,3.1,2.5,5.4,2.8
	c2.3,0.4,2.6,2.9,0.8,4.5c-0.8,0.7-0.5,1.2,0,1.8c1.3,1.4,2.2,3,2.4,5c0.1,1.1,0.8,2,2,2.3c-1.3,1.7-3.2,2.4-5.1,2
	c-2-0.4-3.1-2.3-3.9-4.1c-0.5-1.2,0-2.4,1.1-3.3c0.8-0.7,1-1.4-0.2-2c-1.2-0.7-2.1-1.8-3-2.8c-1.8-1.9-3.9-3.2-6.7-3
	c-1.6,0.1-2.3-0.7-2.2-2.2c0.1-1.9-0.9-2.7-2.7-3c-1.7-0.3-3.1-1.1-4.9,0.9c-1.9,2.2-7.7,1.6-9.3-1.9c-0.7-1.5-1.7-2.2-3.2-0.9
	c-0.5,0.5-1.2,0.4-1.5-0.2c-1.5-3.5-4.6-3.3-7.5-3.6c1.1-1.9,3.3-0.9,4.7-1.7c2.7,1,5.5,1.2,8.3,1.2c1.5,0,2.5,0.4,2.5,2.1
	c-0.2,1.2-0.2,2.4,1.2,2.8c0.9,0.3,1.8-0.2,2-1.4c0.5-0.7,1.1-1.3,1.7-2c0.5-0.5,1.1-1.3,1.8-1C50.5,38.4,53.2,36.9,55.7,37.8z"/>
<path fill="#9355B8" d="M52.6,34.3c2.5-2.1,3.6-1.7,5.7,2C56.1,36.5,54.1,36.2,52.6,34.3z"/>
<path fill="#9888CB" d="M44.5,40.4c-0.2,1.2-1.1,1.6-2,1.4c-1.3-0.4-1.4-1.6-1.2-2.8C42.6,39,43.8,39.1,44.5,40.4z"/>
<path fill="#492878" d="M15.4,43.4c-3.8,3-4.7,7.3-4.7,11.7c0,1.7-1.2,2.4-1.8,3.5c-0.7,0.2-1.4,0.3-2.1,0.5
	c-0.6-0.7-1.2-1.5-1.8-2.2c0.5-0.2,1.1-0.3,1.6-0.5c1.3-0.6,1.7-1.5,0.9-2.7c-0.4-0.7-1-1.3-1.3-2c-0.4-0.8-0.7-1.9,0.2-2.3
	c2.5-1.2,3.8-3.5,5.4-5.5C12.8,42.5,14,41.8,15.4,43.4z"/>
<path fill="#8648A2" d="M152.3,37.3c-3.6-0.3-7.2-0.6-10.8-0.8c-3.3-0.2-6.6,0.5-9.9,0.4c-2.4-0.1-4.7-0.2-7.1-0.7
	c-1.9-0.4-3.8-0.5-5.5,0.5c-1.2,0.7-2.1,0.4-3.1-0.4c-1.9-1.6-2.9-1.5-4.4,0.1c-2.9,0.4-5.7,0-8.2-1.6c0.5-2.4,1.1-4.8,0.9-7.3
	c-0.2-2.4-0.8-2.8-3-2.1c-1.3,0.4-2.5,0.8-3.5,2c-1.3,1.4-3.3,1.4-5,1.7c-0.6,0.1-1.3,0.2-1.9,0.3c-2,0.3-3,1.4-2.4,3.5
	c0.2,0.7,0.3,1.4-0.4,1.7c-1.9,0.8-3.7,2.1-5.8,2.4c-1.1,0.2-2.1-0.1-2.8-0.9c-1.2-1.5-2.7-2.2-4.6-2.1c0-0.6,0-1.2,0-1.7
	c2-1.4,3.3-3.7,6.1-3.7c0.6,0,0.9-0.8,0.7-1.4c-1-2.6,1-3.8,2.5-5.2c0.6-0.5,1.4-0.8,2-1.3c0.6-0.5,1-1.3-0.1-1.3
	c-2.5,0.1-3.7-1.2-4.4-3.4c-0.2-0.6-0.8-1.1-1.5-1c-0.8,0.1-0.8,0.7-0.9,1.3c-0.1,1.3-0.9,1.9-2.1,2.1c-1.5,0.3-2.9,0.3-4.4-0.1
	c-2.7-0.7-5.1-2.1-7.6-3.2c-3-1.4-4.4-1.1-6.6,1.4c-1-2-2.4-3.1-4.7-2.3c-0.6,0.2-1.3,0.1-1.9,0.1c-0.5,0-1.2-0.2-1-0.8
	c0.7-2.3-1.2-3.2-2.4-4.4c1.8-0.9,3.5,0,5.2,0.6c2.4,0.8,4.8,1.5,7.3,1.2c3,0.2,6.1-0.6,8.7,1.6c0.3,0.2,1,0,1.5-0.1
	c1.7-0.4,3.3-0.2,4.5,1.2c0.6,0.7,1.5,1.1,2.2,0.2c1.8-2.2,4.2-1.9,6.4-1.3c2.8,0.7,5.4,0.7,8.1,0c1.6-0.4,3.1-0.2,4.6,0.6
	c0.2,1.4-0.7,3.2,1.5,3.8c2.1,0.6,3.4-0.5,3.8-2.9c1.8,0.7,3.4,1.8,5.6,1.6c1.2-0.1,2.4,0.3,3.4-0.7c0.6-0.6,1.5-0.5,2.2-0.2
	c0.6,0.2,1.2,0.6,1.8,0.8c3.6,1.8,3.6,1.8,6.5-1c1-0.9,2-1.7,3-2.5c1.1-1,2.3-0.5,3.3-0.1c2,0.8,4.1,1.3,6.3,1.4
	c0.4,0,0.9,0.4,1.3,0.7c-0.9,2.8-0.2,5.5,0,8.3c-2.1,1.8-3.2,6-2.3,8.4c0.1,0.3,0.3,0.5,0.4,0.8c1.6,2.3,3.4,3.9,6.5,2.8
	c0.7-0.3,1.4,0,2.1,0.1c3.4,0.5,6.7,1.7,10.1,2C152.3,36.4,152.3,36.9,152.3,37.3z"/>
<path fill="#1E0D3F" d="M152.3,186.9c-1.7-0.5-3.1-0.2-4.2,1.3c-0.4,0.6-0.7,2-1.9,1.3c-1.1-0.6-2-1.7-2-3.2c0-0.3,0.2-0.7,0.3-1
	c0.7-2.6,0-4.2-2.5-5.2c-1.2-0.5-2.9-0.5-2.6-2.3c0.3-1.8,0.9-3.7,2.9-4.5c0.3-0.1,0.6-0.2,0.8-0.3c0.4-0.2,1.1-0.1,1-0.9
	c-0.1-0.5-0.7-0.5-1.1-0.5c-2.2,0.1-3.9-0.8-5.1-2.7c-0.4-0.7-1.3-0.8-2.1-1.1c-2.8-1.1-5.4-2.4-7.8-4.2c-1.8-1.4-1.7-2.5,0.2-3.7
	c2.4-1.4,4.8-1.2,7.3-0.3c2.5,0.9,5.5,0,7-2.2c0.3-0.4,0.4-0.8,0.3-1.2c-1-3.1-0.2-6,1.1-8.8c0.2-0.5,0.5-1,0.3-1.4
	c-1.1-2.4-0.8-5.1-1.4-7.6c-0.3-1.3-0.8-2.8,0.1-4.2c0.1-0.2,0.1-0.6,0-0.8c-0.7-2-4.7-3.6-6.7-2.8c-2.9,1.2-5.6,1.7-8.4-0.5
	c-1.3-1.1-1.3-1.9-0.1-2.9c2.4-2,5.2-3.5,8.1-4.5c1.3-0.4,2.3-1.1,3.1-2.2c1.1-1.4,2.6-1.9,4.4-1.7c0.5,0.1,1.3,0.5,1.4-0.4
	c0.1-0.6-0.6-0.8-1.1-0.8c-2.3-0.3-3.3-1.9-4.1-3.8c-0.7-1.6-0.4-2.7,1.4-3.1c1.1-0.3,2.2-0.7,3-1.6c0.9-1,1.3-2,0.8-3.4
	c-0.4-1-0.6-1.9-0.2-3c0.4-0.8,0.9-1.6,1.7-1.8c1-0.3,1.4,0.7,1.7,1.3c0.9,1.7,2.5,1.5,4,1.5c0,6.4,0,12.8,0,19.2
	c-1,0.5-2.2,0.9-2,2.4c0.2,1.1,1.1,1.1,2,1.1c0,12.5,0,25,0,37.5c-0.9,0.3-2.2,0.2-2.4,1.4c-0.1,1.1,0.9,1.7,1.8,2.2
	c0.2,0.1,0.4,0.2,0.6,0.3C152.3,174.1,152.3,180.5,152.3,186.9z"/>
<path fill="#28164F" d="M59.6,72.6c0.6-0.9,1.5-1.8,1.3-3c2-0.4,3.9-0.6,5-2.9c0.8-1.7,3-0.9,4.5-1.1c0.2,3,1.4,3.8,4,2.2
	c1.8-1.1,3.4-2.4,4.3-4.4c0.4,0,0.9,0,1.3,0c0.4,0.8,0.9,1.3,1.8,1.3c4.5,0.1,8.9-0.9,13.4-1.3c1.7-0.7,3.2-0.2,4.6,0.9
	c0.6,0.5,1.1,0.9,1.9,0.8c0.6,1.8,2,2.6,3.8,2.6c2,0,3.7,0.6,5.2,1.7c1.1,0.8,2.1,1,3.4,0.3c2.8-1.5,5.6-1.3,8.6-0.3
	c1.8,0.6,2.1,1.5,1.2,3.1c-0.6,0.9-1,1.9-2.2,2.3c-0.9,0.3-0.8,1-0.6,1.8c0.3,1.3,1,2,2.4,2.2c0.8,0.1,1.1-0.2,1.4-0.9
	c2-4.2,6.8-5.4,10.5-2.6c0.7,0.6,1.2,0.9,1.9-0.1c1.5-2.2,4.3-2.4,6.2-0.4c2.5,2.5,5.4,3.8,8.9,3.5c0,1.6,0,3.2,0,4.8
	c-4.1-1-8.8-0.5-12.2-3.2c-3.8-3-7.5-2.1-11.5-1.4c-2,0.3-2.8,1.9-3.7,3.4c-1.4,2.3-1.9,2.3-3.4,0.1c-0.3-0.5-0.6-1-1-1.4
	c-1.6-2.4-2.5-2.4-4.5-0.3c-0.3,0.3-0.5,0.7-1,0.7c-0.7-0.1-0.6-0.7-0.7-1.2c-0.4-2-3.8-5.7-5.7-5.4c-8.6,1-16.9-1.8-25.4-1.4
	c-0.9,0-1.8,0.3-2.8,0.5c-0.5,0.1-1.1,0.4-1,1c0.6,2.5-1.4,2.9-2.9,3.5c-1.7,0.7-3.4,1.5-5-0.5c-0.9-1.1-2.5-0.6-3.7-0.5
	c-1.9,0.1-3.3-0.5-4-2.3c-0.4-1-1-1.3-2-1C60.8,73.6,60.1,73.4,59.6,72.6z"/>
<path fill="#28164F" d="M60.9,220.5c0.1-1.1-0.8-1.8-1.3-2.6c0.1-0.1,0.2-0.4,0.2-0.4c2.8,0.4,4-1.9,5.7-3.3c0.4-0.3,1-0.5,1.4-0.5
	c2.3,0.4,4.2,0,6.1-1.6c1.5-1.2,6.1,1.8,6.2,3.8c0,1.3,1,1.3,1.8,1.5c3.4,0.9,6.7,0.5,10.1,0c5.1-0.8,10.2-1.8,15.5-0.8
	c1.7,0.3,3.3-0.4,4.5-1.7c1.3-1.4,3.6-2.1,3.3-4.9c-0.1-1,0.9-0.3,1.3,0.2c2,2.1,3,2,4.8-0.2c2.7-3.5,2.7-3.6,5,0
	c0.7,1.1,1.7,1.8,2.7,2c3.2,0.7,6.4,2.3,9.7-0.2c3.4-2.5,7.6-3.5,11.8-3.9c0.9-0.1,1.7-0.3,2.6-0.4c0,1.6,0,3.2,0,4.8
	c-3.2-0.3-6,0.4-8.3,2.8c-1,1.1-2.5,1.5-3.9,1.8c-1.1,0.3-2.2,0.1-2.7-1.1c-0.7-1.6-1.7-1.2-2.7-0.4c-3.1,2.4-8.7,1-10-2.7
	c-0.6-1.7-1.5-1.5-2.6-0.9c-1.1,0.6-1.3,1.7-1.4,2.8c-0.2,1.3,1,0.9,1.6,1.3c1.3,0.8,2.1,2.2,2.1,3.6c0,1.3-1.6,1.2-2.5,1.5
	c-2.8,0.9-5.6,0.7-8.1-0.7c-1.1-0.6-1.9-0.4-2.7,0.3c-1.2,1-2.6,2-4.2,2c-2.2,0-3.9,0.9-5.4,2.3c-1.8,1.8-4,2.6-6.5,2.2
	c-4.1-0.5-8.2-1.2-12.2-1.6c-1-0.1-2.2,0.2-2.5,1.6c-0.4-0.1-0.9-0.3-1.3-0.4c-1-1.9-2.4-3.2-4.2-4.1c-2.6-1.4-3.8-0.7-4,2.3
	c-2.5,0.3-4.4-0.5-5.6-3C64,220.4,62.1,221.2,60.9,220.5z"/>
<path fill="#782A98" d="M127.7,59.4c-2.8-1.3-5.5-2.7-8.7-1.7c-2.5,0.8-4.7-0.6-7-1.1c-1.4-0.3-3-0.2-4.2-0.5c-3.9-1-8,0.5-11.7-1.5
	c1.9-1.2,2.9-2.9,3.3-5.2c0.2-1,1-1.8,2.1-2c1.3-0.3,2.2-1,3-1.9c0.8-0.8,1.7-1.3,2.8-1.4c0,0,0.1,0,0.1,0c1.7,2.1,1.8,4.7,2.3,7.2
	c0.4,1.7,1.2,2.1,2.8,1.5c2.1-0.9,3-2.1,2.2-3.4c-1.5-2.3-2.1-4.9-3-7.4c0.5-1,1.4-1,2.2-0.6c2.4,1.2,4.9,1.1,7.5,0.7
	c2.4-0.3,4.8-0.1,7.3-0.1c0.7,0.5,1.5,0.4,2.3,0.4c1.1,0,2.2,0,3,0.9c-1.1,1.7-2.5,2.1-4.3,1.3c-0.7-0.3-1.3-0.5-2,0
	c-1.1,0.8-1.6,6.4-0.7,7.4c0.1,0.1,0.4,0.2,0.6,0.3c3.7,1.6,4.5,1.3,6.8-1.9c0.7-0.9,1.6-1.7,2.2-2.6c0.6-1.1,1.4-1.6,2.6-1.5
	c4.4-0.9,8.9-1.3,13.4-1.7c0,3.2,0,6.4,0,9.6c-0.5-0.5-1-1-1.4-1.6c-0.7-0.9-1.4-1-2.4-0.6c-1.9,0.9-3.7,1.8-5.6,2.6
	c-2.3,0.7-4.5,1.5-6.8,2C133.1,57.4,130.6,59,127.7,59.4z"/>
<path fill="#782A98" d="M96,235.8c2-1,3.9-1.9,6.2-0.8c0.2,0.1,0.6,0.1,0.8,0c4.1-1.9,8.1-0.3,11.9,0.7c3.2,0.9,5.9,0.7,8.4-1.4
	c0.9-0.8,1.7-1.3,3.2-0.4c1.6,0.9,2.3-1.2,3.3-2.1c4.3,1.3,8.6,2.6,13,3.9c0.8,0.4,1.7,0.7,2.5,1.2c2.7,1.7,5.1,2.3,7-1.1
	c0,3.3,0,6.7,0,10c-4.6-0.4-9.3-0.8-13.9-1.7c-2.6-1-4-3.1-5.2-5.4c-0.9-1.8-2.1-1.9-3.5-1.4c-1.6,0.6-4,0.6-3.6,3.4
	c0.1,0.9,0.1,1.7,0.2,2.6c0.1,2.1,1.1,2.9,2.9,2.2c2-0.7,3.3-0.1,4.4,1.5c-1.5,1.6-3.6,0.4-5.2,1.3c-2.6,0-5.2,0-7.7-0.4
	c-2.2-0.3-4.4-0.6-6.5,0.6c-0.9,0.5-2.1,0.5-3.1-0.2c1.6-2.4,1.9-5.4,3.5-7.9c1.1-1.6-1-2.5-2.3-3.1c-1.3-0.6-2.5-0.5-2.8,1.2
	c-0.4,2.4-0.8,4.8-1.8,7.1c-0.1,0-0.3,0.1-0.4,0.1c-2.9-0.5-4.8-3-7.5-4c-0.3-0.1-0.5-0.6-0.5-0.9C99,238.8,97.9,237.1,96,235.8z"/>
<path fill="#332061" d="M152.3,78.3c-3.5,0.3-6.4-1-8.9-3.5c-1.9-2-4.7-1.8-6.2,0.4c-0.7,1-1.2,0.7-1.9,0.1
	c-3.7-2.8-8.6-1.6-10.5,2.6c-0.3,0.7-0.6,1.1-1.4,0.9c-1.3-0.2-2-0.9-2.4-2.2c-0.2-0.8-0.3-1.5,0.6-1.8c1.2-0.4,1.6-1.3,2.2-2.3
	c0.9-1.6,0.6-2.5-1.2-3.1c-2.9-1-5.8-1.2-8.6,0.3c-1.3,0.7-2.3,0.5-3.4-0.3c-1.5-1.2-3.3-1.7-5.2-1.7c-1.8,0-3.2-0.8-3.8-2.6
	c1.4-2.9,1.9-3.1,4.7-1.6c0.4,0.2,0.8,0.4,1.1,0c0.7-1.2,1.8-0.9,2.9-1c5.4,0,10.8,0.2,16.2-0.8c0.9-0.2,2.2-0.5,2.7,0.7
	c0.4,1-0.3,2-1,2.7c-0.4,0.4-0.8,0.8-1.3,1.2c-0.3,0.3-0.7,0.8-0.4,1.1c1.2,1.4,1.9,3,2.8,4.7c0.5-1.5,0.8-2.8,2.1-3.5
	c0.4-0.1,0.9-0.2,1.2-0.4c1.5-0.9,3-1.9,4.3,0.3c0.3,0.4,0.9,0.5,1.4,0.3c1-0.3,1.8,0,2.6,0.6c0.9,0.7,1.9,1,3,0.9
	c1.4-0.1,2.7,0.3,4,0.8c1.4,0.6,2.8,1.2,4.3,1.3C152.3,74.5,152.3,76.4,152.3,78.3z"/>
<path fill="#492878" d="M142.8,235.8c-4.3-1.3-8.6-2.6-13-3.9c-0.1-1.2-1-1.3-1.9-1.3c-3.8,0-7.6-0.6-11.4-0.8
	c-4.4-0.1-8.8-0.1-12.7,2.5c-1.1,0.7-2.3,0.8-3.3-0.4c-0.9-1-1.9-1.1-3.1-0.3c-2.8,2-3.3,1.9-4.6-1.5c-0.2-0.4-0.2-0.8-0.3-1.3
	c1.1-0.1,2-0.6,2.2-1.8c2.5,0.4,4.7-0.4,6.5-2.2c1,1.2,1.5,3.4,3.3,2.8c1.7-0.6,3-1,4.5,0.1c0.4,0.3,1.1,0.1,1.7,0.1
	c3.2-0.1,6.3-0.3,9.5-0.4c1.8,1.1,3.9,0.7,5.9,1.1c1,0.2,2.4,0.7,2.9-0.5c0.5-1.1-0.3-2.2-1.1-3.1c-0.5-0.5-0.9-0.9-1.6-1
	c0-0.6-0.1-1.5,0.4-1.8c1.6-0.9,1.5-2.6,2.3-3.9c0.8,1.3,1.7,2.6,2.5,3.9c0,0.4,0,0.9,0,1.3c-0.7,0.1-1.8-0.2-1.8,0.9
	c0,1.1,1,1.2,1.8,1.3c1.5,1.4,4.3,1.6,5.9,0.2c1.2-1,2.3-0.9,3.6-0.6c3.6,0.8,7.1,0.7,9.7-2.5c0.4-0.5,0.9-0.9,1.6-1
	c0,3.6,0,7.3,0,10.9c-1.5,0.3-1.8,1.8-2.7,2.6c-0.9,0.8-1.6,1.1-2.5-0.1C145.5,233,144.2,233.2,142.8,235.8z"/>
<path fill="#492878" d="M131.6,68.7c-1.3,0.8-1.7,2.1-2.1,3.5c-0.9-1.7-1.6-3.3-2.8-4.7c-0.3-0.3,0.1-0.8,0.4-1.1
	c0.4-0.4,0.9-0.8,1.3-1.2c0.7-0.8,1.4-1.7,1-2.7c-0.5-1.2-1.8-0.9-2.7-0.7c-5.4,1-10.8,0.8-16.2,0.8c-1.1,0-2.2-0.2-2.9,1
	c-0.3,0.5-0.7,0.3-1.1,0c-2.7-1.5-3.3-1.3-4.7,1.6c-0.8,0.1-1.4-0.3-1.9-0.8c-1.4-1.1-2.9-1.6-4.6-0.9c-0.3-1.5-1.4-1.8-2.6-1.8
	c0-0.8,0.4-1.5,0.8-2.3c1.2-2.5,2-2.6,3.9-0.7c1.1,1.1,2.2,1.2,3.2,0.1c1.5-1.6,2.9-1.3,4.4-0.2c1.6,1.2,3.4,1.7,5.3,1.7
	c5.9,0.2,11.8,0.3,17.6-0.9c2.9-0.4,5.4-2.1,8.3-2.7c2.3-0.5,4.6-1.3,6.8-2c2.1,2.5,2.5,2.5,4.4,0.3c1-1.1,1.9-0.8,2.7,0.2
	c0.7,0.8,1.2,1.8,2.4,2.1c0,4.4,0,8.7,0,13.1c-0.6-1-0.6-2.1-1.5-3.1c-2.7-3-6.1-3.4-9.7-2.4c-1.4,0.3-2.4,0.1-3.6-0.7
	c-1.8-1.1-3.7-1.4-5.6,0.1c-1,0.1-2,0.2-2.1,1.4c-0.1,1.2,0.8,1.2,1.6,1.2C131.6,67.5,131.6,68.1,131.6,68.7z"/>
<path fill="#332061" d="M131.6,222.3c-0.8-1.3-1.7-2.6-2.5-3.9c-0.8,1.2-0.7,3-2.3,3.9c-0.6,0.3-0.4,1.2-0.4,1.8
	c0.2,1.9-0.7,2.8-2.6,2.6c-1.2-0.1-2.4,0.2-3.5,0.9c-3.2,0.1-6.3,0.3-9.5,0.4c-0.6,0-1.3,0.2-1.7-0.1c-1.5-1.1-2.8-0.7-4.5-0.1
	c-1.9,0.6-2.4-1.6-3.3-2.8c1.5-1.4,3.2-2.3,5.4-2.3c1.6,0,3-1,4.2-2c0.9-0.7,1.6-0.9,2.7-0.3c2.6,1.5,5.4,1.6,8.1,0.7
	c1-0.3,2.6-0.2,2.5-1.5c0-1.4-0.8-2.8-2.1-3.6c-0.6-0.4-1.8,0-1.6-1.3c0.2-1.1,0.4-2.2,1.4-2.8c1.1-0.6,2-0.8,2.6,0.9
	c1.3,3.7,6.9,5.1,10,2.7c1.1-0.8,2-1.2,2.7,0.4c0.6,1.2,1.6,1.4,2.7,1.1c1.4-0.3,2.9-0.8,3.9-1.8c2.3-2.4,5.1-3.2,8.3-2.8
	c0,1.9,0,3.8,0,5.7c-1.1-0.1-2.1,0.3-3.1,0.7c-1.7,0.7-3.4,1.7-5.3,1.5c-2.5-0.2-4.3,2.4-6.9,1.6c-0.1,0-0.3,0.1-0.3,0.2
	c-1.1,1.9-2.3,1.8-3.8,0.5C132.6,222.2,132,222.3,131.6,222.3z"/>
<path fill="#9355B8" d="M111.2,248.5c1,0.7,2.2,0.7,3.1,0.2c2.1-1.2,4.3-0.9,6.5-0.6c2.6,0.4,5.2,0.3,7.7,0.4c0,1,0.7,1.4,1.5,1.7
	c2.1,0.6,4.3,1.5,6.4,1.8c2.7,0.3,5.6,0.6,8.3-1.5c-2-0.3-3.3-2.2-5.3-1c-0.6-0.2-1.1-0.4-1.7-0.5c-0.3-0.8-1.3-1.1-1.4-2.1
	c0.7-0.9,1.4-1.7,2.2-2.6c4.6,1,9.2,1.3,13.9,1.7c0,2.5,0,4.9,0,7.4c-7.9,0.7-15.9,0.4-23.8,0.5c-1.5,0-3,0.4-4.5,0.7
	c-1.8,0.3-3.5,0.4-5-0.7c-1.1-0.8-1.9-0.5-2.8,0.4c-1.4,1.4-3,1.5-4.6,0.2c1.2-0.2,2.4-0.6,3.3-1.5c0.6-0.6,0.8-1.4-0.3-1.6
	c-2.7-0.4-4.8-2.1-7.3-3.1c0,0-0.1-0.1-0.1-0.1c0-0.7,0-1.4,0-2.1c0.1,0,0.3-0.1,0.4-0.1C109.5,245.8,110,247.6,111.2,248.5z
	 M149.1,247.2c-0.8,0-1.6,0.1-2.1,0.9c-0.4,0.6-1.2,1.1-0.7,1.9c0.4,0.6,1.3,0.4,2,0.1c0.8-0.4,1.6-0.6,2.5-0.6c1-0.1,1-0.6,0.5-1.3
	C150.7,247.4,150,247.1,149.1,247.2z"/>
<path fill="#5F2E85" d="M135.5,22c-0.2-2.8-0.9-5.5,0-8.3c1.7-0.1,2.5-0.9,1.7-2.7c-0.6-1.3,0.3-2.3,0.6-3.4c0.6,0.5,1,1.2,0.7,1.9
	c-0.7,2.1,0.3,2.9,2,3.9c1.4,0.8,3.2,1.6,3.2,3.7c0.1,2.9,1,3.9,3.9,4c1.6,0.1,3.2,0,4.8,0c0,2.8,0,5.5,0,8.3
	c-1.6,0.1-3.1-0.7-4.5-1.3c-1.6-0.7-3-1-4.7-0.2c-1.3,0.6-2.5,0-3.7-0.9C137.5,25.7,136.4,23.9,135.5,22z"/>
<path fill="#3C286A" d="M138.1-0.6c1.6,0,3.2,0,4.8,0c0.2,1.4-0.3,3.8,2.4,1.9c0.2-0.2,0.7-0.1,1,0.1c0.4,0.3,0.3,0.8,0.1,1.2
	c-0.6,1.1-0.7,2.1,0.3,2.9c1,0.8,1.9,0.2,2.8-0.4c0.9-0.6,1.7-1.4,2.9-1.4c0,4.5,0,9,0,13.5c-5.6-1-10.5-4.3-11.5-10.7
	c-0.5-2.8-0.5-2.8-3.1-2C137.7,2.8,138.3,1.1,138.1-0.6z"/>
<path fill="#782A98" d="M152.3,260.7c-1.4,0.4-2.8,0.8-4.1,1.4c-1.9,0.9-3.6,1.4-5.7,0.5c-1.7-0.7-5.3,1.8-6.1,3.8
	c-0.3,0.7-0.6,1.4-1,2.2c-3.4-3.1-3.6-8.2-0.3-11.2c0.7-0.6,1.4-1.1,2.3-1c4.2,0.4,8.3-0.6,12.3-1.6c0.8-0.2,1.7-0.1,2.6-0.2
	C152.3,256.6,152.3,258.7,152.3,260.7z"/>
<path fill="#782A98" d="M135.5,22c0.9,1.9,2.1,3.7,3.9,5c1.2,0.9,2.4,1.5,3.7,0.9c1.7-0.8,3.1-0.5,4.7,0.2c1.4,0.6,2.8,1.4,4.5,1.3
	c0,2.2,0,4.4,0,6.6c-3.5-0.2-6.7-1.5-10.1-2c-0.7-0.1-1.4-0.3-2.1-0.1c-3.1,1.1-4.9-0.6-6.5-2.8c-0.2-0.2-0.3-0.5-0.4-0.8
	C132.2,28,133.4,23.8,135.5,22z"/>
<path fill="#3C286A" d="M131.6,68.7c0-0.6,0-1.2,0-1.7c0.4-0.8,0.5-1.7,0.4-2.6c1.8-1.5,3.8-1.2,5.6-0.1c1.2,0.8,2.3,1,3.6,0.7
	c3.6-0.9,7-0.5,9.7,2.4c0.9,0.9,0.9,2.1,1.5,3.1c0,0.7,0,1.5,0,2.2c-1.5-0.1-2.9-0.7-4.3-1.3c-1.3-0.5-2.6-0.9-4-0.8
	c-1.1,0.1-2.1-0.2-3-0.9c-0.8-0.6-1.6-1-2.6-0.6c-0.5,0.2-1.1,0.2-1.4-0.3c-1.3-2.3-2.8-1.2-4.3-0.3C132.4,68.5,132,68.5,131.6,68.7
	z"/>
<path fill="#3C286A" d="M131.6,222.3c0.4,0.1,1-0.1,1.3,0.2c1.5,1.2,2.8,1.3,3.8-0.5c0.1-0.1,0.3-0.3,0.3-0.2
	c2.6,0.8,4.4-1.8,6.9-1.6c1.9,0.2,3.6-0.8,5.3-1.5c1-0.4,2-0.8,3.1-0.7c0,1.3,0,2.6,0,3.9c-0.7,0.1-1.2,0.5-1.6,1
	c-2.6,3.2-6,3.3-9.7,2.5c-1.3-0.3-2.4-0.4-3.6,0.6c-1.6,1.4-4.4,1.1-5.9-0.2c0-0.7,0-1.5,0-2.2C131.6,223.2,131.6,222.7,131.6,222.3
	z"/>
<path fill="#492878" d="M137.7,4.5c2.6-0.9,2.6-0.9,3.1,2c1,6.3,5.9,9.7,11.5,10.7c0,1.3,0,2.6,0,3.9c-1.6,0-3.2,0-4.8,0
	c-2.9-0.1-3.8-1.1-3.9-4c0-2.1-1.9-2.9-3.2-3.7c-1.7-1-2.7-1.9-2-3.9c0.2-0.7-0.1-1.4-0.7-1.9c0-0.7-0.1-1.4-0.1-2.2
	C137.6,5.1,137.6,4.8,137.7,4.5z"/>
<path fill="#332061" d="M152.3,3.7c-1.2,0-2,0.8-2.9,1.4c-0.9,0.5-1.8,1.1-2.8,0.4c-1.1-0.8-0.9-1.9-0.3-2.9
	c0.2-0.4,0.4-0.9-0.1-1.2c-0.3-0.2-0.8-0.2-1-0.1c-2.8,1.9-2.3-0.5-2.4-1.9c2.3,0,4.7,0.1,7-0.1c1.9-0.1,2.8,0.4,2.5,2.5
	C152.3,2.4,152.3,3,152.3,3.7z"/>
<path fill="#5F2E85" d="M137.7,4.5c0,0.3,0,0.6,0,0.9c-1.6-0.6-3.7,0.2-4.9-1.3c-1.2-1.5,0.7-3.1,0.5-4.8c1.6,0,3.2,0,4.8,0
	C138.3,1.1,137.7,2.8,137.7,4.5z"/>
<path fill="#5F2E85" d="M142.8,235.8c1.4-2.6,2.7-2.7,4.3-0.5c0.9,1.2,1.6,0.9,2.5,0.1c0.9-0.8,1.3-2.3,2.7-2.6c0,1,0,2,0,3.1
	c-1.9,3.4-4.3,2.7-7,1.1C144.6,236.4,143.7,236.2,142.8,235.8z"/>
<path fill="#5F2E85" d="M152.3,57.3c-1.2-0.2-1.7-1.2-2.4-2.1c-0.8-1-1.7-1.3-2.7-0.2c-1.9,2.2-2.4,2.2-4.4-0.3
	c1.9-0.9,3.8-1.7,5.6-2.6c1-0.5,1.8-0.3,2.4,0.6c0.4,0.6,0.9,1.1,1.4,1.6C152.3,55.3,152.3,56.3,152.3,57.3z"/>
<path fill="#28164F" d="M152.3,167.7c-0.2-0.1-0.4-0.2-0.6-0.3c-0.8-0.5-1.9-1-1.8-2.2c0.2-1.2,1.5-1.1,2.4-1.4
	C152.3,165.1,152.3,166.4,152.3,167.7z"/>
<path fill="#28164F" d="M152.3,126.3c-0.9,0-1.8,0-2-1.1c-0.2-1.4,1-1.9,2-2.4C152.3,124,152.3,125.1,152.3,126.3z"/>
<path fill="#782A98" d="M15.8,14.6c-1.1-0.2-2.1,0.2-3.2,0.3c-2.3,0.2-3.3-0.6-3.8-3c1.3-0.9,2.5,0.1,3.7,0.3c3,0.5,3.7,0,4.1-3
	C17,7.4,19.1,5.5,21.8,5c-0.4,2.8-1.3,5.4-3.1,7.7C18,13.6,17.2,14.6,15.8,14.6z"/>
<path fill="#782A98" d="M8.9,278.6c0.2-2.2,1.5-3.1,3.6-3c1.1,0.1,2.2,0.2,3.4,0.3c1.7,0.1,2.7,1.3,3.5,2.6c1.4,2.2,2.3,4.5,2.6,7.1
	c-2.7-0.7-4.8-1.8-4.9-5c-0.1-1.7-1.2-2.3-2.9-2.4C12.3,278,10.7,279.5,8.9,278.6z"/>
<path fill="#28164F" d="M96,210.5c-0.6,2.1-1.2,2.5-3,1.6c-0.7-0.3-1.4-0.8-2-1.3c-2.5-2-2.5-2,0-4c1.1-0.9,1.2-2.1,1.2-3.4
	c0.6,0,1.1,0,1.7,0c-0.1,1.4,0.3,2.2,1.9,2.3c0.6,0,1.2,0.2,1.3,0.9c0.1,0.7-0.4,1-1,1.2c-0.7,0.1-1.6,0.1-1.6,1.1
	C94.4,209.9,95.2,210.3,96,210.5z"/>
<path fill="#28164F" d="M92.1,87c0.2-1.9-0.5-3.4-2.3-4.2c-1.2-0.6-1.2-1.3-0.1-2c0.8-0.6,1.5-1.4,2.3-1.9c2.2-1.5,3.1-1.2,4.4,1.3
	c-1,0-2,0.3-1.9,1.5c0,1.1,0.8,0.9,1.6,0.6c1.2,1.2,1.2,2.2-0.6,2.5C94,85,93.8,85.9,93.8,87C93.3,87,92.7,87,92.1,87z"/>
<path fill="#1E0D3F" d="M127.4,178.1c1.2-0.4,2.4-0.8,3.6-1.2c0.4-0.1,0.9-0.4,1.1,0.2c0.2,0.4-0.2,0.9-0.5,1.1
	C130.3,179.4,128.9,179.3,127.4,178.1z"/>
<path fill="#5F2E85" d="M63.4,103.2c0.6,2.2,0.2,2.8-2,2.9c0-1.3-0.3-2.8,1.6-3C63.2,103.2,63.3,103.2,63.4,103.2z"/>
<path fill="#28164F" d="M61.3,87.9c-0.4-0.8-0.5-1.5,0.3-2.1c0.6-0.4,1.2-0.5,1.7-0.1c0.8,0.6,0.4,1.4,0.1,2.1
	C62.8,87.9,62.1,87.9,61.3,87.9z"/>
<path fill="#5F2E85" d="M61.4,184.5c2.2,0,2.5,0.5,1.9,2.8c-0.1,0-0.2,0.1-0.3,0.1C61.4,187.1,61.4,185.8,61.4,184.5z"/>
<path fill="#28164F" d="M62.6,202.2c0.5,0.6,1.6,1,0.9,2.1c-0.3,0.5-1,0.6-1.5,0.3c-1.2-0.5-0.9-1.5-0.7-2.4
	C61.8,202.2,62.2,202.2,62.6,202.2z"/>
<path fill="#28164F" d="M47,91.8c0.2-1.3,1.2-1.3,2.2-1.3c0.2,0.5,1,1,0.3,1.5C48.7,92.6,47.8,92.2,47,91.8z"/>
<path fill="#28164F" d="M31.6,150.2c-0.4,0-0.7-0.1-0.7-0.6c0.1-0.6,0.6-0.9,1.2-1c0.3-0.1,0.5,0.2,0.5,0.5
	C32.6,149.7,32.2,150.1,31.6,150.2z"/>
<path fill="#28164F" d="M32.5,141.1c0,0.4-0.2,0.6-0.5,0.6c-0.5-0.1-1-0.3-1.1-0.8c-0.1-0.3,0.2-0.5,0.5-0.5
	C32,140.4,32.4,140.6,32.5,141.1z"/>
<path fill="#28164F" d="M58.3,217.5c-0.7,0.6-1.5,0.3-1.9-0.2c-1.7-2.3-3.9-4.1-5-6.8C55.5,211,57.1,214,58.3,217.5z"/>
<path fill="#28164F" d="M47,198.7c1-0.2,2.4-1.5,2.6,0.9C48.6,199.8,47.4,200.4,47,198.7z"/>
<path fill="#332061" d="M96,210.5c-0.8-0.2-1.6-0.6-1.6-1.5c0-1,0.8-1,1.6-1.1C96,208.8,96,209.6,96,210.5z"/>
<path fill="#160E37" d="M109.7,151.3c0.5-0.8,1.1-0.8,1.7-1c0.8-0.3,1.9-0.6,0.4-1.6c-0.5-0.3-0.6-0.8-0.3-1.3
	c0.8-1.3,1.9-1.9,3.4-1.9c1.4,0,2.3,0.8,2.9,1.8c0.4,0.6,0,1-0.4,1.5c-1.2,1.7-3.6,1.7-4.7,3.7C112.4,153.1,110.8,151.9,109.7,151.3
	z"/>
<path fill="#160E37" d="M114.1,143.7c-0.1,0-0.8,0.1-1.5-0.1c-0.9-0.3-1.6-0.8-0.8-1.9c0.6-0.7,0.2-1.1-0.4-1.5
	c-0.5-0.3-1.8-0.3-1.1-1.3c0.5-0.6,2-1.4,2.4-0.9c1.1,1.5,3.1,1.4,4.1,2.9c0.4,0.6,1.3,1.1,1,2c-0.3,0.9-1.3,0.8-2,0.8
	C115.5,143.8,115.1,143.7,114.1,143.7z"/>
<path fill="#9355B8" d="M44.4,286.8c0.4-1.9,0.6-3.8,0.1-5.8c-0.4-1.5,0.1-2.7,1.4-3.6c1.4-0.9,2.4-2.4,4.2-2.8
	c1-0.3,1.9-1.4,2.1-2.8c0.1-1.2,0.9-1.6,2-1.3c2.8,0.9,5.6,0.9,8.5,0.7c2.5-0.2,5,0.1,7.5,0.4c1.6,0.2,2.4-0.5,2.3-2.2
	c-0.1-1.9,0.1-3.9-0.3-5.9c-0.7-3.3-0.7-3.3,2.4-5c0.8,0.1,1.3,0.6,1.8,1.1c1,1.1,2.1,1.9,3.6,2.2c0.8,0.1,1.8,0.6,1.4,1.6
	c-1.1,2.6,0.8,3.7,2.3,5c0.1,0.1,0.3,0.1,0.4,0.2c0.8,0.8,2.6,0.9,2.5,2.1c-0.1,1.2-1.7,0.2-2.6,0.6c-1.1,0.5-1.7,1.2-2.1,2.3
	c-0.3,0.8-0.6,2-1.7,2c-1.3,0.1-0.9-1.2-1.2-1.9c-0.6-1.6-3.3-2.5-5.5-1.8c-2.2,0.6-4.4,1.4-6.4,2.5c-1.3,0.8-2.8,1.2-4.3,1.5
	c-1.9,0.5-3.3,0.3-3.9-2.1c-1,0.8-1.4,2.2-2.6,2.3c-1.1,0.1-2.2,0.1-3.2,0.1c-1.4-0.1-2.6,0-2.2,2c0.2,1.4-1.5,1.9-1.7,3.2
	c-1.8,0.2-2.7,1.3-2.9,2.9C46.1,285.7,45.8,286.7,44.4,286.8z"/>
<path fill="#A065C6" d="M107.3,248.1c2.5,0.9,4.5,2.7,7.3,3.1c1.1,0.2,0.9,1,0.3,1.6c-0.9,0.9-2.1,1.3-3.3,1.5
	c-2.8-0.1-5.7-0.5-8.2,1.2c-1.8,1-2.3,2.9-3.6,4.3c-1.5,1.6-2,1.5-2.5-0.5c-0.6-2.2-1.8-3.5-3.9-4.2c-0.7-0.2-1.5-0.7-2-1.2
	c-1.7-1.6-3.5-2.9-6.1-1.9c-0.2,0.1-0.5,0-0.6-0.1c-2.8-2-5.7-0.5-8.5-0.4c-0.1,0-0.3,0.1-0.4,0.1c-0.9-0.1-2.3,0.5-2.4-0.6
	c-0.1-0.9,1.4-0.7,2.2-0.8c0.7-0.1,1.4-0.1,1.6-0.9c0.2-0.7-0.5-1-0.9-1.3c-1.4-0.9-1-1.5,0-2.5c1.2-1,2.1-2.3,3.3-3.4
	c0.7-0.7,1.7-1.3,2.7-0.6c1,0.7,0.8,1.7,0.3,2.7c-0.3,0.7-0.7,1.5-0.9,2.2c-0.3,0.9-1.6,2-0.3,2.6c1.2,0.6,2.8,1.3,4.2,0
	c1-0.9,1.3-2.2,2.2-3.1c0.9,0.6,0.6,1.5,0.9,2.2c0.9,1.9,2.3,2.1,3.6,0.5c1.7-2.2,3.8-1.9,4.9,0.6c0.6,1.3,4,2.4,5.8,1.8
	C104.5,250.3,106.3,249.8,107.3,248.1z"/>
<path fill="#28164F" d="M51.4,80c0.8-2.9,3.4-4.5,5-6.9c0.4-0.6,1.3-0.6,2-0.5C57.4,76.5,55.3,79.1,51.4,80z"/>
<path fill="#332061" d="M96,82.2c-0.7,0.3-1.6,0.5-1.6-0.6c0-1.2,0.9-1.5,1.9-1.5C96.3,80.8,96.2,81.5,96,82.2z"/>
<path fill="#492878" d="M44.8,76.1c-2.5,0.8-4.9,0.5-6.9-1.3c-1.5-0.9-3.4-1.4-3.9-3.5c1.9-0.9,4-1,6.1-0.9c0.7,0,1.5,0.2,2.1,0
	c2.4-0.9,4.3-0.3,5.7,1.9c-0.2,0.9-0.4,1.7-0.5,2.6C46.3,74.7,45.4,75.1,44.8,76.1z"/>
<path fill="#492878" d="M59.2,68.7c-0.8,0.4-1.6,0.9-2.6,0.9c-0.5-0.8-1.3-0.9-2.2-0.9c-0.2-1-0.9-1.6-2-1.7c-1.6-0.2-2-0.9-1.7-2.5
	c0.7-4,0.9-4.2,4.7-2.6C58.4,63.2,59.4,65.6,59.2,68.7z"/>
<path fill="#332061" d="M92.5,61.6c1.2,0.1,2.4,0.3,2.6,1.8c-4.5,0.4-8.9,1.4-13.4,1.3c-0.9,0-1.4-0.5-1.8-1.3
	c0.1-0.3,0.3-0.6,0.4-0.9c0.7-0.1,1.3-0.4,1.7-0.9C85.6,61.7,89.1,61.6,92.5,61.6z"/>
<path fill="#332061" d="M78.7,63.5c-0.9,2-2.5,3.3-4.3,4.4c-2.6,1.5-3.8,0.8-4-2.2C72.9,63.7,75.7,63.2,78.7,63.5z"/>
<path fill="#5F2E85" d="M47.4,74.8c0.2-0.9,0.4-1.7,0.5-2.6c0.4-0.4,0.8-0.9,1.2-1.3c0,2.2,1.5,2.2,3,2.2c-0.4,2.6-2.2,4.2-4.2,5.6
	c-0.2-0.2-0.3-0.3-0.5-0.5C47.4,77.1,47.4,76,47.4,74.8z"/>
<path fill="#75569B" d="M52.2,73.1c-1.5,0-3.1,0-3-2.2c0.1-0.2,0.1-0.3,0.2-0.5c0.9,0.1,1.6-0.3,2.4-0.6c1.1-0.4,2.1-0.3,2.7,0.9
	C53.7,71.6,52.9,72.3,52.2,73.1z"/>
<path fill="#5F2E85" d="M54.4,70.8c-0.6-1.2-1.5-1.4-2.7-0.9c-0.8,0.3-1.6,0.6-2.4,0.6c1.1-2.4,3.3-1.6,5.1-1.8
	c0.8,0,1.7,0.1,2.2,0.9C56.1,70.4,55.3,70.7,54.4,70.8z"/>
<path fill="#492878" d="M82.1,61.7c-0.4,0.6-1.1,0.8-1.7,0.9c-0.8-1.3-2.5-0.8-3.5-1.8C79,59.2,80.6,60.2,82.1,61.7z"/>
<path fill="#332061" d="M47.4,74.8c0,1.1,0,2.3,0,3.4c-0.9,0-1.6,0.6-2.3,1c-0.5,0.2-1.1,0.6-1.5,0c-0.4-0.5,0.2-0.9,0.5-1.2
	c0.5-0.5,0.8-1.2,0.8-1.9C45.4,75.1,46.3,74.7,47.4,74.8z"/>
<path fill="#492878" d="M37.9,215.7c2.1-1.7,4.4-2.3,6.9-1.3c0.6,1,1.4,1.4,2.6,1.3c0.2,0.7,0.3,1.4,0.5,2.1c-0.7,0.4-1,1.1-1.3,1.7
	c-0.3,0.5-0.6,1-1.2,0.8c-3.1-0.7-6.4,0.2-9.4-0.7c-0.7-0.2-1.3-0.6-2-0.9C34.6,216.8,36.4,216.5,37.9,215.7z"/>
<path fill="#492878" d="M56.6,221c0.9,0.2,1.7,0.3,2.6,0.5c0,4.8-1.5,6.8-5.5,7.7c-2.1,0.4-2.5,0-2.7-2.1c-0.2-1.8-0.6-3.5,2.1-3.6
	c0.8,0,1-0.9,1.4-1.6C55.3,221.9,55.9,221.4,56.6,221z"/>
<path fill="#332061" d="M94.7,227.1c-0.2,1.3-1.1,1.7-2.2,1.8c-3.3,0-6.6,0-9.9,0c-0.6-0.6-1.4-0.7-2.2-0.9
	c-0.1-0.3-0.3-0.6-0.4-0.9c0.3-1.3,1.5-1.7,2.5-1.6C86.5,225.9,90.6,226.5,94.7,227.1z"/>
<path fill="#332061" d="M70.4,224.9c0.2-3,1.4-3.7,4-2.3c1.8,0.9,3.3,2.3,4.2,4.1C75.5,227.9,73,226.2,70.4,224.9z"/>
<path fill="#5F2E85" d="M47.9,217.9c-0.2-0.7-0.3-1.4-0.5-2.1c0-1.2,0-2.3,0-3.5c0.2-0.2,0.3-0.3,0.5-0.5c1.9,1.5,3.9,3,4.3,5.6
	c-1.4,0.2-3.2-0.2-3,2.2l-0.1,0.1C48.5,219.3,48.4,218.5,47.9,217.9z"/>
<path fill="#5F2E85" d="M56.6,221c-0.7,0.5-1.3,0.9-2.2,0.9c-2-0.2-4.3,0.5-5.2-2.2c0,0,0.1-0.1,0.1-0.1c1.7,0.3,3.5,1.9,5.2,0.1
	C55.4,219.7,56.1,220.2,56.6,221z"/>
<path fill="#492878" d="M80.4,228c0.8,0.2,1.5,0.4,2.2,0.9c-3.2,2.1-4,2.2-6.5,0.4C77.4,228.4,79.2,229.4,80.4,228z"/>
<path fill="#75569B" d="M54.4,219.7c-1.8,1.8-3.5,0.2-5.2-0.1c-0.2-2.4,1.6-2.1,3-2.2C53,218.2,53.7,218.9,54.4,219.7z"/>
<path fill="#332061" d="M47.4,212.3c0,1.2,0,2.3,0,3.5c-1.1,0.1-2-0.3-2.6-1.3c0-1-0.4-1.8-1-2.5c-0.3-0.3-0.7-0.7-0.2-1.1
	c0.4-0.4,0.8-0.2,1.2,0C45.7,211.3,46.5,211.8,47.4,212.3z"/>
<path fill="#9355B8" d="M48.3,8.8c1.2,1.2,3.1,2.1,2.4,4.4c-0.2,0.6,0.5,0.8,1,0.8c0.6,0,1.3,0.1,1.9-0.1c2.3-0.7,3.7,0.3,4.7,2.3
	c2.2-2.5,3.5-2.8,6.6-1.4c2.5,1.1,4.9,2.5,7.6,3.2c1.6,0.4,2.9,0.4,4.4,0.1c1.2-0.3,2-0.8,2.1-2.1c0-0.6,0.1-1.2,0.9-1.3
	c0.7-0.1,1.3,0.3,1.5,1c0.7,2.1,1.9,3.4,4.4,3.4c1.1,0,0.7,0.9,0.1,1.3c-0.6,0.5-1.4,0.8-2,1.3c-1.5,1.4-3.5,2.6-2.5,5.2
	c0.2,0.6-0.1,1.4-0.7,1.4c-2.8,0-4.2,2.3-6.1,3.7c-2.4-1.2-3.3-3-2.3-5.8c0.5-1.6,0.2-3.5,0.2-5.2c0-2.4-0.4-2.9-2.8-2.5
	c-5.2,0.9-10.6-0.4-15.7,1.1c-0.8,0.2-1.5-0.2-1.8-1.1c-0.6-1.7-1.7-2.8-3.6-3.4c-3-1-4.4-3.6-3.9-6.9c0.2-1.5-0.1-3-0.4-4.5
	c1.2,0,1.8,0.6,1.7,1.7C46.1,7.1,46.9,8.1,48.3,8.8z"/>
<path fill="#9888CB" d="M50.4,26.1c2.7-1.4,6.1-0.6,9,1.8C56.2,28.3,53.5,27.3,50.4,26.1z"/>
<path fill="#9888CB" d="M59.7,262.8c-2.7,1.1-4.5,2.5-7,2.2c-0.4,0-1-0.1-0.9-0.6c0-0.3,0.4-0.8,0.6-0.8
	C54.6,263.3,56.6,261.9,59.7,262.8z"/>
<path fill="#9355B8" d="M102.1,13.7c-0.4,2.5-1.7,3.5-3.8,2.9c-2.2-0.6-1.2-2.4-1.5-3.8C98.7,12.8,100.4,13.3,102.1,13.7z"/>
<path fill="#8648A2" d="M107.3,245.9c0,0.7,0,1.4,0,2.1c-2-0.5-4.4-0.1-5.8-2.3c-0.1-0.2-0.6-0.3-0.8-0.2c-2.3,0.9-4.3-0.6-6.5-0.9
	c-1.4-0.2-2-0.9-2.3-2.2c-0.1-0.8-0.4-1.6-0.6-2.3c-0.6-1.7-1.7-2.4-3.6-1.7c-1.8,0.6-3.6,1.6-5.6,1.3c0-0.9,0.5-1.5,1.2-1.9
	c1.7-0.9,3.4-1.8,5.5-1.6c1.5,0.1,3,0.1,4.1-1.3c1,0.3,2,0.6,3,0.9c1.9,1.2,3,2.9,3.3,5.2c0,0.3,0.3,0.8,0.5,0.9
	C102.5,242.9,104.4,245.4,107.3,245.9z"/>
<path fill="#782A98" d="M93,234.9c-1.1,1.4-2.6,1.4-4.1,1.3c-2.1-0.2-3.8,0.7-5.5,1.6c-0.8,0.4-1.2,1-1.2,1.9
	c-1.2,0.7-2.6,0.4-3.9,0.5c-0.4-2.5,1.7-4.8,4.5-5.2c1.8-0.2,3.6-0.2,5.4-0.9C89.4,233.5,91.3,234.6,93,234.9z"/>
<path fill="#75569B" d="M66.6,251.1c-0.8-3-0.5-3.7,2.1-3.9C68.8,249,68.6,250.5,66.6,251.1z"/>
<path fill="#A065C6" d="M103.3,34.7c2.5,1.6,5.3,2,8.2,1.6c0.3,0.1,0.6,0.1,0.8,0.2c1.1,0.4,2.8,0.3,2.9,1.9c0,1.6-1.8,0.7-2.6,1.3
	c-3.3,2.5-6.3,1.9-9.7,0.1c-1.7-1-3.8-0.2-5.6,0.8c-0.4,0.2-0.7,0.5-0.7,1c0.1,1-0.2,1.7-1.3,1.8c-1.2,0.1-2.3,0.2-3-1.1
	c-0.5-1-1-2.1-2.4-1.7c-1.2,0.3-1.5,1.4-1.7,2.5c-0.1,0.5,0.1,1.2-0.6,1.3c-0.6,0.1-0.8-0.6-1-1c-1.9-3.1-1.9-3.1-5-2.1
	c-1.3,0.4-1.2,1.1-0.7,1.9c0.8,1.2,1.3,2.6,1.7,4c0.2,0.8,0.1,1.5-0.5,2c-0.7,0.6-1.3,0.2-2-0.1c-2-1.1-3-3.3-4.8-4.6
	c-0.6-0.4-0.2-0.9,0.1-1.3c1.4-2.1,1.4-2.1-1.2-2.7c-0.5-0.1-1-0.2-1.1-1.2c2.6-0.1,5.1-0.3,7.6,0.3c1,0.3,1.9,0.4,2.7-0.5
	c0.8-0.9,1.8-0.7,2.8-0.3c1.4,0.6,2.3,0.3,3.4-0.8c1.3-1.3,2.6-2.6,4.7-2.9c1.7-0.3,2.3-1.8,2.8-3.3c0.3-0.7,0.2-1.8,1.1-1.9
	c1-0.2,1.4,0.9,1.9,1.6C101.2,32.5,101.5,34.2,103.3,34.7z"/>
<path fill="#8648A2" d="M107.3,44.2c-1.1,0.1-2.1,0.6-2.8,1.4c-0.8,0.9-1.8,1.6-3,1.9c-1,0.2-1.9,1-2.1,2c-0.4,2.2-1.4,4-3.3,5.2
	c-1,0.3-2,0.6-3,0.9c-1.2-1.9-3-1.2-4.7-1.3c-2.9-0.1-5.5-1.6-6.3-3.8c1.8-0.2,3.4,0.7,5,1.3c2.6,0.9,3.7,0.4,4.6-2.2
	c0.4-1.1,0-2.7,1.2-3.1c2-0.7,4.1-1.7,6.2-1.5c1.6,0.1,2.7,0.2,3.8-1.2c0.7-0.9,2.1-0.9,3.2-1C107.2,42.5,107.3,43.4,107.3,44.2z"/>
<path fill="#8648A2" d="M138.9,46.4c-1.2-0.1-2,0.4-2.6,1.5c-0.6,1-1.6,1.7-2.2,2.6c-2.3,3.3-3.1,3.5-6.8,1.9
	c-0.2-0.1-0.4-0.2-0.6-0.3c-0.9-0.9-0.4-6.6,0.7-7.4c0.7-0.5,1.3-0.3,2,0c1.8,0.8,3.2,0.4,4.3-1.3c0.9,0,1.7,0,2.6,0
	C137.2,44.4,138,45.4,138.9,46.4z"/>
<path fill="#8648A2" d="M111.5,42.1c0.9,2.5,1.5,5.1,3,7.4c0.9,1.4,0,2.6-2.2,3.4c-1.6,0.6-2.5,0.2-2.8-1.5
	c-0.5-2.5-0.6-5.1-2.3-7.2C109.4,44.8,110.1,42.7,111.5,42.1z"/>
<path fill="#A065C6" d="M136.3,43.4c-0.9,0-1.7,0-2.6,0c-0.8-0.9-1.9-0.9-3-0.9c-0.8,0-1.6,0.1-2.3-0.4c0-0.7,0.1-1.4,0.9-1.6
	c4.5-1.3,9-3.3,13.9-1.4c0.3,0.1,0.7,0.3,1,0.5c0.1,0.1,0.2,0.2,0.3,0.5c-1.6,0.3-2.9,2-4.8,1.1c-0.4-0.5-0.8-1.1-1.3-1.4
	c-0.7-0.5-1.8-0.7-2.3,0.1c-0.7,1.1,0.3,1.5,1.1,1.8C136.9,42.3,136.6,42.9,136.3,43.4z"/>
<path fill="#782A98" d="M82.1,50.5c0.8,2.2,3.3,3.7,6.3,3.8c1.6,0.1,3.5-0.6,4.7,1.3c-2,0.5-4,1-6.1,0.2c-1-0.4-2.3-0.1-3.4-0.2
	c-3.2-0.2-5.7-2.8-5.3-5.5C79.5,50.2,80.8,50.4,82.1,50.5z"/>
<path fill="#A065C6" d="M151.7,41.4c-0.7,1.1-1.3,2.1-2.6,1.9c-1.3-0.3-2.1-1.4-2.8-2.5c-0.2-0.2-0.1-0.6,0.2-0.7
	c0.6-0.2,1.2-0.3,1.7,0C149.2,40.8,150.2,41.2,151.7,41.4z"/>
<path fill="#75569B" d="M68.7,43.3c-2.7-0.3-2.8-0.6-2.2-4.2C68.6,39.8,68.7,41.5,68.7,43.3z"/>
<path fill="#9888CB" d="M137.3,41.8c-0.8-0.3-1.8-0.8-1.1-1.8c0.6-0.8,1.6-0.6,2.3-0.1c0.5,0.3,0.9,0.9,1.3,1.4
	C138.9,41.4,138.1,41.6,137.3,41.8z"/>
<path fill="#8648A2" d="M138.5,244.1c-0.7,0.9-1.4,1.7-2.2,2.6c-0.8,0.5-1.7,0.5-2.6,0.4c-1.1-1.6-2.4-2.2-4.4-1.5
	c-1.9,0.7-2.8-0.2-2.9-2.2c-0.1-0.9-0.1-1.7-0.2-2.6c-0.4-2.8,2-2.8,3.6-3.4c1.4-0.5,2.6-0.4,3.5,1.4
	C134.4,241,135.9,243.2,138.5,244.1z"/>
<path fill="#8648A2" d="M111.2,248.5c-1.2-0.8-1.6-2.6-3.4-2.6c1-2.3,1.4-4.7,1.8-7.1c0.3-1.7,1.5-1.8,2.8-1.2
	c1.4,0.6,3.4,1.5,2.3,3.1C113,243.1,112.7,246,111.2,248.5z"/>
<path fill="#A065C6" d="M133.7,247.1c0.9,0.1,1.8,0.1,2.6-0.4c0.1,0.9,1.1,1.3,1.4,2.1c-0.8,0.2-1.8,0-2.1,1.1
	c-0.1,0.5,0.3,0.8,0.7,1c0.9,0.5,1.7,0.1,2.3-0.5c0.3-0.3,0.5-0.7,0.8-1c2-1.2,3.3,0.8,5.3,1c-2.7,2.1-5.6,1.8-8.3,1.5
	c-2.2-0.2-4.3-1.1-6.4-1.8c-0.8-0.2-1.4-0.7-1.5-1.7C130.1,247.5,132.3,248.7,133.7,247.1z"/>
<path fill="#3C286A" d="M120.3,227.6c1.1-0.7,2.2-1,3.5-0.9c2,0.2,2.8-0.7,2.6-2.6c0.7,0.1,1.2,0.5,1.6,1c0.8,0.9,1.6,2,1.1,3.1
	c-0.5,1.2-1.9,0.7-2.9,0.5C124.2,228.2,122.1,228.7,120.3,227.6z"/>
<path fill="#5F2E85" d="M131.6,223.6c0,0.7,0,1.5,0,2.2c-0.9-0.1-1.9-0.2-1.8-1.3C129.8,223.4,130.8,223.7,131.6,223.6z"/>
<path fill="#5F2E85" d="M132,64.4c0,0.9,0,1.8-0.4,2.6c-0.8,0-1.7,0-1.6-1.2C130,64.5,131,64.4,132,64.4z"/>
<path fill="#A065C6" d="M149.1,247.2c0.8,0,1.6,0.2,2.1,0.9c0.6,0.7,0.5,1.2-0.5,1.3c-0.9,0.1-1.7,0.2-2.5,0.6
	c-0.6,0.3-1.5,0.6-2-0.1c-0.5-0.7,0.3-1.3,0.7-1.9C147.5,247.3,148.3,247.1,149.1,247.2z"/>
<path fill="#9888CB" d="M139.4,249.3c-0.3,0.3-0.5,0.7-0.8,1c-0.6,0.7-1.4,1-2.3,0.5c-0.4-0.2-0.8-0.5-0.7-1
	c0.2-1.1,1.3-0.9,2.1-1.1C138.3,249,138.8,249.1,139.4,249.3z"/>
</svg>
