<?xml version="1.0" encoding="utf-8"?>
<!-- Generator: Adobe Illustrator 24.1.2, SVG Export Plug-In . SVG Version: 6.00 Build 0)  -->
<svg version="1.1" baseProfile="tiny" xmlns="http://www.w3.org/2000/svg" xmlns:xlink="http://www.w3.org/1999/xlink" x="0px"
	 y="0px" viewBox="0 0 151.5 300" overflow="visible" xml:space="preserve">
<path fill="#251D3F" d="M152.2,204.1c0,32.2,0,64.4,0,96.6c-50.9,0-101.8,0-152.7,0c0-32.9,0-65.9,0-98.8c2.7,0.8,5.5,0.5,8.2,0.3
	c2.5-0.2,4.9-1,7.3-0.6c5.5,0.9,10.9,2.2,16.5,2.4c4.9,0.2,9.7,1,14.6,0.6c3.8-0.4,7.5-0.2,11.3-0.8c3.4,0.9,6.4,0.2,9.3-1.8
	c0.9,0.1,1.7,0.1,2.6,0.2c2.8,0.5,5.5,1.4,8.5,1.1c1,0.3,1.9,0.6,3,0.4c4.5,0,9.1,0,13.6,0c1.2-0.3,3,0.9,3.4-1.2
	c0.2-1,0.7-2.6-0.7-3.1c-1.4-0.5-2.8,0-3.5,1.5c-0.8,0.2-1.5-0.3-2.2-0.4l0,0c-0.4-1.6-1.1-3.1-0.4-4.8c2.4,0.3,2.1-2.5,3.7-3.3
	c0.2,0.3,0.4,0.5,0.5,0.7c1.1,2.5,1.7,2.7,4.1,1.1c1.2-0.7,2.4-1.4,3.6-2.1c0,1.2,1.8,1,1.8,2.2c0.1,0.8-0.3,1.6,0.5,2.2
	c0.9,3.3,3,5.7,6.4,6.5c4.9,1.1,9.7,0.4,14.3-1.4c3.2-1.3,5.3-3.7,6-7.3c1-1.1,0.8-2.7,1.4-4c1.2,0,2.3-0.1,3.5,0
	c1,0.1,2.2,0.5,2.1,1.8c-0.1,2.5,0.3,5.1-0.2,7.6c-0.3,1.2-1.4,2.7-0.2,3.7c1.1,0.9,2.4-0.4,3.6-0.8
	C145.2,203.2,148.7,203.7,152.2,204.1z M133.7,201.8c-0.2-1.2-1.3-0.7-1.9-1.1c-0.6-0.3-1.4-0.4-1.5,0.6c-0.1,0.8,0.3,1.3,1.1,1.3
	C132.3,202.9,133.2,202.7,133.7,201.8z"/>
<path fill="#2C3342" d="M-0.5,167.2c0.9-0.1,1.7-0.2,2.6-0.4c0.1,0.1,0.2,0.2,0.2,0.2c0.2-0.1,0.2-0.3-0.1-0.4
	c-0.9-5,1.8-8.9,3.8-13.3c1.2,2.4,2.3,4.5,3.4,6.7c0.7,1.4,0.8,2.8,0.5,4.3c-0.2,1.2,0.1,1.8,1.5,1.6c0.6-0.1,1.3-0.1,2-0.1
	c1.2,0,1.7-0.4,1.8-1.6c0.2-1.7,0.7-3.2,2.9-3.1c0.9,0,1.2-0.5,0.9-1.3c-0.9-2.8,0.2-5.2,1.3-7.6c0.8-1.8,1.7-3.5,2.6-5.4
	c0.6,2.6,2,4.6,3.2,6.8c0.7,1.3,1.3,2.7,0.8,4c-0.6,1.8,0.1,2.8,1.1,4c3.3,3.9,3.3,3.9-0.4,8.8c1.6,0.5,3.3,0.6,4.7,1.5
	c0.7,0.4,1-0.1,1.4-0.6c2-2.7,2.5-5.8,2.9-9c0.1-1.2,0-2.4,0.2-3.5c0.2-1,0.7-1.7,1.9-1.7c1.1,0,1.6,0.6,1.9,1.5
	c0.2,0.8,0.5,1.6,0.4,2.3c-0.4,2.8,0.2,5.3,1.8,7.6c-0.1,4-1.9,7.3-4,10.5c-1.5-0.2-2,0.3-1.1,1.7c0.5,0.8,0.8,1.7,0.7,2.6
	c-1.5,1.4-2.4,0.6-2.8-0.9c-0.4-1.4-0.9-2.7-0.6-4.2c0.3-1.1,0.2-2.5-1.3-2.7s-1.9,1-1.9,2.3c0,0.7,0,1.5,0,2.2
	c0,0.6,0.1,1.4-0.8,1.5c-0.9-1.3-2-1.7-3.6-1.1c0.8,1.5,2.2,1.5,3.5,1.6c0.6,0.6,0.4,1.4,0.4,2.1c-0.1,2.5-0.3,5.1-0.4,7.6
	c-1.4-0.8-1.2-2.4-1.6-3.6c-0.4-1.4-1.3-2-2.7-2c-1.4,0-1.2,1-1.3,2c-0.1,0.5-0.4,0.9-0.6,1.4c-0.7-3-2.1-5.7-3.3-8.5
	c-0.4-1-0.7-2.6-2.2-2.2c-1.5,0.3-2.4,1.4-2.3,3.2c0.1,1.7,0,3.3,0,5c-0.6,0.1-1.2,0.2-1.8,0.4c-0.2-2.2,0.4-4.5-0.9-7
	c-0.8,3.2-0.5,6.3-2.2,8.8c-0.7,0.6-1.5,0.3-2.2,0.1c-1.2-0.2-2.4-0.6-3.5,0.2c-1-1.1,0.2-2.7-0.8-3.9c-0.3,0.5-0.6,0.8-0.9,1.2
	c-1,0.1-2-0.7-3-0.4c0-2.3-0.4-4.5-2.2-6.2C-0.5,176-0.5,171.6-0.5,167.2z"/>
<path fill="#131B2C" d="M57.4,203.7c-3.7,0.6-7.5,0.4-11.3,0.8c-4.8,0.5-9.7-0.4-14.6-0.6c-5.6-0.2-11-1.5-16.5-2.4
	c-2.4-0.4-4.9,0.4-7.3,0.6c-2.7,0.2-5.5,0.6-8.2-0.3c0-0.4,0-0.9,0-1.3c1.8-1.2,3.7-1.7,5.9-1.5c0.6,0.1,1.4-0.1,1-0.5
	c-1.1-1.6,0.4-3,0.1-4.6c0.7,0,1.4,0,2.1,0c1.5,0.7,3.2,1,4.8,1.2c0.1,0.7,0.2,1.4,0.9,2c0-0.8,0.1-1.4,0.1-2
	c1.8,0.4,3.5-0.3,5.2-0.8c0.1,0.8-0.2,1.6-0.5,2.3c-0.3,1.1-0.8,2.2,0.1,3.1c1.1,1,2.5,1.5,4,1.2c1.3-0.3,2.1-1.1,1.8-2.7
	c-0.3-1.6-0.4-3.2,0.3-4.7c2.1,1,4.2,1.9,6.5,2.1c1.1,2.2,2.8,2.2,4.8,1.4c2.1-0.8,4.3-1.6,6.3,0.2c0.4,0.3,1.2,0.4,1.4,0
	c0.8-1.8,2.4-0.8,3.6-1.3c2.2,0,4.5,0.1,6.7,0.1c0.7,0.5,0.7,1.4,0.4,1.9c-1.3,2,0.3,2.2,1.6,2.4c0.6,0.1,1.1,0.1,1.7,0.1
	C58.4,201.8,58.2,202.8,57.4,203.7z"/>
<path fill="#3F3956" d="M141.7,202.8c-1.2,0.4-2.5,1.7-3.6,0.8c-1.2-1-0.1-2.5,0.2-3.7c0.5-2.6,0.2-5.1,0.2-7.6
	c0-1.3-1.1-1.7-2.1-1.8c-1.2-0.1-2.3,0-3.5,0c-0.1-0.5-0.1-1-0.2-1.5c-0.1-6.5,0.8-12.8,2.7-19.4c1.5,3.1,3.1,5.8,1.8,9
	c-0.6,1.4,0.3,2.1,1.3,2.5c1.2,0.5,2.1-0.1,2.5-1.3c0.5-1.3,1-2.7,1.6-4c1.1,0.4,1.3,1.3,1.7,2.1c0,0.4,0,0.7,0,1.1
	c0,0.6,0,1.2-0.1,1.8c0,1.1,0,2.2,1.1,2.6c1.1,0.4,2.3,0.3,3.4-0.3c0.9-0.5,1.1-1.2,0.1-1.9c-0.1-1-0.1-1.9-0.2-2.9
	c0.1-1.3,1-2.4,0.9-3.7c0.9-0.3,1.3-1.1,1.7-1.8c0.3-0.5,0.6-1,1-1.5c0,8.3,0,16.7,0,25c-0.6-0.2-1.1-0.3-1.7-0.5
	c-2.5-0.8-4.1,0-5,2.4c-0.4,1-1.2,1.4-2,1.8C142.2,200.5,141.4,201.3,141.7,202.8z M150.1,191.6c-1-1.2-2.5-0.3-3.7-0.8
	c-0.3-0.2-0.8-0.7-1-0.1c-0.2,0.6-0.6,1.4-0.2,2.1c0.3,0.6,0.9,0.4,1.3,0.2C147.7,192.5,148.9,192,150.1,191.6z"/>
<path fill="#2C3342" d="M152.2,171.2c-0.3,0.5-0.6,1-1,1.5c-2.5-0.3-5-0.2-7.7,0.4c1.4,1.5,2.4,3,0.8,4.8c-0.4-0.7-0.6-1.7-1.7-2.1
	c-0.5,1.4-1.1,2.7-1.6,4c-0.5,1.2-1.3,1.8-2.5,1.3c-1-0.4-1.9-1.1-1.3-2.5c1.3-3.2-0.2-5.8-1.8-9c-1.9,6.6-2.8,12.9-2.7,19.4
	c-1-0.2-1.9-0.4-2.9-0.6c-0.1-1.8-0.9-3.4-1.3-5.1c-0.3-1.1-0.6-1.2-1.4-0.7c-1.5,0.8-1.8,0-1.7-1.3c0-0.4,0-0.9,0-1.3
	c0.8-0.1,1.7-0.4,2.2,0.3c1.4,1.7,2.2,0.4,3.1-0.5c1-1.2,1-2.7,1.2-4.1c0.2-1.8,0.8-3.4,1.8-4.8c1.8-2.4,3.1-5.1,3.5-8.2
	c2,0.5,2.7,1.9,2.9,3.5c0.1,0.9,0.1,1.7,0.5,2.6c1.6,3.4,1.7,3.4,4.9,1.8c2.1-1.1,4.4-1.5,6.6-2
	C152.2,169.4,152.2,170.3,152.2,171.2z"/>
<path fill="#3F3956" d="M6.5,194c0.2,1.5-1.2,2.9-0.1,4.6c0.3,0.5-0.5,0.6-1,0.5c-2.1-0.3-4.1,0.2-5.9,1.5c0-6.7,0-13.5,0-20.2
	c1.8,1.7,2.2,3.8,2.2,6.2c-0.1,1.9,1,2.4,2.6,2.2c-0.1,0.3-0.1,0.6-0.3,0.8c-1.2,1-0.8,1.9,0.1,2.7c0.4,0.4,1,1.3,1.6,0.7
	c0.7-0.8,0.4-1.9,0.1-2.9c-0.2-0.6-0.5-1.1-1.1-1.3c0-0.6,0-1.2,0-1.7c0.3-0.4,0.6-0.8,0.9-1.2c1,1.2-0.2,2.8,0.8,3.9
	c0,0.4,0,0.9,0,1.3C6.5,192,6.5,193,6.5,194z"/>
<path fill="#131B2C" d="M141.7,202.8c-0.3-1.5,0.4-2.3,1.7-2.9c0.9-0.4,1.7-0.8,2-1.8c0.9-2.4,2.5-3.2,5-2.4
	c0.6,0.2,1.1,0.3,1.7,0.5c0,2.6,0,5.3,0,7.9C148.7,203.7,145.2,203.2,141.7,202.8z"/>
<path fill="#2C3342" d="M152.2,167.2c-2.5-1.6-3.6-4.7-2.4-7.4c0.4-1,1.5-0.9,2.4-1C152.2,161.7,152.2,164.4,152.2,167.2z"/>
<path fill="#3F3956" d="M102.6,192.3c-1.2,0.7-2.4,1.3-3.6,2.1c-2.4,1.5-3,1.4-4.1-1.1c-0.1-0.2-0.3-0.5-0.5-0.7
	c-1.6,0.8-1.3,3.6-3.7,3.3c-0.6-1.4-1.4-0.8-2.1-0.2c-2.8,2-2.9,2-4.7-1.1c-0.2-0.4-0.5-0.7-0.8-1c0-1.1,0-2.2-1.2-2.7
	c-0.5-0.2-1.1,0-1.4,0.4c-0.7,0.8-0.6,1.7,0.1,2.5c0.5,3.3,2.6,6.7,0,10c-1,0.1-2-0.2-3-0.4c-1.5-2.5-2.5-5.2-2.4-8.2
	c0-0.4,0-0.8,0-1.2c0.1-3.3,1.1-6.4,1-9.7c0-0.8,0.3-1.5,1-1.8c0.9-0.3,1.2,0.5,1.6,1.1c1.1,1.6,2.4,2.3,4.2,1
	c1.1,0.3,2.4,0.3,2.7-1c0.4-2,1.3-3.9,1-6c-0.1-0.9,0.1-1.5,1-1.5c0.9-0.1,2-0.5,2.4,0.8c0.1,0.3,0.1,0.7,0.1,1.1
	c0,0.8-0.2,1.7,0.7,2.1c0.8,0.3,1.6,0.1,2.3-0.4c0.9-0.6,0.7-1.6,0.4-2.4c-1.1-2.9-0.2-5.3,1.5-7.5c0.1-0.2,0.3-0.3,0.6-0.5
	c0,3.3,2.7,6,0.9,9.4c1.8,0,2.5-1.1,3.1-2.3c0.4-0.9,0.4-2,1.4-2.6c0.9,0.4,0.9,1.1,0.9,2c0,0.7-0.3,1.5,0.4,2
	c0.8,2.4,1.7,2.9,2.7,1.3c1.1-1.7,2.3-1.4,3.8-0.9c0,0.2,0.1,0.3,0.1,0.5c0.6,2.7,2,5,3.1,7.5c0.2,2.2,1.1,4.3,0.9,6.6
	c0,1.3-0.1,2.6-0.4,3.9c-0.9,3.6-2.8,4.2-5.7,1.7c-0.7-0.6-1.1-1.6-2.2-1.6c-0.7-0.6-0.3-1.5-0.5-2.2c0.9-0.1,2.2,0.5,2.5-0.9
	c0.2-0.9,0.5-2.2-0.6-2.8c-1.1-0.7-2,0.2-2.9,0.9C103.2,191.8,102.9,192,102.6,192.3z"/>
<path fill="#2C3342" d="M83.2,184.6c-1.8,1.2-3.1,0.5-4.2-1c-0.4-0.6-0.7-1.4-1.6-1.1c-0.7,0.3-1.1,1-1,1.8c0.1,3.3-0.9,6.5-1,9.7
	c-0.8-0.8-1.7,0.4-2.6,0c0.1-0.7,0.6-1.3,0.1-2c0.6-2.6,1.1-5.2,0.9-8c-0.1-0.9-0.3-1.9-1.3-2c-1.1,0-0.9,1.1-0.9,1.9
	c0.1,1.5-0.4,2.9-0.8,4.3c-0.2,0.8-0.5,1.6-1.5,1.5s-1.2-1-1.2-1.8c0-1.7,0-3.5,0-5.2c1,0,1.6-0.7,2.3-1.2c2.7-1.9,2.7-1.9-0.1-3.5
	c-0.6-0.4-1.4-0.6-1.4-1.5c0-0.8,0.8-1,1.3-1.3c0.5-0.2,0.9-0.4,1.4-0.7c0.7-0.3,1.5-0.7,1.1-1.6c-0.3-0.7-1,0-1.5,0.1
	c-2.5,0.5-3.6-0.4-3.1-2.9c0.5-2.4,0.4-4.8,0.7-7.2c0.4-3,1.5-5.6,3.6-7.8c0.6-0.6,1.1-1.2,0.8-2.1c-1-3.7-0.1-7.2,1.1-10.7
	c0.8-2.1,1.4-4.2,2.2-6.3c-0.2,3.3,1.5,6.1,2.5,9c0.8,2.4,1.1,4.7,0.1,7c-0.2,0.4-0.5,0.7,0.1,1.3c3.4,2.8,4.2,8.2,1.8,11.9
	c-0.4,0.7-0.9,1.3-1.5,2.2c3.2,0.8,5.7,2.8,8.9,3.5c-0.4,0.6-0.9,0.6-1.4,0.8c-2.1,0.9-2.5,1.7-1.7,3.9c0.3,0.8,0.6,1.5,0.6,2.3
	c0.2,2.5-0.8,3.5-3.4,3.2c-0.7-0.1-1.7-0.7-2,0.5c-0.2,0.9,0.2,1.5,1.1,1.9C82.3,183.8,82.7,184.2,83.2,184.6z"/>
<path fill="#2C3342" d="M102.6,177.8c-0.7-0.6-0.4-1.3-0.4-2c0-0.8,0-1.6-0.9-2c0.9-2.5,1.4-5.1,2.8-7.4c1,0.6,1.1,1.7,1.5,2.6
	c0.5,0.9,0.8,2,2.2,1.6c1.2-0.3,2.3-1,2.5-2.5c0.1-0.7,0-1.5-0.4-2.1c-0.8-1.4-2.5-2.8,0.8-3.2c1-0.1,1.2-1.8,1.5-2.8
	c0.4-1.3,1-2.2,2.6-2.1c0.7,0.1,1.3,0,0.9-0.9c-1-2.7-0.1-5.1,0.9-7.6c0.9-2.1,1.7-4.2,1.8-7.1c1.9,3.4,3.4,6.2,4.3,9.3
	c0.3,1.1,0.7,2.3,0.2,3.5c-0.6,1.6-0.5,2.3,1.5,2.5c2.2,0.2,2.4,0.8,1.4,2.9c-0.2,0.4-0.4,0.7,0.2,1c1.6,1.1,1.6,2,0.3,3.5
	c-0.7,0.8-2.3,1.1-1.9,2.3c0.2,0.6,1.8,0.8,2.7,1.1c1.1,0.4,2.1,1,3.3,0.9c0.8-0.1,1.4,0.2,1.7,1.1c0.3,0.9-0.3,1.5-0.9,2.1
	c-0.6,0.6-1.7,0.7-1.9,1.7c-2.9,0.5-5.9,0.4-8.8,0.1c-2.3-0.2-4.8-0.5-7,0.8c-1.4,0.1-2.6-0.2-3.6-1.5c-1-1.4-1.8-0.7-2.5,0.4
	c-0.7,1.1-0.1,1.9,0.5,2.7C106.2,177.1,104.4,177.4,102.6,177.8z"/>
<path fill="#3F3956" d="M68,182.5c0,1.8-0.1,3.5,0,5.2c0,0.8,0.2,1.7,1.2,1.8s1.3-0.7,1.5-1.5c0.4-1.4,0.8-2.8,0.8-4.3
	c0-0.7-0.3-1.9,0.9-1.9c1,0,1.2,1,1.3,2c0.2,2.7-0.3,5.3-0.9,8c-1,1.1-1.1,2.7-2.5,3.5c-1.5-0.2-2.2-1.3-2.8-2.5
	c-1.2-2.7-2.2-3.2-4.9-2.7c-3.9,0.8-7.5-1.7-8.2-5.8c0.7-0.4,1.4-0.9,1.3-1.8c-0.2-1.7,0.5-3.2,0.4-4.9c0-0.8,0.1-1.7,0.9-1.8
	c0.8-0.2,1,0.8,1.3,1.4c0.4,0.9,1,1.7,1.2,2.5c0.4,1.5,1.2,1.7,2.4,1.3c1.2-0.3,1.5-1.3,1.3-2.4c-0.6-4.6-0.6-4.6,1.7-9
	C66.9,173.9,66.5,178.4,68,182.5z"/>
<path fill="#3F3956" d="M125.4,180c0,0.4,0,0.9,0,1.3c-0.1,1.3,0.2,2.1,1.7,1.3c0.8-0.5,1.2-0.4,1.4,0.7c0.4,1.7,1.2,3.3,1.3,5.1
	c1.6,4.5,1.6,4.5-0.7,6c-0.9,0.4-1.3,1.3-1.8,2.1c-1-0.5-1.1-1.3-1.1-2.1c0.5-2.1,0.6-4.1,0-5.9c-1,0.9-2.2,1.7-3.1,2.7
	c-1,1-1.4,2.3,0.1,3.3c0.4,1.4,0.8,2.8,0.1,4.3c-0.5,1.1-0.9,2.5-2.5,2c-1.7-0.6-4.3,0.1-4.2-3c0.1-1.8,0-3.7,0-5.5
	c0.1-1.9,0.3-3.9,0.4-5.8c0.7-3.3,1.4-6.5,2.2-10.3c0.9,2.2,1.6,3.8,1.8,5.5c0.1,0.8,0.1,1.7,1.3,1.4c0.9-0.2,1.4-0.8,1.1-2
	c-0.2-0.7-0.6-1.6,0.6-1.9C124.8,179,125,179.7,125.4,180z"/>
<path fill="#131B2C" d="M124,179.1c-1.2,0.3-0.8,1.2-0.6,1.9c0.3,1.1-0.2,1.7-1.1,2c-1.2,0.3-1.2-0.6-1.3-1.4
	c-0.2-1.7-0.9-3.3-1.8-5.5c-0.8,3.8-1.5,7.1-2.2,10.3c-1.6-0.6-3.1-0.6-4.8-0.3c-1.1-2.5-2.5-4.8-3.1-7.5c0.9-0.2,1.8-0.4,2.7-0.7
	c1.3-0.5,2.3-1.2,1.6-2.8c2.2-1.3,4.7-1.1,7-0.8c3,0.3,5.9,0.4,8.8-0.1c1.1,2.8,0.6,3.4-2.2,3.6C126.1,177.9,124.2,176.6,124,179.1z
	"/>
<path fill="#3F3956" d="M39,179.1c2-3.2,3.9-6.6,4-10.5c1.4,0,1-1.4,1.4-2.1c0.5-0.8,0.9-1.6,1.4-2.6c0.7,1.4,0.6,3,1.7,4.1
	c0.6,1.4,1.2,2.8,1.8,4.2c1.7,3.5,2.7,7,1.5,10.9c-2.1,0.8-3.4,0.4-3.4-1.3c0-1.6-0.3-2.7-2.1-3c-0.3-0.1-0.5-0.5-0.7-0.8
	c-0.3-0.5-0.3-1.3-1-1.2s-1,0.8-1.2,1.4C41.4,180.4,41,180.5,39,179.1z"/>
<path fill="#2C3342" d="M50.8,183c1.2-3.9,0.2-7.4-1.5-10.9c-0.7-1.4-1.2-2.8-1.8-4.2c0.5-2.6,1.5-5,3.2-7.5
	c0.7,3.2,2.4,5.8,3.6,8.5c1.2,2.4,1.9,4.9,0.9,7.6c-0.4,1-0.1,1.4,0.9,1.2c0,1.6-0.6,3.2-0.4,4.9c0.1,0.9-0.6,1.4-1.3,1.8
	C53.1,184.1,51.9,183.6,50.8,183z"/>
<path fill="#131B2C" d="M126.3,194.3c0,0.8,0.1,1.5,1.1,2.1c0.4-0.8,0.8-1.7,1.8-2.1c0.8,0.1,1.6,0.1,2.5,0.2c-0.7,3.5-2.8,6-6,7.3
	c-4.6,1.8-9.4,2.5-14.3,1.4c-3.4-0.8-5.5-3.2-6.4-6.5c1.1,0,1.6,1,2.2,1.6c2.9,2.5,4.8,1.9,5.7-1.7c0.3-1.3,0.4-2.6,0.4-3.9
	c1.2,0.2,2.3-0.1,3.5-0.5c0,1.8,0.1,3.7,0,5.5c-0.1,3.1,2.5,2.5,4.2,3c1.7,0.6,2-0.8,2.5-2c0.6-1.5,0.3-2.9-0.1-4.3
	C124.2,194.4,125.2,194.4,126.3,194.3z"/>
<path fill="#131B2C" d="M83.1,193.5c0.3,0.3,0.6,0.6,0.8,1c1.7,3.1,1.9,3.1,4.7,1.1c0.7-0.5,1.6-1.1,2.1,0.2
	c-0.7,1.7,0.1,3.2,0.4,4.8c0,0.1-0.1,0.1-0.1,0.2c0-0.1,0.1-0.1,0.1-0.2c0.8,0,1.4,0.6,2.2,0.4c1.1,0.6,0.8,1.7,0.8,2.7
	c-4.5,0-9.1,0-13.6,0c2.6-3.3,0.5-6.7,0-10C81.5,193.6,82.3,193.5,83.1,193.5z"/>
<path fill="#131B2C" d="M75.3,195.1c-0.1,3,0.9,5.6,2.4,8.2c-2.9,0.3-5.7-0.6-8.5-1.1c-0.8-0.2-1.7-0.2-2.6-0.2c0-0.3,0-0.6,0-0.9
	c0.7-0.4,1.4-0.9,2.2-1c2.2-0.5,2.6-1.9,1.8-3.8C72.2,196.3,73.8,196,75.3,195.1z"/>
<path fill="#3F3956" d="M66.6,201c0,0.3,0,0.6,0,0.9c-2.8,1.9-5.9,2.7-9.3,1.8c0.8-0.9,1.1-1.9,1-3.1c2.2-1.4,2.5-3.4,1.9-5.7
	c-0.2-0.7-0.5-1.5,0.6-1.7c1-0.2,1.4,0.6,1.4,1.5c0,0.4,0,0.7-0.1,1.1C61.4,199.8,62.5,201,66.6,201z"/>
<path fill="#3F3956" d="M94.2,203.7c0-1,0.3-2-0.8-2.7c0.7-1.5,2.1-2.1,3.5-1.5c1.4,0.5,0.9,2.1,0.7,3.1
	C97.2,204.5,95.4,203.4,94.2,203.7z"/>
<path fill="#131B2C" d="M102.6,192.3c0.3-0.2,0.6-0.4,0.9-0.7c0.9-0.7,1.7-1.5,2.9-0.9c1.1,0.6,0.8,1.8,0.6,2.8
	c-0.3,1.4-1.6,0.8-2.5,0.9C104.4,193.2,102.6,193.5,102.6,192.3z"/>
<path fill="#3F3956" d="M133.7,201.8c-0.5,0.9-1.4,1-2.3,0.9c-0.8-0.1-1.2-0.6-1.1-1.3c0.1-1,0.9-0.9,1.5-0.6
	C132.4,201.1,133.5,200.7,133.7,201.8z"/>
<path fill="#251D3F" d="M66.6,201c-4.2,0-5.2-1.3-4.5-5.3c0.1-0.4,0.1-0.7,0.1-1.1c0-0.9-0.4-1.6-1.4-1.5c-1.1,0.2-0.8,1-0.6,1.7
	c0.6,2.3,0.3,4.3-1.9,5.7c-0.6,0-1.2,0-1.7-0.1c-1.3-0.3-2.8-0.4-1.6-2.4c0.4-0.6,0.4-1.4-0.4-1.9c-1.6-0.9-3.6,0.2-5.2-0.9
	c0.4-1,1.2-1.6,2.3-1.7c1.1-0.1,1.9-0.8,2-1.9c0.2-1.4-1.2-1-1.8-1.4c-0.4-0.2-0.8-0.3-1.2-0.4c-1.8-0.3-3.5-0.8-4.5,1.7
	c-0.5,1.3-2.3,2.2-3.8,1.9c-1.3-0.3-0.5-1.9-0.5-2.9c0-0.1,0-0.3,0-0.4c0-0.1,0-0.3,0-0.4c0.8,0,1.6,0.1,2.4-0.2
	c1.5-0.5,2.9-1.2,2.9-3.1c0-1.8-1.4-2.3-2.9-2.6c-1.9-0.5-3.9-0.1-5.8-0.3c0.1-1-0.2-1.8-0.7-2.6c-0.9-1.4-0.4-1.9,1.1-1.7
	c2.1,1.4,2.5,1.3,3.5-1c0.3-0.6,0.5-1.3,1.2-1.4c0.7-0.1,0.7,0.8,1,1.2c0.2,0.3,0.4,0.7,0.7,0.8c1.7,0.4,2,1.5,2.1,3
	c0.1,1.7,1.3,2.1,3.4,1.3c1.1,0.6,2.3,1.1,3.5,1.3c0.7,4.1,4.3,6.6,8.2,5.8c2.8-0.6,3.7,0,4.9,2.7c0.6,1.2,1.3,2.3,2.8,2.5
	c-0.1,0.4,0,0.6,0.3,0.9c0.8,1.9,0.4,3.2-1.8,3.8C68,200.2,67.3,200.7,66.6,201z"/>
<path fill="#3F3956" d="M38.5,183.5c1.9,0.2,3.9-0.2,5.8,0.3c1.5,0.4,2.9,0.8,2.9,2.6c0,1.9-1.4,2.6-2.9,3.1
	c-0.7,0.2-1.6,0.1-2.4,0.2c-1-0.5-2.2-0.7-3.1-1.5c-0.5-0.5-1-1.5-1.9-0.6c-1,0.9-0.8,1.9-0.2,3c0.5,1.1,1.3,1,2.2,0.5
	c1-0.5,1.9-1.1,3.1-0.9c0,0.1,0,0.3,0,0.4c0.1,1-0.8,2.6,0.5,2.9c1.4,0.3,3.2-0.6,3.8-1.9c1-2.4,2.7-2,4.5-1.7
	c0.4,0.1,0.9,0.2,1.2,0.4c0.7,0.4,2-0.1,1.8,1.4c-0.1,1.1-0.9,1.8-2,1.9c-1.1,0.1-1.9,0.7-2.3,1.7c-0.2,0-0.3,0.1-0.5,0.1
	c0-0.1-0.1-0.2-0.1-0.3c-0.2-0.1-0.4-0.2-0.5-0.4c-0.5-0.7-0.7-2.3-1.7-1.6c-0.7,0.4,0.1,1.8,0.8,2.5c0.1,0.1,0.2,0.1,0.4,0.2
	L48,196c-1.2,0.5-2.8-0.5-3.6,1.3c-0.2,0.4-1,0.3-1.4,0c-2.1-1.8-4.2-1.1-6.3-0.2c-2,0.7-3.7,0.8-4.8-1.4c-0.7-1.2-0.3-2.6-0.8-3.8
	c0.2-2.5,0.3-5.1,0.4-7.6c0-0.7,0.2-1.5-0.4-2.1c0-0.2,0-0.3,0.1-0.5c0.9-0.2,0.8-0.9,0.8-1.5c0-0.7,0-1.5,0-2.2
	c0-1.3,0.4-2.5,1.9-2.3s1.6,1.5,1.3,2.7c-0.4,1.5,0.2,2.9,0.6,4.2C36.2,184,37.1,184.8,38.5,183.5z"/>
<path fill="#3F3956" d="M14.4,195.2c0,0.6-0.1,1.3-0.1,2c-0.6-0.6-0.7-1.3-0.9-2c0-0.8-0.2-1.6-0.5-2.3c0-1.3,0.4-2.7-0.8-3.7
	c1.7-2.5,1.4-5.6,2.2-8.8c1.3,2.5,0.7,4.8,0.9,7c0.2,0.9-0.6,2.1,0.9,2.5c0.5,0.1,1.4,0.2,1.6-0.3c0.3-0.9-0.1-1.8-0.7-2.5
	c0-1.7,0.1-3.3,0-5c-0.1-1.8,0.9-2.9,2.3-3.2c1.5-0.3,1.7,1.3,2.2,2.2c1.2,2.8,2.6,5.5,3.3,8.5c0.2,1.3,0.4,2.6,0.6,3.9
	c-0.7,1.5-0.6,3.1-0.3,4.7c0.3,1.6-0.5,2.4-1.8,2.7c-1.5,0.4-3-0.1-4-1.2c-0.9-0.8-0.4-2-0.1-3.1c0.2-0.8,0.6-1.5,0.5-2.3
	c-0.2-0.8,0-1.9-1-2.1C17.5,191.9,14.8,193.9,14.4,195.2z"/>
<path fill="#131B2C" d="M12.2,189.3c1.2,1,0.8,2.4,0.8,3.7c-1.4-0.6-2.8-0.8-4.2-0.6c-0.8-0.5-1.5-0.9-2.3-1.4c0-0.4,0-0.9,0-1.3
	c1.1-0.8,2.3-0.5,3.5-0.2C10.7,189.6,11.5,189.9,12.2,189.3z"/>
<path fill="#131B2C" d="M4.3,188.7c-1.7,0.2-2.7-0.3-2.6-2.2c1.1-0.2,2,0.5,3,0.4c0,0.6,0,1.2,0,1.7C4.6,188.7,4.4,188.7,4.3,188.7z
	"/>
<path fill="#2C3342" d="M8.8,192.3c0,0.6-0.1,1.1-0.1,1.7c-0.7,0-1.4,0-2.1,0c0-1,0-2.1,0-3.1C7.2,191.4,8,191.9,8.8,192.3z"/>
<path fill="#2C3342" d="M144.3,178.9c1.6,0.6,2.3,3,4.5,2.2c1,0.7,0.8,1.3-0.1,1.9c-1.1,0.7-2.2,0.7-3.4,0.3s-1.2-1.6-1.1-2.6
	C144.3,180.1,144.3,179.5,144.3,178.9z"/>
<path fill="#2C3342" d="M148.7,178.2c-2.6-0.3-3.2-1-2.5-3.1c0.7-2.2,2.3-0.2,3.4-0.6C149.7,175.9,148.8,176.9,148.7,178.2z"/>
<path fill="#2C3342" d="M4.3,188.7c0.1,0,0.3,0,0.4,0c0.6,0.2,0.9,0.7,1.1,1.3c0.3,1,0.6,2.1-0.1,2.9c-0.6,0.6-1.2-0.2-1.6-0.7
	c-0.9-0.9-1.3-1.8-0.1-2.7C4.2,189.3,4.2,189,4.3,188.7z"/>
<path fill="#131B2C" d="M108,176.8c0.7,0.2,1.9,0.1,1,1.4c-1.4-0.5-2.7-0.8-3.8,0.9c-1,1.6-1.9,1.1-2.7-1.3
	C104.4,177.4,106.2,177.1,108,176.8z"/>
<path fill="#251D3F" d="M91.2,200.6c0,0.1-0.1,0.1-0.1,0.2C91.1,200.7,91.2,200.7,91.2,200.6L91.2,200.6z"/>
<path fill="#2C3342" d="M42,190.1c-1.2-0.2-2.1,0.4-3.1,0.9c-0.9,0.5-1.7,0.6-2.2-0.5s-0.8-2.1,0.2-3s1.4,0.1,1.9,0.6
	c0.9,0.9,2.1,1,3.1,1.5C42,189.8,42,189.9,42,190.1z"/>
<path fill="#251D3F" d="M49,195.1c-0.1,0.6-0.7,0.5-1.1,0.8c-0.1-0.1-0.3-0.1-0.4-0.2c-0.7-0.7-1.5-2.1-0.8-2.5
	c1.1-0.7,1.2,0.9,1.7,1.6C48.6,194.9,48.8,194.9,49,195.1z"/>
</svg>
