<?xml version="1.0" encoding="utf-8"?>
<!-- Generator: Adobe Illustrator 24.1.2, SVG Export Plug-In . SVG Version: 6.00 Build 0)  -->
<svg version="1.1" baseProfile="tiny" xmlns="http://www.w3.org/2000/svg" xmlns:xlink="http://www.w3.org/1999/xlink" x="0px"
	 y="0px" viewBox="0 0 151.5 300" overflow="visible" xml:space="preserve">
<path fill="#121333" d="M0,218.8c5.6-0.9,11.2-1.9,16.8-2.6c6.6-0.9,13.2-1.3,19.7-2.3c4.7-0.7,9.4-1.7,14-2.7
	c0.9-0.2,1.7-0.3,2.6-0.3c11.4,0.1,22.8-0.3,34.2,0.4c9.3,0.6,18.4,1.8,27.6,3.7c12,2.5,23.9,5.3,35.6,9.1c1.5,0.5,2,1.2,2,2.8
	c-0.1,7.1-0.1,14.2-0.1,21.4c-2.4,0.3-4.7-0.6-7.1-0.5c-1.7,0.1-3.3-0.4-4.6-1.6c-0.8-0.8-1.8-0.8-2.6-0.5c-2.7,0.9-4.9-0.3-7.2-1.4
	c-1.3-0.7-2.5-1.7-4.1-1.8c-0.4-0.6-1-0.6-1.5-0.7c-2.6-0.8-4.5-2-4.1-5.2c0.1-1.1-0.7-1.5-1.5-1.9c-4.6-2.2-11.8-1.1-15.5,3.9
	c-1.2,0.6-2.4,1.1-2.6,2.6c-1.9,0.4-2.8,2-4,3.5c-1.2,1.6-2.6,3.6-4.9,3.4c-2.5-0.2-4.8,0.9-5.8,3.2c-0.8,1.9-1.7,2.2-3.4,1.3
	c-2.3-1.3-4.6-1.4-6.7,0.4c-1.8,1.6-3.6,3.4-5.3,5c-3.1,2.9-6.8,3.5-10.4,1.3c-2.3-1.4-4.7-1.8-7.2-1.8c-0.7-2.2-2.7-3.4-4.1-5
	c-2.6-2.9-5.7-5.4-10.1-5.2c-3.2,0.1-6.1,1.2-8.9,2.5c-1.6,0.8-3,0.8-4.5-0.1c-1.6-0.8-2.9-1.9-4.2-3c-2.8-2.6-4.3-2.6-7,0
	c-0.6,0.6-1.1,1.2-2,1.1c-2.9-0.3-5.1,1.4-7.2,3.1c-0.6,0.1-1.2,0.3-1.7,0.4c-1.3-0.7-2.6-1.5-3.9-2.2C0,239.1,0,229,0,218.8z"/>
<path fill="#181741" d="M152.3,277.9c0,7.6,0,15.3,0.1,22.9c-1,0-2,0-3.1,0c-1.9-3-3.1-6.2-4.2-9.6c-0.1-0.2-0.4-0.4-0.6-0.5
	c-0.4-1-0.7-2.1-1.1-3.1c-1.1-2.8-2.9-3.1-4.9-0.8c-1.4,1.7-2.8,3.5-4.1,5.3c-2.1,2.9-4.7,2.7-6.1-0.6c-0.9-1.9-2.2-3.4-3.3-5
	c-1-1.3-2.3-2.3-4.1-2.1c-1.1,0.1-1.9-0.3-2.5-1.3c-1.2-2-2.6-3.8-3.9-5.8c0.5-2.7,2.5-3.9,4.8-4.4c4.4-1,8.9-1.2,13-3.1
	c1.6-0.8,3.2-1.3,4.8-2c0.8-0.3,1.2-0.1,1.3,0.8c0.3,4,2.8,6.5,5.9,8.7c1.2,0.8,2.2,1.1,3.4,0.5c1.1-0.6,2.2-0.6,3.4-0.6
	C151.5,277.6,151.9,277.8,152.3,277.9z"/>
<path fill="#2C2060" d="M114.4,277.5c1.3,1.9,2.7,3.8,3.9,5.8c0.6,1,1.4,1.4,2.5,1.3c1.8-0.2,3.1,0.8,4.1,2.1c1.2,1.6,2.5,3.1,3.3,5
	c1.5,3.3,4,3.4,6.1,0.6c1.3-1.8,2.7-3.6,4.1-5.3c2-2.4,3.8-2.1,4.9,0.8c0.4,1,0.7,2,1.1,3.1c-1,0.8-2.1,1.5-3,2.5
	c-2.1,2.4-4.6,4.5-5.8,7.7c-11.5,0-23,0-34.5,0c0.3-2.6,2.2-4.8,1.7-7.5c1.2-2.7,2.4-5.5,2-8.5c-0.2-1.5,0.2-2.1,1.3-2.4
	c1-0.3,2.4-0.9,2.4-1.6c0-2.3,1.7-3.9,2.1-6.1C112.1,275.7,113.3,276.6,114.4,277.5z"/>
<path fill="#27234D" d="M0,273.9c0-5.6,0-11.2,0-16.8c3.3-2.6,4.5-2.4,6.8,1.3c0.2,0.3,0.4,0.6,0.6,0.9c3,3.9,5.4,6.1,11.1,4.2
	c1.2-0.4,2.3-0.7,3.5-1c0.5-0.1,1.3-0.3,1.6,0.2c0.5,0.6-0.3,1-0.7,1.4c-1.5,1.5-1.6,3.2-0.5,5c0.5,0.9,1.1,1.7,1.6,2.6
	c0.8,1.5,1.5,2.9,0.9,4.8c-0.3,0.9-1.5,1.9-0.6,2.8c0.9,1,2.2,0.3,3.3,0c0.2-0.1,0.4,0,0.6,0c0,0.4,0,0.9,0,1.3
	c-1,0.6-1.7,1.3-2.2,2.3c-1,1.9-2.2,3.5-3.9,4.8c-0.8,0-1.3,0.5-1.7,1.2c-1,2-2.3,1.6-3.6,0.3c-1.3-1.2-2.6-2.5-3.9-3.7
	c-1.3-1.9-2.9-3.4-5.2-4c-0.4-0.1-0.8-0.3-1-0.7C5.2,277.9,2.4,276.1,0,273.9z"/>
<path fill="#241E4B" d="M28.4,279.2c-0.2,0-0.4,0-0.6,0c-1.1,0.3-2.4,0.9-3.3,0c-0.9-0.9,0.3-1.9,0.6-2.8c0.6-1.8-0.1-3.3-0.9-4.8
	c-0.5-0.9-1.1-1.7-1.6-2.6c-1.1-1.8-1-3.5,0.5-5c0.4-0.4,1.1-0.8,0.7-1.4c-0.3-0.5-1.1-0.3-1.6-0.2c-1.2,0.3-2.4,0.6-3.5,1
	c-5.7,1.9-8.1-0.3-11.1-4.2c-0.2-0.3-0.4-0.6-0.6-0.9c-2.3-3.7-3.4-3.9-6.8-1.3c0-0.9,0-1.8,0-2.6c1.5-0.8,2.9-1.7,3.9-3.1
	c0.6-0.1,1.2-0.3,1.7-0.4c1,0.7,1.8-0.1,2.6-0.4c1.3-0.6,2.6-0.6,3.8-0.2c1.5,0.4,3,0.9,4.6,1.2c1.4,0.3,2,1.1,1.2,2.6
	c-0.4,0.7-0.7,1.5-0.1,2.3c1.6,2.1,7.1,3.2,9.5,1.8c2.4-1.5,5-2.6,7.5-3.9c1.1-0.6,2.1-0.6,2.8,0.3c1.2,1.7,2.9,1.6,4.5,1.8
	c3.6,0.5,3.6,0.4,4.5,4c0.3,1.1,0,2.1-0.8,2.5c-3.4,1.7-6.2,4.6-10.2,5.2c-1.8,0.3-3.1,1.7-3.1,3.7c0,1.7-0.3,3.3-0.9,4.9
	C30.1,277,29.3,278.2,28.4,279.2z"/>
<path fill="#4E3C82" d="M22.3,287.6c1.7-1.3,2.9-2.9,3.9-4.8c0.5-1,1.2-1.7,2.2-2.3c1,3.1,2.1,3.4,4.3,1.2c0.5-0.5,0.9-1.1,1.4-1.7
	c1.4,0.7,2.5,1.7,3.4,3c1.5,2.1,2.6,2,3.8-0.3c0.5-0.8,0.6-2,1.9-2.2c2.9,1.9,4.2,1.8,6.2-1c1.2-1.6,2.5-0.4,3.8-0.3
	c0.9,0.1,1.9,0.5,1.9,1.8c0,1.5-0.8,2.2-2.2,2.6c-4.5-1.6-5.7-0.9-5.7,3.1c-0.2,1.7,0.4,3,1.6,4.1c0.6,0.6,1.4,1.1,1.4,2.1
	c-0.3-0.1-0.7-0.2-1-0.3c-2-0.7-3.9-2-6.1-1.9c-2.3,0.1-3,1.6-2.2,3.6c1.3,3.3,4.5,4.1,7.2,5.6c-0.1,0.3-0.3,0.6-0.4,0.9
	c-1.2,0-2.3,0-3.5,0c-0.1-1.2-0.9-1.3-1.9-1.3c-0.9,0-1.6,0.3-1.6,1.3c-3.2,0-6.4,0-9.6,0c-0.1-1.2,0.3-2.4-0.4-3.4
	C28.2,293.9,26.5,289.6,22.3,287.6z"/>
<path fill="#534787" d="M22.3,287.6c4.2,2,5.9,6.2,8.3,9.8c0.7,1,0.3,2.3,0.4,3.4c-9.7,0-19.5,0-29.2,0c1-2.6,3.3-3,5.5-3.5
	c2.7-0.6,4.5-2.3,4.9-5c0.4-2.3,0.6-4.6,0.9-6.9c1.3,1.2,2.6,2.5,3.9,3.7c1.3,1.2,2.5,1.7,3.6-0.3C21,288.2,21.5,287.6,22.3,287.6z"
	/>
<path fill="#3D236D" d="M103.1,293.3c0.4,2.7-1.4,4.9-1.7,7.5c-9,0-18,0-27.1,0c0-0.8,0.1-1.7-0.7-2.2c-1.6-1-1-1.8,0-2.7
	c0.5-0.5,1.2-0.9,1.6-1.4c1.4-1.5,3.5-2.4,3.8-4.8c2.4-0.4,4.7-1.1,7.1-1.3c3.8-0.3,3.8-0.2,4.8,3.5c0.1,0.6,0.4,1.1,0.5,1.7
	c1,2.9,3.4,3.9,6.3,2.8c1.2-0.5,1.9-1.7,3.1-1.9C101.6,294.2,102.3,293.8,103.1,293.3z"/>
<path fill="#5F5A87" d="M13.1,285.4c-0.3,2.3-0.5,4.6-0.9,6.9c-0.4,2.8-2.2,4.4-4.9,5c-2.2,0.5-4.6,0.9-5.5,3.5
	c-1.5,0.3-1.8-0.3-1.8-1.8c0.1-8.4,0-16.8,0-25.1c2.4,2.2,5.2,3.9,6.9,6.8c0.2,0.4,0.6,0.6,1,0.7C10.2,282,11.9,283.5,13.1,285.4z"
	/>
<path fill="#422E74" d="M79.1,289.8c-0.3,2.4-2.4,3.3-3.8,4.8c-0.5,0.5-1.1,0.9-1.6,1.4c-1,0.9-1.6,1.7,0,2.7
	c0.8,0.5,0.7,1.4,0.7,2.2c-8.9,0-17.8,0-26.6,0c0.1-0.3,0.3-0.6,0.4-0.9c1.3,0.1,2.2-0.7,3-1.5c3.7-3.5,6.4-3.7,10.3-0.6
	c1.5,1.2,2.9,1.3,4.5,0.2c2-1.3,3.7-3.1,6.4-3c0.2,0,0.5-0.2,0.5-0.4C73.3,290.9,76.5,290.9,79.1,289.8z"/>
<path fill="#21224C" d="M135.8,300.8c1.1-3.2,3.6-5.3,5.8-7.7c0.8-1,2-1.6,3-2.5c0.2,0.2,0.6,0.3,0.6,0.5c1.1,3.3,2.2,6.6,4.2,9.6
	C144.8,300.8,140.3,300.8,135.8,300.8z"/>
<path fill="#1F1947" d="M4,251.5c-1,1.4-2.4,2.3-3.9,3.1c0-1.8,0-3.5,0-5.3C1.4,250,2.7,250.7,4,251.5z"/>
<path fill="#534787" d="M40.6,300.8c0.1-1,0.7-1.3,1.6-1.3c1,0,1.8,0.1,1.9,1.3C43,300.8,41.8,300.8,40.6,300.8z"/>
<path fill="#1C1E48" d="M114.4,277.5c-1.2-0.9-2.3-1.8-3.5-2.6c-0.3-1.6-1.4-2.7-2.6-3.5c-0.1-0.7-0.3-1.5-0.4-2.2
	c0.2-2.2-0.6-4.1-1.6-6c-1.6-3.1-3.1-6.5,0.2-9.6c0.8-0.8,0.6-1.8,0.1-2.7c-1.2-2.1-2-4.4-3.5-6.3c-0.7-1-1.8-1.8-1.8-3.2
	c0.2-1.5,1.5-2,2.6-2.6c1,1.7,2.6,1.9,4.3,2.2c2,0.4,4.1,0.6,6.1,1.3c4,1.4,8.2,1.3,12.3,0.5c1.6,0,2.8,1.1,4.1,1.8
	c2.2,1.2,4.5,2.4,7.2,1.4c0.9-0.3,1.8-0.2,2.6,0.5c1.3,1.2,2.9,1.7,4.6,1.6c2.4-0.2,4.7,0.8,7.1,0.5c0,1.9,0,3.8,0,5.7
	c-5.3-0.7-10.5-0.7-15.7,0.8c-0.9,0.3-2,0-2.6-0.8c-1.8-2.2-3-1.3-4.6,0.3c-3,3-6.6,3.5-9.4,1.4c-1-0.8-2-1.5-3.1-0.6
	c-1.3,1.1-3,2.1-2.5,4.3c0.8,3.2,1.7,6.4,2.5,9.5c0.4,1.4,1.3,2.1,2.9,2.2c3.2,0.2,6.2-0.6,8.8-2.6c1.3-1,2.7-2,4.1-2.9
	c2.4-1.5,5.2-1.7,7.3,0.5c3.6,3.8,6.9,7.8,11,11.1c-1.2,0-2.3,0-3.4,0.6c-1.2,0.6-2.2,0.3-3.4-0.5c-3-2.2-5.5-4.7-5.9-8.7
	c-0.1-0.9-0.5-1.1-1.3-0.8c-1.6,0.6-3.3,1.2-4.8,2c-4.1,2-8.7,2.2-13,3.1C116.9,273.6,114.9,274.8,114.4,277.5z"/>
<path fill="#21224C" d="M151.1,277.5c-4.1-3.3-7.5-7.3-11-11.1c-2.1-2.3-4.9-2-7.3-0.5c-1.4,0.9-2.8,1.9-4.1,2.9
	c-2.6,2-5.5,2.7-8.8,2.6c-1.5-0.1-2.5-0.8-2.9-2.2c-0.9-3.2-1.7-6.3-2.5-9.5c-0.5-2.2,1.2-3.1,2.5-4.3c1.1-0.9,2.1-0.2,3.1,0.6
	c2.8,2.1,6.4,1.6,9.4-1.4c1.6-1.6,2.8-2.5,4.6-0.3c0.6,0.8,1.7,1,2.6,0.8c5.2-1.5,10.4-1.5,15.7-0.8c0,7.9,0,15.9,0,23.8
	C151.9,277.8,151.5,277.6,151.1,277.5z"/>
<path fill="#1F1947" d="M107.9,269.1c0.1,0.7,0.3,1.5,0.4,2.2c-2.2,0.9-3.5,3-5.1,4.5c-3.7,3.6-5.2,3.7-9.3,0.7c0-0.1,0-0.3-0.1-0.4
	c-0.5-1-1.5-1.3-2.3-1.9c-1.7-1.1-3.2-2.3-4.3-3.9c-2.1-3.1-5.2-5-8.3-6.9c-1.5-0.9-2.8-0.5-3.9,0.7c-1.5,1.6-2.8,3.3-4.3,4.9
	c-0.3,0-0.6,0-0.9,0c-2-0.5-4-1.1-6.1-1.5c-2.4-0.4-4.8-0.9-7.1,0.6c-1.3,0.1-2.5,0.4-3.5,1.3c-1.4-0.1-2.7,0.5-3.9,1.1
	c-2.1,1.1-4.1,2.2-6.1,3.3c-0.5,0.2-1.1,0.7-1.2-0.4c0-0.6,0.8-1.3-0.2-1.7c-0.8-0.3-1.2,0.6-1.7,1.1c-0.7,0.7-1.4,1.5-2.1,2.3
	c-1.2,1.4-2.5,2.4-4.5,2.3c-0.7-0.3-1.4-0.7-2.1-1c0.6-1.6,0.9-3.2,0.9-4.9c0-2,1.3-3.5,3.1-3.7c4-0.6,6.8-3.5,10.2-5.2
	c0.8-0.4,1.1-1.4,0.8-2.5c-0.9-3.5-0.9-3.4-4.5-4c-1.6-0.2-3.3-0.1-4.5-1.8c-0.6-0.9-1.7-0.9-2.8-0.3c-2.5,1.3-5.1,2.4-7.5,3.9
	c-2.3,1.4-7.9,0.4-9.5-1.8c-0.6-0.8-0.2-1.5,0.1-2.3c0.8-1.4,0.2-2.3-1.2-2.6c-1.6-0.3-3.1-0.8-4.6-1.2c-1.3-0.4-2.6-0.3-3.8,0.2
	c-0.8,0.3-1.6,1.2-2.6,0.4c2.1-1.7,4.2-3.3,7.2-3.1c0.9,0.1,1.4-0.6,2-1.1c2.7-2.6,4.2-2.6,7,0c1.3,1.2,2.7,2.2,4.2,3
	c1.5,0.8,2.9,0.8,4.5,0.1c2.8-1.3,5.7-2.4,8.9-2.5c4.4-0.1,7.4,2.3,10.1,5.2c1.4,1.6,3.4,2.7,4.1,5c0.3,2.1,1.3,3.8,3.5,3.9
	c3.8,0.3,7.6,0.8,11.4,1.4c1.4,0.2,2.5-0.3,3.4-1.5c1.9-2.7,3.8-3.2,6.8-2c2.9,1.1,5.5,2.9,8.9,2.7c1-0.1,1.7,0.7,2.2,1.6
	c1.7,3.2,4.4,3.7,7.6,2.9c0.8-0.2,1.5-0.3,2.1,0.2C101.9,268.9,105,268.6,107.9,269.1z"/>
<path fill="#191943" d="M107.9,269.1c-2.9-0.5-6-0.2-8.5-2.3c-0.6-0.5-1.3-0.3-2.1-0.2c-3.2,0.7-5.9,0.3-7.6-2.9
	c-0.5-0.9-1.2-1.7-2.2-1.6c-3.3,0.2-6-1.6-8.9-2.7c-3-1.2-4.9-0.7-6.8,2c-0.9,1.2-1.9,1.7-3.4,1.5c-3.8-0.6-7.6-1.1-11.4-1.4
	c-2.2-0.1-3.1-1.9-3.5-3.9c2.6,0,4.9,0.4,7.2,1.8c3.6,2.2,7.2,1.6,10.4-1.3c1.8-1.7,3.5-3.4,5.3-5c2.1-1.8,4.4-1.6,6.7-0.4
	c1.7,0.9,2.6,0.6,3.4-1.3c1-2.3,3.3-3.4,5.8-3.2c2.3,0.1,3.7-1.8,4.9-3.4c1.1-1.5,2-3,4-3.5c0.1,1.4,1.1,2.2,1.8,3.2
	c1.5,1.9,2.3,4.2,3.5,6.3c0.5,0.9,0.7,1.9-0.1,2.7c-3.3,3.1-1.8,6.5-0.2,9.6C107.3,265,108,266.9,107.9,269.1z"/>
<path fill="#191943" d="M126.6,242.6c-4.1,0.8-8.3,0.9-12.3-0.5c-2-0.7-4.1-0.9-6.1-1.3c-1.6-0.3-3.3-0.5-4.3-2.2
	c3.6-5,10.9-6.1,15.5-3.9c0.8,0.4,1.7,0.8,1.5,1.9c-0.4,3.2,1.5,4.5,4.1,5.2C125.6,242.1,126.3,242.1,126.6,242.6z"/>
<path fill="#422E74" d="M93.9,276.6c4.1,3,5.6,2.8,9.3-0.7c1.6-1.6,2.9-3.6,5.1-4.5c1.3,0.9,2.3,1.9,2.6,3.5
	c-0.4,2.1-2.1,3.7-2.1,6.1c0,0.7-1.4,1.3-2.4,1.6c-1.2,0.4-1.5,1-1.3,2.4c0.4,3-0.8,5.8-2,8.5c-0.7,0.4-1.5,0.9-2.2,1.3
	c0.2-3.2-1.2-6.3-0.9-9.5c0.2-2.7-1.7-4-4.4-3.4c-0.9,0.2-1.8,0.5-2.3-0.4c-0.5-1.1-1.2-2.3-0.3-3.5C93.3,277.3,93.6,277,93.9,276.6
	z"/>
<path fill="#4A327B" d="M31.5,276.5c0.7,0.3,1.4,0.7,2.1,1c0.2,0.9,0.3,1.7,0.5,2.6c-0.5,0.6-0.9,1.1-1.4,1.7
	c-2.2,2.2-3.3,1.9-4.3-1.2c0-0.4,0-0.9,0-1.3C29.3,278.2,30.1,277,31.5,276.5z"/>
<path fill="#4A327B" d="M93.9,276.6c-0.3,0.4-0.6,0.8-0.9,1.2c-0.9,1.2-0.3,2.4,0.3,3.5c0.5,1,1.5,0.6,2.3,0.4
	c2.7-0.6,4.6,0.8,4.4,3.4c-0.3,3.3,1.1,6.3,0.9,9.5c-1.3,0.2-2,1.4-3.1,1.9c-2.9,1.1-5.3,0.1-6.3-2.8c-0.2-0.6-0.4-1.1-0.5-1.7
	c-1-3.7-1-3.8-4.8-3.5c-2.4,0.2-4.7,0.8-7.1,1.3c-2.5,1-5.8,1.1-6.3,4.8c0,0.1-0.3,0.4-0.5,0.4c-2.6-0.1-4.4,1.8-6.4,3
	c-1.6,1-3,1-4.5-0.2c-3.9-3.1-6.7-2.9-10.3,0.6c-0.9,0.8-1.7,1.6-3,1.5c-2.7-1.5-5.8-2.3-7.2-5.6c-0.8-2.1-0.1-3.5,2.2-3.6
	c2.3-0.1,4.1,1.2,6.1,1.9c0.3,0.1,0.7,0.2,1,0.3c0.6,0.4,1.4,0.5,2.1,0.4c3.4-0.3,6.8-0.5,10.2-0.5c2.1,0,4.3-0.5,6.4-0.8
	c1.7-0.3,3.4-0.7,3.1-3.1l0,0c4.1,0,5.4-1.1,5.7-4.8c0.3-0.2,0.4-0.5,0.4-0.9c0.4,0,0.9,0,1.3,0c1.5,0.1,2.9-0.3,4.1-1
	c0.6-0.4,1.4-1.1,0.9-1.7c-1.9-2.5-0.3-5.2-0.7-7.8c0.8-0.1,1.3,0.4,2,0.7c2.6,1.3,4.9,3.1,8,2.8C93.9,276.3,93.9,276.4,93.9,276.6z
	"/>
<path fill="#534787" d="M72.1,288.9c0.3,2.4-1.4,2.8-3.1,3.1c-2.1,0.3-4.3,0.8-6.4,0.8c-3.4,0.1-6.8,0.2-10.2,0.5
	c-0.7,0.1-1.4-0.1-2.1-0.4c0-1-0.8-1.5-1.4-2.1c-1.2-1.1-1.8-2.4-1.6-4.1c0.8,0.1,1.8-0.3,2.5,0.3c1.7,1.2,2.1-0.2,2.6-1.3
	c0.3-0.6,0.3-1.4,0.5-2.1c1.3-0.3,2.2-1.1,2.2-2.6c0-1.2-0.9-1.6-1.9-1.8c-1.2-0.2-2.6-1.3-3.8,0.3c-2,2.7-3.3,2.9-6.2,1
	c0.7-2.9,2.8-4.5,5.3-5.8c0.3,0.4,0.7,0.5,1.1,0.5c3,0.5,6.2,0.5,8.3,3.5c0.5,0.7,0.9,0.2,1.1-0.5c0.5-1.3,1.1-2.6,2.6-3
	c0.7,0.7,1.5,1.5,2.2,2.2c-2.3,1.8-3.8,4.4-6,6.3c-0.4,0.3-0.5,0.9-0.7,1.4c-0.4,0.7-0.2,1.4,0.6,1.1c3.1-1.1,5.9-0.7,8.5,1.3
	c0.1,0.1,0.4,0,0.6,0c3.4,0.6,5.1-1.8,6.9-4c1.3,0.1,2.6,0.7,3.9,0.4C77.5,287.8,76.2,288.9,72.1,288.9c-0.1,0-0.1-0.1-0.2-0.1
	C72,288.9,72,288.9,72.1,288.9z"/>
<path fill="#241E4B" d="M48.5,274.8c-2.4,1.3-4.6,2.9-5.3,5.8c-1.3,0.2-1.4,1.3-1.9,2.2c-1.3,2.3-2.4,2.4-3.8,0.3
	c-0.9-1.3-2-2.3-3.4-3c-0.2-0.9-0.3-1.7-0.5-2.6c1.9,0.1,3.3-0.9,4.5-2.3c0.7-0.8,1.3-1.5,2.1-2.3c0.5-0.5,0.9-1.4,1.7-1.1
	c1,0.4,0.1,1.1,0.2,1.7c0.1,1.1,0.7,0.6,1.2,0.4c2.1-1.1,4.1-2.2,6.1-3.3c1.2-0.6,2.5-1.2,3.9-1.1c0,0.3,0,0.6,0,0.9
	C51.6,271.7,49.8,273,48.5,274.8z"/>
<path fill="#5F5A87" d="M52.9,283.6c-0.2,0.7-0.2,1.5-0.5,2.1c-0.5,1-1,2.4-2.6,1.3c-0.7-0.5-1.7-0.2-2.5-0.3
	C47.2,282.7,48.4,282.1,52.9,283.6z"/>
<path fill="#422E74" d="M93.9,276.2c-3.1,0.3-5.5-1.5-8-2.8c-0.6-0.3-1.2-0.8-2-0.7c-1.4-4.8-1.9-5-6.2-2.8c-0.5,0.3-1,0.5-1.6,0.8
	c-2.1,0.8-3.8,0.4-5.4-1.4c1.4-1.6,2.8-3.3,4.3-4.9c1.1-1.2,2.4-1.6,3.9-0.7c3.1,1.9,6.2,3.8,8.3,6.9c1.1,1.6,2.6,2.9,4.3,3.9
	C92.4,274.8,93.4,275.2,93.9,276.2z"/>
<path fill="#27234D" d="M63.8,277.4c-0.7-0.7-1.5-1.5-2.2-2.2c-1.3-1.9-2.7-3.7-4.4-5.3c-0.2-0.6-0.3-1.1-0.5-1.7
	c2.2-1.5,4.7-1,7.1-0.6c2,0.4,4,1,6.1,1.5c-0.4,1-0.9,2.1-1.3,3.1c-0.4,0.7-0.9,1.5-1.3,2.2c-0.5,0.3-0.8,0.8-0.9,1.4
	C66.1,277.3,65.2,277.7,63.8,277.4z"/>
<path fill="#4E3C82" d="M68.6,272.2c0.4-1,0.9-2.1,1.3-3.1c0.3,0,0.6,0,0.9,0c1.5,1.8,3.3,2.3,5.4,1.4c0.5-0.2,1-0.5,1.6-0.8
	c4.3-2.2,4.8-1.9,6.2,2.8c0.4,2.6-1.2,5.3,0.7,7.8c0.5,0.7-0.3,1.4-0.9,1.7c-1.3,0.7-2.7,1.2-4.1,1c-0.3-3,1.7-5.5,1.3-8.7
	c-0.2-1.5-0.5-1.9-1.5-2.3c-0.9-0.4-1.8-0.5-2.8-0.5C73.9,271.8,71.3,272.4,68.6,272.2z"/>
<path fill="#4A327B" d="M56.8,268.2c0.2,0.6,0.3,1.1,0.5,1.7c-1.3,0.8-2.7,0.4-4,0.4c0-0.3,0-0.6,0-0.9
	C54.3,268.6,55.5,268.3,56.8,268.2z"/>
<path fill="#534787" d="M68.6,272.2c2.7,0.3,5.3-0.4,8-0.5c1,0,1.9,0.1,2.8,0.5c1,0.4,1.3,0.8,1.5,2.3c0.4,3.2-1.6,5.7-1.3,8.7
	c-0.4,0-0.9,0-1.3,0c-1.1-0.1-1.6-0.9-2.2-1.8c0-0.6,0.4-0.9,0.6-1.4c1.7-2.9,0.8-4.6-2.4-5.3c-2.3-0.5-4.6-0.3-6.9-0.4
	C67.7,273.7,68.2,272.9,68.6,272.2z"/>
<path fill="#4E3C82" d="M76,281.4c0.5,0.8,1.1,1.7,2.2,1.8c0,0.4-0.1,0.7-0.4,0.9c-1.4,0.2-2.6-0.3-3.9-0.4
	C74.1,282.4,74.8,281.7,76,281.4z"/>
<path fill="#5F5A87" d="M76,281.4c-1.2,0.2-2,1-2.2,2.2c-1.8,2.2-3.5,4.6-6.9,4c-0.2,0-0.5,0.1-0.6,0c-2.6-2-5.4-2.4-8.5-1.3
	c-0.8,0.3-1-0.4-0.6-1.1c0.2-0.5,0.4-1,0.7-1.4c2.1-2,3.7-4.5,6-6.3c1.4,0.3,2.3-0.1,2.6-1.6c0.1-0.6,0.4-1.1,0.9-1.4
	c2.3,0.1,4.6-0.2,6.9,0.4c3.2,0.8,4.1,2.4,2.4,5.3C76.4,280.5,76,280.9,76,281.4z"/>
<path fill="#4E3C82" d="M53.3,270.4c1.3-0.1,2.7,0.3,4-0.4c1.6,1.6,3,3.4,4.4,5.3c-1.5,0.5-2.1,1.7-2.6,3c-0.2,0.7-0.6,1.2-1.1,0.5
	c-2.1-2.9-5.3-2.9-8.3-3.5c-0.4-0.1-0.9-0.1-1.1-0.5C49.8,273,51.6,271.7,53.3,270.4z"/>
<path fill="#4A327B" d="M72.1,288.9c-0.1,0-0.1-0.1-0.2-0.1C72,288.9,72,288.9,72.1,288.9C72.1,288.9,72.1,288.9,72.1,288.9z"/>
</svg>
