<?xml version="1.0" encoding="utf-8"?>
<!-- Generator: Adobe Illustrator 24.0.2, SVG Export Plug-In . SVG Version: 6.00 Build 0)  -->
<svg version="1.1" id="Layer_1" xmlns="http://www.w3.org/2000/svg" xmlns:xlink="http://www.w3.org/1999/xlink" x="0px" y="0px"
	 viewBox="0 0 907.09 425.2" enable-background="new 0 0 907.09 425.2" xml:space="preserve">
<path fill="#121A2B" d="M-2.45,427.13c0-77.03,0-154.07,0-231.1c2.54-2.32,5.44-3.06,8.75-1.97c2.77,0.3,5.54,1.31,8.3-0.06
	c1.08,0.54,2.12,1.27,3.43,0.81c4.59-1.6,9.18-3.2,13.77-4.8c0.36-0.03,0.72-0.05,1.08-0.08c1.83-1.03,4.28,2.55,5.84-0.78
	c0.18-0.39,0.66-0.74,1.08-0.91c0.35-0.14,0.37-0.08,0,0.04c-0.59,0.19-1.12,0.72-1.72,0.03c-0.37-0.34-0.74-0.68-1.11-1.03
	c0.54-1.18,0.42-2.28,0.26-3.59c-0.27-2.25,0.98-2.6,2.53-0.84c0.89-0.2,0.96,0.55,1.22,1.07c0.01,0.02-0.25,0.25-0.31,0.22
	c-0.5-0.26-1.31-0.33-0.91-1.25c-2.29,0.97-3.11-1.85-4.99-1.93c-0.43-0.67-1.36-1.51-1.21-1.99c0.55-1.65,1.51,0.16,2.31-0.05
	c0.62-0.17,1.23-0.33,1.85-0.5c0.96,0.01,2.14,0.64,2.76-0.33c0.25-0.39-0.44-1.38-0.7-2.1l-0.03,0.06c0.85-0.24,2.03,0.18,2.3-1.17
	c1.38,0.26,2.27,1.88,3.3,2c3.17,0.36,6.6,9.23,9.56,0c-1.07-1.97-3.03,0.85-4.27-0.67c0.9-2.18,3.21-1.1,4.78-2.17
	c-1.67-1.49-3.15-0.94-4.83-0.73c-2.27,0.28-4.17-0.45-1.79-3.17c0.3-0.19,0.59-0.37,0.89-0.56c0.21,0.59,0.41,1.19,0.62,1.78
	c0.39-0.14,0.78-0.27,1.17-0.41c-1.06-1.15,1.47-3.77-1.68-4.06c0.24-2.44,1.97-0.79,2.99-1.09c2.66,0.73,5.24,1.07,7.88-0.32
	c3.38-1.78,6.41-0.19,5.92,3.67c-0.49,3.85,1.27,4.56,4.13,5c0.21,0.09,0.42,0.17,0.63,0.26c-0.08-0.21-0.16-0.43-0.24-0.64
	c0.43-0.6,1.09-1.86,1.56-0.4c0.64,2-0.89,2.47-2.63,2.55c-0.98,0.04-2.74-0.46-2.21,1.58c0.33,1.26,1.18,2.93,2.77,1.72
	c4.28-3.26,2.49,2.05,3.83,2.65c2.93-1.56,4.06-4.28,5.04-7.58c5.92,7.11,3.55-1.53,5.4-2.32c0.37-0.04,0.74-0.07,1.1-0.11
	c1.19,1.74,3.35,1.93,4.91,3.08c0.18,0.29,0.28,0.6,0.28,0.94c-1.51,1.78-3.6,3.46-0.97,5.92l-0.03-0.03
	c-1.1,2.71-0.48,4.98,2.14,6.28c2.27,1.13,4.91,1.95,6.85-0.42c1.74-2.13,3.58-1.45,5.37-0.69c2.97,1.27,5.33,0.56,7.94-1.63
	c-3.13-0.54-5.86-0.83-7.76-3.29c1.65-1.38,3.28-0.51,4.59-0.9c3.65-1.1,5.02,4.25,8.64,2.81c0.36,2.73,2.74,2.26,4.13,1.95
	c1.89-0.42,3.58-1.79,5.35-2.75c-0.23,2.26,4.49,4.64-0.18,6.78c-2.05,1.55-4.18,0.98-6.49,0.68c-0.97-0.13-3.46-2.24-3.73,0.87
	c-0.17,2.01,1.88,3.15,3.29,2.95c3-0.41,5.75,1.59,8.7,0.53c0.96,0.04,1.92,0.08,2.88,0.12c3.74,2.36,6.84-1.25,10.35-1.09
	c0.09,0.79,0.24,1.61,1.28,1.51c0.27-0.03,0.77-0.68,0.7-0.85c-0.38-0.91-1.24-0.62-1.97-0.61c-0.07-0.11-0.2-0.22-0.19-0.32
	c0.03-0.22,0.13-0.42,0.2-0.63c1.12,0,2.35,0.12,2.72-1.3c0.17-0.67-0.23-1.35-1.01-1.21c-1.33,0.24-1.6,1.37-1.75,2.51
	c-0.34-0.18-0.68-0.37-1.02-0.55c0.03-3.17-3.74-2.73-4.24-2.6c-7.31,2.03-4.48-3.81-6.18-6.51c1.98-0.44,2.67,0.3,3.18,1.18
	c1.95,3.4,4.14,5.71,7.9,2.02c1.8,2.09,5.05-2.29,6.48,1.45c-1.16,1.5,0.3,1.91,1.09,2.6c0.39,2.02-2.44,1.87-2.54,3.67
	c1.67,0.77,3.12-0.56,4.66-0.32c1.82-2.43,4.19-2.86,6.92-1.87c2.65,0.95,5.29,1.92,7.94,2.88c0,0,0.37,0.08,0.37,0.08l0.38-0.05
	c1.56,5.79,5.61,3.81,9.3,2.98c1.6,0.1,2.09,3.68,4.16,1.63c1.78-1.76,3.66-0.59,5.45-0.95c2.16,0.76,4.29,1.99,6.5,2.18
	c4.9,0.42,10.45,3.2,14.08-2.85l0.42,0.03l0.42-0.01c6.3,3.26,10.38-1.71,15.17-4.07c1.4,0.62,2.81,1.9,4.13-0.12
	c1.07,0.39,2.17,0.72,3.21,1.18c5.97,2.63,6.43,2.35,7-4.19c0.14-1.64,0.43-3.27,0.65-4.9c0.34,0.01,0.68,0.03,1.02,0.04
	c0.12,1.83,0.4,3.67,0.34,5.5c-0.16,4.67,2.12,6.55,6.47,5.35c2.67-0.73,4.88,0.03,7.28,0.71c2.22,0.63,4.54,0.92,6.8,1.42
	c1.76,0.39,2.24-0.3,2.4-2.05c0.37-4.11-4.2-8.5-10.1-9.43c-0.28-0.16-0.56-0.32-0.84-0.48c-0.14-0.65-0.29-1.29-0.43-1.94
	c1.2-0.03,2.19-0.35,2.34-1.77c2.96-0.25,4.04-3.57,6.87-3.72c-0.39-2.72-5.62-0.42-3.95-4.57c0.46-1.83,5.67-0.92,3.05-3.8
	c-2.5-2.76-0.18-2.84,0.97-3.69c2.06-1.52,4.05,0.28,6.1,0.37c1.73-0.05,3.42,0.03,4.5,1.71c-3.07,0.88-0.07,1.98-0.11,2.97
	c-1.11,0.85-2.17-0.32-3.26-0.09c-1.01-1.81-1.66-1.27-2.16,0.33c-0.43,0.41-2.23,0.51-1.28,0.96c2.49,1.19,5.19,4.22,8.06,0.16
	c0.61,2.78-0.03,5.2,1.21,7.31c-0.1,0.55-0.2,1.11-0.31,1.66c-2.41,0.16-3.82-2.02-5.84-2.84c-1.16,3.67-0.56,5.45,3.46,4.06
	c0.15-0.05,0.56,0.65,0.86,1c0.93,0.74,1.85,1.49,2.78,2.23c-1.96,1.29-3.77,3.37-6.36,1.03c-0.55-0.5-1.66-0.21-1.69,0.33
	c-0.21,3.13-3.45,5.24-2.76,8.72c0.33,1.64,1.16,2.09,2.34,1.48c6.22-3.2,13.69-1.22,19.77-4.89c0.68-0.03,1.37-0.06,2.05-0.09
	c5.63,2.96,11.86,2.46,17.89,3.06c3.32-0.08,6.5,0.66,9.7,1.42c3.14,0.74,6.28,1.95,9.61,0.89c2.05-0.46,4.12-0.88,5.79-2.29
	c3.9-0.79,0.74-4.88,2.9-6.41c2.03,0.24-0.79,2.69,1.93,2.89c0.12-2.51,1.72-3.62,4.22-3.49c2.64,0.6,5.26,0.69,7.88-0.12
	c1.37,1.12,3.95,0.58,4.27,3.13c-1.87,0.18-2.72,1.46-3.39,2.93c1.94,0.69,3.76,1.35,5.58,2c4.55,1.71,9.01,2.08,13.25-0.88
	c0.57-0.02,1.14-0.04,1.71-0.06c1.76-0.09,3,1.3,4.55,1.66c2.7,0.61,5.62,2.56,8.03-0.66c1.29-0.65,2.59-1.39,3.62,0.38
	c0.33,0.72,1.13,1.57-0.47,1.76c0-0.01,0.25,0,0.25,0s-0.18-0.15-0.18-0.15c2.51-0.05,5.03-0.25,7.54-0.14
	c5.96,0.28,11.91,0.64,17.58-1.79c1.05-0.45,1.93-1.19,3,0.21c2.1,2.75,4.73,2.1,7.35,0.77c1.43-0.01,3,0.49,3.98-1.11
	c4.64-1.68,8.65,0.68,12.82,2c3.97-0.04,8.46,2.46,11.49-2.39c-3.25,1.12-6.57-0.14-9.8,0.52c-1.12-1.56-0.25-2.07,1.2-2.14
	c2.22-0.09,4.16-0.62,5.29-2.76c0.66-0.87,1.49-0.96,2.58-0.92c2.82,0.1,5.7,1.38,8.47-0.24c1.53,4.35-3.56,1.28-4.08,3.86
	c1.55,0.37,3.19,1.25,4.58,0.96c2.01-0.41,4.91,0.29,5.61-2.84c0.8-3.56-1.08-4.79-6.17-4.05c-3.78,0.69-7.3,1.04-9.27-3.49
	c-0.5-1.15-2.21-1.77-3.36-2.63c-0.09-0.27-0.06-0.52,0.1-0.75c2.86-1.02,5.71-2.09,8.8-2.19c0.51,0.18,1.02,0.37,1.52,0.55
	c-0.2,0.18-0.4,0.37-0.6,0.55c-0.74,0.13-1.48,0.26-2.22,0.4c0.5,0.87,1.35,0.56,2.09,0.61c4.36-1.05,5.29-1.76,4.96-3.75
	c1.23-1.65,2.87-1.09,4.55-1.04c3.54,0.1,7.12,1.05,10.62-0.26c1.15,2.57,1.18,4.18-2.52,3.77c-2.99-0.34-3.23,0.21-2.47,3.34
	c0.35,0.72,0.69,1.44,1.04,2.15c-4.34,0.37-5.22,3.81-5.26,6.99c-0.05,4.59,4.21,4.41,7.01,4.26c3.96-0.21,7.92,0.23,11.59,0.93
	c5.04,0.95,9.62-0.88,14.43-0.82c1.58,0.02,3.55-1.15,3.5-3.53c0.39-0.03,0.79-0.06,1.18-0.08c2.88,3.77,6.93,1.93,10.54,2.18
	c0.74,0.2,1.73-0.4,2.23,0.54c1.92,3.66,5.75,4.62,9.21,2.28c5.85,1.48,11.1-3.35,16.97-1.59c1.27,3.11,3.91,1.34,5.96,1.68
	c0.99,0.07,2.62,0.54,2.87,0.14c2.38-3.73,4.69-1.67,7.13-0.2c0.51,0.31,1.3,0.18,1.96,0.2c6.05,0.21,12.1,0.4,18.15,0.59
	c1.07,0.03,2.12-0.2,2.06-1.51c-0.07-1.29-0.48-2.18-2.21-1.34c-1.15,0.56-2.53,0.28-3.39-0.98c0.58-2.74,3.86-0.1,4.89-2.41
	c-1.85-0.65-3.63-1.24-4.02-3.35c-0.16-0.89,0.06-1.6,1.05-1.96c1.55-0.57,3.77-0.06,3.92-2.82c0.16-2.87-3.35-0.57-3.76-2.85
	c1.79-0.89,6.02-1.38,3.85-3.53c-3.24-3.23,0.07-2.56,1.12-3.01c1.35-0.58,2.89-0.73,4.34-1.07c0.26,0.56,0.52,1.13,0.78,1.7
	c-3.61-0.05-3.87,2.7-4.53,5.25c-0.92,3.55,1.53,4.28,3.98,5.09c0.36,2.93-1.49,7.14,4.09,7.05c0.36,1.82-0.5,2.21-2.07,1.75
	c-1.82-1.43-2.71-0.75-3,1.32c-0.21,0.58-0.68,1.61-0.59,1.66c2.11,1.23,10.95-0.61,12.2-2.58c0.51-0.8,0.56-2.68,0.02-2.66
	c-3.03,0.12-1.22-2.86-2.58-3.67c0.05-0.83-0.07-1.71,0.18-2.47c0.42-1.27,2.14-2.36,0.45-3.83c-1.14-0.99-2.63-0.96-3.71-0.2
	c-1.73,1.22,0.04,2.16,0.52,3.27c0.84,1.97-0.54,2.46-2.02,2.1c-1.23-0.3-2.32-1.16-3.47-1.78c-0.06-2.09,0.43-4.29-0.66-6.22
	c-1.06-1.88-0.27-3,1.22-4.01c0.11-0.8,0.7-0.62,1.22-0.59c-0.75,3.24-1.61,6.49,3.81,4.03c0.97-0.44,2.18-0.1,3.28,0.55
	c2.37,1.41,4.62,1.25,6.35-1.2c0.95,0.13,1.91,0.27,2.86,0.4c0.06,2.43-4,2.74-3.13,5.34c4.37,1.6,10.11-1.92,12.56,4.77
	c0.59,1.62,3.07,1.74,4.94,0.79c2.56,0.09,5.09,0.04,7.51-0.96c9.35-0.68,9.37-0.71,5.56-7.11c-0.08-0.14,0.21-0.51,0.31-0.72
	c2.83,0.38,3.32,3.14,5.47,6.03c0-3.07,0-4.95,0-6.82c0.46-0.56,0.91-1.12,1.37-1.68c3.97,1.93,4.33-2.62,6.56-3.83
	c2.65-1.44-1.46-2.01-1.32-3.36c3.94-1.34,4.96,0.01,3.87,3.51c-0.29,0.93-0.43,1.92-0.64,2.88c-2.03,1.05-1.37,3.83-2.87,4.93
	c-4.12,3.02-0.52,3.07,1.31,3.87c1.37,0.6,2.54-0.07,3.74-0.6c-0.04,0.63-0.08,1.26-0.12,1.9c-0.1,0.18-0.21,0.36-0.31,0.54
	c0.18-0.1,0.37-0.2,0.55-0.3c0.71-0.22,1.63-0.39,1.34-1.37c-0.11-0.37-0.94-0.53-1.44-0.79c-0.34-2.01-0.68-4.02-1.02-6.03
	c0.6,0.25,1.32,0.37,1.78,0.79c1.84,1.67,3.91,0.96,4.4-0.71c0.65-2.22-0.84-2.57-2.93-1.64c-0.89,0.4-1.31-1.12-0.69-1.66
	c2.61-2.25,5.24-1.36,7.84,0.22c2.56,1.55,0.92,3.85-0.08,4.39c-3.68,2.01-0.18,2.94,0.36,4.29c0.9,2.25,2.16,3.55,4.58,1.66
	c1.11,1.07,3.11,0.4,4,1.74c-1.51,2.63-4.41,2.5-6.39,3.97c-1.33,0.17-3.39-0.51-3.38,1.6c0.01,1.72,1.76,1.42,3.05,1.25
	c3.33-0.5,6.68-0.68,10.04-0.91c5.73-0.41,7.48-2.52,7.57-7.83c0.19-2.2,0.41-4.33,3.23-1.8c0.13,0.19,0.18,0.39,0.14,0.62
	c-0.94,0.1-1.91,0.15-2.24,1.31c-0.66,5.31,2.28,7.29,7.03,7.65c5.13,0.39,10.16,1.23,14.97,3.17c0.73-0.02,1.47-0.04,2.2-0.06
	c5.63,0.08,10.64-3.95,16.51-2.44c4.06,1.04,5.95-0.59,5.78-4.82c-0.07-1.65,0.53-3.34,0.37-4.97c-0.3-3-1.59-5.41-5.04-5.74
	c-1.4-0.13-3.49,0.33-3.4-1.66c0.09-1.98,2.14-1.51,3.6-1.45c0.84-0.88,5.18,1.13,2.31-2.8c0.28-0.39,0.56-0.77,0.83-1.15
	c5.82,3.17,5.81,3.16,3.99,7.37c-0.18,0.41-0.01,0.97,0,1.47c-2.04,4.37-1.44,9.44,0.7,12.69c1.72,2.6,5.8-1.38,8.93-1.99
	c0.15-0.03,0.33,0.06,0.49,0.09c0.59,0.56,1.27,0.67,2.03,0.44c3.44,1.41,6.84,2.93,10.32,4.2c2.71,0.99,5.72,2.26,6.8-2.15
	l0.37,0.01l0.37,0c-0.17,2.95,1.28,4.44,4.16,4.94c5.86,1.02,11.25-0.29,16.43-2.92c1.58-0.01,3.15-0.03,4.73-0.04
	c4.04,1.39,8.08,0.26,12.1-0.07c1.58-0.13,0.75-1.95,1.21-2.91c0.39-0.09,0.78-0.18,1.16-0.28c3.58-0.77,6.62-3.27,10.45-3.21
	c0.64,1.49,2.26,1.23,3.36,1.91c1.36,0.84,3.15,2.79,4.16,0.77c1.13-2.26-1.98-1.87-3.14-2.79c2.56-0.53,5.6-2.37,5.91,2.56
	c0.03,0.54,1.95,3.19,2.97,0l-0.02,0.02c1.02-0.01,2.04-0.02,3.06-0.02c1.86-0.05,3.43,0.81,5.06,1.54c1.56,0.7,2.88,0.67,3.09-1.51
	c0.39-0.02,0.77-0.05,1.16-0.07c7.03,1.86,11.74,0.76,14.49-3.39c1.03-0.97,3.14,0.15,3.55-1.81c0.06-0.27-0.85-1-1.39-1.09
	c-2.43-0.41-1.78,1.67-2.2,2.88c-2.15-1.77-4.41-0.1-6.62-0.23c-0.91-1.27-1.8-1.12-2.67,0.05l-0.28-0.16l0.02-0.32
	c0.87-1.82,0.85-3.78,0.95-5.72c2.94,1.95,5.69,2.76,7.67-1.23c3.83,0.18,5.14,4.43,8.56,5.4c0.32,0.09,0.47,1.59,1.57,0.97
	c1.02-0.58,1.2-1.52,0.6-2.56c-0.51-0.89-1.11-1.68-2.26-1.75c-2.88-0.19-3.31-2.13-3.36-4.48c5.55,0.48,10.72-1.07,16-1.54
	c0.26,3.86-4.68,2.12-4.89,4.35c1.81-0.83,3.84,1.21,4.38,2.26c1.12,2.2,2.58,0.17,3.58,0.92c1.9,1.43,5.65-1.47,6.36,2.72
	c2.66,2.09,5.46,3.62,8.95,2.01c4.48,6.04,10.34,3.29,15.86,2.39c1.21-0.2,3.06-0.63,2.8-2.28c-0.31-1.92-2.06-1.78-3.62-1.39
	c0.81-3.85,5.57-3.04,7.12-6.02c1.56,0.93,1.48,2.03,0.32,3.23c-0.75,0.03-1.73-0.19-1.77,0.91c-0.01,0.29,0.91,0.61,1.4,0.91
	c1.69,2.02,1.13,4.44,1.13,6.72c0.02,74.83-0.04,149.65,0.14,224.48c0.01,4.99-1.09,6.22-6.18,6.22
	c-300.16-0.14-600.32-0.13-900.48-0.13C1.23,427.29-0.61,427.19-2.45,427.13z M631.87,196.94c-1.91-0.33-1.6-1.12-0.59-2.29
	c0.74-0.86,0.8-2.02-0.54-2.31c-2.09-0.45-1.68,2.14-3.03,2.78c-0.88,0.41-1.85,1.26-1.15,2.35c0.58,0.92,1.79,0.63,2.78,0.59
	c1.01-0.04,2.01-0.08,2.73-0.93c0.11-0.11,0.22-0.21,0.34-0.32c-0.07-0.07-0.15-0.14-0.22-0.22
	C632.08,196.71,631.98,196.83,631.87,196.94z M72.05,184.62c-0.67-0.13-1.33-0.26-2-0.38l0.04,0.13c-1.95-3.17-3.19-0.07-3.9,0.81
	c-0.9,1.12-1.17,2.58-3.31,1.89c2.84-1.81,3.74,0.85,3.71,2.01c-0.04,1.85-2.26,2.04-3.57,1.52c-1.82-0.73-3.59-1.02-3.99,1.02
	c-0.32,1.67,1.71,2.21,3.21,2.45c5.35,0.85,10.99,3.49,15.28-2.47c0.46-0.65,1.18-0.19,1.73,0.17c1.99,1.28,3.53,0.67,5.22-0.84
	c2.38-2.12-2.93-2.29-0.88-4.14c-1.34-1-2.75-1.52-4.37-0.65C78.03,180.05,74.28,185.86,72.05,184.62z M609.65,197.48
	c-1.72-1.41-3.58-0.3-5.24-0.26c-2.5,0.06-3.76-0.7-4.44-3.18c-0.24-0.87-1.09-1.54-0.26-2.43c0.19-0.2,1.09-0.16,1.19,0.03
	c0.73,1.37,0.03,1.95-1.25,2.55c-1.69,0.79-4.27,1.74-1.7,4.16C600.81,201.04,605.88,200.57,609.65,197.48z M636.07,198.93
	c0.34,0.75,1.48,1.65,2.02,0.87c0.8-1.16,3.42,0.67,2.89-1.96c-0.27-1.35-1.19-1.93-2.48-1.76
	C637.06,196.25,636.12,197.04,636.07,198.93z M653.67,195.7c-2.22,0.56-3.55-0.56-4.8-2.18c0.54,1.81-0.49,4.17,1.73,4.92
	C652.01,198.92,652.72,197.24,653.67,195.7z M656.26,190.24c-0.79-0.76-0.53-2.46-2.25-2.19c-1.11,0.17-1.79,0.72-1.88,1.87
	c-0.09,1.13,0.29,2.04,1.56,1.9C654.71,191.71,655.97,191.66,656.26,190.24z M115.77,188.11c-0.27-0.13-0.53-0.38-0.76-0.35
	c-0.29,0.04-0.75,0.28-0.78,0.49c-0.11,0.75,0.5,0.62,0.89,0.5C115.38,188.68,115.56,188.34,115.77,188.11z"/>
<path fill="#2A3140" d="M-2.45,171.92c2.56,0.15,5,0.06,5.54-3.93c2.2,3.15,2.81,5.91,2.77,8.86c0,0.25-1.07,0.22-0.51,0.83
	c0.29,0.31,0.95,0.24,1.39,0.46c1.7,0.85,3.38,1.28,4.9-0.27c0.54-0.55,0.43-1.44-0.24-1.69c-7-2.61-0.68-3.03,0.66-4.33
	c0.32-0.31,0.37-0.91,0.74-1.93c-5.81,2.7-5.44-0.75-4.65-4.28c0.25-1.13-0.03-1.89-0.5-2.78c-0.84-1.58-2.06-3.16,1.1-3.82
	c1.46-0.3,0.38-2.09,0.81-3.1c0.46-1.11-0.71-3.39,2.07-2.92c0.32,0.05,0.74-0.49,1.11-0.76c-2.35-2.34,0.61-4.44,0.31-6.61
	c-0.58-4.27,1.98-7.64,2.88-11.6c-0.47,5.97,5.45,11.12,2.11,17.58c5.24-0.41,2.85,3.88,3.73,6.49c0.75,2.22,0.88,2.81-2.88,7.58
	c1.08,0.29,2.17,0.53,3.22,0.9c1.46,0.52,2.87,2.56,4.37,1.02c1.1-1.12,1.07-3.17,0.03-4.64c-1.51-2.11,1.44-1.85,1.64-3.35
	c0.34-2.59,2.37-5.06,2.36-7.58c-0.02-3.27,1.35-6.12,2.05-9.3c0.52,7.55,6.26,14.4,3.11,22.98c1.12,0.59,2.93,1.54,4.73,2.48
	c-4.29,2.44-0.55,5.27-0.6,7.85c0,0,0.03-0.06,0.03-0.06c-1.35-1.55-2.78-0.58-4.56-0.28c1,1.09,1.75,1.9,2.5,2.72
	c-0.62,0.17-1.23,0.34-1.85,0.5c-0.8,0.21-1.75-1.6-2.31,0.05c-0.16,0.48,0.77,1.32,1.21,1.99c-1.34,2.84-2.64,5.68-1.9,8.96
	c-0.36,0.03-0.72,0.05-1.08,0.08c-0.11-6.27-0.64-6.7-6.04-3.61c-1.19,0.68-2.46,1.14-3.49,1.12c-1.8-0.05-4.17-2.4-4.46,1.45
	c-0.14,1.91-2.25,4.01,0.22,5.84c-1.32,0.47-2.35-0.27-3.43-0.81c0-0.93,0-2.78-0.31-2.59c-2.49,1.53-6.28-0.91-7.99,2.65
	c-3.31-1.09-6.21-0.35-8.75,1.97c0-1,0-2.01,0-3.01c0.12-0.09,0.34-0.22,0.33-0.27c-0.07-0.25-0.21-0.49-0.33-0.73
	C-2.45,185.32-2.45,178.62-2.45,171.92z M19.67,182.06c1.7-1.01,3.02-0.47,4.14,0.99c1.21,1.59,2.19-0.38,3.32-0.24
	c0.02-1.11-0.53-1.63-1.49-2.3c-1.88-1.31-3.78-2.1-6.1-2c-0.49,1.17,1.51,2.3,0.1,3.48l-0.14,0.13L19.67,182.06z M24.41,170.83
	c0.39,2.78,0.4,3.96,0.76,5.02c0.38,1.15,1.59,1.55,2.24,0.56c0.64-0.98,2.93-1.02,2.01-2.85c-1.86-3.67-10.66-3.79-12.34-1.47
	C18.06,167.51,22.29,178.12,24.41,170.83z"/>
<path fill="#121A2B" d="M-2.45,192.01c0.12,0.24,0.26,0.48,0.33,0.73c0.02,0.06-0.21,0.18-0.33,0.27
	C-2.45,192.68-2.45,192.35-2.45,192.01z"/>
<path fill="#2A3140" d="M719.61,165.91c-0.16-0.64-0.18-1.37-0.5-1.92c-1.21-2.01-0.19-6.33,1.92-7.75
	c0.41-0.28,0.84-0.52,1.26-0.78c-3.12-5.03,3.67-7.85,1.96-13.29c4.41,4.91,6.47,12.15,4.64,14.5c1.15,1.09,3.98-0.65,4,2.38
	c0.01,1.25-0.22,2.93,1.87,2.78c1.73-0.12,2.45-1.41,2.99-2.9c0.44-1.2-0.31-2.69,1.19-3.81c0.97,0.27,2.03,1.02,2.02,2.1
	c-0.01,5.89,3.14,10.92,4.28,16.46c0.75,3.65,0.76,7.56-3.4,9.83c0.81,1.82,3.1,1.48,4.36,2.73c1.13-2.58,3.9-2.58,5.91-3.77
	c0.23-0.14,0.52-0.6,0.45-0.77c-2.8-6.35,3.76-10.33,3.26-17.01c3.32,3.25,2.9,6.69,4.23,9.38c0.16,0.33-0.17,0.9-0.27,1.36
	c2.92,0.12,2.21,4.89,4.28,4.25c1.49-0.46,2.4-3.31,4.28-4.79c1.35-1.05-2.19-2.67-1.15-5.4c1.73-4.52,2.26-9.51,3.34-14.5
	c2.79,0.87,3.27,2.79,3.02,4.98c-0.12,1.09-0.41,2.12,1.13,1.95c1.04-0.12,3.12-0.86,2.53-1.54c-3.32-3.79,0.88-6.73,0.97-10.1
	c0.06-2.12,0.76-4.69,1.74-6.99c0.91,4.07,3.15,7.57,2.89,11.88c-0.14,2.34,1.91,4.73,0.17,7.22c4.22,0.1,3.38,3.43,3.41,5.74
	c1.32,0.64,1.89-0.2,2.62-0.37c3.88-0.91,3.38-2.43,1.74-5.5c-1.69-3.16-1.56-6.94,1.59-9.78c0.45-0.41,1.37-0.99,1.29-1.18
	c-2.4-6.08,3.11-10.99,2.45-16.91c1.32,3.93,3.33,7.48,3.15,11.79c-0.1,2.38,1.63,4.76,0.19,7.24c4.49-0.12,2.64,3.51,3.58,6.47
	c5.37-3.96,2.77-10.24,5.49-14.58c1.9,3.46,2.96,7.7,2.49,11.49c-0.31,2.47,2.13,1.65,1.85,3.16c-0.5,2.73,3.12,4.84,1.21,7.97
	c-0.37,0.61-0.37,2.49,1.19,2.88c2.05,0.52,1.85-1.37,2.34-2.43c0.46-1,0.75-2.08,1.1-3.07c4.63,2.01-0.05,12.28,10.11,9.64
	c-4.47-1.72-3.43-5.13-3.7-8.09c-0.01-0.16-0.18-0.44-0.16-0.45c5.87-3.18,3.72-10.39,7.63-15.06c0.94,3.25,3.03,5.57,3.06,9.15
	c0.03,3.91,3.64,6.64,5.33,10.09c0.15,0.31,1.56,0,2.38-0.01c0,1.95-3.47,2.86-1.54,5.42c1.31,1.73,2.11-1.12,3.25-0.23
	c1.14,1.18,2.54,1.84,3.45,0.09c0.39-0.74-1.09-0.76-1.82-0.91c-1.15-1.42-2.29-2.84-3.44-4.27c2.55-3.95,2.58-8.67,3.92-12.99
	c0.57-1.85,0.79-3.82,1.23-6.05c2.28,3.83,2.14,8.03,3.09,11.87c0.23,0.93-1.34,2.43,1.01,2.25c1.62-0.12,3.81-1.2,2.74-3.03
	c-1.55-2.69,0.22-3.05,1.75-3.91c0.68-0.38,1.79-0.71,1.09-1.71c-2.75-3.89,1.83-6.88,1.22-10.53c-0.14-0.82,0.53-1.96,1.88-1.87
	c1.03,0.07,1.5,0.89,1.66,1.64c0.42,1.9,0.55,4.2,1.23,5.64c1.26,2.66-2.07,6.39,2.49,8.52c1.04,0.49,2.37,5.54,1.61,8.76
	c-0.2,0.83-1.84,1.84-0.45,2.4c2.22,0.9,0.12,5.29,3.34,4.33c1.68-0.5,2.73-4.83,2.66-5.12c-1.15-4.35,2.34-7.86,1.91-11.99
	c2.32,4.1,2.76,8.58,3.24,13.33c1.39-0.58,2.94-1.24,4.53-1.9c-2.35-3.84-1.32-6.94-0.1-10.99c1.1-3.65,2.75-7.78,2.27-12.05
	c2.5,3.48,3.01,7.65,3.08,11.35c0.05,2.7,3.3,3.87,2.01,6.52c0.74,0.26,1.47,0.52,2.21,0.79c0.13-1.97,2.93-2.14,2.9-4.05
	c-0.05-3.04,2.13-5.23,2.43-9.56c1.37,2.93,2.01,4.52,2.85,6c0.49,0.86-1.3,2.73,1.37,2.7c1.9-0.02,2.2-1.6,2.62-2.5
	c0.97-2.06,1.34-4.4,2.67-6.57c2.53,10.96,2.66,21.94,0.8,32.98c-1.55,2.98-6.31,2.17-7.12,6.02c-3.32,1.61-5.81-1.05-8.81-1.27
	c0.38-1.47,1.26-1.51,2.07-1.52c1.17-0.01,2.63,1.22,3.41-0.38c0.82-1.67-0.79-2.44-1.71-3.55c-2.04-2.45-2.1,0.74-2.74,1.11
	c-1.99,1.15-5.09,0.73-6,3.79c-0.07,0.25-2.96,1.62-3.23-1.04c-0.37-3.64-2.41-0.36-3.5-0.92c0.58,3.01-2.79,1.48-3.49,3.03
	c-0.72-4.19-4.47-1.28-6.36-2.72c0.08-1.8-2.13-1.84-2.55-3.21c1.78-0.89,3.51-1.76,5.28-2.64c-1.68-2.02-3.05-4.44-5.79-1.68
	c-5.28,0.47-10.45,2.02-16,1.54c0.05,2.35,0.48,4.29,3.36,4.48c1.15,0.08,1.75,0.86,2.26,1.75c0.6,1.04,0.42,1.98-0.6,2.56
	c-1.1,0.62-1.25-0.88-1.57-0.97c-3.42-0.97-4.73-5.21-8.56-5.4c-2.1-0.35-4.51-0.05-5.02-3.15c-0.15-0.91-1.33-0.67-1.17-0.08
	c0.69,2.49-1.42,1.47-2.22,1.99c-0.59,0.38-1.93,0.21-1.26,1.42c0.31,0.56,1.31,0.72,2,1.07c-0.1,1.94-0.09,3.91-0.95,5.72
	c-2.58,0.22-1.75,4.56-4.92,4.07c-0.39,0.02-0.77,0.05-1.16,0.07c-2.71-0.88-5.42-3.74-8.15-0.03c-1.02,0.01-2.04,0.02-3.06,0.02
	c-0.11-0.07-0.23-0.14-0.34-0.2c0.12,0.06,0.24,0.12,0.36,0.18c-1.03,3.19-2.94,0.54-2.97,0c-0.31-4.93-3.35-3.08-5.91-2.56
	c1.16,0.92,4.27,0.54,3.14,2.79c-1.01,2.02-2.8,0.06-4.16-0.77c-1.09-0.67-2.72-0.42-3.36-1.91c1.76-5.37-1.64-5.89-5.57-5.92
	c-0.23,0.24-0.48,0.46-0.73,0.68c-1.91,2.55-3.79,5.13-4.16,8.44c-0.39,0.09-0.78,0.18-1.16,0.28c-0.13-1.28-0.25-2.56-0.45-4.52
	c-1.15,1.48-2.46,1.48-3.57,2.53c-1.72,1.64-5.15,4.05-6.14,3.42c-2.8-1.77-2.12,1.22-3.15,1.55c-1.58,0.01-3.15,0.03-4.73,0.04
	c-0.56-1.86-0.48-4.45-3.72-2.04c-0.82,0.61-2.94-0.25-4.54-0.81c-3.52-1.23-2.98-6.01-7.03-6.33c-0.97,2.88-1.54,6.27-5.3,7.15
	l-0.37,0l-0.37-0.01c-1.7-0.78-2.02-3.4-3.98-3.48c-1.52-0.07-3.79,1.17-3.94-1.06c-0.19-2.85,3.1-0.56,4.2-1.96
	c0.16-0.21,0.12-0.59,0.17-0.92c-5.77-1.31-9.74,1.85-13.58,5.37c-0.76,0.22-1.44,0.12-2.03-0.44c-0.15-1.68,1.1-4.23-2.69-3.3
	c-1.91,0.47-3.66-0.95-5.65-3.17c3.36,0.61,5.57-0.19,7.88-2.87c-3.86,0.61-5.94-4.14-9.66-1.44c-0.01-0.49-0.18-1.05,0-1.47
	c1.81-4.21,1.83-4.2-3.99-7.37l-0.01-0.01C723.88,171.2,722.13,168.39,719.61,165.91z M853.3,180.45c1.12-2.72,5.19-2.61,3.4-5.86
	c-0.58-1.06-3.39-2.21-3.84-1.81C850.65,174.74,852.42,177.07,853.3,180.45z M791.45,190.43c-1.6-0.97-2.9-1.6-3.99-2.48
	c-1.26-1.02-2.36-2.23-4.28-1.54C788.22,190.5,788.22,190.5,791.45,190.43z M737.07,175.27c-2.45-4.19-4.67-0.87-7.72-0.86
	C732.25,176.92,734.49,176.33,737.07,175.27z M799.43,177.82c1.86,1.25,3.35,2.15,5.21,2.36c0.8,0.09,1.46-0.31,1.31-1.07
	c-0.5-2.55-3.99,0.03-4.56-2.55C800.88,176.89,800.37,177.21,799.43,177.82z M860.06,173.06c-1.19,0.12-1.79,0.78-1.73,1.98
	c0.06,1.23,0.79,1.77,1.96,1.72c1.22-0.05,1.78-0.79,1.73-1.96C861.97,173.58,861.24,173.05,860.06,173.06z M849.85,171.25
	c-0.13-0.8-0.68-1.11-1.39-1.03c-1.06,0.11-1.25,0.93-1.21,1.8c0.04,0.75,0.45,1.23,1.26,1.03
	C849.4,172.82,849.87,172.2,849.85,171.25z M860.77,169.69c-0.25-0.11-0.5-0.22-0.74-0.33c-0.11,0.25-0.35,0.55-0.28,0.74
	c0.07,0.18,0.45,0.24,0.7,0.35C860.56,170.19,860.67,169.94,860.77,169.69z M858.11,158.35c0.25,0.19,0.46,0.47,0.72,0.52
	c0.24,0.05,0.53-0.15,0.81-0.24c-0.26-0.25-0.49-0.58-0.8-0.7C858.67,157.87,858.36,158.19,858.11,158.35z M838.65,179.56
	c-0.25-0.1-0.51-0.24-0.79-0.29c-0.09-0.02-0.23,0.18-0.35,0.28c0.28,0.11,0.54,0.26,0.83,0.32
	C838.42,179.89,838.55,179.67,838.65,179.56z"/>
<path fill="#2A3140" d="M105.92,162.88c1.68-0.08,4.34,2.24,3.88,3.44c-0.29,0.77-1.08,1.45-1.13,2.2c-0.1,1.64-2.62,1.54-2.2,3.35
	c0.04,0.17,0.6,0.36,0.89,0.33c2.27-0.26,3.15-2.49,3.48-3.87c0.71-2.96,2.59-5.53,2.64-8.75c0.01-0.96,0.19-3.15,2.74-3.17
	c-0.51,4.39,1.55,8.53,3.45,12c2.1,3.84-2.52,3.73-1.31,6.01c0.94-0.12,2.16,2.24,3.75,0.94c1.58-1.29,0.42-2.62-0.62-3.76
	c-0.2-0.22-0.22-0.61-0.32-0.92c3.28-0.42,2.85-5.07,3.82-5.16c4.47-0.45,1.04-4.81,3.45-5.9c-0.47-0.82-0.11-1.56,0.09-2.38
	c0.46-1.98,2.12-3.05,3.17-4.57c0.87,1.31,2.15,2.4,2.26,4.1c0.14,2.21,3.41,3.85,1.19,6.52c-0.09,0.1,0.35,0.77,0.66,1.05
	c3.79,3.37,3.82,5.54,0.07,10.06c5.31,0.82,5.24,0.8,6.59-4.46c0.47-1.86,1.38-3.61,2.13-5.53c0.47,0.38,0.62,0.47,0.72,0.59
	c1.33,1.64,0.43,5.62,3.31,5.05c2.28-0.45,1.47-3.47,0.7-5.59c-0.65-1.77,1.38-2.68,2.02-3.83c2.43-4.34,0.94-9.61,3.63-13.89
	c4.43,2.89,0.28,9.7,5.79,12.1c1.41-2.15-0.93-6.22,3.55-6.24c0.12,0,0.39-0.86,0.33-1.28c-0.33-2.44,0.19-9.75,0.91-11.36
	c0.39-0.88,0.58-2.05,1.81-2.15c1.64-0.13,2.14,1.47,2.01,2.36c-0.58,3.81,4.68,7.39-0.24,11.53c5.98-0.34,3.15,4.12,4.42,6.25
	c2.45,4.12-2.18,4.96-2.8,7.59c0.61,1.08,1.8,0.04,2.63,0.67c2.69,2.06,4.64,2.45,4.42-2.04c-0.04-0.82-0.4-2.15,1.24-2.19
	c2.68-0.06,2.24-0.68,1.32-2.94c-0.84-2.07,0.98-4.82,0.98-7.45c0-2.58,1.9-4.77,2.24-7.56c1.27,5.5,5.46,10.44,2.6,16.51
	c3.73,0.84,3.67,0.82,4.41-3.19c0.36-1.94,1.01-3.82,2.33-5.88c0.67,3.63,1.54,7.24,1.92,10.91c0.25,2.39,2.81,3.88,2.18,6.55
	c-0.08,0.35,0.64,1.23,0.07,1.69c-4.42,3.53,1.4,5.06,1.66,7.75c0.15,1.53,2.3-0.33,2.52-0.76c1.19-2.3,3.55-3.93,3.52-7.03
	c-0.02-1.84,1.25-3.7,2-5.69c5.2,8.23,6.43,13.24,4.11,16.54c1.58,2.03,5.44,0.1,6.35,4.15c0.31,1.38,2.4-2.87,4.89-1.65
	c-4.37-3.47-4.76-8.23-3.01-12.31c2.75-6.42,3.44-13.22,5.75-19.91c0.55,2.29,1.14,4.57,1.63,6.87c0.32,1.49,1.14,2.27,2.66,2.49
	c2.31,0.34,1.65-1.33,1.86-2.52c0.22-1.24,0.81-2.16,2.35-2.01c0.78,0.07,1.69,0.14,1.52-1.22c-0.45-3.53,0.85-8.31,3.99-13.26
	c-0.33,4.56,5.11,7.5,2.98,12.6c-0.07,0.17,0.47,0.66,0.8,0.91c3.56,2.68,3.48,6.67-0.11,10.02c1.52,0.44,3.1,0.88,4.68,1.35
	c1.4,0.42,2.8,0.86,4.25,1.3c-0.77,1.14-3.09,0.37-2.7,1.69c1.23,4.18,0.73,6.41-4.33,5.42c-0.75-0.15-0.79,0.86-0.72,1.53
	c0.09,0.79,0.59,1.06,1.33,1.14c2.85,0.33,5.69,0.71,8.75,1.1c-0.25,1.41-5.85,1.97-0.88,4.2c-0.15,1.42-1.14,1.73-2.34,1.77
	c-1.19-0.2-2.02-0.78-2.77-1.81c-1.65-2.27-4.85-3.04-6.17-1.27c-0.91,1.23-1.95,2.68-2.98,4c-0.34-0.01-0.68-0.03-1.02-0.04
	c-0.86-2-4.85-1.13-3.9-5.02c-1.54,2.79-5.7,2.52-5.86,4.33c-0.34,3.7,4.34,1.15,5.92,3.29c-1.52,1.23-3.03,2.58-4.96,2.07
	c-4.51-1.2-2.18,1.68-2.07,3.25c-1.32,2.02-2.73,0.74-4.13,0.12c-1.28-3.41-6.93-5.53-11.84-4.23c1.14,0.45,2.04,0.78,2.92,1.17
	c1.03,0.46,3.19-0.76,3,1.27c-0.21,2.27-2.62,1.18-3.64,1.01c-4.07-0.67-5.21,1.54-5.61,4.84l-0.42,0.01l-0.42-0.03
	c-1.54-3.03-5.64-4.44-5.48-8.58c0-0.01-0.7-0.17-0.83-0.03c-1.72,1.9-4.38,0.2-6.35,1.39c0.53,1.99,2.81,0.6,3.52,2.2
	c-1.98,1.86-5.19,2.43-5.35,5.92c-0.03-3.02-2.9-2.38-4.26-3.43c-0.7-0.54-2.26,1.44-1.84,3.21c-1.79,0.36-3.67-0.81-5.45,0.95
	c-2.07,2.05-2.57-1.53-4.16-1.63c-0.59-3.94-4.64-4-7.02-5.76c-2.25-1.67-1.88,1.45-2.28,2.78l-0.38,0.05l-0.37-0.08
	c-0.03-3.74-2.36-4.98-5.64-7.12c-3.17-2.07-5.38-1.56-8.15-0.37c-0.23-0.22-0.46-0.44-0.69-0.66c-0.2,0.41-0.4,0.82-0.6,1.23
	c-0.99-0.01-1.99-0.02-2.98-0.03c-1.43-3.74-4.68,0.64-6.48-1.45c-3.75,3.69-5.94,1.38-7.9-2.02c-0.51-0.88-1.2-1.62-3.18-1.18
	c1.69,2.7-1.13,8.53,6.18,6.51c0.5-0.14,4.27-0.57,4.24,2.6c-0.76,0.64-1.54,1.38-2.58,0.63c-3.09-2.26-4.9-0.2-6.72,1.92
	c-0.96-0.04-1.92-0.08-2.88-0.12c-1.54-1.34-1.64-3.19-1.78-5.02c4.67-2.14-0.06-4.53,0.18-6.78c-1.81-1.15-3.63-2.58-5.4,0.02
	c-1.12,1.64-2.7,0.62-4.08,0.78c-3.62,1.45-4.99-3.9-8.64-2.81c-1.3,0.39-2.94-0.48-4.59,0.9c1.9,2.47,4.63,2.75,7.76,3.29
	c-2.61,2.19-4.97,2.9-7.94,1.63c-1.79-0.76-3.63-1.43-5.37,0.69c-1.94,2.37-4.59,1.55-6.85,0.42c-2.63-1.31-3.24-3.57-2.14-6.28
	l0.46-0.01l0.41,0.22c0.16,0.64-0.37,1.59,0.73,1.75c0.1,0.02,0.36-1.01,0.54-1.56c2.19,2.48,4.35,5.23,7.52,1.14
	c-2.58-1.48-7.49-2.65-0.6-5.28c0.53-0.2,1.13-1.2,0.09-2.38c-2.21,3.34-7.97,1.01-9.12,6.14c-2.63-2.46-0.54-4.14,0.97-5.92
	c4.69,0.28,4.94-3.58,4.01-5.96c-1.82-4.66,1.85-7.17,3.4-10.18c0.79-1.53,1.74-1.7,0.52-3.58c-1.3-1.99,2.12-3.35,1.32-6.34
	c-0.76-2.82,1.42-6.43,2.94-9.65c-0.55,6,5.39,11.14,2.11,17.55c1.13,0.8,3.88,0.32,3.86,2.5c-0.01,1.24-0.8,3.81-3.5,2.8
	c0-0.01,0.27-0.06,0.27-0.06L105.92,162.88z M179.64,186.63c-3-0.58-5.39,2.38-7.73-0.14c-0.11-0.12-1.18,0.38-1.54,0.81
	c-0.98,1.17,0.42,0.91,0.83,1.33C174.99,192.47,176.77,188.79,179.64,186.63z M167.76,172.91c1.8,0.47,4.25-2.44,5.26,0.96
	c0.03,0.09,1.92,0.5,2.35-0.87c0.24-0.76,0.92-1.75,0.65-2.21c-0.51-0.87-1.51-0.86-2.5-0.23
	C171.84,171.63,169.24,170.38,167.76,172.91z M165.08,177.09c-0.15,0.04-0.39,0.16-0.43,0.11c-2.06-2.5-4.04,0.85-6.06,0.07
	c-0.07,0.59-0.43,1.49-0.18,1.71c1.56,1.4,2.95-0.23,4.39-0.54c0.67-0.14,1.15-1.08,1.74-1.64c0.09-0.08,0.3-0.1,0.42-0.06
	C165.03,176.76,165.04,176.97,165.08,177.09z M227.1,174.34c2.37,1.69,4.56,1.73,7.15-0.25
	C231.53,173.05,229.31,170.35,227.1,174.34z M105.47,178.84l0.18,0.42l0.18-0.42L105.47,178.84z"/>
<path fill="#2A3140" d="M272.96,181.25c3.47,0.56,6.05-1.58,10.1-3.12c-4.12-0.56-5.6-3.63-9.22-4.21c2.54-2.03,5.56-3.56,2.74-6.9
	c-0.39-0.46-0.72-1.69-0.15-1.57c4.16,0.84,1.42-6.57,6.05-4.99c0.03,0.01,0.53-0.79,0.45-1.11c-1.33-5.05,1.98-8.82,3.69-13.25
	c0.22,4.53,5.53,7.52,3.31,12.63c-0.07,0.16,0.17,0.65,0.34,0.69c2.53,0.62,4.88,1.27,2.04,4.38c3.9,3.09-0.8,3.81-1.4,5.74
	c2.67,0.87,5.53,1.79,8.59,2.78c-1.08,0.96-3.32,0.53-2.43,2.91c1.17,3.12,0.19,4.91-3.41,4.05c-2.27-0.54-2.52,0.99-3.01,2.42
	c0.68,0.43,1.22-0.14,1.82-0.21c2.3-0.28,7.51-3.41,8.79-4.75c3.22-3.41,2.16-8.59,5.36-12.28c1.25,2.11,2.11,4.35,1.56,6.41
	c-0.9,3.43,2.88,3.49,3.51,5.68c0.04,0.14,0.59,0.14,0.9,0.2c0.55-2.8,3.84-4.97,3.96-6.65c0.34-4.74,2.29-8.63,4.36-12.87
	c0.38,4.32,4.87,7.34,3.31,12.18c-0.43,1.34,0.78,1.2,1.43,1.43c1.54,0.53,3.37,0.42,1.66,3.12c-1.04,1.64,1.18,2.13,2.38,1.87
	c2.53-0.54,4.39-2.25,4.25-4.91c-0.14-2.54,1.56-4.08,2.41-6.21c0.32,2.72,3.32,4.39,1.64,8.02c-0.88,1.91,4.06,0.76,4.39,4.34
	c1.82-3.37,1.65-6.99,5.6-5.5c-1.98-5.91,2.13-9.7,3.46-14.35c0.29,4.41,5.36,7.32,3.33,12.28c-0.07,0.16,0.89,0.74,1.37,1.12
	c1.14-1.45,4.05,0.77,4.35-1.79c0.26-2.17,0.55-3.57,3.12-3.28c0.26,0.03,0.9-0.68,0.84-0.86c-1.85-5.31,2.37-9.02,3.65-13.72
	c0.01,4.69,5.8,7.66,3.33,12.88c-0.07,0.14,0.18,0.49,0.36,0.67c4.71,4.78,4.77,6,0.31,10.18c1.02,0.19,1.93,0.41,2.85,0.51
	c1.28,0.14,2.99,1.9,3.57,0.74c0.9-1.79,2.53-3.69,2.46-5.41c-0.05-1.28,0.62-2.01,0.65-2.99c0.08-2.42-0.47-6.14,2.13-6.18
	c2.18-0.03,2.32,4.33,1.97,6.28c-0.56,3.09,3.34,4.55,1.98,7.54c-0.08,0.17,0.86,0.81,1.33,1.24c0.64-1.41,3.14-0.84,3.16-2.62
	c0.03-3.31,1.36-6.11,3.17-9.02c0.59,5.77,7.07,10.18,3.88,16.85c1.38,0.56,3.46,0.89,4.68,2.09c0.8,0.79-3.08,5.28-5.09,5.74
	c1.52,0.99,3.89,0.94,3.5,3.6c-3.99-0.23-7.31,0.71-6.71,6.09c-2.02-1.02-0.48-2.75-1.68-3.89c-2.53,2.32-6.28,1.33-9.13,3.16
	c-1.04-1.77-2.34-1.03-3.62-0.38c-3.4-0.12-5.87-1.42-6.48-5.1c-0.22-1.35-0.65-2.6-2.28-2.82c-0.86-0.11-2.27,0.25-2.09,0.81
	c0.79,2.53-3.1,3.57-1.74,6.11c-0.57,0.02-1.14,0.04-1.71,0.06c-0.11-1.46-0.68-1.78-2.25-1.54c-2.11,0.32-3.85,2.22-6.18,1.4
	c0.02-1.04,0.04-2.07,0.05-3.11l0.18,0.02c0.64,0.05,1.27,0.1,1.91,0.15c1.44-0.06,3.21,0.38,3.62-1.64
	c0.12-0.6-0.62-1.36-0.96-2.05c-1.63,1.9-5.61-0.51-6.16,3.36c-1.89-0.22-3.78-0.44-5.67-0.65l0.02,0.02
	c-0.32-2.55-2.9-2.01-4.27-3.13c-2.67-2.85-5.28-2.17-7.88,0.12c-2.5-0.12-4.1,0.99-4.22,3.49c-2.72-0.21,0.1-2.66-1.93-2.89
	c-2.17,1.53,1,5.62-2.9,6.41c-1.41-0.64-2.98-0.35-4.47-0.69c-1.96-0.44-3.88,0.62-1.32,2.98c-3.32,1.07-6.47-0.15-9.61-0.89
	c-3.21-0.75-6.39-1.49-9.7-1.42c-0.14-2.36-1.43-3.04-3.7-3.74c-2.38-0.73-5.86-0.61-7.42-5.52c4.12,3.33,6.75,1.04,9.44-0.07
	c-3.27-4.22-8.22-0.81-12.13-2.51c-0.42-0.18-1.73,0.5-1.71,0.62c0.54,3.13-4.41,4.66-2.37,8.16c-0.68,0.03-1.37,0.06-2.05,0.09
	c0.03-6.92-3.08-9.09-10.18-7.1c-0.67-0.63-0.86-0.01-1.12,0.43l0.01,0c-0.93-0.74-1.85-1.49-2.78-2.23
	c0.93-0.45,1.67-1.04,1.52-2.23C272.76,182.36,272.86,181.81,272.96,181.25z M378.95,187.54c-0.04-1.34,2.28-0.82,1.99-2.44
	c-1.44,0.27-2.37,0.86-2,2.46c-0.24-0.18-0.49-0.36-0.73-0.54c-0.06,0.15-0.12,0.31-0.18,0.46
	C378.34,187.5,378.64,187.52,378.95,187.54z M329.76,181.53c-1.8-3.82-1.8-3.82-4.95-0.69C326.43,181.07,328,181.28,329.76,181.53z
	 M376.46,186.52c-0.63-2.32-2.21-2.61-4.16-2.18C372.94,186.54,374.96,185.94,376.46,186.52z M326.34,186.46
	c0.73,0.17,1.16,0.33,1.6,0.35c0.73,0.05,1.38-0.21,1.2-1.07c-0.06-0.29-0.83-0.72-1.09-0.62
	C327.48,185.35,327.04,185.88,326.34,186.46z M389.52,177.29c-0.13-0.13-0.25-0.23-0.36-0.34c-0.11,0.22-0.26,0.44-0.31,0.67
	c-0.02,0.08,0.2,0.22,0.31,0.33C389.28,177.73,389.4,177.51,389.52,177.29z"/>
<path fill="#2A3140" d="M713.16,185.63c0.66,4.15-4.26,4.36-5.33,4.66c-5.63,1.59-6.06,5.1-5.34,9.68c-0.73,0.02-1.47,0.04-2.2,0.06
	c2.12-3.57-2.25-6.15-1.5-9.57c0.15-0.69-0.98-1.76-1.7-1.32c-3.59,2.18-5.99-0.73-8.92-1.68c-2.45-0.8-5.17-1.16-7.78-0.16
	c-2.83-2.53-3.05-0.39-3.23,1.8c-0.54-0.8-3.44,2.87-2.3-1.26c0.44-1.61-1.22-2.29-2.15-1.88c-2.64,1.17-5.03,0.11-7.55-0.12
	c-2.41-0.22-3.72,1.57-2.87,3.45c-2.41,1.89-3.68,0.59-4.58-1.66c-0.54-1.35-4.04-2.27-0.36-4.29c1-0.55,2.64-2.84,0.08-4.39
	c-2.6-1.58-5.23-2.47-7.84-0.22c-0.63,0.54-0.2,2.06,0.69,1.66c2.09-0.93,3.58-0.58,2.93,1.64c-0.49,1.67-2.56,2.38-4.4,0.71
	c-0.46-0.41-1.18-0.53-1.78-0.79c0,0,0.02,0.03,0.02,0.03c-0.28-0.59-0.56-1.17-0.84-1.76c-0.11-0.15-0.23-0.29-0.36-0.43
	c0.21-0.96,0.35-1.94,0.64-2.88c1.09-3.5,0.07-4.84-3.87-3.51c-0.14,1.35,3.97,1.93,1.32,3.36c-2.23,1.21-2.59,5.76-6.56,3.83
	c-0.22-0.45-0.16-0.77,0.39-0.87c0.2-1.56-0.39-2.54-2.03-2.73c4.03-5.67,4.19-12.77,7.34-19.54c1.57,3.27,3.83,5.72,3.27,9.34
	c-0.05,0.32,3.5,5.26,3.62,5.74c0.18,0.74,1.54,1.62,0.01,2.38c-0.09,0.11-0.27,0.24-0.26,0.33c0.04,0.24,0.17,0.46,0.26,0.69
	c3.41,0.32,4.52-1.69,5.09-4.64c0.41-2.08,1.37-4.04,2.38-6.92c0.9,3,2.44,4.77,2.41,7.39c-0.03,2.79,2.82,4.37,3.73,6.86
	c0.12,0.32,1.12,0.31,1.23,0.63c1.9,5.25,1.88,5.26,7.9,1.38c-0.96-1.07-2.18-0.65-3.16-0.55c-3.25,0.35-4.15-1.29-2.7-3.74
	c1.79-3.03-1.08-2.26-2.41-3.2c1.8-0.69,3.32-1.27,4.85-1.85c0.92-0.35,2.39-0.7,1.89-1.84c-1.83-4.19-1.43-7.53,2.87-9.85
	c-2.66-5.07,3.73-7.93,2.84-12.71c1.85,2.96,4.57,5.32,3.55,9.07l3.79,5.35c-1.18,3.25,5.55,4.34,2.18,8.56
	c-0.94,1.18,0.93,3.48,3.34,4.34c-3.82-0.4-3.71,5.14-7.71,4.14c2.29,2.16,4.78,4.37,7.71,3.49c3.54-1.06,0.89-5.57,3.17-7.7
	c1.9,5,5.67-2.13,7.84,1.31c-2.92-3.4-8.09-0.15-10.9-4.19c2.87-0.44,4.81-3.01,7.97-3.12c-1.19-1.9-3.43-3.97-3.03-5.12
	c0.94-2.69-1.82-6.49,2.24-8.12c0.95-0.38,1.64-1.07,1.17-1.77c-2.69-3.99,1.7-7.12,1.21-10.83c-0.11-0.87,0.47-2.33,1.48-2.3
	c0.73,0.02,1.72,1.13,2.07,1.98c0.64,1.52,1.29,3.22,1.18,4.8c-0.12,1.72-1.62,3.34,1.39,4.15c1.09,0.29-0.07,1.32-0.59,1.81
	c-0.65,0.59-1.07,2.01-0.95,2c6.05-0.89,0.78,7.14,5.65,7.14c0.81,0,0.89,1.04,0.48,1.56c-1.85,2.33-0.95,4.91-1.01,7.48
	c-0.1,4.3-2.99,1.38-4.43,1.24c-2.55,2.7,10.15,4.08-0.08,6.91c1.65,3.39,5.43,3.52,7.61,5.75
	C712.54,185.1,712.85,185.36,713.16,185.63z"/>
<path fill="#2A3140" d="M540.53,198.38c0.26-2.72,2.25-6.51-3.8-4.06c-2.02,0.82-5.1-1.44-7.72-4.08c3.49-0.15,6.38,0.05,8.65-2.1
	c0.6-0.57,1.37-0.93,1.27-1.79c-0.13-1.18-1.16-1.03-1.93-0.87c-4.06,0.86-4.1-2.42-3.07-4.09c1.89-3.05-0.58-3.88-2.52-5.82
	c3.66-0.24,5.5-3.2,8.87-2.79c-1.27-1.88-3.47-3.71-3.22-5.09c0.55-2.95-2.19-6.9,2.14-8.88c0.58-0.27,1.47-0.36,1.2-1.17
	c-2.12-6.15,2.9-11.17,2.65-17.12c0.57,4.21,2.83,7.79,3.14,12.18c0.13,1.84-2.39,6.92,2.82,7.67c-1.45,3.78,5.09,6.13,1.8,10.43
	c-0.68,0.88-0.15,2.91,0.21,4.31c0.86,3.35,0.27,5.38-2.85,7.49c-1.31,0.88-1.78,1.72-0.23,2.48c2.46,1.21,3.81,4.41,7.16,3.98
	c0.32-0.04,0.77-0.13,0.95,0.03c3.16,2.89,3.16,2.89,6.77,1.46c-3.2-3.33-3.03-5.42,0.66-7.87c0.4-0.27,1.14-0.79,1.09-0.87
	c-3.32-6.46,3.96-10.45,3.06-17.33c3.52,3.13,4.18,6.71,4.4,9.3c0.23,2.75,2.1,2.72,2.96,2.8c2.32,0.2,0.65-2,1.03-2.57
	c3.1-4.64,1.92-10.38,4.45-15.7c1.4,6.18,2.71,11.92,4.01,17.65c-1.46,0.34-2.99,0.49-4.34,1.07c-1.05,0.45-4.36-0.22-1.12,3.01
	c2.16,2.15-2.06,2.63-3.85,3.53c0.4,2.28,3.91-0.02,3.76,2.85c-0.15,2.76-2.37,2.26-3.92,2.82c-0.99,0.36-1.22,1.07-1.05,1.96
	c0.39,2.11,2.17,2.7,4.02,3.35c-1.03,2.31-4.31-0.33-4.89,2.41c-3.43-2-3.46,0.91-4.19,3.25c-0.14-4.99-2.71-6.71-7.07-6.29
	c-1.3,0.12-2.43-0.23-3.72-0.7c-5.48-2-11.71,1.84-11.59,6.84C544.44,199.72,541.8,201.49,540.53,198.38z M542.5,158.88
	c-0.51-0.4-0.8-0.8-1.14-0.85c-0.37-0.06-0.79,0.21-1.19,0.34c0.36,0.43,0.67,0.93,1.11,1.23
	C541.42,159.7,541.93,159.24,542.5,158.88z"/>
<path fill="#2A3140" d="M472.42,185.44c4.66-1.56,2.36-6.48,4.53-9.4c1.92-2.57,3.74-5.46,4.08-9.11c2.15,0.79,2.74,2.38,2.72,3.9
	c-0.03,2.2,1.34,3.47,2.22,5.16c0.86,1.65,4.05,2.81,1.97,5.94c-0.93,1.4,2.22,2.01,2.59,3.65c1.52-0.36,3.07-0.67,4.55-1.15
	c0.27-0.09,0.33-0.9,0.44-1.39c0.23-1.08-0.6-0.86-1.17-0.9c-1.17-0.07-2.34-0.08-3.51-0.16c-1.19-0.08-1.06-1.05-1.1-1.83
	c-0.04-0.83,0.47-2.25,0.85-1.99c3.21,2.18,6.3-2.76,7.98-0.91c-2.61-0.69-6.77-0.9-12.46-0.25c3.65-3.38,7.29-3.53,11.2-4.6
	c-3.63-1.73-4.95-4.25-3.82-7.77c0.08-0.26-0.06-0.6-0.1-0.91c4.99-0.3,1.54-4.61,3-6.29c2.13-2.45,2.71-5.42,4.11-9.4
	c1.24,4.06,3.03,6.44,3.41,10.06c0.38,3.64,2.32,7.89,6.43,9.81c1.27,0.59,0.84,1.28,0.35,1.84c-1.78,2-1.72,4.12,0.47,5.32
	c3.14,1.73,2.59-2.25,4.61-3.93c0.2,3.72,3.64,5.76,1.93,9.68c-0.72,1.66,1.96,0.46,2.95,1.52c2.3,2.44,0.52,6.28,3.29,8.37
	c-1.43,1.21-2.86,2.41-4.4,3.71c2.07,2.99,5.22,1.71,8.29,1.41c-0.49,2.7-3.18,2.6-4.32,4.14c-3.46,2.35-7.29,1.38-9.21-2.28
	c-0.5-0.95-1.49-0.34-2.23-0.54c0.01-0.61,0.5-1.55-0.37-1.69c-2.31-0.36-5.37,0.28-3.79-3.93c0.11-0.29-1.49-2.93-2.58-1.88
	c-1.5,1.45-4.44,2.25-3.8,5.32c-0.39,0.03-0.79,0.06-1.18,0.08c-1.01-0.9,1.44-3.5-1.66-3.37c-0.23-0.28-0.46-0.57-0.69-0.85
	c-0.04-4.37-2.72-3.09-4.49-1.7c-3,2.35-5.29,5.46-9.94,4.82c-1.73-0.24-10.72-1.45-10.41-2.52c1.29-4.34-3.21-2.42-4.09-4.21
	c-0.35-0.72-0.69-1.44-1.04-2.15c2.23-1.6,2.87-1.57,4.09,0.18c0.25,0.75,0.48,1.52,1.49,1.46c0.09-0.01,0.16-0.23,0.24-0.35
	C473.41,186.05,472.92,185.75,472.42,185.44z M505.37,181.28c4.54,2.19,6.06,1.79,7-1.95c0.17-0.69,2.12-1.4,0.34-2.08
	c-0.89-0.34-3.18-0.74-3.11,0.24C509.88,181,505.92,179.16,505.37,181.28z"/>
<path fill="#2A3140" d="M598.91,165.85c2.24,0.21,4.31-0.01,4.7,3.45c0.32,2.86,3.35,1.23,5.94,2.16c-1.99-3.05-0.55-4.69,0.43-6.9
	c0.85-1.93,2.5-4.01,2-6.69c2.14,2.55,3.08,5.31,4.04,8.16c0.71,2.11-0.96,5.71,3.15,6.25c0.29,0.04,0.47,1.14,0.66,1.77
	c0.29,0.98-0.52,2.92,1.28,2.58c1.34-0.26,3.49-1.79,3.46-2.71c-0.08-3.35,2.69-5.59,3.34-8.93c1.72,4.49,3.38,9,5.19,13.45
	c0.61,1.5,0.26,3.87,2.93,3.84c0,1.87,0,3.75,0,6.82c-2.15-2.89-2.64-5.65-5.47-6.03c-0.1,0.21-0.4,0.58-0.31,0.72
	c3.81,6.4,3.79,6.43-5.56,7.11c-1.05-3.61-4.06-1.37-6.08-1.85c-1.82-0.43-1.36,1.62-1.43,2.81c-1.87,0.94-4.34,0.83-4.94-0.79
	c-2.45-6.69-8.19-3.17-12.56-4.77c-0.87-2.6,3.19-2.92,3.13-5.34c1.94-0.24,3.91,2.26,6.26-0.4c-3.73,0.18-6.5-1.8-9.66-2.45
	c0.2,0.91,0.36,1.68,0.53,2.45c-1.73,2.45-3.98,2.61-6.35,1.2c-1.1-0.65-2.31-0.99-3.28-0.55c-5.42,2.46-4.56-0.8-3.81-4.03
	c2.3-1.29,4.76-2.12,2.02-5.69c-1.27-1.65,1.93-3.37,2.58-5.35c0.18-0.55,2.07-0.45,1.49-1.4c-3.27-5.32,4.02-8.03,2.95-12.96
	c1.31,3.07,4.78,5.16,3.01,9.02c-1.41-0.66-2.55-0.83-2.75,1.27C595.58,164.41,596.07,166.06,598.91,165.85z"/>
<path fill="#2A3140" d="M417.75,196.99c-0.69-4.03-4.72-3.82-7.18-4.69c-2.64-0.94-2.66-3.46-4.55-4.67
	c-0.67-0.43,1.21-2.43,2.54-1.47c3.14,2.27,5.06-0.04,7.31-1.44c1.05-0.66,1.58-1.76,0.38-2.24c-5.39-2.16-2.18-3.03,0.47-4.21
	c0.48-0.21,0.66-1.1,1.36-2.37c-6.23,3.02-5.92-0.23-4.94-4.13c0.12-0.46,0.22-0.98,0.14-1.44c-0.54-3.48,1.15-8.74,3.77-10.93
	c0.61-0.51,1-1.07,0.84-1.61c-1.95-6.31,1.67-11.63,3.1-17.42c-0.79,5.81,5.79,10.93,1.84,17.27c3.25,0.36,2.99,2.43,3.71,5.91
	c0.87,4.19-1.26,5.48-2.82,8.26c3.1,0.24,5.17,2.51,9.26,3.42c-3.8,0.96-4.47,2.21-3.16,5.07c1.04,2.26,1.12,5.58-3.43,4.6
	c-0.84-0.18-1.55-0.06-1.53,1.21c0.02,1.21,0.77,1.16,1.5,1.7c2.31,1.73,5.13,1.52,8.36,2.59c-3.5,1.6-5.43,3.67-9.51,2.77
	c-4.05-0.9-1.73,2.85-1.34,4.79c-0.98,1.6-2.55,1.1-3.98,1.11c-0.15-0.93,0.19-2.36-1.62-1.58
	C418.1,197.31,417.92,197.15,417.75,196.99z"/>
<path fill="#2A3140" d="M52.82,165.8c-0.92-3.71,0.71-9.84,4.11-14.93c0.96,2.79,1.34,5.54,2.89,7.82c0.53,0.78,0.74,1.95,1.91,1.68
	c0.72-0.17,1.05-0.92,1.26-1.87c0.42-1.9,1.34-3.7,2.21-5.93c2.46,3.81,2.49,8.23,5.35,11.44c1.43,1.6,2.58,1.41,2.94-0.05
	c0.81-3.3,2.77-6.29,2.51-9.9c-0.11-1.58-0.08-3.86,1.87-4.07c2.22-0.25,1.67,2.23,1.78,3.44c0.34,3.6,1.65,7.02,2.54,10.41
	c0.76,2.87-1.11,3.72-1.46,5.81c1.44-0.17,2.29,2.22,4.34,1.38L85,170.88c-0.12,0.11-0.34,0.23-0.33,0.33
	c0.02,0.26,0.15,0.5,0.24,0.75c-1.85,0.79,0.51,9.44-5.4,2.32c-0.97,3.3-2.11,6.02-5.04,7.58c-1.34-0.61,0.45-5.92-3.83-2.65
	c-1.58,1.21-2.44-0.47-2.77-1.72c-0.53-2.04,1.23-1.54,2.21-1.58c1.74-0.08,3.26-0.55,2.63-2.55c-0.47-1.46-1.13-0.2-1.56,0.4
	c-0.13,0.12-0.26,0.25-0.39,0.39c-2.86-0.43-4.62-1.15-4.13-5c0.49-3.85-2.54-5.45-5.92-3.67C58.06,166.87,55.48,166.53,52.82,165.8
	z"/>
<path fill="#2A3140" d="M443.33,183.08c2.42-3.7,2.53-8.33,4.84-12.44c1.64,1.44,1.15,5.48,4.32,3.96c2.56-1.24,2.38-3.6,0.53-5.75
	c-0.31-0.36-0.78-1.51,0.33-1.36c3.87,0.53,1.41-6.63,6.12-4.94c0.04,0.01,0.45-0.58,0.37-0.75c-2.36-5.25,2.57-8.7,2.41-14.68
	c4.89,8.89,5.51,12.08,3.31,14.56c1.87,0.07,3.63,0.46,5.2,1.5c-2.17,2.47-2.17,2.47,0.02,3.04l0.02-0.08
	c0.9,2.97-1.98,3.62-3.34,5.43c1.73,0.65,3.5,1.16,5.12,1.96c1.1,0.55,3.06-0.46,3.3,1.37c0.24,1.8-1.92,1.97-2.81,3.05
	c-3.51,1.31-7.09,0.36-10.62,0.26c-1.68-0.05-3.32-0.61-4.55,1.04c-0.62-0.1-1.25-0.2-1.87-0.3c-0.23-0.44-0.54-0.58-0.96-0.22
	c-1.09-0.34-1.31-2.89-2.9-1.5c-0.91,0.79-1.82,2.43-0.02,3.66C449.04,180.99,446.19,182.06,443.33,183.08z"/>
<path fill="#2A3140" d="M260.25,144.85c0.06-0.78-0.32-1.69,0.62-2.23c0.4,0.46,1.02,1.2,1.43,0.48c0.61-1.06-0.51-1.13-1.22-1.31
	c0.45-2,0.89-3.99,1.34-5.99c0.43-0.01,0.85-0.02,1.28-0.03c-1.11,5.81,4.55,10.45,1.95,16.55c-0.62,1.46,1,1.53,1.68,1.85
	c1.87,0.86,2.89,1.7,0.89,3.47c-0.31,0.28-0.74,0.98-0.74,0.99c5.44,4.05-1.13,6.18-1.48,9.28c-2.04-0.09-4.03-1.89-6.1-0.37
	c-1.15,0.85-3.48,0.94-0.97,3.69c2.62,2.88-2.59,1.97-3.05,3.8c-1.96-0.98-6.27-1.11-1.51-4.48c0.58-0.41,0.86-1.99,0.56-2.74
	c-1.58-3.92,1.22-7.09,1.52-10.59c0.26-3.05,3.17-1.72,3.9-3.42c6.28,0.16,1.35-4.69,2.9-6.91
	C264.38,145.27,260.91,146.18,260.25,144.85z"/>
<path fill="#2A3140" d="M42.07,174.89c0.02-3.05,1.95-4.4,6.75-4.74c-2.39,2.73-0.48,3.46,1.79,3.17c1.68-0.21,3.16-0.76,4.83,0.73
	c-1.57,1.07-3.89-0.01-4.78,2.17c1.24,1.52,3.2-1.3,4.27,0.67c-2.96,9.23-6.39,0.36-9.56,0C44.34,176.77,43.45,175.15,42.07,174.89z
	"/>
<path fill="#2A3140" d="M444.87,193.19c-5.93-0.26-4.13-3.84-3.05-7.11c2.45,0.55,2.06-0.8,1.51-2.26c0,0-0.1,0.01-0.1,0.01
	c1.15,0.86,2.87,1.48,3.36,2.63c1.96,4.53,5.49,4.18,9.27,3.49c0.02,0.69,0.04,1.38,0.06,2.08c-2.77,1.62-5.65,0.34-8.47,0.24
	C446.35,192.23,445.53,192.31,444.87,193.19z M445.27,188.55c-0.24-0.08-0.39-0.12-0.54-0.17c0.03,0.1,0.06,0.2,0.08,0.3
	C444.93,188.65,445.05,188.62,445.27,188.55z"/>
<path fill="#2A3140" d="M85.08,171.02c0.46-2.78,0.86-5.58,1.42-8.35c0.14-0.72,0.4-1.73,1.48-1.71c1.1,0.02,1.51,1.16,1.31,1.74
	c-0.9,2.53,3.65,4.81,0.24,7.49c-0.64,0.5,0.7,0.78,1.14,0.94c3.2,1.1,1.21,2.48,0.25,3.81c-1.56-1.15-3.72-1.35-4.91-3.08
	c-0.19-0.47,0.11-1.46-1.01-0.98L85.08,171.02z"/>
<path fill="#2A3140" d="M592.76,190.88c-1.4,0.04-3.31-0.64-2.83,2.02c-0.4,0.72-0.79,1.44-1.19,2.17l0.03-0.02
	c-5.57,0.09-3.73-4.12-4.09-7.05l0.03-0.03c1.15,0.61,2.24,1.48,3.47,1.78c1.48,0.36,2.86-0.13,2.02-2.1
	c-0.47-1.11-2.25-2.06-0.52-3.27c1.08-0.76,2.57-0.79,3.71,0.2c1.69,1.47-0.04,2.56-0.45,3.83
	C592.7,189.17,592.81,190.06,592.76,190.88z"/>
<path fill="#2A3140" d="M648.03,188c-1.19,0.53-2.36,1.2-3.74,0.6c-1.83-0.8-5.43-0.86-1.31-3.87c1.5-1.1,0.83-3.88,2.87-4.93
	c0.12,0.13,0.24,0.28,0.36,0.42c0.28,0.59,0.56,1.17,0.84,1.76c0,0-0.02-0.03-0.02-0.03c0.34,2.01,0.68,4.02,1.02,6.03L648.03,188z
	 M645.74,185.13c-0.04-0.12-0.04-0.26-0.12-0.35c-0.03-0.04-0.2,0.04-0.31,0.07c0.04,0.12,0.05,0.26,0.12,0.35
	C645.46,185.24,645.63,185.16,645.74,185.13z"/>
<path fill="#2A3140" d="M584.69,188.01c-2.45-0.82-4.91-1.54-3.98-5.09c0.66-2.55,0.92-5.3,4.53-5.25c0,0,0.04,0.1,0.04,0.1
	c-1.49,1-2.28,2.13-1.22,4.01c1.08,1.93,0.6,4.12,0.66,6.22C584.71,187.98,584.69,188.01,584.69,188.01z"/>
<path fill="#2A3140" d="M436.69,199.95c0.81-0.4,1.75-0.68,1.69-1.87c3.23-0.66,6.56,0.59,9.8-0.52
	C445.16,202.41,440.66,199.91,436.69,199.95z"/>
<path fill="#2A3140" d="M632.07,197.13c-0.73,0.84-1.73,0.89-2.74,0.93c-0.99,0.04-2.2,0.32-2.78-0.59
	c-0.69-1.1,0.27-1.94,1.15-2.35c1.35-0.64,0.95-3.23,3.03-2.78c1.34,0.29,1.28,1.45,0.54,2.31c-1.01,1.17-1.31,1.97,0.59,2.29
	L632.07,197.13z"/>
<path fill="#2A3140" d="M76.11,186.95c-1.07-1.28-3.63,0.05-4.06-2.33c2.23,1.24,5.98-4.57,7.17,1.54c0,0,0.02-0.03,0.02-0.03
	C78.2,186.4,77.15,186.67,76.11,186.95z"/>
<path fill="#2A3140" d="M636.07,198.93c0.06-1.89,0.99-2.68,2.43-2.86c1.29-0.16,2.21,0.41,2.48,1.76c0.53,2.64-2.09,0.81-2.89,1.96
	C637.54,200.58,636.41,199.68,636.07,198.93z"/>
<path fill="#2A3140" d="M653.67,195.7c-0.95,1.54-1.66,3.22-3.07,2.74c-2.22-0.75-1.2-3.11-1.73-4.92
	C650.12,195.14,651.45,196.26,653.67,195.7z"/>
<path fill="#2A3140" d="M353.7,196.17c-0.02,0.6-0.03,1.19-0.05,1.79c-1.82-0.65-3.64-1.31-5.58-2c0.67-1.47,1.52-2.75,3.39-2.93
	c0,0-0.02-0.02-0.02-0.02C351.51,194.55,352.32,195.56,353.7,196.17z"/>
<path fill="#2A3140" d="M656.26,190.24c-0.28,1.42-1.55,1.47-2.57,1.58c-1.27,0.14-1.65-0.77-1.56-1.9c0.09-1.15,0.77-1.7,1.88-1.87
	C655.73,187.78,655.47,189.48,656.26,190.24z"/>
<path fill="#2A3140" d="M149.46,190.66c3.59-0.7,2.03,1.85,2.12,3.36c-1.54-0.25-2.99,1.08-4.66,0.32
	C147.02,192.53,149.85,192.69,149.46,190.66z"/>
<path fill="#2A3140" d="M847.82,191.58c0,0-0.03-0.02-0.03-0.02c0.42-1.21-0.23-3.29,2.2-2.88c0.53,0.09,1.44,0.82,1.39,1.09
	C850.97,191.74,848.85,190.62,847.82,191.58z"/>
<path fill="#2A3140" d="M659.88,195c0.57,1.03-1.44,1.76-0.34,2.85c-1.28,0.17-3.04,0.48-3.05-1.25
	C656.49,194.49,658.55,195.16,659.88,195z"/>
<path fill="#2A3140" d="M270.5,169.61c1.12,0.49,2.71-0.02,3.56,1.95c-1.3,0.36-2.48,0.69-3.67,1.02
	C270.43,171.59,267.43,170.48,270.5,169.61z"/>
<path fill="#2A3140" d="M49.71,169.58c-0.65-0.93-1.29-1.85,0.12-2.69c3.15,0.29,0.62,2.91,1.68,4.06
	c-0.39,0.14-0.78,0.27-1.17,0.41C50.12,170.77,49.92,170.18,49.71,169.58z"/>
<path fill="#2A3140" d="M142.29,193.07c0,0-0.04-0.01-0.04,0c0.15-1.14,0.42-2.27,1.75-2.51c0.78-0.14,1.18,0.55,1.01,1.21
	C144.64,193.19,143.41,193.07,142.29,193.07z"/>
<path fill="#2A3140" d="M720.3,178.9c0.33-0.96,0.65-1.92,0.98-2.88c0.31-0.13,0.63-0.26,0.94-0.38c0.12,0.16,0.25,0.31,0.39,0.46
	C725.49,180.02,721.14,178.02,720.3,178.9z"/>
<path fill="#2A3140" d="M142.27,193.96c0,0,0.01,0.05,0.01,0.05c0.73-0.01,1.59-0.3,1.97,0.61c0.07,0.17-0.43,0.82-0.7,0.85
	C142.51,195.57,142.37,194.76,142.27,193.96z"/>
<path fill="#2A3140" d="M586.71,196.81c-0.85,0.78-1.72,1.5-3,1.32C583.99,196.06,584.89,195.38,586.71,196.81z"/>
<path fill="#2A3140" d="M908.83,188.18c-0.12,0.61-0.24,1.22-0.36,1.82c-0.49-0.3-1.41-0.62-1.4-0.91
	C907.1,187.99,908.08,188.21,908.83,188.18z"/>
<path fill="#2A3140" d="M648.05,187.99c0.5,0.26,1.33,0.41,1.44,0.79c0.29,0.98-0.62,1.15-1.34,1.37l-0.24-0.24
	c0.04-0.63,0.08-1.26,0.12-1.9C648.03,188,648.05,187.99,648.05,187.99z"/>
<path fill="#2A3140" d="M841.17,191.34c-0.88,0.8-1.76,1.1-2.67,0.04C839.37,190.22,840.26,190.07,841.17,191.34z"/>
<path fill="#2A3140" d="M267.13,172.5c-0.64,0.6-1.38,0.58-2.16,0.33C265.47,171.23,266.12,170.69,267.13,172.5z"/>
<path fill="#2A3140" d="M115.77,188.11c-0.22,0.23-0.39,0.57-0.64,0.65c-0.39,0.12-1.01,0.25-0.89-0.5
	c0.03-0.21,0.49-0.45,0.78-0.49C115.24,187.73,115.51,187.98,115.77,188.11z"/>
<path fill="#2A3140" d="M680.53,187.91c0.2,2.04-1.47,0.91-2.24,1.31C678.62,188.07,679.59,188.02,680.53,187.91z"/>
<path fill="#2A3140" d="M453.05,181.99c-0.04,0.34-0.09,0.67-0.13,1.01c-0.74-0.05-1.59,0.26-2.09-0.61
	C451.57,182.26,452.31,182.12,453.05,181.99z"/>
<path fill="#2A3140" d="M251.9,187.5c-0.55,0.37-1.09,0.58-1.58-0.09c0.25-0.13,0.49-0.26,0.74-0.38
	C251.34,187.18,251.62,187.34,251.9,187.5z"/>
<path fill="#2A3140" d="M71.14,173.76c0.08,0.21,0.16,0.43,0.24,0.64c-0.21-0.09-0.42-0.17-0.63-0.26
	C70.88,174.01,71.01,173.88,71.14,173.76z"/>
<path fill="#2A3140" d="M70.05,184.24c-0.09,0.14-0.2,0.41-0.28,0.4c-0.57-0.07-0.6-0.3-0.08-0.54c0.07-0.03,0.26,0.18,0.4,0.27
	C70.09,184.37,70.05,184.24,70.05,184.24z"/>
<path fill="#2A3140" d="M648.16,190.14c-0.18,0.1-0.37,0.2-0.55,0.3c0.1-0.18,0.21-0.36,0.31-0.54
	C647.91,189.9,648.16,190.14,648.16,190.14z"/>
<path fill="#2A3140" d="M723.45,174.94c-0.28,0.38-0.56,0.77-0.83,1.15c-0.14-0.15-0.27-0.3-0.39-0.46
	C722.63,175.4,723.04,175.17,723.45,174.94L723.45,174.94z"/>
<path fill="#2A3140" d="M631.87,196.94c0.1-0.11,0.21-0.23,0.31-0.34c0.07,0.07,0.15,0.14,0.22,0.22c-0.11,0.11-0.22,0.21-0.33,0.32
	C632.07,197.13,631.87,196.94,631.87,196.94z"/>
<path fill="#121A2B" d="M723.44,174.93c-0.41,0.24-0.81,0.47-1.22,0.71c-0.31,0.13-0.63,0.25-0.94,0.38
	c-1.96-0.07-3.92-0.14-5.88-0.2c-0.24-0.3-0.49-0.59-0.73-0.89c0.04-0.65,0.08-1.3,0.12-1.95c4.91,0.43,4.76-2.87,4.58-6.2
	c0.02-0.3,0.1-0.59,0.24-0.86C722.13,168.39,723.88,171.2,723.44,174.93z"/>
<path fill="#121A2B" d="M260.25,144.85c0.66,1.33,4.13,0.42,3,2.04c-1.55,2.22,3.38,7.06-2.9,6.91c0.56-1.47-5.54-2.52-0.17-4.51
	C261.86,148.67,258.79,146.37,260.25,144.85z"/>
<path fill="#2A3140" d="M719.37,166.78c0.18,3.32,0.34,6.63-4.58,6.2c0.57-1.85,2.07-4.14-1.94-4.15
	C715.03,168.14,717.2,167.46,719.37,166.78z"/>
<path fill="#121A2B" d="M598.91,165.85c-2.84,0.21-3.33-1.45-3.11-3.79c0.2-2.1,1.33-1.93,2.75-1.27
	C600.35,162.36,600.51,164.04,598.91,165.85z"/>
<path fill="#2A3140" d="M712.23,184.83c-0.07-1.9,1.16-2.88,2.72-3.85c1.12,2.33,0.82,3.93-1.79,4.66
	C712.85,185.36,712.54,185.1,712.23,184.83z"/>
<path fill="#121A2B" d="M261.08,141.79c0.71,0.18,1.83,0.25,1.22,1.31c-0.41,0.72-1.03-0.02-1.43-0.48
	C260.8,142.31,260.87,142.03,261.08,141.79z"/>
<path fill="#121A2B" d="M472.42,185.44c0.5,0.31,0.99,0.61,1.49,0.92c-0.08,0.12-0.16,0.35-0.24,0.35
	c-1.02,0.06-1.25-0.71-1.49-1.46C472.17,185.24,472.42,185.44,472.42,185.44z"/>
<path fill="#121A2B" d="M443.33,183.82c0.55,1.46,0.94,2.81-1.51,2.26c0,0,0.02,0.02,0.02,0.02c-0.02-0.52-0.04-1.04-0.07-1.56
	C442.29,184.3,442.81,184.06,443.33,183.82z"/>
<path fill="#121A2B" d="M635.74,177c1.64,0.19,2.23,1.16,2.03,2.73C637.1,178.82,636.42,177.91,635.74,177z"/>
<path fill="#2A3140" d="M470.77,166.22c0.26,0.12,0.53,0.24,0.79,0.38c0.01,0.01-0.06,0.17-0.09,0.26c-0.23-0.23-0.46-0.45-0.68-0.7
	C470.79,166.14,470.77,166.22,470.77,166.22z"/>
<path fill="#121A2B" d="M649.99,175.95c-0.09-0.23-0.22-0.45-0.26-0.69c-0.02-0.09,0.16-0.22,0.26-0.33
	C649.99,175.27,649.99,175.61,649.99,175.95z"/>
<path fill="#2A3140" d="M714.68,174.93c0.24,0.3,0.49,0.59,0.73,0.89C714.7,175.9,714.41,175.64,714.68,174.93z"/>
<path fill="#2A3140" d="M441.77,184.54c0.02,0.52,0.04,1.04,0.07,1.56C441.07,185.62,440.25,185.13,441.77,184.54z"/>
<path fill="#2A3140" d="M418.27,197.47c-0.35,0.13-0.96,0.43-1,0.36c-0.32-0.49,0.02-0.73,0.48-0.85
	C417.92,197.15,418.1,197.31,418.27,197.47z"/>
<path fill="#121A2B" d="M853.3,180.45c-0.88-3.38-2.65-5.71-0.44-7.67c0.45-0.4,3.26,0.75,3.84,1.81
	C858.49,177.84,854.43,177.73,853.3,180.45z"/>
<path fill="#121A2B" d="M860.06,173.06c1.18-0.01,1.91,0.52,1.96,1.75c0.05,1.17-0.51,1.91-1.73,1.96c-1.17,0.05-1.9-0.49-1.96-1.72
	C858.27,173.85,858.86,173.19,860.06,173.06z"/>
<path fill="#121A2B" d="M849.85,171.25c0.02,0.95-0.46,1.57-1.34,1.8c-0.81,0.21-1.22-0.27-1.26-1.03c-0.04-0.87,0.15-1.69,1.21-1.8
	C849.17,170.14,849.72,170.46,849.85,171.25z"/>
<path fill="#121A2B" d="M845.06,175.82c0.54-0.27,1.09-0.55,1.63-0.82c0.73,0.15,2.21,0.17,1.82,0.91
	C847.6,177.65,846.2,176.99,845.06,175.82z"/>
<path fill="#121A2B" d="M860.77,169.69c-0.11,0.25-0.21,0.5-0.32,0.75c-0.25-0.11-0.63-0.17-0.7-0.35
	c-0.07-0.19,0.17-0.49,0.28-0.74C860.28,169.46,860.52,169.57,860.77,169.69z"/>
<path fill="#121A2B" d="M820.98,195.02c-0.12-0.06-0.24-0.12-0.36-0.18c0.11,0.07,0.23,0.14,0.34,0.2
	C820.96,195.04,820.98,195.02,820.98,195.02z"/>
<path fill="#121A2B" d="M91.06,181.99c0.42,0.07,0.85,0.13,1.27,0.2c-0.19,0.54-0.44,1.57-0.54,1.56
	C90.69,183.58,91.22,182.63,91.06,181.99z"/>
<path fill="#121A2B" d="M152.65,187.54c-0.29,0.51-0.65,0.87-1.3,0.57c0.2-0.41,0.4-0.82,0.6-1.23
	C152.19,187.1,152.42,187.32,152.65,187.54z"/>
<polygon fill="#121A2B" points="105.47,178.84 105.83,178.85 105.65,179.27 "/>
<path fill="#121A2B" d="M357.11,193.66c0.47,0.05,0.95,0.1,1.42,0.15c-0.02,1.04-0.04,2.07-0.05,3.11c-1.5-0.84-3.1-1.03-4.78-0.76
	c-1.37-0.61-2.19-1.61-2.26-3.16C353.33,193.23,355.22,193.45,357.11,193.66z"/>
<path fill="#121A2B" d="M358.71,193.84c0.73-1.07,1.37-1.15,1.91,0.15C359.98,193.94,359.35,193.89,358.71,193.84z"/>
<path fill="#121A2B" d="M275.03,186.94c-0.37,0.14-0.75,0.29-1.12,0.43C274.17,186.93,274.36,186.31,275.03,186.94z"/>
<path fill="#121A2B" d="M647.05,181.98c-0.28-0.59-0.56-1.18-0.84-1.76C646.49,180.81,646.77,181.4,647.05,181.98z"/>
<path fill="#121A2B" d="M456.01,178.95c-0.32-0.07-0.64-0.14-0.96-0.22C455.47,178.37,455.78,178.51,456.01,178.95z"/>
<path fill="#2A3140" d="M498.74,191.68c-0.42,0.04-1.08,0.26-1.22,0.08c-0.39-0.49,0.09-0.76,0.54-0.94
	C498.28,191.11,498.51,191.4,498.74,191.68z"/>
<path fill="#121A2B" d="M71.8,188.61c-1.72,0.82-3.27,1.43-6.36,1.02C68.16,187.57,69.76,187.34,71.8,188.61z"/>
<path fill="#121A2B" d="M76.11,186.95c1.04-0.27,2.09-0.55,3.13-0.82c0.15,1.6-0.63,2.44-2.18,2.49
	C75.82,188.65,76.05,187.72,76.11,186.95z"/>
<path fill="#2A3140" d="M802.15,186.66c0.76-0.38,1.58-0.81,2.1,0.23c0.45,0.92-0.05,1.6-0.93,1.9c-1.27,0.42-1.85-0.19-1.89-1.45
	C801.67,187.12,801.91,186.89,802.15,186.66z"/>
<path fill="#121A2B" d="M588.74,195.07c0.4-0.72,0.79-1.44,1.19-2.17C591.53,194.72,589.7,194.66,588.74,195.07z"/>
<path fill="#121A2B" d="M445.27,188.55c-0.23,0.07-0.34,0.1-0.46,0.13c-0.03-0.1-0.06-0.2-0.08-0.3
	C444.88,188.43,445.03,188.48,445.27,188.55z"/>
<path fill="#121A2B" d="M38.09,188.32c-0.7,1.12-1.78,0.87-2.28,0.15c-0.41-0.59,0.61-0.91,1.17-1.17
	C37.35,187.64,37.72,187.98,38.09,188.32z"/>
<path fill="#121A2B" d="M645.74,185.13c-0.11,0.03-0.27,0.11-0.31,0.07c-0.07-0.09-0.08-0.23-0.12-0.35
	c0.11-0.03,0.27-0.11,0.31-0.07C645.69,184.87,645.7,185.01,645.74,185.13z"/>
</svg>
