<?xml version="1.0" encoding="utf-8"?>
<!-- Generator: Adobe Illustrator 24.0.2, SVG Export Plug-In . SVG Version: 6.00 Build 0)  -->
<svg version="1.1" id="Layer_1" xmlns="http://www.w3.org/2000/svg" xmlns:xlink="http://www.w3.org/1999/xlink" x="0px" y="0px"
	 viewBox="0 0 907.09 425.2" enable-background="new 0 0 907.09 425.2" xml:space="preserve">
<path fill="#251D3F" d="M-3.58,428.19c0-76.22,0-152.43,0-228.65c3.25-0.77,6.51-1.38,9.87-1.11c0.43,0.03,0.86,0.06,1.3,0.09
	c6.13,2.86,12.69,1.64,19.08,2.03l0.46,0.05l0.46-0.04c4.58,2.5,9.37,2.44,14.38,1.53c6.25-1.13,12.59-1.48,18.96-1.27
	c0.61,0.79,1.42,0.8,2.29,0.61c4.83-2.89,9.9,1.42,14.77-0.5c-0.15-2.31-0.56-3.8-3.71-3.12c-1.47,0.32-3.61-0.3-2.53-3.67
	c0.79-2.46,4.6-4.35,2.2-7.7c0.9-0.09,2.18,0.3,2.39-0.92c0.23-1.28-1.25-1.68-1.93-2.51c0.7-0.5,1.4-0.99,2.1-1.49
	c1.57-0.46,2.43-3.16,4.68-1.49c-1.93,2.47,1.65,5.69-1.29,8.21c1.47,0.15,2.76,0.27,3.79,0.38c-2.65,3.29-0.33,6.8-0.54,10.11
	c-1.71-0.49-3.69-1.21-3.93,1.53c-0.19,2.17,1.75,2.07,3.2,2.13c2.13,0.09,4.27,0.01,6.41,0.01c0.47,0.05,0.95,0.09,1.42,0.14
	c7.36-0.73,14.53,2.64,21.93,0.96c0.9,0.07,1.63-0.24,2.19-0.96c10.54-1.09,21.07-1.27,31.62,0.02c2.94,0.36,5.99-0.74,8.87,0.64
	c0.63,0.12,1.26,0.24,1.89,0.36c6.51,1.39,12.82-1.22,19.28-0.95c2.89,0.12,3.17-2.01,1.76-3.5c-2.24-2.37-0.37-3.31,0.9-4.66
	c0.83-0.07,1.4-0.51,2.07-1.04c3.48-2.76,0.71-6.73,2.07-9.87c0.16,0.03,0.32,0.07,0.48,0.11c-0.1-0.1-0.2-0.19-0.3-0.29
	c0.02-0.3-0.01-0.59-0.1-0.87c0.31-0.36,0.62-0.72,0.93-1.08l0.48,0.05l0.48,0c3.1,5,5.07,10.85,5.45,16.28
	c0.32,4.6,1.9,4.05,4.46,3.52c1.24-0.25,2.41-0.98,3.77-0.93c0.65,0.01,1.29,0.01,1.94,0.01c4.23,0.38,8.46,0.76,12.69,1.14
	c1.05,1.15,2.43,1.58,3.43,0.33c0.97-1.22,1.99-2.75,0.85-4.54c-0.5-0.78-1.46-1.87,0.07-2.34c1.26-0.39,1.57,0.86,1.67,1.9
	c0.32,3.27,1.28,5.92,5.36,5.61c3.69-0.73,7.67,2.37,11.17-0.83l0.27,0.1l0.27-0.1c2.77,0.01,5.53-0.01,8.3,0.02
	c2.05,0.02,1.36-1.07,0.9-2.09c0.28-1.73,1.51-2.04,2.98-2c1.16,1.15-1.9,2.12-0.13,3.3c2.06,1.39,7.7-1.58,8.18-4.3
	c0.38,0,0.76,0,1.13,0c-0.74,4.06,2,4.83,4.97,4.85c7.41,0.06,14.8,0.18,22.16,1.11c0.52,0.82,1.12,1.23,1.96,0.36
	c3.34,0.43,6.42-0.17,9.1-2.31c1.48-2.1,1.95-4.03-0.92-5.39c-0.04-0.13-0.13-0.27-0.1-0.39c0.05-0.24,0.17-0.48,0.26-0.71
	c4.33,1.87,6.99-4.43,11.37-2.35c-0.43,5.84,1.56,8.71,5.44,7.85c1.59,2.28,3.69,2.99,6.32,2.05c1.15,1.48,2.43,2.61,4.48,1.66
	c1.65,0.15,3.31,0.29,4.96,0.44l0-0.08c1.36,0,2.71,0,4.07,0c2.01,1.21,4.21,1.15,6.43,0.99c5.69,1.23,11.38,2.89,17.04-0.11
	c0.34,0.03,0.67,0.07,1.01,0.1c1.21,1.29,2.73,0.84,4.22,0.83c4.91-0.02,9.81-1.69,14.72-0.4c2.86,0.75,5.72,1.25,8.66,1.5
	c9.94,0.85,19.86,1.25,29.79-0.04c3.2,0.62,6.19-0.13,9.1-1.39c3.98-0.61,7.64,1.94,11.64,1.18c0.67,0.04,1.34,0.07,2.01,0.11
	c4.58,0.07,9.15,0.13,13.73,0.2c1.34-0.09,3.12,0.67,3.52-1.43c0.17-0.86,0.11-2.31-0.41-2.66c-1.4-0.96-2.67,0.34-3.96,0.87
	c-0.1,0.21-0.25,0.31-0.46,0.28c-0.65-0.34-1.3-0.69-1.96-1.03c0.07-0.67,0.15-1.33,0.22-2c-0.04-0.46-0.09-0.93-0.13-1.39
	c-0.02-0.31,0.12-0.53,0.4-0.66c2.24-0.04,1.2-2.92,3.21-3.54c1.96,6.7,4.79,0.67,7.34,0.51c0.41,1.1,2.15,0.54,2.35,1.89
	c0,0.74,0.01,1.48,0.01,2.22c2.08,4.72,4.54,6.9,10.83,6.87c9.95-0.06,15.72-3.07,17.3-13.02c2.18,0.55,6.08-1.71,5.76,2.95
	c-0.16,2.28,0.24,4.87-0.37,6.73c-1.93,5.93,1.79,2.53,3.52,2.48c5.58,0.62,11.02,2.26,16.73,1.96c11.9-0.62,23.65-3.58,35.68-2.32
	c1.32,0.14,2.66,0.2,3.99,0.19c1.08-0.01,1.99-0.44,2.01-1.72c0.02-1.19-1.05-1.23-1.77-1.31c-4.17-0.49-5.09-3.7-5.99-6.96
	c1.56-0.06,3.5,0.72,4-1.76c1.31-0.59,1.13-1.58,1.18-2.85c0.11-3.21,0.79-6.38,3.77-8.87c3.22,5.15,2.77,11.52,5.89,16.6
	c0.39,0.63,0.81,4.57-2.91,3.35c-0.95-0.31-2.14-2.7-2.84,0.08c-0.42,1.67-0.26,3.15,2.17,3.62c5.08,0.98,9.92,0.08,14.78-1.15
	c1.76,0.03,3.63,0.71,5.11-0.87c3.31-0.06,6.61-0.12,9.92-0.18c2.27,0.71,3.87-0.4,5.31-1.96c1.53,0.02,3.12,0.38,4.36-0.93
	c2.66,0.39,5.1,0.34,5.91-2.97c0.58-2.36,1.5-4.97,4.35-4.51c2.64,0.43,1.08,3.39,1.75,5.13c0.46,1.19,0.27,2.62,2.02,2.88
	c0.97-1.1-0.71-3.23,1.55-3.78c2.03,1.07-0.18,5.2,3.58,5.03c0.95,0.1,1.9,0.2,2.86,0.28c1.91,0.17,4.39,1.88,4.85-1.85
	c0.35-2.82-0.81-4.11-3.66-3.84c-0.35-0.32-0.7-0.65-1.05-0.97c-1.91-4,2.17-6.26,2.78-9.53c3.8-1.44,3.24,3.9,6.1,3.92
	c1.62,0.53,2.36,1.77,2.74,3.32c-0.1,0.18-0.1,0.37-0.01,0.55c-0.54,0.83,0.87,2.55-1.22,2.67c-0.88-0.15-1.76-0.3-2.64-0.45
	c-3.26,0.12-1.75,2.54-1.89,4.07c-0.13,1.42,0.77,2.32,2.17,1.97c8.15-2.07,16.63,0.12,24.76-2.01c0.82-0.06,1.65-0.13,2.47-0.19
	c6.13,0.67,12.26,1.35,18.4,2.02c0.56,0.02,1.11,0.04,1.67,0.06c1.93,0.43,3.79,0.69,5.84,0.38c7.25-1.08,14.54-1.99,21.9-1.33
	c0.52-0.04,1.05-0.08,1.57-0.13c2.03-0.38,4.07-0.76,6.1-1.14c0.81-0.2,1.62-0.41,2.43-0.61c2.26,2.67,5.45,1.46,8.22,1.97
	c4.04,0.33,8.09,0.67,12.13,1c6.61-0.64,13.07,2.56,19.68,0.97c6.42-1.55,12.9-1,19.37-1.06c0.52-0.03,1.04-0.06,1.56-0.09
	c1.08-0.31,2.32-0.38,3.22-0.96c2.4-1.56,2.62-3.05-0.54-3.96c0.35-11.9,0.35-11.9,7.75-13.01c0.12,0.31,0.25,0.62,0.37,0.93
	c-3.39,2.9-3.54,6.21-0.36,8.2c0.28,0.65,0.57,1.3,0.85,1.95c-0.18,0.27-0.36,0.55-0.55,0.82c-1.17,0.59-1.59,2.57-3.61,1.67
	c-0.98-0.43-1.31,0.65-1.38,1.52c-0.05,0.72,0.24,1.43,0.95,1.53c4.85,0.66,9.64,1.91,14.61,1.41c0.97-0.1,1.53-0.38,1.48-1.45
	c-0.04-0.94-0.79-1.05-1.33-1.54c-1.15-1.03-3.69,1.11-3.75-1.77c1.34-1.92,1.17-4.1,1.11-6.27c0.58-1.03,1.64-1.45,1.5-3.27
	c-0.24-3.21,0.89-6.41,3.41-9c1.24,1.44,1.97,2.71,1.97,4.29c-3.29,1.51-0.07,3.72-0.51,5.64c-0.52,2.28,1.82,3.84,3.65,4.02
	c2.02,0.21,1.71-2.22,2.09-3.68l-0.01,0.01c1.25-0.85,1.25-2.96,3.17-3.12c0,0-0.08-0.03-0.08-0.03c0.4,0.36,0.8,0.72,1.2,1.09
	c1.15,1.95,1.31,4.17,1.55,6.33c0.24,2.16,1.14,3.27,3.14,1.93c1.1-0.74,2.48-0.58,3.62-1.07c-1.13-2.32-6.34,0.88-4.58-4.14
	c2.82,1.66,6.85-0.75,9.23,2.87c0.57,0.86,2.87,0.91,2.58,2.45c-0.52,2.72-1.86-0.09-2.88,0.15c-1.51,0.35-1.74,1.91-2.84,2.6
	c-6.84-1.17-13.79,2.12-20.65-0.5c-1.56,4.05,0.01,6.14,4.17,5.92c6.23-0.33,12.45-0.93,18.54-2.39c0.75,0.06,0.87,2.28,2.12,0.61
	c2.68-0.39,5.51,1.21,8.1-0.59l0.45,0.04l0.44-0.1c5.55,0.28,10.98-1.73,16.56-0.89l0.02-0.01c3.9-1.69,7.83,2.13,11.73-0.05
	c0.94,0,1.89-0.01,2.83-0.01c6.46,2.11,12.92,3.62,19.39,0.01c0.35-0.05,0.7-0.1,1.05-0.15c6.45-0.05,12.99,0.9,19.18-1.86
	c0.62-0.04,1.24-0.07,1.86-0.11c4.22-0.85,5.18,0.89,5.18,5.06c-0.14,72.84-0.17,145.69,0.03,218.53c0.01,5.32-1.43,6.42-6.54,6.41
	c-300.79-0.13-601.58-0.12-902.37-0.12C0.11,428.35-1.73,428.24-3.58,428.19z M300.98,196.24c-1.33,1.39-2.67,2.78-2.62,5.35
	C301.17,200.33,301.03,198.27,300.98,196.24z M489.37,204.4c-1.44-0.37-2.62-0.68-3.8-0.98c-0.01,0.47-0.21,1.13,0.02,1.39
	C486.65,205.96,487.82,206,489.37,204.4z"/>
<path fill="#3F3856" d="M-3.58,176.37c2.41-0.34,0.03-3.8,3.01-4.06c1.21,3.14,0.33,6.49,0.53,9.72c0.09,1.39,0.33,2.34,1.82,2.37
	c1.87,0.05,1.03-1.16,1.28-2.23c0.65-2.76,2.09-5.34,3.34-8.28c5.44,4.15,2.29,11.94,7.83,15.36c3.2-3.24,1.68-7.53,2.33-11.35
	c0.4-2.38,0.34-2.39,2.28-0.93c1.45,1.09,4.53-1.73,5.3-4.46c0.91-3.26,1.34-6.74,4.09-10.51c-0.11,4.27,4.07,6.41,2.12,10.56
	c-0.8,1.71,3.52-0.4,2.99,3.33c-0.29,2.08-0.03,3.65-1.99,4.97c2.01,0.86,3.97,1.71,5.93,2.55c-3.3,1.18,2.18,6.74-3.84,6.23
	c2.08,2.5,4.54,1.35,6.75,2.22c-1.78,1.65-3.84,2.5-5.95,2.24c-5.1-0.63-6.25,2.45-6.65,6.46l-0.46,0.04l-0.46-0.05
	c0.49-5.17-3.62-5.71-7-6.36c-1.15-0.22-3.2,0.13-3.52-0.71c-0.98-2.56-1.52-4.32-3.02-0.35c-0.48,1.26-1.33,1.02-2.33,1.07
	c-2.71,0.13-3.28,2.02-3.2,4.32c-0.43-0.03-0.86-0.06-1.3-0.09c0.02-1.75,0.72-3.56-0.4-5.34c-2.52,1.14-5.16,3.06-6.71-1.23
	c-0.15-0.41-1.81-0.26-2.76-0.38C-3.58,186.44-3.58,181.41-3.58,176.37z M23.63,187.99c-2.24,0.43-2.43-3.4-4.72-2.11
	c-0.54,0.31-0.61,2.97,0.04,3.6C20.8,191.29,21.97,188.75,23.63,187.99z"/>
<path fill="#3F3856" d="M623.47,186.47c0.25-3.07-0.06-6.33,2.81-8.54c1.86,0.44,0.73,4.31,4.02,3.31c3.22-0.98,4.59-3.02,5.05-6.2
	c0.19-1.3-1.07-3.6,1.85-3.75c3.12-0.16,1.42,2.54,1.77,3.56c2.38,6.79,5.1,8.62,11.27,6.34c-2.32-2.97-1.82-5,0.35-8.45
	c1.51-2.39,3.52-6.22,2.82-10.78c3.75,3.22,2.81,7.4,4.74,10.38c0.23,0.35,0.24,1.19,1.06,1.99c4.56,4.43,4.1,11.16-0.69,13.55
	c4.68,3.4,5.1,3.2,5.84-2.76c0.42-3.39,0.71-6.82,2.8-9.81c1.43,1.98,0.98,4.23,1.28,6.33c0.14,0.96,0.16,1.98,1.82,1.19
	c1.16-0.56,1.35-0.63,0.87-2c-1.46-4.18,2.76-6.14,4.14-9.25c0.38-0.84,1.91,0.62,1.83,0.79c-1.07,2.46,0.98,4.21,1.28,6.32
	c0.17,1.18-1.18,2.93,0.63,3.4c1.46,0.38,2.76-0.67,3.17-2.4c0.08-0.36,0.69-0.59,1.3-1.08c0.32,2.03,0.87,3.82,0.8,5.59
	c-0.07,1.83-0.5,3.58,1.07,5.31c3.5-4.1,0.89-9.88,4.23-13.81c2.46,2.61-0.08,6.48,2.07,9.18c2.53-0.35,1.27-2.75,2.42-3.96
	c1.65-1.73,1.55-5.29,5.71-3.77c1.34,0.49,3.04-1.39,2.7-3.55c-0.31-1.97,1.7-3.54,2.37-3.47c1.72,0.18,0.92,2.89,1.24,3.19
	c2.62,2.53-0.47,6.7,3,9.1c1.1,0.76,0.99,3.82-0.62,5.62c-0.11,0.12-0.77,1.69,0.47,1.97c0.91,0.21,1.42-0.21,1.59-1.34
	c0.31-2.19,0.91-4.33,2.51-6.46c0.27,5.78,0.54,11.57,0.81,17.35c-0.81,0.2-1.62,0.41-2.43,0.61c1.66-5.27-3.79-0.99-4.37-3.24
	c-1.75,1-1.95,2.61-1.73,4.39c-0.52,0.04-1.05,0.08-1.57,0.13c1.06-5.5-4.43-6.79-6.59-10.51c1.18,4.18,0.59,6.89-4.29,6.85
	c-0.33,0-0.67,0.61-1.01,0.92c-1.65,1.52-3.84,2.25-5.7,1.35c-2-0.97,0.94-2.87,0.2-3.8c-1.42-1.8,1.65-3.83-0.63-5.36
	c-1.57,0.66-1.42,2.07-1.44,3.35c-0.04,3.18-2.73,5.13-4.73,4.59c-4.25-1.15-2.91,1.91-3.57,3.56c-0.56-0.02-1.11-0.04-1.67-0.06
	c1.76-2.26-1.85-3.63-0.94-5.75c-1.18-0.37-2.34-0.95-3.54-1.07c-1.24-0.12-1.04,0.98-0.88,1.76c0.83,3.92-2.5,2.04-3.79,2.42
	c-1.84,0.54-2.65-0.95-2.14-2.75c1.33-4.71-2.19-3.87-3.99-2.85c-1.96,1.12-4.76,2.83-3.11,6.21c-0.82,0.06-1.65,0.13-2.47,0.19
	c-0.09-3.47,0.15-7.11-5.25-6.33c-1.15,0.17-2.99,0.36-3.54-1.21c-0.75-2.13,1.24-1.25,2.11-1.61c1.08-0.45,1.07-1.56,0.29-1.87
	c-2.76-1.09-0.71-3.43-1.6-6.27c-1.31,2.43-3.24,2.95-3.26,5.48c-0.01,1.27-1.04,2.81-2.94,2.83c-1.55,0.02-2.55-0.05-3.22-2.08
	c-0.51-1.54-2.99-2.32-4.15-3.79c-0.97-1.23-2.02-1.51-2.88-0.68c-1.28,1.22,1.52,1.54,0.98,2.82c4.27,1.66-0.84,1.62-0.47,2.58
	C626.71,190.37,627.27,185.03,623.47,186.47z"/>
<path fill="#3F3856" d="M198.47,200.3c-0.08-0.49,0.03-1.16-0.26-1.45c-1.29-1.3,1.67-5.31-3.26-4.58
	c-1.55,0.23-2.04-8.67-0.38-11.05c0.38-0.54,0.82-1.03,1.24-1.54c-0.16-0.14-0.26-0.3-0.35-0.29c-0.15,0.01-0.38,0.08-0.43,0.2
	c-1.41,2.82,2.38,1.98,2.31,3.94c1.68-1.24,0.58-3.53,2.61-4.52c0.08,1.49,0.03,2.78,0.25,4.02c0.19,1.05-0.42,2.32,1.17,3.71
	c0.74-6.95,4.17-12.65,4.87-19.21c1.14,1.8,3.9,2.61,2.5,5.15c1.88,0.24,0.87,6.44,4.94,2.32c1.58-1.6,1.95,0.66,2.32,1.33
	c1.34,2.44,2.41,5.04,3.96,8.41c0.62-4.3,1.09-7.56,1.74-12.1c3.2,7.14,2.89,13.77,4.41,20.06c1.58-5.37,0.53-11,2.35-16.84
	c1.21,1.66,0.95,3.84,3.28,3.58c2.64-0.3,1.06-2.32,1.6-3.46c0.39-0.83-0.31-2.07,0.93-2.62c0.17,0.22,0.34,0.44,0.51,0.67
	c0.01-0.41,0.02-0.82,0.03-1.24c0.16-0.79,0.05-1.93,0.53-2.28c0.91-0.68,1.47,0.56,1.87,1.08c2.45,3.26,3.71,7.06,4.07,11.53
	c3.05-3.05,1.35-6.7,3.19-9.97c1.28,2.14,2.16,4.04,2.13,6.19c-0.01,1.22,0.25,1.95,1.48,2.02c1.43,0.08,1.8-1.67,1.62-2.05
	c-1.21-2.65,0.73-3.84,2-5.57c2.79-3.8,2.79-8.8,5.22-13.01c2.03,0.94,1.15,3.29,2.26,4.56c1.88,2.15,0.47,5.71,3.55,7.65
	c0.73,0.46,1.25,4.46-2.52,6.04c4.82,0.42,5.01,3.84,5.48,6.57c0.45,2.6-2.58,1.14-3.75,2.24c2.1,1.86,4.72,1.62,7.64,1.83
	c-3.48,3.74-9.12,1.07-12.07,4.91c-0.38,0-0.76,0-1.13,0c-1.03-0.16-2.03,0.19-2.77-1.28c-0.96-1.9-3.58-0.02-4.99-1.5
	c-0.09,1.26-0.19,2.52-0.28,3.77c-1.47-0.04-2.7,0.27-2.98,2c-1.06-0.36-2.85,0.77-2.97-1.52c-0.05-0.88,1.08-2.72-1.18-2.17
	c-0.94,0.23-2.91-0.32-2.8,1.21c0.17,2.17-2.59,2.54-2.25,4.55l-0.27,0.1l-0.27-0.1c-0.69-0.96-0.19-3.06-2.13-2.79
	c-3.12,0.44-5.07-1.25-7.1-3.47c0.74,2.91-2.11,4.54-1.94,7.08c-4.07,0.31-5.03-2.34-5.36-5.61c-0.1-1.04-0.41-2.29-1.67-1.9
	c-1.53,0.47-0.56,1.56-0.07,2.34c1.14,1.79,0.12,3.32-0.85,4.54c-1,1.25-2.38,0.82-3.43-0.33c3.54-2.69-0.61-4.94-0.4-7.45
	c-1.04,0.56-2.5,0.86-2.95,1.69c-1.42,2.65-2.79,4.38-5.6,1.55c-1.1,1.2-5.59-1.72-3.74,3.07
	C199.76,200.31,199.12,200.3,198.47,200.3z M252.98,188.12c-1.19-0.8-2.49-2.2-3.26-2.31c-4.68-0.69-2.17,2.66-1.37,3.67
	C250.13,191.71,251.22,188.38,252.98,188.12z M197.86,190.76c0.25-1,0.06-1.59-0.81-1.45c-0.34,0.05-0.78,0.55-0.87,0.92
	c-0.17,0.69,0.18,1.34,0.94,1.33C197.43,191.55,197.72,190.92,197.86,190.76z M232.49,181.63c-0.06,0.12-0.21,0.26-0.18,0.34
	c0.18,0.5,0.43,0.51,0.67,0.04c0.04-0.08-0.06-0.27-0.15-0.35C232.76,181.6,232.61,181.63,232.49,181.63z"/>
<path fill="#3F3856" d="M76.51,181.51c-0.13-1.28-0.22-2.56-0.41-3.82c-0.31-2.06,1.35-4.02,2.22-4.57c2.09-1.32,1.3,1.92,2.53,2.61
	c1.09,0.61,1.99,1.57,2.97,2.38c1.03-1.29,2.8-2.51,2.92-3.89c0.24-2.64,1.78-4.54,2.51-7.51c3.06,4.25,2.42,9.48,5.96,12.7
	c-1.3,1.32,1.7,2.17,0.42,3.41c-2.8,2.71-0.52,3.55,1.61,4.19c2.42,0.72,4.96,1.2,4.18-2.92c-0.03-0.18,0.97-0.46,1.01-0.77
	c0.32-2.05,0.28-4.95,2.79-4.87c2.61,0.08,1.78,3.59,2.99,5.34c0.27,0.39,0.19,1.24,0.88,1.43c0.82,0.23,1.19-0.38,1.32-1.07
	c0.36-1.85,1.27-3.42,2.41-4.87c5.41,3.11,1.44,10.76,7.19,14.02c1.22-2.28,1.16-4.81,1.2-7.4c1.74,0.23,1,1.4,1.13,2.1
	c0.19,1.06,0.51,2.11,1.77,1.77c1-0.27,2.07-0.69,1.73-2.38c-0.38-1.85-0.29-3.81-0.3-5.72c-0.01-0.99,0.04-2.8,0.34-2.86
	c7.43-1.48,1.59-9.28,6.31-12.18c-0.25,2.73,2.23,4.94,1.3,7.92c-0.14,0.44,0.02,0.98,0.03,1.47c6.24-0.44,3.91,5.7,6.31,8.21
	c-1.3,2.03,0.84,2.5,1.66,3.5c0.62,0.75,1.73,1.34,0.29,2.23c-1.18,0.74-1.14,3.4-2.25,2.87c-2.52-1.21-7.53,0.34-6.82-5.3
	c0.06-0.47-0.27-3.04-2.17-2.61c-1.39,0.31-2.25,2.02-1.9,3.17c1.02,3.38-1.2,5.69-2.22,8.4c-3.61,1.48-7.37,2.46-11.19,3.23
	c-1.75,0.36-1.04,1.74-0.9,2.83c-0.55,0.72-1.29,1.03-2.19,0.96c0.38-2.67,2.24-6.66-3.49-3.98c-1.19,0.56-3.96-2.27-3.62,1.66
	c0.01,0.07-0.28,1.26-0.66,0.14c-1.51-4.42-5.37-1.87-8.06-2.77c-3.72-1.25-4.75,1.61-6.1,3.99c-0.47-0.05-0.95-0.09-1.42-0.14
	c-1.2-2.29-3.1-3.49-5.67-3.66c0.22-3.31-2.11-6.82,0.54-10.11c-1.03-0.1-2.32-0.23-3.79-0.38c2.94-2.53-0.63-5.74,1.29-8.21
	C78.94,178.35,78.09,181.05,76.51,181.51z M94.12,194.26c0.56,0.23,1.11,0.51,1.69,0.69c1.14,0.35,2.57,2.21,3.39,0.57
	c0.93-1.88,0.87-4.26,1.15-6.43c0.02-0.15-0.77-0.59-1.18-0.58c-1.02,0.03-1.36,0.6-1.05,1.63
	C99.27,193.94,96.62,193.66,94.12,194.26z"/>
<path fill="#3F3856" d="M488.23,193.49c-0.69-6.8,0.7-13.37,2.46-20.83c1.09,3.14,2.87,5.16,1.91,8.13
	c-0.44,1.35-0.93,3.03,1.23,3.65c2.23,0.63,2.38-1.17,2.91-2.5c0.41-1.03,0.74-2.08,1.09-3.07c3.72,0.86-2.01,11.56,7.2,6.71
	c-1.58-2.97-1.56-4.97,0.58-8.16c1.69-2.52,2.78-6.44,3.49-11.07c2.28,4.05,4.19,7.16,3.79,10.92c-0.17,1.62,1.11,0.81,1.25,1.19
	c0.82,2.13,4.25,3.09,2.74,6.29c-0.54,1.14-0.25,2.57,1.16,2.73c1.32,0.15,1.18-1.4,1.29-2.26c0.41-3.23,0.29-6.59,2.83-9.88
	c1.05,7.26,0.79,14.06,1.81,20.6c0.68,4.34-5.29,3.43-3.83,7.09c-0.12-0.25-0.3-0.49-0.34-0.75c-0.6-3.45-3.8-3.55-5.76-3.09
	c-2.53,0.6-4.39,2.94-4,6.35c-0.98-2.2-0.93-4.54-2.7-6.19c-2.01-1.87-6.68-1.1-6.84,1.5c-0.16,2.61-4.87,1.48-3.37,4.82
	c-1.73,0.05-5.45,3.45-3.52-2.48c0.61-1.86,0.21-4.45,0.37-6.73C494.31,191.78,490.41,194.03,488.23,193.49z M506.26,194.84
	c-1.99-2.34-5.45,0.48-5.47-2.6C497.91,199.99,503.75,193.92,506.26,194.84z M517.35,189.39c0.12,2.92-3.13,1.52-3.71,3.66
	c1.74-0.17,2.86,2.54,4.48,1.02C519.2,193.06,518.92,191.31,517.35,189.39z"/>
<path fill="#3F3856" d="M434.21,206.28c-4.97-5.82-2.07-12.51-1.85-18.82c0.09-2.45,1.6-2.8,2.4-1.08c1.29,2.75,3.21,1.72,5.07,1.62
	c2.86-0.16,2.41-2.9,2.55-4.32c0.09-0.95,1.1-1.52,0.71-2.45c-0.4-0.94-0.92-2,0.82-1.98c0.87,0.01,2.19-0.33,2.09,1.3
	c-0.1,1.56-0.35,3.28,2.07,2.85c2.67-0.47,1.73-2.5,1.28-3.92c-0.92-2.93,0.85-4.87,2.19-7.09c-0.36,3.32,3.07,6.01,0.62,9.82
	c3.87-0.36,3.37-3.41,4.56-5.09c2.25,0.8,0.58,2.65,1.18,3.86c0.83,1.67,1.66,3.27,3.36,0.98c1.89-2.54,2.84-0.57,3.48,0.73
	c2.44,4.96,4.58,9.95,3.62,15.83c-0.65,4.01-1.68,4.92-5.13,2.94c-1.05-0.6-1.35-2.49-3.15-1.83c0-0.74-0.01-1.48-0.01-2.22
	c2.22,0.62,3.21-0.24,2.74-2.47c-0.24-1.17-0.98-2.19-2.4-1.42c-0.97,0.53-1.8,1.33-2.69,2c-2.55,0.15-5.38,6.18-7.34-0.51
	c-2.02,0.62-0.98,3.5-3.21,3.54c-0.34-0.55-0.56-1.26-1.05-1.6c-0.81-0.56-0.9,0.26-1.27,0.8c-2.71,3.92-4.25,1.47-5.42-1.2
	c-0.58-1.32-0.51-3.62-2.47-2.87c-2,0.77-0.6,2.84-0.23,4.28c0.73,2.89,2.12,5.75-0.52,8.41
	C435.56,206.35,434.88,206.31,434.21,206.28z"/>
<path fill="#3F3856" d="M588.87,203.48c-3.5-9.1,0.27-17.71,1.06-26.43c2.51-0.15,1.3,2.7,3.09,2.46c2.46-0.33,0.8-2.96,2.32-4.18
	c2.8,1.13,0.64,4.27,2.41,5.91c3.39-0.05,3.85-4.02,6.41-5.37c0.13-0.07,0.14-0.67-0.01-0.88c-0.13-0.18-0.61-0.3-0.81-0.2
	c-0.21,0.1-0.26,0.51-0.38,0.78c1.77,0.28,0.7,3,2.23,2.96c1.47-0.04,2-1.51,1.92-3.02c-0.04-0.79-0.3-1.66,0.65-2.46
	c1.25,2.29,3.12,4.42,1.79,7.22c-1.31,2.76,1.91,4.01,1.88,6.48c-0.02,1.21,1.52,0.34,2.16-0.43c0.74-0.88,0.16-2.16,1.18-3.15
	c1.2-1.16,1.09-4.47,3.08-3.82c2.27,0.74,3.37,4.34,2.3,6.01c-3.48,5.45-1.87,11.32-2.45,16.99c-3.76,0.17-1.55-3.96-3.58-5.03
	c-2.25,0.55-0.57,2.67-1.55,3.78c-1.75-0.26-1.56-1.69-2.02-2.88c-0.67-1.73,0.89-4.7-1.75-5.13c-2.85-0.47-3.77,2.14-4.35,4.51
	c-0.81,3.31-3.24,3.36-5.91,2.97c-2.55-5.73-1.53-12.49-5.22-18c-2.23,6.48,1.43,12.61,0.86,18.93
	C592.74,203.07,591.14,204.19,588.87,203.48z"/>
<path fill="#3F3856" d="M830.54,174.85c-0.43-2.06,1.22-2.9,2.52-2.96c1.77-0.08,0.53,1.78,0.99,2.64
	c3.39,6.43,2.68,14.12,6.4,20.55c0.8,1.38-1.71,3.01-3.55,3.26c-2.08,0.28-4.1,0.26-3.87,3.18l-0.44,0.1l-0.45-0.04
	c-0.12-1.39,0.33-3.09-2.05-3.05c-2.76,0.04-5.04,0.75-6.05,3.64c-1.25,1.67-1.37-0.55-2.12-0.61c-0.63-1.05-3-0.91-2.06-3.03
	c1.09-0.69,1.33-2.25,2.84-2.6c1.02-0.24,2.36,2.58,2.88-0.15c0.29-1.55-2.01-1.59-2.58-2.45c-2.39-3.62-6.41-1.21-9.23-2.87
	c-1.42-2.21-0.62-3.42,1.74-4.01c0.79-0.2,2.15-0.68,1.81-1.34c-3.68-7.21,4.08-11.5,3.62-18.8c3.41,3.27,2.78,7.04,4.86,9.36
	c0.77,0.85-2.75,2.88,1.04,2.71c2.58-0.11,1.59-1.69,1.97-2.8c0.04-0.11,0.63-0.04,0.96-0.05c0.32,0.14,0.64,0.29,0.96,0.43
	C830.68,175.59,830.61,175.22,830.54,174.85z"/>
<path fill="#3F3856" d="M883.56,200.57c-0.6-3.86-1.36-7.4-6.72-6.57c-1.9,0.29-3.76-0.58-5.8-2.47c1.97,0,3.34,0.28,4.49-0.1
	c0.79-0.26,3.67-0.86,0.32-2.48c-1.89-0.92,0.15-4.06-1.59-5.67c1.83-0.74,3.66-1.48,5.48-2.21c-2.15-2.85-2.76-4.78,0.41-8.29
	c1.65-1.83,2.66-6.42,3.2-10.37c3.67,3.94,2.58,9.48,6.1,12.97c0.66,0.66,0.33,2.62,1.99,2.04c1.77-0.62,2.69-2.04,1.58-4.11
	c4.91,7.3,2.27,11.83-5.32,14.56c0.76,0.53,1.36,1.27,2.06,1.4c5.65,1.01,6.97,3.54,2.92,7.89c0.42-2.89-1.63-3.13-3.65-2.47
	c-2.62,0.85-4.91,2.33-4.42,5.75C884.26,200.48,883.91,200.53,883.56,200.57z"/>
<path fill="#3F3856" d="M849.59,200.63c0.57-5.71-2.22-8.94-6.96-12.05c-2.66-1.75-1.87-6.83-1.94-10.35
	c-0.04-2.13-1.71-5.63,0.93-6.44c1.14-0.35,0.8,4.13,1.76,6.26c0.22,0.49-0.42,1.37-0.2,1.84c0.62,1.27,1.44,3.38,2.27,3.42
	c1.91,0.1,1.02-2.32,1.86-3.48c0.51-0.7,0.57-1.95,0.41-2.88c-0.32-1.81,0.76-1.9,1.97-1.88c1.33,0.03,0.88,1.37,1.21,1.77
	c1.7,2.14-0.44,5.83,3.58,7.19c4.03,1.36,3.82-1.75,4.51-3.5c0.82-2.08,1.26-3.7,3.52-1.44c2.11,2.11,2.95-1.94,4.86-0.62
	c1.59,6.18-0.35,12.59-0.33,19.02c0.01,1.79-2.62,1.36-2.88,3.06c-0.94,0-1.89,0.01-2.83,0.01c-0.19-0.6-0.3-1.68-0.59-1.72
	c-5.85-0.94-4.29-4.36-2.76-7.86c0.31-0.71,0.4-1.58,0.4-2.37c0.01-1.57-1.44-1.98-2.37-1.79c-1.62,0.33-0.2,1.72-0.28,1.97
	c-0.73,2.23-1.65,5.8-3.11,6.11c-4.02,0.85-2.35,3.7-3.03,5.71L849.59,200.63z M864.55,179.63c-1.09-0.33-0.95,0.43-1.23,0.72
	c0.33,0.29,0.6,0.7,0.98,0.85c0.71,0.29,0.87-0.5,0.84-0.8C865.12,180.06,864.65,179.75,864.55,179.63z"/>
<path fill="#3F3856" d="M773.27,202.46c1.48-3.28-4.54-4.52-1.86-8.28c-1.9,1.2-3.82,1.54-4.99,0.21c-2.15-2.44-4.84-4.46-6.25-7.57
	c-0.52-1.15-1.17-2.69,0.19-2.82c4.68-0.44,3.76-4.2,4.31-6.89c0.25-1.23-0.16-2.26,1.64-2.01c1.15,0.16,2.57,0.01,1.34,1.86
	c-0.08,0.12-0.11,0.39-0.04,0.46c1.86,1.72-0.11,6.06,3.43,6.16c3.61,0.1,1.07-3.9,2.62-5.51c0.89-0.92-0.59-5.02,3.09-2.13
	c0.88,0.69,1.64-0.28,1.31-1.2c-1.12-3.08,1.77-5.31,1.52-8.24c0.91,2.62,3.57,4.79,1.53,7.89c-0.67,1.02-1.11,2.47,0.48,2.77
	c1.49,0.29,3.62,0.5,3.82-3.39c-2.67,4.37-0.17,7.49-0.16,10.65c-7.39,1.11-7.39,1.11-7.75,13.01c-1.46,1.33-4.58,1.76-2.68,4.92
	C774.31,202.4,773.79,202.43,773.27,202.46z"/>
<path fill="#3F3856" d="M294.96,194.06c-1.53-2.35-1.83-5.18-3.19-7.7c-1.21-2.24-0.71-5.61,2.4-7.25c1.63,0.93,1.46,3.11,2.7,4.08
	c1.37,1.07,0.19,4.48,2.31,3.6c1.65-0.69,3.51-3.2,2.89-5.75c-0.72-2.96,0.33-5.33,1.61-8.28c1.86,1.77-0.19,4.63,2.14,5.45
	c2.27,0.8-0.02-3.03,2.46-2.1c2.21,4.22,2.21,4.22,8.36-1.25c0.65,5.29,1.07,9.84-1.22,14.67c-1.5,3.15-2.13,6.8-3.66,10.04
	c-3.87,0.86-5.87-2.01-5.44-7.85C301.94,189.63,299.29,195.92,294.96,194.06z"/>
<path fill="#3F3856" d="M327.52,203.7c2.79-3.29,1.33-7.05,1.11-10.64c-0.04-0.69-0.87-1.02-1.56-0.63c-1.66,0.95-1.2,2.6-1.09,4.02
	c0.11,1.4,0.72,2.75,2.42,2.59c1.97-0.19,1.1-1.86,1.52-2.88c1.54-3.76-0.08-7.58,1.02-11.19c0.35-1.14,0.75-2.97,2.11-0.53
	c0.51,0.91,1.17,0.61,0.92-0.18c-0.85-2.68,2.83-4.23,1.57-6.93c-0.46-0.99,0.36-1.65,0.97-1.98c1.03-0.55,1.75,1,1.72,1.17
	c-0.46,3.52,6.09,4.65,3.07,9.15c-0.48,0.72,1.25,2.13,2.34,2.51c2.38,0.83,0.72-2.61,3.2-2.7c-1.37,5.47-0.17,10.84-0.22,16.54
	c-3.14-1.25-1.02-3.81-2.48-5.62c-1.92,2.91-5.59,4.27-6.13,8.19c-2.22,0.17-4.42,0.22-6.43-0.99c-0.54-0.79-0.97-1.68-1.63-2.36
	c-0.73-0.75-0.8-3-2.7-1.53c-1.7,1.32-1.56,2.7,0.26,3.89L327.52,203.7z M344,190.39c-0.21-0.15-0.42-0.3-0.63-0.44
	c-0.14,0.29-0.34,0.57-0.37,0.87c-0.01,0.11,0.4,0.26,0.63,0.39C343.75,190.94,343.88,190.67,344,190.39z"/>
<path fill="#3F3856" d="M284.66,202.5c0.05-1.34,0.17-2.67,0.14-4.01c-0.03-1.26-0.16-2.57-1.96-1.33c-1.04,0.72-2.38,1.22-3-0.13
	c-0.55-1.19-1.83-2.77-0.46-4.07c2.1-2.01,1.52-5.04,3.17-7.29c-3.86-0.87-5.61,2.3-7.6,4.26c-2.66,2.61-4.13,1.7-5.5-0.85
	c-0.76-1.41-1.16-3.03-1.62-4.59c-0.43-1.42-0.66-3.85,0.55-3.93c4.73-0.34,2.89-4.67,4.56-6.79c0.55-0.7-0.98-2.58,1.56-2.5
	c2.29,0.07,1.54,1.73,1.81,2.77c0.58,2.25-0.18,4.83,2.7,6.34c3.42,1.79,5.13,0.65,5.97-2.89c2.62,2.77,4.05,5.87,3.59,9.18
	c-0.45,3.2,3.71,3.77,3.1,7.2c-0.36,2.05,0.64,3.65-2.54,3.85c-3.2,0.21-3.43,2.56-2.49,5.14
	C285.78,203.73,285.18,203.32,284.66,202.5z"/>
<path fill="#3F3856" d="M154.85,203.18c0.44-3.75,0.3-7.51,1.65-11.21c1.11-3.05-2.63-5.37-2.37-8.65c0.06-0.81-0.27-1.89-0.19-2.85
	c0.17-2.01,0.4-4.55,2.57-4.88c1.79-0.27,1.49,2.76,2.59,3.62c2.43,1.89,0.42,6.47,4.56,7.08c1.4,2.97,4.08-0.16,5.82,1.21
	c0.76,3.84,2.14,7.71,1.97,11.51c-0.06,1.4-3.52,3.31-6.35,2.54c-1.51-0.41-4.5,1.32-3.57-2.65c0.58-2.51-1.85-2.97-3.39-3.26
	c-2.46-0.46-1.91,1.6-1.81,3.01c0.11,1.63-0.6,3.33,0.41,4.88C156.11,203.42,155.48,203.3,154.85,203.18z M156.71,191.21
	c-0.12-1.08,0.23-2.53-1.43-2.61c-1.5-0.07-1.85,1.16-1.8,2.37c0.05,1.22,0.57,2.37,1.96,2.4
	C156.84,193.4,156.65,192.16,156.71,191.21z"/>
<path fill="#3F3856" d="M722.09,201.55c-1.88-3.17-1.57-6.1,0.61-9.1c2.48-3.41,0.14-8.68,4.68-11.6c1.69,0.18,0.85,3.03,2.59,3.43
	c2.7,0.62,0.04-2.85,2.58-2.78c0.61,3.67,2.05,7.02,1.54,11.38c-0.34,2.87-1.67,6.51,0.13,9.66
	C730.18,202.21,726.14,201.88,722.09,201.55z"/>
<path fill="#3F3856" d="M355.07,204.5c-0.6-1.41,1.27-5.04-3.29-2.54c-4.02,2.2-3.15-3.15-2.96-3.96c1.03-4.38,2.74-8.6,4.31-12.84
	c0.39-1.06,1.11-2,1.89-3.37c1.86,2.07,3.09,3.99,3.49,6.64c0.19,1.23-0.46,3.48,1.53,3.77c2.35,0.34,1.36-2.41,2.46-3.5
	c0.16,4.23,2.29,8.42-0.72,12.37c-0.3,0.4,0.33,1.21,1.15,1.02c0.2-0.05,0.49-0.58,0.42-0.73c-0.19-0.39-0.56-0.68-0.86-1.02
	c-1.05,3.04-5.93,0.36-6.4,4.28C355.74,204.57,355.4,204.53,355.07,204.5z M362.59,196.43c0.73-2.09,0.96-3.62-0.89-4.59
	c-0.65-0.34-1.93-0.33-2.02,0.58C359.52,194.16,360.63,195.38,362.59,196.43z"/>
<path fill="#3F3856" d="M60.93,200.82c0.54-2.27,3.96-5.32-1.89-5.77c-1.48-0.11-2.29-2.4-2.22-4.07c0.1-2.38-0.07-4.54-3.33-6.57
	c6.7,0.16,6.6-4.41,7.01-7.59c0.23-1.79,0.68-1.67,1.7-1.73c1.05-0.06,1.61,0.09,1.7,1.61c0.15,2.44-0.45,5.69,2.47,6.64
	c0.59,0.19,1.93-3.92,2.01-6.38c0.03-0.91,0.15-2.2,1.59-2.01c1.7,0.23,0.53,1.47,0.59,2.23c0.42,5.44,1.21,10.8-5.21,14.01
	c-4.39,2.19-2.3,6.61-2.13,10.22C62.35,201.62,61.53,201.61,60.93,200.82z"/>
<path fill="#3F3856" d="M903.8,198.57c-0.01-2.31-0.47-4.54-3.35-4.3c-2.21,0.18-2.83-1.52-2.8-2.56c0.08-2.31-1.53-2.09-4.05-2.83
	c11.07-0.35,5.31-11.06,11.17-14.56c3.13,2.72,2.22,7.8,5.51,10.52c-3.72,2.12,0.96,3.54,0.49,5.57c-0.54,2.34,0.48,5.9-3.91,3.14
	c-0.92-0.58-1.81-0.39-2.11,0.36c-0.67,1.62-0.52,3.27,0.92,4.57C905.04,198.5,904.42,198.54,903.8,198.57z"/>
<path fill="#3F3856" d="M573.83,204.53c-0.03-0.62-0.07-1.24-0.1-1.86c0.82-0.15,1.7-0.16,2.44-0.48c3.69-1.59,3.96-3.76,0.7-6.08
	c-1.29-0.92-0.42-1.72-0.09-2.54c0.59-1.44,0.7-2.53,0.07-4.26c-1.16-3.18-1.24-6.76-1.77-10.17c0.29,0.17,0.76,0.27,0.84,0.51
	c0.96,2.96,2.78,4.87,6.19,5.21c0.36-2.69,1.03-5.36,0.44-8.11c-0.22-1.05,0.24-1.77,1.17-1.69c1.25,0.12,0.68,1,0.53,1.82
	c-0.41,2.27,0.64,4.59,1.26,6.49c1.35,4.08-1.01,4.77-3.58,5.82c-2.04,0.83-1.02,2.16-0.88,3.59c0.37,3.78,2.62,8.06-2.12,10.88
	C577.46,205.24,575.59,204.55,573.83,204.53z"/>
<path fill="#3F3856" d="M317.99,194.44c1.86-5.83,0.3-12.11,2.35-18.28c3.19,4.54,2.33,9.7,3.46,14.36c0.5,2.06-0.33,4.76,0.72,6.3
	c2.32,3.41-3.58,3.69-1.97,6.44c-2.05,0.95-3.33-0.18-4.48-1.66c-0.02-2.43,1.14-4.85,0.03-7.28L317.99,194.44z"/>
<path fill="#3F3856" d="M800.52,183.48c1.56-0.64,3.18-1.89,4.67-1.75c1.61,0.15,2.02-3.53,3.16-1.21c0.72,1.47,3.04,3.7,0.57,5.84
	c-1.92,0.16-1.93,2.27-3.17,3.12c-0.09-0.06-0.19-0.11-0.28-0.17c0.1,0.05,0.2,0.1,0.3,0.16c-0.39,1.46-0.07,3.88-2.09,3.68
	c-1.83-0.19-4.17-1.74-3.65-4.02C800.45,187.19,797.23,184.98,800.52,183.48z"/>
<path fill="#3F3856" d="M178.67,194.42c-2.04-5.73-0.51-11.34-0.21-17.28c3.34,1.01,0.28,5.79,4.44,5.31
	c0.09,0.29,0.12,0.58,0.1,0.87l-0.18,0.18c-1.36,3.14,1.42,7.11-2.07,9.87C180.08,193.91,179.5,194.35,178.67,194.42z"/>
<path fill="#3F3856" d="M792.54,197.73c-1.65-1.26-2.45,0.94-3.92,1.04c0.31-6.16-0.81-12.24,0.24-19.58
	c1.38,3.92,1.46,6.62,1.48,9.41c0.01,1.47-0.34,4.92,3.32,2.86C793.7,193.62,793.88,195.81,792.54,197.73z"/>
<path fill="#3F3856" d="M547.8,195.5c-1.62-4.12,0.39-8.39-0.52-12.56c-0.05-0.23,0.64-0.86,1-0.88c1.2-0.05,0.71,0.73,0.85,1.51
	c0.62,3.44,0.69,7.07,2.67,10.16C551.29,196.21,549.36,195.43,547.8,195.5z"/>
<path fill="#3F3856" d="M422.76,203.57c-0.06,0.51-0.12,1.02-0.19,1.53c-2.91,1.26-5.9,2.01-9.1,1.39c0.81-0.87,1.81-1.66,1.28-3.09
	c1.4-1.28,2.25-2.7,1.76-4.75c-0.21-0.88-1.52-2.5,0.5-2.65c1.62-0.12,1.41,1.76,1.23,2.69
	C417.51,202.51,418.76,204.24,422.76,203.57z"/>
<path fill="#3F3856" d="M785.63,185.37c0.92,2.78,1.98,5.57-0.36,8.2C782.09,191.58,782.24,188.27,785.63,185.37z"/>
<path fill="#3F3856" d="M449.96,206.58c0.11-1.18,0.34-2.39-0.85-3.22c1.29-0.54,2.56-1.83,3.96-0.87c0.52,0.36,0.58,1.8,0.41,2.66
	C453.08,207.26,451.3,206.5,449.96,206.58z"/>
<path fill="#3F3856" d="M295.72,200.55c-3.15-1.31-2.89-3.21-0.92-5.39C297.67,196.52,297.2,198.45,295.72,200.55z"/>
<path fill="#3F3856" d="M300.98,196.24c0.05,2.03,0.18,4.09-2.62,5.35C298.31,199.02,299.65,197.63,300.98,196.24z"/>
<path fill="#3F3856" d="M489.37,204.4c-1.55,1.61-2.72,1.56-3.78,0.4c-0.23-0.25-0.02-0.91-0.02-1.39
	C486.75,203.72,487.93,204.03,489.37,204.4z"/>
<path fill="#3F3856" d="M73.95,186.43c0.15-1.14,0.31-2.28,0.46-3.43c0.68,0.83,2.16,1.23,1.93,2.51
	C76.13,186.73,74.85,186.34,73.95,186.43z"/>
<path fill="#3F3856" d="M631.09,196.93c-1.18,1.57-1.93,0.71-2.64-0.45C629.33,196.63,630.21,196.78,631.09,196.93z"/>
<path fill="#3F3856" d="M786.12,195.53c0.81,0.93-0.01,0.78-0.55,0.82C785.76,196.08,785.94,195.8,786.12,195.53z"/>
<path fill="#3F3856" d="M632.31,193.71c0.26,0.1,0.51,0.19,0.77,0.29c-0.26,0.09-0.52,0.18-0.77,0.27
	C632.21,194.08,632.21,193.89,632.31,193.71z"/>
<path fill="#3F3856" d="M183.83,181.38c0.24-0.23,0.49-0.45,0.73-0.68c0.08,0.24,0.15,0.48,0.23,0.72c0,0-0.48,0-0.48,0
	S183.83,181.38,183.83,181.38z"/>
<path fill="#3F3856" d="M182.99,183.33c0.1,0.1,0.2,0.19,0.3,0.29c-0.16-0.04-0.32-0.07-0.48-0.11
	C182.81,183.51,182.99,183.33,182.99,183.33z"/>
<path fill="#3F3856" d="M446.91,200.62c-0.29-0.28-0.59-0.55-0.88-0.83c0.25-0.19,0.5-0.37,0.75-0.56
	C446.82,199.69,446.87,200.15,446.91,200.62z"/>
<path fill="#3F3856" d="M448.65,203.64c-1.38,1.03-1.79,0.23-1.96-1.03C447.34,202.96,447.99,203.3,448.65,203.64z"/>
<path fill="#3F3856" d="M808.84,186.33c0.8-0.08,1.14,0.35,1.2,1.09C809.64,187.05,809.24,186.69,808.84,186.33z"/>
<path fill="#3F3856" d="M749.57,187.34c0.25-3.73,2.41-6.67,3.69-9.95c0.3-0.76,0.7-2.22,1.87-1.84c0.81,0.26,1.68,1.31,1.9,2.18
	c0.58,2.19,0.04,4.43-0.07,6.62c-0.17,3.51-3.38,6.46-1.52,10.33c0.58,1.21-1.77,0.87-2.58,1.75c-1.03,1.12-3.89,0.13-2.83,3.68
	c0.7,2.36-2.44,1.29-3.81,1.43c-4.3,0.46-7.09-1.95-5.53-5.54c1.86-4.28-1.01-8.81,1.71-12.75c0.59-0.85,0.2-2.58,1.79-2.5
	c1.25,0.06,1.86,1.24,2.3,2.38C747.13,184.71,747.28,186.64,749.57,187.34z"/>
<path fill="#251D3F" d="M422.76,203.57c-3.99,0.67-5.25-1.06-4.5-4.88c0.18-0.94,0.39-2.82-1.23-2.69c-2.02,0.15-0.71,1.77-0.5,2.65
	c0.48,2.05-0.36,3.47-1.76,4.75c-0.68,0-1.37,0.01-2.05,0.01c-0.41-0.64-0.81-1.27-1.22-1.91c0.03-1.36,0.7-3.06-1.78-2.97
	c-1.43,0.05-2.92,0.2-4.16-0.81c0.84-1.29,2.38-0.93,3.51-1.51c1.36-0.7,1.45-2.47,0.32-2.61c-2.33-0.28-5.88-3.25-6.76,1.92
	c-1.7-0.47-2.64,2.09-4.6,1.16c0.14-1.18,0.28-2.31,0.42-3.44c-0.09-0.26-0.08-0.51,0.05-0.76c2.83,0.08,5.14-0.48,5.12-4.02
	c0.06-0.1,0.13-0.2,0.19-0.3c-0.06,0.1-0.12,0.21-0.18,0.31c-2.43-2.69-5.91-0.97-8.72-2.07c0.17-1.01-0.08-1.83-0.67-2.72
	c-1.21-1.82,0.47-1.2,1.25-1.3c1.94,1.34,2.6,0.55,3.36-1.47c0.75-1.99,1.89-2.35,2.25,0.46c0.06,0.45,1.64,0.7,2.51,1.04l0.01,0.01
	c0.08,2.19-0.25,4.73,3.36,3.86c1.23,0.4,2.47,0.81,3.7,1.21c0.27,3.21,4.29,6.55,7.74,5.69c3.11-0.78,4.46,0.06,5.35,2.89
	c0.31,0.99,1.38,1.75,2.1,2.61C428.04,201.67,428.04,201.67,422.76,203.57z"/>
<path fill="#3F3856" d="M425.86,198.67c-0.72-0.86-1.79-1.62-2.1-2.61c-0.9-2.83-2.24-3.67-5.35-2.89
	c-3.44,0.86-7.46-2.48-7.74-5.69c1.83-1.04,1.19-2.84,1.44-4.4c0.23-1.45-0.18-3.06,1.14-4.19c1.04,0.89,1.35,2.34,1.83,3.74
	c0.43,1.29,0.95,2.42,2.83,1.79c1.82-0.62,1.64-1.78,1.24-3.1c-0.88-2.88,0.27-5.28,1.69-8.14c2.08,3.85,1.36,7.85,2.96,11.48
	c1.14,2.6-1.98,6.82,2.9,10.08c-0.96-3.75,1.84-6.11,0.67-9.11c-0.05-0.13,0.62-0.63,1.02-0.78c0.16-0.06,0.57,0.33,0.75,0.6
	C430.9,188.01,428.67,197.01,425.86,198.67z M417.5,185.81c-0.44-0.25-0.78-0.52-1.18-0.63c-0.15-0.04-0.59,0.31-0.57,0.46
	c0.04,0.46,0.2,0.98,0.86,0.76C416.89,186.31,417.12,186.07,417.5,185.81z"/>
<path fill="#3F3856" d="M44.13,195.19c-0.8-5.35-0.5-10.73-0.36-16.1c0.02-0.79-0.17-1.86,0.99-1.98c0.85-0.08,1.49,0.41,1.81,1.36
	c0.22,0.65-0.11,2.5,1.63,1.11c5.12-4.1,5.34,2.73,5.28,3.44c-0.35,4.36,0.15,8.5,1.36,12.62c0.76,2.58-1.83,2.13-2.72,2.51
	c-5.23,2.24-7.06,1.33-7.22-3.11c0-0.05-0.21-0.12-0.32-0.12c-0.16,0.01-0.32,0.08-0.48,0.13L44.13,195.19z"/>
<path fill="#3F3856" d="M474.7,179.11c0.59,1.71,1.19,3.42,1.77,5.13c0.26,0.77-0.79,2.2,1,2.16c1.25-0.03,1.74-0.88,1.49-2.07
	c-0.17-0.85-1.17-2.09,0.77-1.88c0.97,0.1,0.8,1,0.81,1.91c0.04,2.45,0.2,2.46,2.31,1.35c0.32-0.17,0.61-0.93,0.77,0.09
	c0.51,3.27,1.92,6.31,2.59,9.47c0.37,1.76-3.46,1.56-3.35,4.15c-2.65-1.65-0.31-3.24-0.63-4.78c-0.33-1.58-0.07-3.29-0.7-5.1
	c0.6,3.49-6.64,4.17-2.7,9.01c0.65,0.8,0,3.39-0.87,4.52c-1.01,1.32-2.78-0.12-4.23-0.24c-2.72-0.23-1.26-2.26-1.35-3.47
	C471.91,192.62,473.08,186,474.7,179.11z"/>
<path fill="#251D3F" d="M126.45,196.46c1.01-2.71,3.24-5.02,2.22-8.4c-0.35-1.16,0.51-2.86,1.9-3.17c1.9-0.43,2.23,2.14,2.17,2.61
	c-0.71,5.65,4.3,4.09,6.82,5.3c1.11,0.53,1.07-2.13,2.25-2.87c1.43-0.9,0.32-1.48-0.29-2.23c-0.82-1.01-2.96-1.47-1.66-3.5
	c0.53-0.04,1.06-0.09,1.59-0.13c0.47,0.79,1.15,1.25,1.83,0.41c0.56-0.69,0.31-1.49-0.44-2.05c-0.1-0.21-0.24-0.41-0.3-0.63
	c-0.03-0.1,0.09-0.24,0.15-0.36c1.61,0,3.21,0,4.82,0c-0.05,0.54-0.11,1.07-0.16,1.61c0.42,0.99,0.22,2.9,2.25,1.51
	c0.34-0.04,0.68-0.08,1.02-0.12l0.35,0.1l0.36-0.05c0.04,0.64,1.15,1.31-0.05,1.91c-2.91,0.55-4.05,2.33-3.62,5.2
	c-2.23,2-3.67,5.85-7.63,3.05c-0.97,1.47,1.1,2.84-0.42,3.92c-2.65,1.86-5.19-2.42-7.02-0.8
	C129.41,200.57,127.91,199.72,126.45,196.46z"/>
<path fill="#3F3856" d="M403.6,188.45c0.03,3.54-2.29,4.11-5.12,4.02c-1.06-0.45-2.54-0.62-3.08-1.43c-0.69-1.02-1.18-1.73-2.07-0.7
	c-0.57,0.66-0.84,1.76-0.38,2.84c0.47,1.09,1.14,1.8,2.22,1.09c1.03-0.67,2.02-1.14,3.25-1.04c-0.14,1.13-0.28,2.26-0.42,3.44
	c1.96,0.94,2.9-1.63,4.6-1.16l-0.02-0.02c0.38,1.11,0.76,2.22,1.14,3.33c-0.51,0.67-0.96,0.58-1.35-0.12
	c-0.55,0.42-1.09,0.84-1.64,1.26l0.31,0.12c0,0-0.1,0.32-0.1,0.32c-0.46,0.04-0.92,0.09-1.38,0.14c-1.65-2.25-3.69-1.69-5.82-0.87
	c-3.91,1.51-5.49,0.36-5.9-3.77c-0.49-4.83,0.83-9.55,0.61-14.34c-0.06-1.35,0.36-2.75,1.52-2.74c1.67,0,1.78,1.73,1.62,3.02
	c-0.23,1.9,0.23,3.67,1.18,5.17c0.91,1.44,1.53,0.06,2.12-0.62c2.81,1.1,6.29-0.62,8.72,2.07L403.6,188.45z"/>
<path fill="#251D3F" d="M575.1,179.13c0.53,3.41,0.61,6.99,1.77,10.17c0.63,1.73,0.52,2.82-0.07,4.26
	c-0.34,0.82-1.21,1.62,0.09,2.54c3.26,2.32,2.99,4.5-0.7,6.08c-0.75,0.32-1.63,0.33-2.44,0.48c-1.72-1.92-4.65-2.86-4.92-5.98
	c0.02-0.42,0.04-0.83,0.07-1.25c-1.14-4.03-0.44-9.06,1.35-11.41c2.13-2.8,1.03-6.71,4.14-8.59c0,0,0.21,0.05,0.21,0.05
	c0.43,0.4,0.85,0.8,1.28,1.2c0,0,0.04,0.37,0.04,0.37C575.63,177.74,575.36,178.44,575.1,179.13z"/>
<path fill="#3F3856" d="M535.34,181.62c3.04,2.49,2.79,5.31,2.47,8.31c-0.41,3.85-2.82,7.24-1.93,11.47
	c0.6,2.84-2.65,1.37-4.01,2.07c-1.28,0.67-2.03-0.67-2.11-2.39C529.46,194.04,530.96,187.58,535.34,181.62z"/>
<path fill="#3F3856" d="M381.77,196.25c-0.07,1.51-0.39,3.05-0.15,4.51c0.47,2.87-1.2,3.04-3.23,2.88
	c-2.28-0.18-3.62-1.76-2.66-3.64c1.9-3.74-1.25-6.47-1.6-9.72c-0.15-1.39-0.45-3.05-0.57-4.58c-0.13-1.67,1.21-3.33,2.23-3.57
	c1.54-0.36,1.86,1.63,2.54,2.93C380.22,188.62,381.28,192.41,381.77,196.25z"/>
<path fill="#3F3856" d="M406.97,186.28c-3.61,0.88-3.28-1.67-3.36-3.86c0.06-0.11,0.12-0.21,0.18-0.32
	c-0.06,0.1-0.13,0.21-0.19,0.31c-0.88-0.34-2.46-0.6-2.51-1.04c-0.36-2.81-1.5-2.45-2.25-0.46c-0.76,2.02-1.42,2.81-3.36,1.47
	c3.28-4.5,3.71-10.22,6.7-15.13C403.11,173.83,409.67,178.81,406.97,186.28z"/>
<path fill="#3F3856" d="M371.02,200.61c-2.09-5.83-0.71-11.66,0.16-17.51C372.82,188.92,371.21,194.74,371.02,200.61z"/>
<path fill="#3F3856" d="M540.92,199.05c-1.76-5.43-1.35-10.93-0.82-16.45C542.09,187.97,542.03,193.5,540.92,199.05z"/>
<path fill="#3F3856" d="M147.51,181.43c-1.61,0-3.21,0-4.82,0c0.81-2.12,0.25-6.09,2.37-6.09
	C148.54,175.34,146.35,179.43,147.51,181.43z"/>
<path fill="#3F3856" d="M174.36,184.48c-4.71-3.36-0.38-6.55-0.53-9.75C176.42,177.83,174.62,181.04,174.36,184.48z"/>
<path fill="#251D3F" d="M169.48,187.51c-1.74-1.37-4.41,1.76-5.82-1.21c0.07-0.14,0.11-0.33,0.23-0.43
	c1.44-1.18,0.56-4.85,2.91-4.19C168.63,182.19,169.73,185,169.48,187.51z"/>
<path fill="#3F3856" d="M402.61,195.52c0.89-5.17,4.43-2.2,6.76-1.92c1.13,0.14,1.04,1.91-0.32,2.61c-1.13,0.58-2.67,0.22-3.51,1.51
	c-0.18,0.31-0.44,0.43-0.79,0.34c-0.13-1.35-0.68-2.35-2.16-2.57L402.61,195.52z"/>
<path fill="#3F3856" d="M568.88,195.44c-0.02,0.42-0.04,0.83-0.07,1.25c-3.72,1.66-4.49-0.38-4.1-3.44c0.39-3.06-0.86-6.2,0.4-9.29
	C568.71,187.13,564.21,192.75,568.88,195.44z"/>
<path fill="#3F3856" d="M737.22,171.7c0.07,3.15,3.57,6.65-0.75,9.55C735.49,178,737.78,174.92,737.22,171.7z"/>
<path fill="#3F3856" d="M147.65,191.58c-0.43-2.87,0.72-4.65,3.62-5.2C152.06,189.51,149.45,190.26,147.65,191.58z"/>
<path fill="#3F3856" d="M175.71,172.77c-0.56,0.49-0.91,0.8-1.25,1.11c-0.35-0.5-0.79-0.97-1-1.53c-0.06-0.16,0.7-0.87,0.78-0.82
	C174.75,171.84,175.17,172.29,175.71,172.77z"/>
<path fill="#3F3856" d="M149.59,184.54c-2.02,1.4-1.83-0.52-2.25-1.51C148.21,183.37,149.24,183.45,149.59,184.54z"/>
<path fill="#3F3856" d="M142.84,182.42c0.74,0.56,1,1.37,0.44,2.05c-0.69,0.84-1.36,0.39-1.83-0.41
	C141.91,183.52,142.37,182.97,142.84,182.42z"/>
<path fill="#3F3856" d="M70.07,171.52c0.24,0.23,0.71,0.48,0.86,0.85c0.3,0.79-0.29,1.13-0.94,1.4c-0.87,0.37-0.75-0.45-0.86-0.77
	C68.94,172.38,68.96,171.71,70.07,171.52z"/>
<path fill="#3F3856" d="M318.11,194.32c-0.94,0.24-2.02,0.75-2.29-0.78c-0.08-0.44,0.2-0.92,0.88-0.88
	c1.21,0.07,1.05,1.06,1.29,1.79C317.99,194.44,318.11,194.32,318.11,194.32z"/>
<path fill="#3F3856" d="M411.48,201.5c0.41,0.64,0.81,1.27,1.22,1.91C411.02,203.59,410.35,203.12,411.48,201.5z"/>
<path fill="#251D3F" d="M402.59,195.5c1.48,0.22,2.03,1.21,2.16,2.57c-0.34,0.25-0.69,0.5-1.03,0.76
	C403.35,197.72,402.97,196.61,402.59,195.5z"/>
<path fill="#3F3856" d="M805.97,178.05c-0.01-0.13-0.03-0.25-0.04-0.38c-0.14,0.02-0.31,0.01-0.4,0.09
	c-0.06,0.05,0.01,0.24,0.03,0.37C805.7,178.09,805.84,178.07,805.97,178.05z"/>
<path fill="#3F3856" d="M44.11,195.06c-0.53,0.1-1.12,0.69-1.56-0.13c-0.05-0.08,0.07-0.33,0.18-0.41c0.79-0.53,1.12,0,1.4,0.65
	C44.13,195.19,44.11,195.06,44.11,195.06z"/>
<path fill="#3F3856" d="M151.33,184.47l-0.36,0.05l-0.35-0.1c0.21-0.22,0.42-0.44,0.63-0.65C151.27,184,151.3,184.24,151.33,184.47z
	"/>
<path fill="#251D3F" d="M621.74,196.96c-0.36,0.23-0.94,0.74-1.04,0.66c-0.58-0.48-0.48-1.08-0.01-1.63
	C621.04,196.32,621.39,196.64,621.74,196.96z"/>
<path fill="#3F3856" d="M575.89,177.05l-0.04-0.37c0.22,0.05,0.44,0.1,0.66,0.14C576.3,176.9,576.1,176.97,575.89,177.05z"/>
<path fill="#251D3F" d="M400.74,199.97c0.54-0.42,1.09-0.84,1.64-1.26C402.64,200.18,402.08,200.58,400.74,199.97z"/>
<path fill="#3F3856" d="M574.57,175.48c0,0-0.21-0.05-0.21-0.05c0.06-0.24,0.11-0.48,0.17-0.71
	C574.55,174.97,574.56,175.22,574.57,175.48z"/>
<path fill="#251D3F" d="M399.58,200.55c0.46-0.05,0.92-0.09,1.38-0.14C400.49,200.46,400.03,200.5,399.58,200.55z"/>
<path fill="#3F3856" d="M404.43,200.83c-0.03,0.06-0.08,0.16-0.13,0.25c-0.15-0.09-0.3-0.19-0.44-0.28c0.1-0.09,0.2-0.19,0.3-0.28
	C404.24,200.62,404.33,200.72,404.43,200.83z"/>
<path fill="#3F3856" d="M211.85,174.87c-0.12,0.1-0.23,0.25-0.32,0.25c-0.1-0.01-0.18-0.17-0.28-0.26c0.1-0.08,0.21-0.23,0.31-0.23
	C211.66,174.63,211.76,174.78,211.85,174.87z"/>
<path fill="#251D3F" d="M805.76,189.46c-0.1-0.05-0.2-0.1-0.3-0.16c0.09,0.06,0.19,0.11,0.28,0.17
	C805.74,189.47,805.76,189.46,805.76,189.46z"/>
<path fill="#3F3856" d="M403.61,188.47c0.06-0.1,0.12-0.21,0.18-0.31c-0.06,0.1-0.13,0.2-0.19,0.3
	C403.6,188.45,403.61,188.47,403.61,188.47z"/>
<path fill="#251D3F" d="M403.6,182.41c0.06-0.1,0.13-0.21,0.19-0.31C403.73,182.21,403.67,182.31,403.6,182.41
	C403.61,182.42,403.6,182.41,403.6,182.41z"/>
</svg>
