<?xml version="1.0" encoding="utf-8"?>
<!-- Generator: Adobe Illustrator 24.0.2, SVG Export Plug-In . SVG Version: 6.00 Build 0)  -->
<svg version="1.1" id="Layer_1" xmlns="http://www.w3.org/2000/svg" xmlns:xlink="http://www.w3.org/1999/xlink" x="0px" y="0px"
	 viewBox="0 0 1024 1024" style="enable-background:new 0 0 1024 1024;" xml:space="preserve">
<style type="text/css">
	.st0{opacity:0.52;fill:#FFFFFF;}
</style>
<path class="st0" d="M525.15,941.12c-9.11,0-18.22,0-27.34,0c-0.75-0.16-1.49-0.41-2.24-0.46c-8.69-0.62-17.39-1.07-26.06-1.84
	c-19.94-1.76-39.63-5.13-59.06-9.91c-78.21-19.23-145.84-57.33-202.71-114.31c-48.25-48.34-82.98-105.11-104.12-170.08
	c-11.76-36.13-18.84-73.14-20.14-111.19c-0.03-0.75-0.31-1.49-0.47-2.24c0-12.68,0-25.36,0-38.03c0.17-0.95,0.42-1.89,0.49-2.85
	c0.61-8.39,0.99-16.8,1.81-25.16c2.01-20.52,5.76-40.76,10.99-60.69c20.4-77.71,59.14-144.92,117.08-200.54
	C290.8,129.48,383.46,89.43,490.73,83.48c0.97-0.05,1.93-0.31,2.89-0.48c12.08,0,24.17,0,36.25,0c0.86,0.16,1.72,0.43,2.58,0.47
	c12.97,0.54,25.86,1.82,38.72,3.58c26.05,3.57,51.55,9.49,76.46,17.89c70.72,23.83,131.31,63.32,181.5,118.5
	c49.13,54.01,82.32,116.62,99.59,187.6c6.27,25.75,10.03,51.86,11.35,78.33c0.12,2.42,0.68,4.82,1.04,7.24c0,10.1,0,20.21,0,30.31
	c-0.22,0.95-0.57,1.88-0.64,2.84c-0.57,7.2-1.02,14.41-1.63,21.61c-1.52,18.07-4.32,35.95-8.31,53.64
	c-18.74,83.18-58.66,154.63-119.55,214.21c-47.56,46.53-103.17,80.03-166.44,100.74c-25.37,8.31-51.31,14.07-77.77,17.49
	c-12.96,1.68-25.99,2.74-39.05,3.22C526.86,940.7,526,940.96,525.15,941.12z M439.28,416.24c0.32,0.18,0.65,0.36,0.97,0.54
	c0,1.26,0,2.52,0,3.77c0,117.46,0.01,234.92,0.01,352.38c0,6.06,0.45,12.07,1.71,18c4.39,20.63,15.62,36.26,34.64,45.6
	c21.44,10.54,43.4,10.71,65.13,0.92c16.92-7.62,28.32-20.61,34.27-38.23c2.81-8.33,3.86-16.94,3.86-25.72
	c-0.02-117.26-0.02-234.52-0.02-351.79c0-1.14,0-2.29,0-3.43c1.31,0.49,2.07,1.22,2.81,1.96c30.89,30.88,61.77,61.76,92.65,92.66
	c2.1,2.1,3.97,4.43,6.11,6.48c3.5,3.35,6.83,6.99,10.77,9.73c19.61,13.67,41.19,16.73,63.98,10.31c20.23-5.7,34.9-18.23,43-37.85
	c5.71-13.83,6.82-28.21,3.88-42.85c-3.07-15.27-10.34-28.13-22.47-38.1c-0.91-0.75-1.75-1.61-2.59-2.45
	c-68.15-68.14-136.29-136.27-204.42-204.42c-3.78-3.78-7.37-7.74-11.1-11.57c-1.86-1.91-3.74-3.83-5.79-5.54
	c-12.73-10.6-27.51-15.68-43.97-16.33c-22.03-0.87-40.93,6.92-56.28,22.18c-70.29,69.92-140.28,140.12-210.39,210.22
	c-1.33,1.33-2.72,2.6-4.15,3.82c-6.46,5.56-11.72,12.08-15.47,19.74c-7.37,15.02-9.3,30.82-6.06,47.14
	c4.4,22.21,16.87,38.3,37.55,47.72c12.64,5.76,25.96,7.58,39.73,5.92c16.03-1.93,30.1-8.11,41.62-19.62
	c2.31-2.31,4.35-4.88,6.65-7.19c30.44-30.48,60.92-60.94,91.36-91.42C438.05,418.06,438.62,417.1,439.28,416.24z"/>
</svg>
