<?xml version="1.0" encoding="utf-8"?>
<!-- Generator: Adobe Illustrator 24.0.2, SVG Export Plug-In . SVG Version: 6.00 Build 0)  -->
<svg version="1.1" id="Layer_1" xmlns="http://www.w3.org/2000/svg" xmlns:xlink="http://www.w3.org/1999/xlink" x="0px" y="0px"
	 viewBox="0 0 907.09 425.2" enable-background="new 0 0 907.09 425.2" xml:space="preserve">
<path fill="#311B2B" d="M-6.3,430.74c0-76.67,0-153.34,0-230.01c2.03,0.26,3.51-1.66,5.7-1.22c4.39,0.87,5.27-1.34,3.93-5.49
	c-4.55,4.51-6.17-0.22-8.61-2.53c0.75-1.92,3.19-1.23,4.21-2.73c3.72-2.96,3.24-7.35,3.88-11.36c0.36-1.25,0.6-2.99,2.37-1.25
	c1.42,1.4,2.48,3.28,2.36,5.26c-0.24,3.95,1.73,6.71,4.19,9.39c2.86-3.68,3.92-4.05,4.28-2.2c1.09,5.7,3.11,0.84,4.7,0.73
	c-2.02-0.86-3.1-3.46-5.7-2.95c-0.49-3.13,5.16-3.78,3.06-7.56c4.25-4.11,3.89-10.53,7.71-15.99c0.41,4.65,1.76,8.7,3.41,11.21
	c2.24,3.42,2.56,5.25,0.26,8.07c1.46,1.43,5.27,0.67,4.85,2.82c-0.38,1.99,1.65,5.99-3.15,6c1.92,2.31,4.5,1.26,7.15,2.19
	c-3.1,1.55-5.48,2.91-8.5,2.07c-3.42-0.95-2.6,2.67-3.77,4.01c-0.91,1.03-0.48,3.46,2.23,3.92c5.2,0.9,10.28,1.34,15.1-1.43
	c0.68,0.81,1.55,1,1.83-0.14c0.56-2.23-0.53-3.53-2.8-3.84c0-0.68,0-1.37-0.01-2.05c-0.29-0.33-0.57-0.66-0.86-1
	c0.57-0.71-2.43-1.2-0.12-2.01c2.53-0.53,4.09-2.22,5-4.93c1.31,1.9,2.32,3.22,4.29,2.86c0.06,1.81,2.78,3,1.21,5.19
	c-0.4,0.12-0.79,0.24-1.19,0.35c0.36,0.74,0.94,0.29,1.44,0.25c1.1,4.87-4.97,1.79-5.34,5.06c4.11,2.67,8.59-1.26,12.85,0.34
	l0.45,0.06l0.45-0.05c5.06-1.18,10.11,1.52,15.21,0.39c-0.24-2.52-1.91-2.26-3.35-2.52c-2.67-0.48-4.55-1.01-2.86-4.76
	c1.55-3.44,2.64-7.34,2.09-11.34c0.42-0.03,0.85-0.06,1.27-0.09c1.58-2.76,0.6-6.03,1.8-8.96c0.41-1.01,0.73-2.06,1.4-2.96
	c0.89,0.94,2.05,1.75,2.61,2.86c0.56,1.12-0.56,3.63,2.07,2.81c1.61-0.5,4.19-0.14,4.12-3.54c-0.03-1.67,0.78-4.09,2.81-5.68
	c0.93,2.51,2.11,4.64,2.45,6.88c0.44,2.96,3.88,5.14,3.19,7.62c-1.1,3.97-0.63,5.8,3.61,6.06c0.46,0.03,1.01,0.56,0.48,0.83
	c-2.61,1.35,0.09,7.23-5.58,5.61c5.26,4.41,6.03,0.71,6.12-2.97c0.09-3.7,1.95-6.84,2.68-10.32c0.27-1.27,2.66-4.33,3.69-1.53
	c2.54,6.89,4.42,2.88,6.52-0.01c2.85,2.35,4.07,5.47,3.71,8.46c-0.28,2.36,1.28,3.2,1.9,4.76c-0.31,1.91-0.01,3.72,0.94,5.42
	c-0.19,0.7,0.15,1.74-1.19,1.67c-2.41-0.12-5.57-0.68-7.09-0.37c-5.58,1.14-10.85-0.57-16.23-0.28c-1.3,0.07-2.99-1.46-3.11,1.4
	c-0.1,2.47,1.38,2.2,3.12,2.65c8.78,2.27,17.43-0.34,26.13-0.29c4.04,0.84,7.81-1.51,11.82-0.98c1.44,0.31,2.88,0.61,4.33,0.92
	c0.57,0.05,1.14,0.09,1.71,0.14c5.37-0.15,10.74-0.41,16.08,0.48c0.57,0.68,1.3,0.75,2.1,0.55c3.11-0.74,6.56,2.06,9.45-0.91
	l-0.01,0.07c4.2,0,8.4,0,12.32,0c0.31-3.27-4.07-5.41-0.27-8.14c2.11-0.2,3.37-0.85,1.65-3.1c-0.5-0.66-1.22-1.9-0.24-2.05
	c5.46-0.8,2.36-5.73,4.18-8.22l-0.02,0.04c0.38,0.04,0.76,0.07,1.13,0.11c3.72,4.51,3.72,10.43,5.63,15.62
	c1.78,4.81,1.65,5.53,6.62,2.84c0.99,1.16,2.23,0.74,3.43,0.53c4.81,0.33,9.62,0.67,14.44,0.98c0.73,0.05,2.12,0.66,2.02-0.45
	c-0.25-2.8-3.81-3.83-4.05-6.79c-0.68,1.19-1.81,0.94-2.88,0.89c-0.14-0.01-0.39,0.09-0.4,0.16c-0.6,7.15-4.74,2.49-7.55,2.27
	c0.62-3.07-2.17-2.02-4.03-2.89c3.58-1.87,3.78-4.34,1.89-7.13c-0.61-0.91-0.34-1.52,0.38-2.12c2.29-1.55,3.89-4.32,3.59-6.41
	c-0.43-2.98,2.31-4.96,1.45-7.76c-0.1-0.33,0.79-0.97,1.22-1.46c0.52,0.53,1.11,1.02,1.56,1.61c1.2,1.59,1.29,4.17,4,4.38
	l-0.05,0.03c-0.37,0.24-0.74,0.48-1.1,0.72c0.18,0.25,0.45,0.74,0.53,0.71c5.25-2.03,5.13,2.96,6.67,5.39
	c0.62,0.98,0.71,2.37,1.77,3.09c1.68-2.45-0.92-6.41,3.31-8.5c0.09,4.74,0.69,8.92,3.16,12.56c0.08,0.59,0.38,1.48,0.89,0.57
	c0.57-1.01,0.5-2.37,0.72-3.58l-0.16-0.33c2.85-0.03,3.31-2.12,3.67-4.28c1.47,0.51,2.2-0.07,2.05-1.57
	c-0.15-1.49-0.78-3.01,0.6-4.27c0.16-0.23,0.32-0.47,0.48-0.7c-0.18,0.23-0.36,0.45-0.54,0.68c0.19-0.27,0.49-0.52,0.56-0.82
	c0.35-1.47-0.83-3.96,1.02-4.17c1.11-0.13,3.26,1.64,2.68,4.32c-0.43,1.97,1.4,2.75,3.17,3.05c0,0.5-0.05,1,0.02,1.49
	c0.27,2.01-0.97,4.87,1.58,5.71c2.49,0.81-0.14-3.67,2.66-3.43c2.26,1.81,5.35,0.7,4.28-1.29c-2.09-3.87,2.6-4.36,2.23-6.97
	c-0.1-0.68,2.21,0.89,1.91-1.1c-0.61-4.01,1.86-7.03,3.5-10.55c0.52,6.45,7.78,11.28,4.34,18.74c0.74,0.38,1.77,0.91,2.8,1.45
	c0.03,0.65,0.06,1.31,0.09,1.96c2.35,3.1,1.67,4.93-2.08,5.18c1.65,2.35,4.55,1.38,7.53,2.2c-2.75,1.69-5.16,3.12-7.19,2.34
	c-4.2-1.62-4.57,2.38-5.01,3.81c-0.97,3.19,2.41,3.14,4.31,3.23c7.51,0.35,15.04,0.04,22.5,1.28c0.68,0.04,1.35,0.09,2.03,0.13
	c2.01,0.62,3.99,0.14,5.93-0.31c0.84-0.2,1.57-0.91,2.35-1.39c-4.35-2.11,0.02-5.51-1.18-8.56c-1.61-4.09-5.14-9.43,0.7-13.84
	c1.35,2.63,3.72,4.69,3.48,7.95c0.94,1.93,1.04,5.13,4.65,2.6c0.96-0.68,0.27-3.81,2.87-2.08c1.81,1.2,1.6,3.86,1.5,4.91
	c-0.38,4.14-0.56,4.5,3.42,5.55c-0.12,1.04-1.03,2.62,0.78,2.72c1.77,0.1,0.56-1.84,1.16-2.67l0.43,0.02l0.43-0.04
	c0.62,2.44,2.73,3.45,4.57,4.72c1.77,1.21,3.69,1.7,5.82,1.24c1.25-0.39,2.5-0.52,3.75,0.01c3.53,2.42,7.48,0.6,11.2,1.12
	c2.44,0.69,4.9,1.27,7.47,1.1l0.16-0.05c2.82,1.44,5.57-0.36,8.37-0.15c0.9-0.03,1.79-0.05,2.69-0.08c4.6-0.27,9.2-0.54,13.8-0.8
	l0.49,0.06l0.48-0.08c1.03,0.19,2.05,0.38,3.08,0.56c0.69,0.14,1.37,0.28,2.06,0.42c1.57,1.29,3.38,1.08,5.23,0.93
	c3.52-0.27,7.1-0.55,10.52,0.41c7.08,1.98,13.97-0.68,20.97-0.67c0.91,0,1.95-0.65,1.81-1.92c-0.77-1.73-3.81,0.48-3.8-2.16
	c0-1.52,1.48-3.64-1.45-3.49c-1.88,0.1-4.55-2-5.85,2.05c-0.32,1,0.11,4.08-2.34,4.78c-1.15-6.15-2.44-6.92-8.22-5.28
	c-2.14,0.61-5.3,0.22-5.38-1.62c-0.26-5.4-0.77-10.94,0.9-16.28c1.01-0.03,2.01-0.05,3.02-0.08c0.34,1.06-0.74,2.31,0.46,3.27
	c0.66,0.53-0.13,2.36,1.55,1.92c1.26-0.33,1.29-1.98,1.02-2.52c-1.84-3.65,1.99-4.52,3.13-6.66c0.17-0.32,1.33,0.24,1.04-0.95
	c-0.97-4.01,1.63-6.99,3.23-11.65c1.75,6.73,5.01,11.63,5.53,17.45c0.09,0.96-2.27,1.96,0.13,2.99c1.75,0.75,3.4,1.6,4.64-0.7
	c2.9,0.09,2.12,2.33,2.33,3.99c-0.06,0.1-0.12,0.2-0.18,0.29c0.06-0.1,0.11-0.21,0.17-0.31c1.62-0.27,3.37-2.21,4.45,1.13
	c0.64,1.96,2.73,3.27,5.2,2.99c0.63,0.56,0.21,1.92,1.51,1.98c0.39,0.35,0.77,0.71,1.16,1.06c0.8,1.75,2.14,4.31,0.76,5.36
	c-4.79,3.65-0.58,3.42,1.51,3.91c1.58,0.37,3.27,0.26,4.91,0.36c0.92,0.15,1.84,0.31,2.77,0.46c2.25-0.08,4.5-0.15,6.74-0.23
	c7.53,2.17,8.89,1.67,9.4-3.69c-2.68,0.43-6.77,1.96-6.36-2.42c0.23-2.51,2.16-5.9,5.15-7.5c1.29-0.69,3.33-0.53,3.73,0.49
	c1.72,4.35,7.28,7.43,4.63,13.28c-0.11,0.09-0.22,0.18-0.33,0.28c0.07,0.07,0.13,0.13,0.2,0.2c0.09-0.11,0.19-0.22,0.28-0.33
	c1.43-0.07,2.85-0.15,4.28-0.22c3.62-0.29,7.24-0.59,10.85-0.88c0.46-0.07,0.92-0.14,1.38-0.2c0.77-0.19,1.73-0.77,2.29-0.5
	c5.44,2.61,5.08-0.79,4.62-4.34c2.66-1.62,6.11-2.92,2.88-6.97c1.55-0.46,1.68-2,1.63-3.02c-0.3-5.97,1.15-11.58,2.88-18.29
	c1.05,2.83,2.09,4.6,2.28,6.45c0.19,1.9-2.16,4.74,0.92,5.42c2.84,0.62,2.38-3.02,3.5-4.7c0.27-0.4,0.32-0.87,1.02-0.81
	c1.49,1.03,1.1,2.78,1.04,4.13c-0.24,5.83,2.42,4.44,6.05,2.3c-3.02-1.5-1.62-3.86-1.82-5.9c-0.19-1.91,3.02-0.46,2.63-3.24
	c-0.45-3.23,2.03-6.01,3.31-9.57c6.67,15.53,6.67,15.53,9.84,16.76c0.04-0.86,0.06-1.69,0.12-2.51c0.09-1.35,0.06-3.07,1.75-3.2
	c2.41-0.19,1.59,2.4,1.73,3.32c0.6,3.93,0.68,7.95,0.7,11.93c0.02,2.89,1.82,6.57-2.95,7.84c-0.42,0.11-0.4,1.9-0.59,2.9
	c0.25-4.25-3.16-3.88-5.61-4.25c-4.85-0.73-3.27,4.16-4.99,6.76c-0.8-7-2.27-7.96-7.47-7.46c-3.46,0.33-0.33,3.96-2.79,4.2
	c-1.3,0.13-2.4,0.27-2.08,1.98c0.32,1.76,1.69,1.67,3.07,1.9c11.59,1.96,23.06,0,34.56-0.89c0.36-0.04,0.73-0.07,1.09-0.11
	c2.53-0.86,5.11-1.3,7.79-0.99c2.95,0.35,5.91,0.65,8.88,0.94c1.2,0.12,2.57,0.1,2.95-1.25c0.52-1.86-1.36-1.86-2.22-1.82
	c-2.78,0.12-3.64-1.71-4.46-3.74c0-0.42,0-0.85,0-1.27l-0.03,0.03c2.48-0.11,2.74-2.05,3.16-3.85c2.09-3.71,0.42-8.89,4.67-11.75
	c2.65,1.5,2.34,4.8,3.83,7.11c0.77,1.19-0.82,3.81,2.42,3.85c0.19,0-3.94,0.72-0.9,3.01c2.16,1.63,1.62,4.65,0.44,6.25
	c-1.29,1.74-3.15-0.93-4.9-1.05c-0.53,4.8,0.85,5.59,8.09,4.68c0,0,0.05-0.01,0.05-0.01c2.88,0.11,5.72-0.02,8.91-1.86
	c-2.5-0.29-2.08-2.52-3.34-3.58c-0.79-1.82-4.8-3.01-0.92-5.91c0.48-0.36-1.77-4.09,0.83-5.87c-0.57-0.34-1.15-0.67-1.72-1.01
	c-0.41-0.97,0.42-1.01,0.96-1.28c-2.89-3.99,2.9-5.82,2.47-9.27c-0.02-0.12,0.92-2.63,2.45-2.03c0.63,0.24,2.1,1.3,0.98,2.82
	c-0.32,0.44-0.1,1.29-0.12,1.95c-0.59,4.55,1.56,7.87,4.82,10.69c0.72,4.45,3.13,8.92-0.46,13.24c3.05,0.77,5.82-1.25,8.64-0.13
	c2.6,0.91,3.98-2.25,6.41-1.9c1.52-0.02,3.01-0.08,3.42-1.99c1.6-1.5,4.85,1.77,5.04-0.7c0.28-3.62,6.88-6.55,1.37-10.78
	c-0.17-0.13-0.03-1.11,0.23-1.27c3.95-2.43,1.43-5.62,1.05-8.55c1.6-1.42,0.19-3.78,1.37-5.38c4.56,3.71-0.58,10.85,5.44,13.78
	c1.63-2.61,1.92-6.09,4.82-7.96c2.35,2.49,3.66,5.18,1.95,8.14c-2.54,4.42-2.29,9.01-1.32,13.63c0.5,2.37,2.84,2.44,4.85,2.47
	c1.74,0.02,2.03-1.07,2.22-2.63c0.34-2.71-1.86-2.48-3.04-2.47c-2.52,0.02-2.25-1.43-2.61-3.13c-0.71-3.4,3.11-4.85,3.03-7.76
	c-0.1-3.67,1.06-6.69,3.57-9.44c1.37,1.53,1.93,3.07,2.18,4.75c-1.61,2.91-2.54,5.65,1.73,7.13c-0.24,1.47,1.2,1.93,1.86,2.78
	c1.42,1.84,0.51,3.67-0.11,5.12c-0.76,1.76-2.29,0.42-3.39-0.18c-0.63-0.34-1.21-0.72-1.67,0.01c-0.77,1.24-0.34,2.63-0.2,3.94
	c0.14,1.29,1.16,1.83,2.18,1.42c8.16-3.3,17.72,2.45,25.4-3.93c0.18-0.15,0.83,0.17,1.2,0.38c4.78,2.67,10.08,2.3,15.24,2.46
	c1.34,0.04,3.01,1.37,4.13-0.32c1.19-1.79-1.94-1.7-1.63-3.62c0.35-2.13-2.6-0.51-3.29-1.96c-0.07-0.14-0.24-0.31-0.38-0.32
	c-0.67-0.06-0.42-0.23,0.21-0.47c-0.06,0.26-0.04,0.68-0.18,0.75c-1.85,0.83,1.96,3.55-1.65,4.16c-4.54,0.76-5.06,0.41-4.65-6.02
	c-2.23,1.08-4.87,0.85-6.74,2.9c-0.62,0.68-2.55,1.5-3.02,0.19c-1.69-4.61-5.92-1.41-8.61-3.03c-1.18-0.71-2.87-0.59-3.48-2.27
	c2.84-0.42,6.02,1.17,8.38-1.07c-0.9-1.89-4.45,0.65-4.05-2.48c0.27-2.05-1.72-5.57,2.57-6.15c0.58-0.08,1.59-0.59,1.17-1.31
	c-1.96-3.38,1.09-5.53,1.51-7.94c0.64-3.68,2.98-6.45,3.04-11.46c3.22,5.89,3.55,11.32,6.58,15.63c3.37,4.79,2.78,8.52-1.4,11.7
	c2.69,2.45,5.29,2.46,5.05-1.66c-0.25-4.4,1.6-7.87,2.68-11.7c2.4,1.16,0.95,3.79,2.37,5.3c1.98-2.56,4.03-4.78,5.16-7.7
	c0.2-0.51,0.24-2.39,1.71-1.7c0.76,0.35,1.74,1.16,1.42,2.34c-0.72,2.61,2.14,4.58,1.04,7.46c-0.58,1.51,0.92,1.28,2.24,0.83
	c1.47-0.5,0.88-2.71,2.95-2.64c0.03,2.2,0.87,4.33,0.29,6.61c-0.26,1.05,0.07,2.35,1.09,2.51c1.53,0.24,1.02-1.4,1.48-2.14
	c1.65-2.61,0.01-6.26,3.53-8.85c-0.65,2.03,1.2,3.15,0.35,4.99c-0.07,0.15,0.23,2.41,1.92,2.31c1.68-0.09,0.63-1.79,1.15-2.18
	c1.99-1.48,1.11-5.35,4.52-5.46c2.3-0.08,3.35-1.08,4.44-3.87c0.48-1.24,1.72-2.2,2.61-3.28c0.58,0.57,1.76,1.4,1.65,1.67
	c-1.15,2.67,2.2,4.52,1.19,7.08c-1.61,0.37-2.06,1.01-0.51,2.13c0.63,0.32,1.26,0.64,1.9,0.97c0.83,3.24-0.38,6.08-2.14,8.81
	c3.82,1.01,5.51-0.09,5.29-3.84c-0.08-1.29,0.41-2.61,0.64-3.91c0.09,0.66,0.18,1.31,0.26,1.97c-0.02,3.84-0.04,7.69-0.06,11.53
	c-0.01,1.94-0.03,3.88,2.77,3.7c1.05,3.17,3.44,1.28,5.3,1.41c-1.57-4.38,2.11-7.56,2.6-11.43c0.43-3.41,0.97-6.62,3.46-8.82
	c2.15-0.13,0.99,2.94,3.14,2.67l-0.06-0.1c-0.61,1.22,0.16,1.71,1.11,2.1c0.14,2.31,1.76,4.43,0.17,7c-0.89,1.43,0.97,0.87,1.7,1.04
	c0.81,1.63,2.59,2.95,1.54,5.17c-1.48,3.11-1.02,3.38,2.18,4.01c10.08,1.98,20.08-0.08,30.12-0.23c3.26-0.05,6.53-0.34,9.77-0.68
	c1.42-0.15,3.45-0.17,3.13-2.38c-0.43-2.93-2.57-0.85-3.49-0.61c-3.01,0.79-5.67,1.79-4.86-3.13c0.06-0.35-0.29-0.76-0.44-1.14
	c-5.03,2.77-6.17-2.7-8.96-4.43c-3-1.86-2.34-4.19,0.2-6.38c2.36-2.03,3.16-5.03,1.5-8.14l-0.01,0.01c3.21-1.93,4.49-0.42,4.97,2.72
	c0.15,0.97,0.64,1.89,0.85,2.86c0.22,0.97-0.56,2.38,1.43,2.38c1.89,0,1.87-1.22,2.28-2.58c0.71-2.36-0.65-6.99,5.03-5.31
	c-1.29-3.23,1.35-6,1.14-9.52c4.64,3.53,1.08,8.56,3.28,12.25c-2.6,1.27-2.31,3.56-1.5,5.54c0.99,2.41,2.54,4.6,3.84,6.88
	c-0.13,2.22,3.28,4.03,0.12,6.87c-1.44,1.3-4.41-1.07-4.09,1.96c0.35,3.26,4.1-0.3,5.27,2.18c0.23,0.5,1.54,0.49,2.35,0.72
	c0.58-0.06,1.16-0.11,1.75-0.17c2.52,0.04,6.35,1.46,7.13-0.98c1.02-3.16-3.88-0.56-4.79-2.88c-0.06-0.15-0.02-0.33-0.03-0.5
	c0.66-2.12,1.51-4.21,1.24-6.51c2.39-3.79,0.32-9.3,4.85-12.33c0.31,0.26,0.84,0.49,1.04,0.89c0.83,1.63,1.56,3.31,2.3,4.98
	c0.09,0.2,0,0.48,0,0.72c2.51-0.57,0.65-3.49,2.54-4.65c0.76-0.47-0.06-2.9,1.83-3.01c1.21-0.07,2.46,1,2.49,2.1
	c0.11,3.46,2.56,6.1,2.6,9.74c0.07,6.64,0.71,6.76,7.17,3.35c-6.76,2.92-4.82-2.64-5.31-4.8c-0.57-2.54,3.4-1.18,4.37-3.48
	c-2.58-1.36-1.03-3.82-1.26-5.91c-0.18-1.59,2.97-0.56,2.56-2.75c-0.69-3.67,2.59-5.94,2.84-9.4c3.92,2.16,0.98,10.45,8.49,8.32
	c0.17,0.19,0.33,0.39,0.5,0.58c0.03-0.21,0.05-0.42,0.08-0.63c-0.22,0.06-0.44,0.13-0.66,0.19c1.1-1.11,0.78-2.8,2.03-4.07
	c1.48-1.5,2.07-0.82,2.45,0.36c1.27,3.97,1.96,8.11,3.1,12.13c0.89,3.13,1.59,6.82,2.44,9.93c1.13,4.16-0.61,4.08-3.13,4.92
	c-2.68,0.89-5.37,0.34-8.03,0.6c-1.04,0.1-3.5-1.65-3.31,1.24c0.16,2.46,2.46,2.15,3.96,1.76c6.56-1.73,13.24-1.65,19.93-1.64
	l0.43,0.05l0.43-0.06c1.95-0.19,3.89-0.85,5.85,0.09c1.73,0.83,4.1,1.36,4.94-0.41c1.22-2.59-2.81-1.34-3.16-3.18
	c-0.39-0.36-0.78-0.72-1.18-1.08c0.22-1.17,0.44-2.34,0.66-3.5c4.6-3.66,5.48-3.75,10.24-1.08c0.14,0.08,0.33,0.06,0.49,0.08
	c0.16,1.09,0.39,2.19-0.48,3.13c-1.31-0.02-0.98,0.62-0.52,1.3c-0.27,5.36,0.95,6.59,6.97,6.74c1.5,0.04,3.04-0.15,4.52-0.43
	c2.27-0.43,5.95,0.16,4.95-3.73c-0.53-2.06-1.05-5.76-5.5-4.31c-2.01,0.65-4.41-0.66-6.78-2.5c2.03-0.19,3.48-0.21,4.85-0.53
	c0.47-0.11,1.4-0.44,0.93-1.66c-2.43-6.35-2.38-6.37,2.97-8.57c-2.3-2.82-3.68-5.56,0.64-7.84c0.45-0.24,0.46-0.43,0.35-1.02
	c-0.73-3.79,2.41-6.29,2.78-10.69c3.68,5.86,3,12.43,8.03,16.18c0.22,1.79-3.57,4.72,1.74,5.15c1.45,0.12-0.02,1.8-0.65,2.64
	c-2.08-0.08-2.37,2.71-4.52,2.68c1.78-0.15,3.09,4.61,5.01,0.39c1.32,0.75,3.11,0.91,3.49,2.82c-0.72,4.16-4.11,3.34-6.77,3.36
	c-2.74,0.02-3.6,2.13-4.85,3.72c-0.41,0.53-0.11,2.28,1.31,2.12c5.86-0.64,11.96,0.87,17.59-1.88c0.7-0.04,1.39-0.08,2.09-0.12
	c4.45-0.98,5.11,1.15,5.1,5.16c-0.12,73.28-0.16,146.55,0.05,219.83c0.02,5.41-1.51,6.42-6.61,6.42
	c-302.57-0.13-605.14-0.11-907.71-0.12C-2.59,430.9-4.44,430.79-6.3,430.74z M686.56,192.65c0.54,5.01-1.7,7.62-6.81,7.16
	c-0.94-0.09-1.42-0.46-1.59,0.68c-0.14,0.94-1.22,1.93-0.32,2.79c1.01,0.97,2.48,1,3.82,0.77c6.9-1.16,13.85-1.68,20.85-1.75
	c1.02-0.01,2.41,0.91,2.93-0.9c0.6-2.08-2.69-2.76-1.77-4.94c-1.28-0.14-3.13-1.21-3.73-0.13c-1.52,2.73-4.26,2.76-6.57,3.78
	c-1.99,0.88-5.35,2.87-5.86,0.82C686.88,198.44,683.81,195.52,686.56,192.65z M19.35,201.72c0.82-1.92,4.57,2.29,4.67-1.78
	c0.08-3.28-2.8-3.87-5.56-4.38c-1.13-0.21-1.86,0.67-2.81,0.38c-0.9-0.28-2.13,0.07-2.61-1.1c-0.3-0.74,0.92-2.08-0.84-2.23
	c-1.43-0.12-1.39,1.19-1.73,2.05c-0.55,1.37-1.77,0.46-2.61,0.84c-1.24,0.57-3.09,0.3-2.8,2.67c0.26,2.16,1.5,2.79,3.36,2.9
	C11.91,201.28,15.39,201.49,19.35,201.72z M806.6,205.24c3.87-0.54,8.19-1.06,12.48-1.81c0.82-0.14,2.57,1.64,2.64-1.58
	c0.07-3.35-1.33-2.1-2.85-2.03c-5,0.25-10.01,0.52-15.01,0.57c-1,0.01-2.32-2.26-2.86,0.22c-0.35,1.61-0.76,3.91,2.15,4.17
	C804.15,204.86,805.14,205.04,806.6,205.24z M247.27,195.02c-0.05,0.44-0.03,0.79-0.13,1.1c-0.56,1.62,1.96,4.3-1.27,4.84
	c-2.04,0.35-4.94,0.95-4.71-3.13c0.11-1.96-1.44-0.42-2.17-0.39c-2.88,0.1-2.1,3.23-3.54,4.62c-0.39,0.38,1.03,0.91,1.89,0.82
	c4.58-0.46,9.17-0.86,13.75-1.41c1.49-0.18,3.73,0.59,3.92-2.02c0.18-2.47-3.08-1.91-3.63-3.83
	C249.88,196.45,248.68,194.95,247.27,195.02z M219.03,202.03c4.13,1.59,8.12,1.8,12.07,2.01c0.99,0.05,3.21,0.5,2.84-1.69
	c-0.21-1.25-0.04-3.62-2.89-2.69c-3.18,1.04-4.85-0.91-5.94-4.01C224.25,199.13,224.58,203.29,219.03,202.03z M80.77,203.64
	c0.54-1.31,3.1,1.16,3.25-1.7c0.19-3.7-2.89-0.54-4.1-1.89c-0.67-0.74-2.78-0.61-2.82,1.35C77.04,203.61,79.02,203.26,80.77,203.64z
	 M397.4,194.3c-0.2-1.96-3.11-0.96-2.4-2.99c0.47-1.34,1.79-1.53,3.17-1.27c-0.72,2.95-7.43-1.07-5.31,4.51
	C394.04,197.62,395.72,193.77,397.4,194.3z M713.26,199.95c-0.53-1.59-1.58-1.06-2.77-1.03c-1.65,0.04-3.24-0.23-3.65,1.83
	c-0.27,1.37,0.76,1.81,1.83,1.44C710.27,201.64,712.47,202.2,713.26,199.95z M251.79,189.24c-1.22-0.77-2.46-2.15-3.31-2.36
	c-3.56-0.86-3.1,1.15-1.66,3.29C248.93,193.29,249.98,189.18,251.79,189.24z M233.34,192.75c-2-0.42-1.52-4-4.1-3.26
	c-0.48,0.14-1.11,1.66-0.86,2.09C229.42,193.46,231.47,192.68,233.34,192.75z M417.41,199.42c0.36-2.72,0.43-4.48-0.57-6.18
	c-0.15-0.25-1.15-0.38-1.29-0.2c-1.2,1.54,1.46,2.83,0.37,4.47C415.85,197.64,416.43,198.19,417.41,199.42z M889.7,179.81
	c-0.13,0.28-0.25,0.57-0.38,0.85c0.28,0.12,0.64,0.4,0.82,0.31c0.22-0.1,0.28-0.53,0.41-0.81
	C890.26,180.04,889.98,179.92,889.7,179.81z M187.16,202.24c-0.09-0.1-0.17-0.27-0.27-0.28c-0.1-0.01-0.22,0.13-0.33,0.21
	c0.09,0.1,0.17,0.27,0.27,0.28C186.93,202.47,187.05,202.32,187.16,202.24z"/>
<path fill="#442F3E" d="M914.3,193.63c-1.17,0.36-0.98,2.75-2.76,2.04c-5.66-2.26-3.93,1.16-3.1,3.94c-0.7,0.04-1.39,0.08-2.09,0.12
	c-0.53-1.22,0.75-3.54-1.35-3.63c-2.88-0.12-4.13-2.21-5.93-3.69c-0.38-1.91-2.18-2.07-3.49-2.82c-0.16-1.02-0.33-2.05-0.49-3.07
	c0.63-0.84,2.11-2.52,0.65-2.64c-5.31-0.43-1.52-3.37-1.74-5.15c0.27-0.19,0.73-0.34,0.79-0.59c0.29-1.21,2.48-2.08,1.31-3.28
	c-0.92-0.94-1.29,0.44-0.76,1.08c0.47,0.55,1.97,0.53,2.1,1c0.45,1.72,0.56,3.54,0.72,5.33c0.22,2.52-0.62,5.28,1.75,7.47
	c6.16-3,1.82-11.13,7.26-14.28c3.16,3.16,4.5,7.46,4.49,12.21c0,1.31,1.72,2.63,2.64,3.94C914.3,192.28,914.3,192.96,914.3,193.63z"
	/>
<path fill="#442F3E" d="M-6.3,177.42c0.96-0.29,1.21-1.08,1.17-1.93c-0.06-1.07-0.05-2.09,1.33-2.1c2-0.02,1.18,1.67,1.25,2.56
	c0.23,3.18,0.23,6.37,0.32,9.56c0.29,0.94,0.58,1.87,0.88,2.81c0.09,0.14,0.19,0.28,0.3,0.42c-1.02,1.5-3.46,0.81-4.21,2.73
	c-0.34,0.04-0.69,0.09-1.03,0.13C-6.3,186.88-6.3,182.15-6.3,177.42z"/>
<path fill="#442F3E" d="M326.21,204.67c1.15-3.45-0.04-6.99,0.55-10.21c0.9,1.52-1.23,5.13,1.33,5.24c3.2,0.14-0.36-3.03,1.01-4.77
	c0.96-1.21,3.01-4.58-1.98-4.27c-1.78,0.11-1.08-2.56-1.4-3.77c-0.95-3.59-0.52-7.28,2.53-11.76c0,3.03-0.09,4.7,0.03,6.35
	c0.09,1.26-0.17,2.69,1.1,3.62c0.94-1.59,4.06-0.17,4.11-3.09c0.03-1.44,2.74-2.24,1.1-4.28c-0.15-0.19,0.71-1.64,1.36-1.92
	c1.06-0.45,1.36,0.83,1.56,1.47c1.07,3.41,4.83,5.69,4.05,10.13c1.52-0.98,2.84-1.84,4.68-3.02c0,5.11,0,9.69,0,14.4
	c4.67,0.14,3.77-4.78,3.95-5.8c0.67-3.82,2.36-6.83,3.97-10.31c3.35,2.77,4.15,6.07,4.12,9.47c-0.01,1.39-0.14,2.44,1.35,2.5
	c1.65,0.07,1.04-1.47,1-2.27c-0.16-3.05,0.96-5.78,2.14-8.59c1.37,6.16,2.12,12.33-1.01,18.21c-0.4,0.76-1.75,1.86-3.51,1.62
	c-1.76-0.24-3.38,0.58-2.2,2.98c-0.9,0.03-1.79,0.05-2.69,0.08c0.65-1.39,1.24-2.78,0.01-4.52c-3.76,3.34-5.33,1.08-6.7-2.72
	c-0.56,2.46-1.12,4.93-1.68,7.39c0,0-0.16,0.05-0.16,0.05c0.31-3.6-0.37-6.64-4.91-5.38c-1.16,0.32-1.72,2.8-2.56,4.28
	C333.69,205.27,329.74,207.09,326.21,204.67z"/>
<path fill="#442F3E" d="M454.54,181.96c2.17-0.49,0.72-3.17,2.7-4.13c1.52,1.84-0.2,4.71,2.09,6.52c3.3-4.26,4.94-1.95,6.77,1.62
	c2.59,5.05,3.02,10.3,2.58,15.76c-0.1,1.19-0.79,2.07-1.9,1.88c-4.65-0.78-2.67,2.09-2.34,4.07c-1.43,0.07-2.85,0.15-4.28,0.22
	l-0.14-0.15c2.66-5.85-2.91-8.93-4.63-13.28c-0.4-1.02-2.44-1.18-3.73-0.49c-2.99,1.6-4.92,4.99-5.15,7.5
	c-0.41,4.38,3.68,2.84,6.36,2.42c-0.51,5.37-1.86,5.86-9.4,3.69c1.52-4.02,0.42-6.98-3.7-8.46c-1.03-0.37-0.22-2.64-2.03-1.76
	c-1.38,0.67-1.11,1.98-0.68,3.03c1.03,2.56,1.07,5-0.33,7.42c-0.92-0.15-1.84-0.31-2.77-0.46c-2.67-2.25-3.01-5.13-2.53-8.39
	c0.76-5.15-0.51-10.6,1.97-16.09c2.34,2.4,2.24,4.91,2.53,6.86c5.49,0.53,5.39-4.1,6.52-7.26c0.39-1.09-0.46-2.38,1.56-2.38
	c1.51,0,2.16,0.64,2.03,2.13c-0.1,1.22-0.18,2.41,1.67,2.24c1.91-0.18,2.23-1.56,1.74-2.85c-1.19-3.2,0.31-5.65,1.92-9.08
	c0.79,3.35,1.39,5.88,1.98,8.42c-0.33,0.71-0.76,1.43,0,2.09C453.39,183.1,454.12,182.34,454.54,181.96z"/>
<path fill="#442F3E" d="M116.5,193.38c3.24,0.13,2.37-2.36,2.49-4.08c0.18-2.57-0.18-5.23,1.65-7.91c1.91,3.21-0.09,6.49,1.08,9.32
	c1.8-0.15,1.44-1.29,1.66-2.48c0.69-3.7-2.11-8.99,4.36-10.34c0.33-0.07,0.77-1.67,0.49-2.21c-1.66-3.21,0.59-5.53,1.68-8.22
	c0.25,2.96,2.85,5.26,1.99,8.42c-0.03,0.39-0.07,0.78-0.1,1.17c0.34-0.14,0.67-0.29,1.01-0.43c3.18-2.53,2.42,0.87,3.39,2.06
	c1.46,1.8-1.05,6.23,2.95,5.63c2.02-0.3,2.29-4.34,2.07-6.32c-0.24-2.18,0.82-1.59,1.67-1.81c1.5-0.38,2.22,0.28,2.13,1.84
	c-0.2,3.43,0.18,6.46,4.57,6.96c0.35,0.04,0.73,1.11,0.84,1.74c0.62,3.61-7.58,10.17-11.91,9c1.93,3.32-3.08,4.75-1.61,7.94
	c-0.57-0.05-1.14-0.09-1.71-0.14c0.14-1.2,1.37-2.74-0.31-3.44c-1.23-0.51-2.95-0.56-4.18-0.1c-0.99,0.37-0.22,1.73,0.16,2.62
	c-4.01-0.54-7.78,1.81-11.82,0.98c1.12-2.15,1.75-4.14-1.62-4.77C116.49,197.1,116.18,195.3,116.5,193.38z"/>
<path fill="#442F3E" d="M589.56,204.64c-3.69-9.45,0.25-18.39,1.21-27.66c2.7,0.78,1.67,3.14,2.93,4.2
	c2.94-0.39-0.23-4.74,2.91-4.68c2.2,0.04,0.39,2.71,1.96,3.91c0.12-1.8,3.17-2.42,1.04-4.95c0.96,3.27,2.04,3.97,3.52,2.5
	c2.41-2.39,1.81,3.21,3.96,1.48c0.38,2.93,2.9,6.12-1.05,8.55c-0.26,0.16-0.4,1.14-0.23,1.27c5.5,4.24-1.1,7.16-1.37,10.78
	c-0.19,2.47-3.44-0.8-5.04,0.7c-0.04-2.25-1.72-3.27-3.42-4.63c0,2.37,0,4.5,0,6.62C593.54,202.39,592.16,205.55,589.56,204.64z
	 M605.01,185.37c-2.29-0.94-3.79-1.34-5.5,0.94C601.49,186.31,602.91,186.9,605.01,185.37z"/>
<path fill="#442F3E" d="M851.55,201.75c0.26-5.28-0.93-9.01-6.72-11.48c-3.53-1.5-2.87-7-2.14-10.74c0.47-2.38-1.66-6.14,1.48-6.83
	c1.46-0.32,0.71,4.04,1.64,6.17c0.76,1.76,0.88,3.79,1.43,6.37c2.07-2.51,2.08-4.85,2.5-7.02c0.21-1.1-0.86-2.85,1.69-2.38
	c1.39,0.26,2.96-0.69,2.25,2.27c-0.39,1.63,1.21,3.82,1.39,6c0.05,0.59,2.99,1.53,4.36,1.22c0.86-0.19,1.37-2.37,1.85-3.72
	c0.43-1.21,1.27-3.6,1.86-2.82c1.92,2.56,6.61-1.56,7.21,3.51c0.42,3.51,1.25,6.91-0.11,10.35c-0.16-0.03-0.35-0.01-0.49-0.08
	c-4.76-2.67-5.64-2.57-10.24,1.08c-3.64,1.58-8.23,2.32-7.11,8.08l-0.43,0.06L851.55,201.75z M862.49,188.4
	c-0.21-0.46-0.34-0.74-0.47-1.02c-0.34,0.27-0.75,0.5-0.99,0.85c-0.08,0.12,0.23,0.52,0.37,0.79
	C861.77,188.82,862.13,188.61,862.49,188.4z"/>
<path fill="#442F3E" d="M263.37,183.69c4.96-0.77,6.87-4.27,8-8.64c0.24-0.93-2.04-2.74,0.78-2.81c1.94-0.05,2.44,1.62,2.79,3.03
	c0.59,2.4,0.96,4.53,3.48,6.12c3.85,2.43,4.32-0.98,5.72-2.87c2.59,2.69,3.88,5.75,3.59,9.16c-0.16,1.95,1.08,2.54,1.98,3.69
	c2.71,3.45,1.87,6.73-2.14,7.78c-3.06,0.8-2.27,2.73-2.03,4.67c-0.68-0.04-1.35-0.09-2.03-0.13c0.04-1.94,0.83-3.95-0.38-5.79
	c-1.53,0.19-2.8,2.29-4.14,1.03c-0.92-0.86-1.7-3.17-1.19-4c1.5-2.42,0.75-5.52,3.75-8.13c-3.31,0.51-5.03,1.22-6.57,3.18
	c-3.38,4.3-5.29,3.9-7.25-1.2c-0.79-2.06-1.66-3.7-4.27-3.12C263.43,185,263.4,184.35,263.37,183.69z"/>
<path fill="#442F3E" d="M152.99,204.14c0.03-6.95,1.43-13.96-1.25-20.82c-0.5-1.27-0.3-3.29,0.84-4.79c1.58-2.09,3.99-1.7,3.93,0.19
	c-0.06,1.96,1.82,2.42,1.64,4.17c-0.19,1.89,1.43,3.66,2.97,3.98c2.14,0.44,1.46-2.12,2.12-3.3c0.6-1.08,1.58-2.42,2.58-1.9
	c1.96,1.02,2.83,3.37,3.05,5.31c0.38,3.39-0.53,6.72,1.02,10.25c2.06,4.67-3.2,4.66-5.38,6.61c0,0,0.01-0.07,0.01-0.07
	c-1.25-1.95-7.17,0.96-5.04-4.77c0.04-0.12-2.58-1.66-4.01-1.75c-1.17-0.07-0.8,1.56-0.77,2.48c0.05,1.65,0.24,3.3,0.37,4.96
	C154.29,204.89,153.56,204.82,152.99,204.14z"/>
<path fill="#442F3E" d="M300.95,185.35c0.14-0.29,0.29-0.59,0.43-0.88c1.39,0.28,2.64,1.47,4.42,0.6c-2.72-1.44-1.81-3.78-1.7-5.93
	c3.22,2.09,0.89-2.89,3.65-1.78c2.53,6.24,5.15,0.66,7.96-1.39c1.88,6.5,0.05,12.64,0.35,18.75l0.1-0.12
	c-3.11-0.38-3.51,1.96-4.1,4.1l-0.43,0.04l-0.43-0.02c-0.61-1.56-1.3,0-1.95-0.05c-3.99-1.06-3.81-1.42-3.42-5.55
	c0.1-1.05,0.31-3.72-1.5-4.91c-2.61-1.73-1.91,1.4-2.87,2.08c-3.61,2.54-3.72-0.67-4.65-2.6c2.5,1.43,1.78-1.81,3.09-2.12
	C300.35,185.95,300.68,185.79,300.95,185.35z"/>
<path fill="#442F3E" d="M475.29,206.8c-5.59-6.51-1.93-14.11-2.47-21.21c-0.12-1.6-0.01-1.61,2.09-3.93c0.83,1.9,0.82,4.2,2.79,5.54
	c1.59-0.94-0.58-3.86,1.86-3.86c2.13,0,1.18,1.81,1,3.02c-0.02,0.13,0.12,0.4,0.23,0.42c1.36,0.3,4.39-3.12,3.7,1.89
	c-0.24,1.78,1.47,3.71,0.52,5.78c0.49,0.11,0.97,0.22,1.46,0.33c3.23,4.05-0.22,5.35-2.88,6.97c-0.8-1.03-1.82-1.82-2.25-3.24
	c-0.4-1.33-1.83-1.06-1.87,0.17c-0.1,3-0.9,5.61-2.79,7.92C476.21,206.67,475.75,206.73,475.29,206.8z"/>
<path fill="#442F3E" d="M369.89,205.81c-0.84-6.28-1.51-12.57-0.17-18.87c0.25-1.19-0.81-3.44,1.94-2.75
	c2.07,0.52,4.74-3.39,6.38,1.54c1.74,5.23,4.27,9.95,3.3,15.88c-0.43,2.64-0.68,3.94-3.28,2.98c-2.93-1.09-2.16,0.73-2.07,2.18
	c-0.69-0.14-1.37-0.28-2.06-0.42c-0.12-3.96,1.71-8.12-1.69-13.11c-0.8,4.98-1.68,8.67-1.39,12.55l-0.48,0.08L369.89,205.81z"/>
<path fill="#442F3E" d="M59.66,201.76c-0.24-2.43,1.12-5.86-3.47-5.59c-0.14-2.53-3.32-2.88-3.05-6.99
	c0.34-5.2,7.49-6.88,4.75-12.41c-0.22-0.45,1.15-0.9,2.02-0.85c1.18,0.07,1.63,0.57,1.85,1.82c0.35,1.96-0.33,5.44,2.26,5.22
	c2.27-0.19,1.12-3.98,2.14-5.77c0.91-1.58-0.58-4.62,1.29-4.51c3.02,0.18,0.58,3.11,1.13,4.77c0.53,1.61,0.14,3.51,0.16,5.29
	c0.04,3.99-0.56,7.33-5.03,9.18c-4.42,1.83-3.06,6.23-3.14,9.85l-0.45,0.05L59.66,201.76z"/>
<path fill="#442F3E" d="M535.2,206.84c-0.8-0.54,1.85-3.62-1.79-2.22c-2.58,0.99-2.97-0.39-3.27-3.08
	c-0.7-6.25,1.31-11.59,4.07-16.84c0.53-1.01,1.36-3.41,3-0.93c2.01,3.02,2.58,0.18,3.49-1.15c2.71,6.85,2.64,17.07-0.19,19.81
	c-1.03-3.07,0.39-6.35-2.03-9.31c-0.74,4.53-1.47,9.07-2.21,13.6C535.92,206.76,535.56,206.8,535.2,206.84z"/>
<path fill="#442F3E" d="M642.65,192.69c-2.22-0.17-4.5,0.78-5.98-2.42c-0.91-1.98-3.5,0.33-5.37,0.29
	c-4.27-1.48-3.35-4.22-1.73-7.13c4.22-2.16,7.66-4.82,6.59-10.34c-0.22-1.12,0.54-0.94,1.11-0.88c0.96,0.1,2.75,0.31,2.75,0.46
	c-0.04,4.09,2.64,6.81,4.28,10.12C645.51,185.21,643.32,189.32,642.65,192.69z"/>
<path fill="#442F3E" d="M316.08,194.72c2.79-1.77,1.8-4.68,2-7.13c0.28-3.46-0.03-6.97,1.18-10.46c2.51,2.98,3.34,5.17,3.86,13.6
	c0.29,4.62,1.66,9.39-0.66,13.92c-2.13,0.45-4.05-0.03-5.82-1.24c1.79-3.04,0.27-5.91-0.47-8.82L316.08,194.72z"/>
<path fill="#442F3E" d="M784.37,179.49c3.98,0.68,3.79-1.23,2.46-4.52c-2.28,4.99,2.3,8.15,1.69,12.28c2.13-1.6,1.12-4.14,2.7-6.28
	c1.37,3.09,1.37,6,1.37,9.03c0,1.18-0.6,4.95,3.08,2.6c0.27,2.3-0.58,4.39-1.24,6.51c-3.67-0.09-3.47,1.88-2.31,4.35
	c-0.58,0.06-1.16,0.11-1.75,0.17c1.14-2.39-0.25-4.82,0.16-7.25c0.49-2.88-0.85-4.43-3.81-4.48c-1.31-2.28-2.85-4.47-3.84-6.88
	C782.06,183.05,781.76,180.76,784.37,179.49z"/>
<path fill="#442F3E" d="M195.53,200.94c-1.17-3.28-4.73-5.53-4.26-9.47c0.39-3.26,0.95-6.51,1.68-9.71
	c0.15-0.66,1.48-0.73,2.03,0.14c1.62,2.53,1.68,2.55,3.27-0.24c0.94,1.52,0.29,3.18,0.54,4.73c-0.72,0.6-0.99,1.22-0.38,2.12
	c1.89,2.79,1.69,5.26-1.89,7.13c1.86,0.87,4.64-0.19,4.03,2.89c-2.36-0.01-2.23,1.33-1.59,2.94
	C197.76,201.68,196.53,202.1,195.53,200.94z"/>
<path fill="#442F3E" d="M412.14,186.61c-0.91-2.43-0.66-4.72,0.66-7.09c1.59,1.1,1.67,2.63,2.13,3.99c0.36,1.07,0.61,2.26,2.31,1.98
	c1.88-0.31,2.02-1.65,1.61-2.88c-1.06-3.14,0.35-5.57,1.85-8.9c2.25,7.38,3.05,14.15,3.41,20.98c-2.48,0.28-4.57-1.03-5.2-2.99
	c-1.08-3.34-2.83-1.4-4.45-1.13l0.02,0.02C414.26,188.94,415.03,186.7,412.14,186.61z"/>
<path fill="#442F3E" d="M50.73,185.61c2.78,1.67-0.38,3.29-0.05,4.94c-1.98,0.36-2.99-0.96-4.29-2.86c-0.91,2.71-2.47,4.4-5,4.93
	c-0.9-7.36-0.46-14.14,1.22-17.41c1.79,1.4-0.41,5.73,3.73,5.22c0.36,0.01,0.73,0.02,1.09,0.03l-0.01-0.01
	c0.36,2.32-0.26,4.26-2.62,5.32C47.23,187.66,48.73,184.05,50.73,185.61z"/>
<path fill="#442F3E" d="M576.56,180.83c1.85,1.65,3.69,3.3,6.11,5.46c0.09-3.21,1.2-5.74,0.49-8.48c-0.27-1.04,0.24-1.76,1.08-1.86
	c1.59-0.19,1.43,0.84,1.03,1.9c-0.11,0.3-0.22,0.72-0.09,0.97c2.8,5.46,2.21,9.89-3.8,12.7
	C578.12,188.7,575.97,185.38,576.56,180.83z"/>
<path fill="#442F3E" d="M176.58,195.7c-2.09-5.1,0.2-10.28-0.24-15.41c-0.08-0.94,0.31-1.72,1.27-1.85
	c1.61-0.21,1.16,1.15,1.33,1.99c0.38,1.83,0.16,4.64,3.22,1.9c-1.82,2.49,1.28,7.42-4.18,8.22c-0.97,0.14-0.26,1.39,0.24,2.05
	C179.95,194.85,178.69,195.5,176.58,195.7z"/>
<path fill="#442F3E" d="M566.8,188.13c0.91,0.77,1.91,0.96,3.03,0.5c0.57,0.34,1.15,0.67,1.72,1.01c-2.6,1.79-0.35,5.51-0.83,5.87
	c-3.89,2.9,0.13,4.09,0.92,5.91c-3.93-0.31-5.74,1.56-5.57,5.44c0,0-0.05,0.01-0.05,0.01c-0.43-3.4-0.9-6.79-0.44-10.23
	c1.14-1.01,1.11-2.01-0.02-3.01c-0.08-0.29-0.1-0.59-0.08-0.88c0-0.44,0-0.88-0.01-1.32c-0.04-0.29-0.02-0.58,0.06-0.86
	C565.96,189.77,566.38,188.95,566.8,188.13z"/>
<path fill="#442F3E" d="M717.58,186.57c4.6,2.06,0.54,6.37,2.38,9.14c-2.25,0.96-2.61,2.93-2.68,5.04c-2.81,0.18-2.79-1.76-2.77-3.7
	c0.02-3.84,0.04-7.69,0.06-11.53c0.9,0.79,1.8,1.6,3.15,1.18L717.58,186.57z"/>
<path fill="#442F3E" d="M549.2,198.63c-2.92-4.45-0.96-9.45-1.61-14.16c-0.14-1.03,0.72-1.61,1.49-1.58
	c1.1,0.05,0.66,1.04,0.82,1.81c0.71,3.38,0.25,7.08,2.46,10.09C551.93,196.58,551.68,198.51,549.2,198.63z"/>
<path fill="#442F3E" d="M731.77,184.59c0.44-1.12,0.49-2.4,2.45-2.09c1.86,0.3,1.59,1.24,1.29,2.4c-0.82,3.2,3.2,6.79-0.8,9.72
	c-0.73-0.16-2.59,0.39-1.7-1.04c1.59-2.57-0.04-4.69-0.17-7c-0.02-0.88,0.83-2.23-1.11-2.1L731.77,184.59z"/>
<path fill="#442F3E" d="M15.02,186.36c-3.43-2.05-0.86-4.97-1.18-7.48c-0.21-1.58,0.9-2.17,1.37-3.22c0.11,0.21,0.18,0.44,0.32,0.61
	c0.76,0.93,0.8,2.59,2.55,2.52C20.18,182.58,14.53,183.23,15.02,186.36z"/>
<path fill="#442F3E" d="M244.19,182.69c0.07,0.24,0.11,0.48,0.12,0.72c-2.8-0.24-0.17,4.24-2.66,3.43c-2.56-0.83-1.31-3.7-1.58-5.71
	c-0.07-0.49-0.01-0.99-0.02-1.49c1.73-0.56,2.08-2.47,3.36-3.81c1.02,2,1.94,3.64,1.63,5.66
	C244.76,181.9,244.48,182.3,244.19,182.69z"/>
<path fill="#442F3E" d="M710.51,182.5c2.13-1.94,3.04-1.68,3.79,1.06c-0.23,1.31-0.71,2.63-0.64,3.91c0.22,3.75-1.47,4.85-5.29,3.84
	C710.13,188.59,711.34,185.74,710.51,182.5z"/>
<path fill="#442F3E" d="M425.61,196.68c0.23-3.16,1.81-6.12,1.4-9.35c-0.1-0.8,0.02-1.36,0.79-1.46c0.39-0.05,0.96,0.26,1.24,0.59
	c1.46,1.73-0.19,9.82-2.27,11.29C426.39,197.38,426,197.03,425.61,196.68z"/>
<path fill="#442F3E" d="M226.36,187.42c-1.24-2.95-0.26-5.7,0.85-8.73c1.05,1.53,1.25,3.47,2.82,4.45
	C229.66,185.3,229.21,187.39,226.36,187.42z"/>
<path fill="#442F3E" d="M-1.24,185.66c3.29-1.81,1.16-6.28,4.06-8.28c-0.64,4.01-0.15,8.4-3.88,11.36c-0.11-0.13-0.21-0.27-0.3-0.42
	C-1.32,187.44-1.28,186.55-1.24,185.66z"/>
<path fill="#442F3E" d="M388.39,183.53c-0.68-2.44-0.42-4.75,1.04-7.73c1,3.01,3.05,4.87,1.98,7.65
	C390.41,183.48,389.4,183.5,388.39,183.53z"/>
<path fill="#442F3E" d="M233.34,192.75c-1.87-0.06-3.92,0.71-4.97-1.17c-0.24-0.44,0.38-1.95,0.86-2.09
	C231.81,188.75,231.33,192.33,233.34,192.75z"/>
<path fill="#442F3E" d="M417.41,199.42c-0.98-1.24-1.56-1.79-1.48-1.9c1.09-1.64-1.57-2.94-0.37-4.47c0.14-0.18,1.14-0.05,1.29,0.2
	C417.85,194.94,417.78,196.7,417.41,199.42z"/>
<path fill="#442F3E" d="M43.35,201.66c0.64-1.56-2.71-2.15-0.97-3.98c2.27,0.31,3.36,1.61,2.8,3.84
	C44.9,202.66,44.04,202.47,43.35,201.66z"/>
<path fill="#442F3E" d="M224.9,190.76c-0.19-1.39,0.41-2.36,1.61-3.01c-0.21,1.21-0.15,2.57-0.72,3.58
	C225.29,192.25,224.99,191.35,224.9,190.76z"/>
<path fill="#442F3E" d="M709.13,179.41c-0.17,0.71-0.34,1.42-0.51,2.13C707.07,180.42,707.51,179.77,709.13,179.41z"/>
<path fill="#442F3E" d="M889.7,179.81c0.28,0.12,0.57,0.24,0.85,0.36c-0.13,0.28-0.19,0.71-0.41,0.81c-0.18,0.09-0.54-0.2-0.82-0.31
	C889.44,180.37,889.57,180.09,889.7,179.81z"/>
<path fill="#442F3E" d="M51.9,195.75c0,0,0.32,0.22,0.32,0.22s-0.07,0.38-0.07,0.38c-0.5,0.04-1.07,0.49-1.44-0.25
	C51.11,195.99,51.5,195.87,51.9,195.75z"/>
<path fill="#442F3E" d="M71.64,183.53c-0.54-0.1-0.98-0.57-0.57-0.91c0.93-0.75,1.48-0.04,1.84,0.82
	C72.49,183.47,72.06,183.5,71.64,183.53z"/>
<path fill="#442F3E" d="M42.38,195.63c-0.73,0.05-1.02-0.28-0.86-1C41.8,194.97,42.09,195.3,42.38,195.63z"/>
<path fill="#442F3E" d="M182.15,182.37c0.29-0.22,0.57-0.44,0.86-0.66c0.09,0.26,0.18,0.52,0.28,0.77
	C182.91,182.45,182.53,182.41,182.15,182.37z"/>
<path fill="#442F3E" d="M549.23,199.87c-0.24-0.15-0.49-0.29-0.73-0.44c0.24-0.28,0.49-0.56,0.73-0.83
	C549.23,199.02,549.23,199.45,549.23,199.87z"/>
<path fill="#442F3E" d="M414.45,190.58c-0.06,0.1-0.11,0.21-0.17,0.31c0.06-0.1,0.12-0.2,0.18-0.29
	C414.47,190.6,414.45,190.58,414.45,190.58z"/>
<path fill="#442F3E" d="M460.15,207.9c-0.09,0.11-0.19,0.22-0.28,0.33c-0.07-0.07-0.13-0.13-0.2-0.2c0.11-0.09,0.22-0.18,0.33-0.28
	C460.01,207.76,460.15,207.9,460.15,207.9z"/>
<path fill="#442F3E" d="M750.67,188.16c1.43-3.31,2.78-6.63,4.31-9.88c0.37-0.79,0.8-2.19,1.93-1.88c0.82,0.22,1.64,1.21,2.05,2.06
	c1.4,2.95,0.78,6.23,0.01,9c-0.75,2.66-2.6,4.9-1.16,7.91c0.32,0.66-0.5,1.37-1.38,1.79c-2.01,0.95-4.89,0.59-4.51,4.7
	c0.2,2.09-3.7,1.12-5.53,1.36c-1.27,0.17-5.33-1.36-4.75-2.95c1.89-5.25-0.44-10.97,2.29-16c0.53-0.98,0.4-2.56,1.77-2.68
	c1.48-0.12,2.36,1.05,2.8,2.43C749.01,185.55,749.33,187.16,750.67,188.16z"/>
<path fill="#442F3E" d="M172.86,185.52c-4.34-2.21-1.35-5.66-1.39-8.65c0-0.27,0.53-1.28,1.45-0.84c0.76,0.37,0.36,1.05,0.52,1.57
	C174.3,180.46,172.36,182.98,172.86,185.52z"/>
<path fill="#442F3E" d="M717.72,186.71c0.27-2.62-1.76-4.92-0.99-7.63c0.18-0.62,0.08-1.4,0.91-1.48c0.42-0.04,1.25,0.29,1.27,0.49
	c0.21,2.91,2.71,6.23-1.32,8.47C717.58,186.57,717.72,186.71,717.72,186.71z"/>
<path fill="#311B2B" d="M304.11,179.13c-0.11,2.15-1.02,4.49,1.7,5.93c-1.79,0.87-3.03-0.32-4.42-0.6c0.08-2.69-1.73-5.53,0.63-8.05
	c0.52,0.01,1.04,0.02,1.56,0.03C303.75,177.34,303.93,178.24,304.11,179.13z"/>
<path fill="#311B2B" d="M50.73,185.61c-2-1.56-3.51,2.05-5.92,0.16c2.36-1.06,2.98-3,2.62-5.32c0.75-0.03,1.49-0.05,2.24-0.08
	C49.72,182.18,52.39,183.46,50.73,185.61z"/>
<path fill="#442F3E" d="M585.11,201.61c0.38-0.24,0.6-0.29,0.66-0.42c1.13-2.49,1.67-5.01,0.11-7.51c-0.12-0.19-1.18-0.14-1.29,0.06
	C583.18,196.46,583.62,199.03,585.11,201.61z"/>
<path fill="#311B2B" d="M566.8,188.13c-0.42,0.82-0.84,1.63-1.27,2.45c-1.22-1.33-0.39-2.72-0.1-4.08c0.46-0.01,0.91-0.01,1.37-0.02
	C567.4,187.03,567.19,187.58,566.8,188.13z"/>
<path fill="#442F3E" d="M303.57,176.44c-0.52-0.01-1.04-0.02-1.56-0.03c-0.14-0.97-0.28-2.3,0.95-2.24
	C304.38,174.25,303.83,175.54,303.57,176.44z"/>
<path fill="#442F3E" d="M174.03,173.8c-0.54,0.46-0.88,0.75-1.23,1.04c-0.35-0.49-0.77-0.94-0.99-1.48
	c-0.06-0.15,0.69-0.83,0.77-0.79C173.09,172.88,173.5,173.32,174.03,173.8z"/>
<path fill="#311B2B" d="M565.56,193.64c1.13,1,1.15,2,0.02,3.01C565.56,195.65,564.56,194.65,565.56,193.64z"/>
<path fill="#442F3E" d="M49.67,180.37c-0.75,0.03-1.49,0.05-2.24,0.08c0,0,0.01,0.01,0.01,0.01c0-0.35-0.01-0.69-0.01-1.04
	C48.99,177.83,49.45,178.82,49.67,180.37z"/>
<path fill="#311B2B" d="M-1.24,185.66c-0.04,0.89-0.08,1.78-0.12,2.67c-0.29-0.94-0.58-1.88-0.88-2.81
	C-1.91,185.56-1.57,185.61-1.24,185.66z"/>
<path fill="#442F3E" d="M566.81,186.48c-0.46,0.01-0.91,0.01-1.37,0.02c0.2-0.75,0.4-1.5,0.59-2.26
	C566.29,184.99,566.55,185.73,566.81,186.48z"/>
<path fill="#311B2B" d="M869.79,196.56c0.11-0.34,0.05-0.64-0.19-0.9c0.57-1.39,1.61-0.5,1.74-0.02
	C871.72,197.12,870.36,196.28,869.79,196.56z"/>
<path fill="#311B2B" d="M300.95,185.35c-0.27,0.44-0.6,0.6-1.05,0.22C300.25,185.49,300.6,185.42,300.95,185.35z"/>
<path fill="#311B2B" d="M244.19,182.69c0.28-0.4,0.57-0.8,0.85-1.2C245.19,182.2,244.73,182.48,244.19,182.69z"/>
<path fill="#311B2B" d="M47.43,179.42c0,0.35,0.01,0.69,0.01,1.04c-0.36-0.01-0.73-0.02-1.09-0.03
	C46.71,180.1,47.07,179.76,47.43,179.42z"/>
<path fill="#311B2B" d="M765.39,176.68c0.27-0.2,0.55-0.4,0.82-0.6c0,0.09,0.02,0.23-0.01,0.25c-0.27,0.14-0.54,0.25-0.82,0.37
	C765.38,176.7,765.39,176.68,765.39,176.68z"/>
<path fill="#311B2B" d="M210.63,176.75c-0.38-0.23-0.76-0.47-1.14-0.7c1.04-0.75,0.79,0.38,1.08,0.73
	C210.58,176.78,210.63,176.75,210.63,176.75z"/>
<path fill="#311B2B" d="M565.48,191.44c0,0.44,0,0.88,0.01,1.32C564.43,192.33,564.44,191.89,565.48,191.44z"/>
<path fill="#311B2B" d="M605.01,185.37c-2.11,1.53-3.53,0.93-5.5,0.94C601.23,184.03,602.73,184.43,605.01,185.37z"/>
<path fill="#311B2B" d="M862.49,188.4c-0.36,0.21-0.73,0.41-1.09,0.62c-0.13-0.27-0.45-0.67-0.37-0.79
	c0.24-0.34,0.65-0.57,0.99-0.85C862.16,187.66,862.29,187.94,862.49,188.4z"/>
<path fill="#311B2B" d="M895.81,196.24c0,0.9,0,1.79,0,2.69c-0.14,0.01-0.27,0.02-0.4,0.03c-0.13-0.91-0.27-1.83-0.4-2.74
	C895.27,196.23,895.54,196.23,895.81,196.24z"/>
<path fill="#311B2B" d="M860.05,198.25c-1.44,0.78-1.61,0.18-1.18-1.08C859.26,197.53,859.66,197.89,860.05,198.25z"/>
</svg>
